<?xml version="1.0" encoding="utf-8"?>
<!-- Generator: Adobe Illustrator 23.0.1, SVG Export Plug-In . SVG Version: 6.00 Build 0)  -->
<svg version="1.1" id="Ebene_1" xmlns="http://www.w3.org/2000/svg" xmlns:xlink="http://www.w3.org/1999/xlink" x="0px" y="0px"
	 viewBox="0 0 150 150" style="enable-background:new 0 0 150 150;" xml:space="preserve">
<style type="text/css">
	.st0{fill:#3C3C3B;}
	.st1{fill:#9C9B9B;}
</style>
<g>
	<path class="st0" d="M27.4,95.7c0,0,0.5-2.7-1.9-1.9s-7,6-6.4,7.1C19.7,102,27.4,95.7,27.4,95.7z"/>
	<path class="st0" d="M63.9,119c0,0,2.9,0,2.7,1.3c-0.2,1.4-3.9,6.6-5.6,7c-1.7,0.4-2.6,0-2.6,0L63.9,119z"/>
	<path class="st0" d="M18,103.9c0,0-10.5,10-8.3,9s8.9-6.6,8.9-6.6L18,103.9z"/>
	<path class="st0" d="M53.5,129.2c0,0-2.5,4-3.3,5.4c-0.8,1.4-3.5,5.4-2.5,4.3c1-1.1,8.8-9.9,8.8-9.9L53.5,129.2z"/>
	<path class="st0" d="M54.9,69.2c0,0,36.5,23.2,36.3,22C91,90,60.8,69.5,59.2,68.5C57.6,67.4,54.9,69.2,54.9,69.2z"/>
	<path class="st1" d="M17.7,102.6c0,0,43.9-35.2,45-35.1s1.1,0.1,1.1,0.1S102.5,35.9,104,36c1.5,0,7-1.6,4.9,1s-91.2,73.6-92.1,72.4
		C16.1,108.1,17.7,102.6,17.7,102.6z"/>
	<path class="st1" d="M115.5,38.7c0,0-0.2,5.1-0.6,6.8c-0.4,1.7-24.1,32.5-24.1,34.2c0,1.6-31.1,48.5-33.5,49.9
		c-2.4,1.3-7.6,3.5-7.2,1.8c0.4-1.7,59.9-88.1,61.1-89.3C112.3,40.8,115.5,38.7,115.5,38.7z"/>
	<path class="st1" d="M78.4,71.2L66.4,83.8c0,0-1,1.3,0.1,1.8s1.6,0.2,2-0.2C68.9,85,81,74.2,80.8,73.3
		C80.7,72.3,78.4,71.2,78.4,71.2z"/>
	<path class="st1" d="M121.6,45.4c1-3.3,1.8-6.9-0.6-9.8c-2.4-2.9-5.8-4.9-5.8-4.9s-5.2-3.6-12.8,0.3c-7.6,3.9-7.5,9.9-6.5,12.3
		c1.1,2.5,4.8,7.6,11.1,8.9C113.4,53.5,120.6,48.7,121.6,45.4z M115.9,47.3c-3.9,3.3-9.8,3.1-12.9,0.6s-3.7-5.5-3.6-8.1
		c0.1-2.6,2-6.5,6.2-7.7c4.2-1.1,8,0.7,8,0.7s2.7,1.6,4.8,4.9C120.4,41.1,119.8,44,115.9,47.3z"/>
	<path class="st0" d="M114.1,30.3l19.6-21.1c0,0,3-0.7,4.6,1.4c1.6,2,1.1,3.4,1.1,3.4L120,34.8c0,0-1.8-0.6-4-2
		C113.8,31.4,114.1,30.3,114.1,30.3z"/>
</g>
</svg>
