<?xml version="1.0" encoding="utf-8"?>
<!-- Generator: Adobe Illustrator 23.0.1, SVG Export Plug-In . SVG Version: 6.00 Build 0)  -->
<svg version="1.1" id="Ebene_1" xmlns="http://www.w3.org/2000/svg" xmlns:xlink="http://www.w3.org/1999/xlink" x="0px" y="0px"
	 viewBox="0 0 300 300" style="enable-background:new 0 0 300 300;" xml:space="preserve">
<style type="text/css">
	.st0{fill:#422918;}
	.st1{opacity:0.7;fill:#ECECEC;}
</style>
<path class="st0" d="M202.88,48.1c-0.89,1.62-27.94,36.96-31.44,44.7s-3.5,7.74-3.5,7.74s8.49-9.84,30.44-15.76s31.5-7.47,31.5-7.47
	l3.28,13.63c0,0-36.15-0.72-53.15,10.4s-29.33,23.81-29.33,23.81s-7.98-5.81-8.36-7.38l41.22-63.78c0,0,8.86-6.16,12.35-5.98
	S202.88,48.1,202.88,48.1z"/>
<path class="st0" d="M85.82,228.9c0,0,6.74-38.29,10.88-46.05s16.5-23.77,16.5-23.77l-61.6,49.16l-1.19-11.69l67.14-56.02l10.49,9.1
	c0,0-18.64,17.52-21.72,36.02s-6.97,47.69-6.97,47.69s-9.14,2.85-12.92,2.52C83.47,235.6,85.82,228.9,85.82,228.9z"/>
<path class="st1" d="M53.28,207.13c0,0-4.19-9.98,4.81-23c9-13.03,38.61-41.75,49.95-43.46s28.79,15.04,30.04,30.83
	c1.25,15.79,7.49,29.49-17.38,49.79s-41.79,8.92-53.15,2.07C56.18,216.52,53.28,207.13,53.28,207.13z"/>
<path class="st1" d="M143.35,115.81c0,0-4.59-8.12,1.29-19.76c5.88-11.64,33.62-39.65,44.49-45.46c10.86-5.81,19.61-0.77,28.21,8.4
	c8.6,9.17,16.88,26.59,13.27,39.72s-13.64,23.98-34.25,31.75s-35.29-1-41.74-3.91C148.17,123.65,143.35,115.81,143.35,115.81z"/>
<path class="st0" d="M278.28,61.69c-5.34,1.16-38.18,12.26-38.18,12.26s-5.25-12.79-13.19-21.35s-14.82-14.31-11.75-16.97
	c3.07-2.65,4.26-4.6,1.98-6.1c-2.28-1.5-8.27-8.87-13.51-5.18s-33.68,21.91-51.47,45.1c-17.79,23.19-20.94,39.79-23.96,43.71
	c-3.02,3.92-11.3,10.9-12.19,12.52c-0.89,1.62-2.81,1.06-2.81,1.06S99.84,125.37,63.84,161c-36,35.62-38.14,53.77-38.14,53.77
	s10.29,11.96,13.35,9.3c3.06-2.65,2.21-8.32,7.07-5.66c4.86,2.66,16.35,21.22,35.16,23.98c0,0-5.42,31.58-7.2,34.82
	c-1.77,3.24,3.08,5.9,9.34,3.75s10.21-6.42,13.28-16.99c3.07-10.58,3.38-18.83,3.38-18.83s21,2.35,39.84-26.59
	s14.14-43.64,10.88-53.97c-3.26-10.33-15.49-23.48-15.49-23.48l7.9-8.55c0,0,21.97,27.03,54.93,11.16
	c32.97-15.86,45.05-30.91,45.22-42.96c0.16-12.05,0.16-12.05,0.16-12.05s28.25-6.81,31.8-13.28
	C278.88,68.96,283.62,60.53,278.28,61.69z M138.08,171.5c1.25,15.79,7.49,29.49-17.38,49.79c-24.87,20.3-41.79,8.92-53.15,2.07
	c-11.36-6.84-14.26-16.24-14.26-16.24s-4.19-9.98,4.81-23c9-13.03,38.61-41.75,49.95-43.46S136.83,155.71,138.08,171.5z
	 M217.05,59.74c8.6,9.17,16.88,26.59,13.27,39.72c-3.61,13.13-13.64,23.98-34.25,31.75s-34.6-1.5-41.05-4.42
	c-6.45-2.92-11.5-10.64-11.5-10.64s-5.05-7.72,0.83-19.36c5.88-11.64,33.62-39.65,44.49-45.46
	C199.7,45.53,208.45,50.57,217.05,59.74z"/>
</svg>
