<?xml version="1.0" encoding="utf-8"?>
<!-- Generator: Adobe Illustrator 23.0.1, SVG Export Plug-In . SVG Version: 6.00 Build 0)  -->
<svg version="1.1" id="Ebene_1" xmlns="http://www.w3.org/2000/svg" xmlns:xlink="http://www.w3.org/1999/xlink" x="0px" y="0px"
	 viewBox="0 0 150 150" style="enable-background:new 0 0 150 150;" xml:space="preserve">
<style type="text/css">
	.st0{fill:#422918;}
	.st1{opacity:0.7;fill:#ECECEC;enable-background:new    ;}
</style>
<path class="st0" d="M101.5,20c-0.5,0.8-14.2,18.6-16,22.5c-1.8,3.9-1.8,3.9-1.8,3.9s4.3-5,15.5-7.9c11.2-3,16.1-3.8,16.1-3.8
	l1.7,6.9c0,0-18.4-0.4-27.1,5.2s-15,12-15,12s-4.1-2.9-4.3-3.7l21-32.1c0,0,4.5-3.1,6.3-3C99.7,20,101.5,20,101.5,20z"/>
<path class="st0" d="M41.8,111c0,0,3.4-19.3,5.5-23.2c2.1-3.9,8.4-12,8.4-12l-31.4,24.7l-0.6-5.9L58,66.5l5.3,4.6
	c0,0-9.5,8.8-11.1,18.1c-1.6,9.3-3.6,24-3.6,24s-4.7,1.4-6.6,1.3C40.6,114.3,41.8,111,41.8,111z"/>
<path class="st1" d="M25.3,100c0,0-2.1-5,2.5-11.6c4.6-6.6,19.7-21,25.5-21.9s14.7,7.6,15.3,15.5s3.8,14.8-8.9,25s-21.3,4.5-27.1,1
	C26.7,104.7,25.3,100,25.3,100z"/>
<path class="st1" d="M71.2,54.1c0,0-2.3-4.1,0.7-9.9S89,24.2,94.5,21.2c5.5-2.9,10-0.4,14.4,4.2s8.6,13.4,6.8,20s-7,12.1-17.5,16
	s-18-0.5-21.3-2C73.6,58,71.2,54.1,71.2,54.1z"/>
<path class="st0" d="M140,26.8c-2.7,0.6-19.5,6.2-19.5,6.2s-2.7-6.4-6.7-10.7s-7.6-7.2-6-8.5c1.6-1.3,2.2-2.3,1-3.1
	c-1.2-0.8-4.2-4.5-6.9-2.6c-2.7,1.9-17.2,11-26.2,22.7s-10.7,20-12.2,22c-1.5,2-5.8,5.5-6.2,6.3c-0.5,0.8-1.4,0.5-1.4,0.5
	S49,58.9,30.6,76.8c-18.4,17.9-19.4,27.1-19.4,27.1s5.2,6,6.8,4.7c1.6-1.3,1.1-4.2,3.6-2.8c2.5,1.3,8.3,10.7,17.9,12.1
	c0,0-2.8,15.9-3.7,17.5c-0.9,1.6,1.6,3,4.8,1.9s5.2-3.2,6.8-8.5c1.6-5.3,1.7-9.5,1.7-9.5s10.7,1.2,20.3-13.4s7.2-22,5.5-27.2
	s-7.9-11.8-7.9-11.8l4-4.3c0,0,11.2,13.6,28,5.6c16.8-8,23-15.6,23.1-21.6c0.1-6.1,0.1-6.1,0.1-6.1s14.4-3.4,16.2-6.7
	C140.3,30.5,142.7,26.2,140,26.8z M68.5,82.1c0.6,7.9,3.8,14.8-8.9,25s-21.3,4.5-27.1,1c-5.8-3.4-7.3-8.2-7.3-8.2s-2.1-5,2.5-11.6
	c4.6-6.6,19.7-21,25.5-21.9S67.8,74.1,68.5,82.1z M108.7,25.9c4.4,4.6,8.6,13.4,6.8,20s-7,12.1-17.5,16s-17.6-0.8-20.9-2.2
	s-5.9-5.4-5.9-5.4s-2.6-3.9,0.4-9.7c3-5.9,17.1-19.9,22.7-22.9C99.9,18.7,104.4,21.2,108.7,25.9z"/>
</svg>
