<?xml version="1.0" encoding="utf-8"?>
<!-- Generator: Adobe Illustrator 23.0.1, SVG Export Plug-In . SVG Version: 6.00 Build 0)  -->
<svg version="1.1" id="Ebene_1" xmlns="http://www.w3.org/2000/svg" xmlns:xlink="http://www.w3.org/1999/xlink" x="0px" y="0px"
	 viewBox="0 0 150 150" style="enable-background:new 0 0 150 150;" xml:space="preserve">
<style type="text/css">
	.st0{fill:#A1A28F;}
	.st1{fill:#DEDCD0;}
	.st2{fill:#E6E2D7;}
	.st3{fill:#575C5A;}
	.st4{fill:#DAE1D9;}
	.st5{fill:#422918;}
	.st6{fill:#F5F5F5;}
</style>
<path class="st0" d="M106.6,83c0.3,0,6.2,0.6,6,8.3c-0.2,7.7,0,13.4-6.7,18.2s-9,5.7-9,5.7l1.4,2.5c0,0,7.8-3.8,11-6.3
	c3.2-2.5,4.5-4.6,5.2-6.8c0.7-2.2,1.1-7.9,0.2-13.3c-0.9-5.4-2.5-6.5-4-7.4C109.2,83,106.6,83,106.6,83z"/>
<path class="st1" d="M99.5,79.3c0,0,10.3-2.1,14.4,4.5c4.1,6.6,3.3,17.5-0.1,24.4s-16.3,13.3-16.3,13.3l0.9-4.8
	c0,0,10.4-4.3,14.4-9.6s1.9-19.3-0.7-21.7c-2.6-2.4-13.1-1.1-13.1-1.1L99.5,79.3z"/>
<path class="st2" d="M42,75.3c0,0-0.7,47.4,0.6,51c1.2,3.6,6.1,9.8,22.3,10.7c16.2,0.9,24.5-3.3,30.4-6.2c5.9-2.9,5-56.9,5-56.9
	s-9.4,3.2-17.5,3.4C74.7,77.6,42,75.3,42,75.3z"/>
<path class="st3" d="M40.3,72.5c0,0,0.4-1.8,11.1-2.9c10.7-1.1,33.7-0.2,41,0.6c7.4,0.7,10.3,2.1,9.3,4.1c-1,2.1-4.2,3.4-13.8,3.7
	s-23.6,0.8-34-0.1c-10.4-0.9-13-1.8-13.7-3.1C39.4,73.5,40.3,72.5,40.3,72.5z"/>
<path class="st4" d="M42.1,72.5c0,0,1.9-0.9,5.6-1.5C51.4,70.4,64.8,70,71,70c6.2,0,20.8,0.6,24.5,1.2c3.7,0.7,6.3,2.1,3,2.8
	c-3.4,0.7-16.7,2.7-24.8,2.4s-15.6-0.5-23-1.2c-7.4-0.7-8.6-1.5-8.8-1.9C41.8,72.9,42.1,72.5,42.1,72.5z"/>
<path class="st5" d="M44,73.4c0,0,1.1-0.3,4.7-0.7c3.6-0.4,16.4-0.6,22.4-0.6S91,72.5,94.6,73c3.6,0.5,5.6,1.1,2.4,1.6
	c-3.2,0.5-16.1,2.2-23.8,1.9c-7.7-0.3-13.7-0.4-20.8-0.9s-8.8-1.4-9-1.6C43.2,73.7,44,73.4,44,73.4z"/>
<path class="st6" d="M70.5,71.1c0,0,3.2-8.9-3-12.4s-24-7.8-25.6-14.8c-1.6-7,1.1-11.3,10.5-12.4c9.4-1.1,29.9-2.4,24.8-5.9
	c-5.1-3.5-10.2-5.1-14.5-6.7c-7.2-2.7-9.7-3.8-3.8-3.2c5.9,0.5,16.7,4.8,22.3,8.1c5.8,3.3,8.1,9.4-3.2,10.8S47.4,36.7,50.9,42
	c3.5,5.4,16.4,9.4,19.4,13.2c3,3.8,4.6,8.3,3.2,12.1c-1.3,3.8-5.7,7.5-4.3,5.7C70.5,71.1,70.5,71.1,70.5,71.1z"/>
</svg>
