<?xml version="1.0" encoding="utf-8"?>
<!-- Generator: Adobe Illustrator 23.0.1, SVG Export Plug-In . SVG Version: 6.00 Build 0)  -->
<svg version="1.1" id="Ebene_1" xmlns="http://www.w3.org/2000/svg" xmlns:xlink="http://www.w3.org/1999/xlink" x="0px" y="0px"
	 viewBox="0 0 300 300" style="enable-background:new 0 0 300 300;" xml:space="preserve">
<style type="text/css">
	.st0{fill:#A1A28F;}
	.st1{fill:#DEDCD0;}
	.st2{fill:#E6E2D7;}
	.st3{fill:#575C5A;}
	.st4{fill:#DAE1D9;}
	.st5{fill:#422918;}
	.st6{fill:#F5F5F5;}
</style>
<path class="st0" d="M205.61,162.01c0.57,0,12.51,1.14,12.13,16.87c-0.38,15.73,0,27.29-13.64,36.95
	c-13.64,9.66-18.38,11.56-18.38,11.56l2.84,5.12c0,0,15.92-7.77,22.36-12.89c6.44-5.12,9.1-9.29,10.61-13.83s2.27-16.11,0.38-27.1
	c-1.9-10.99-5.12-13.27-8.15-14.97S205.61,162.01,205.61,162.01z"/>
<path class="st1" d="M191.01,154.43c0,0,21.03-4.36,29.37,9.1c8.34,13.45,6.63,35.63-0.19,49.65s-33.16,27.1-33.16,27.1l1.9-9.85
	c0,0,21.22-8.72,29.18-19.52c7.96-10.8,3.79-39.23-1.52-44.15c-5.31-4.93-26.72-2.27-26.72-2.27L191.01,154.43z"/>
<path class="st2" d="M74.28,146.47c0,0-1.33,96.27,1.14,103.66c2.46,7.39,12.32,19.9,45.29,21.79s49.84-6.63,61.78-12.51
	c11.94-5.87,10.23-115.6,10.23-115.6s-19.14,6.44-35.63,6.82C140.61,151.02,74.28,146.47,74.28,146.47z"/>
<path class="st3" d="M70.68,140.59c0,0,0.76-3.6,22.55-5.87s68.41-0.38,83.38,1.14c14.97,1.52,21.03,4.17,18.95,8.34
	c-2.08,4.17-8.53,6.82-28.05,7.58s-47.94,1.71-69.17-0.19c-21.22-1.9-26.34-3.6-27.86-6.25C68.97,142.68,70.68,140.59,70.68,140.59z
	"/>
<path class="st4" d="M74.47,140.59c0,0,3.79-1.9,11.37-3.03c7.58-1.14,34.68-1.9,47.38-1.9c12.7,0,42.26,1.14,49.84,2.46
	c7.58,1.33,12.89,4.17,6.06,5.69s-34.01,5.54-50.5,4.78s-31.7-0.94-46.67-2.46s-17.49-3.09-17.86-3.84S74.47,140.59,74.47,140.59z"
	/>
<path class="st5" d="M78.26,142.42c0,0,2.31-0.6,9.54-1.41c7.23-0.82,33.4-1.25,45.51-1.25s40.51,0.92,47.74,1.87
	c7.23,0.95,11.42,2.19,4.91,3.27c-6.51,1.09-32.65,4.5-48.38,3.95c-15.73-0.54-27.92-0.84-42.2-1.93s-17.94-2.8-18.3-3.34
	S78.26,142.42,78.26,142.42z"/>
<path class="st6" d="M132.24,137.84c0,0,6.57-18.06-6.02-25.17s-48.7-15.87-51.98-30.09s2.19-22.98,21.34-25.17
	c19.15-2.19,60.74-4.92,50.34-12.04c-10.4-7.11-20.79-10.4-29.55-13.68c-14.57-5.46-19.7-7.66-7.66-6.57
	c12.04,1.09,33.92,9.85,45.42,16.42c11.76,6.72,16.42,19.15-6.57,21.89S85.19,67.81,92.3,78.75c7.11,10.94,33.38,19.15,39.4,26.81
	s9.3,16.96,6.57,24.62s-11.49,15.32-8.75,11.49C132.24,137.84,132.24,137.84,132.24,137.84z"/>
</svg>
