<?xml version="1.0" encoding="utf-8"?>
<!-- Generator: Adobe Illustrator 23.0.1, SVG Export Plug-In . SVG Version: 6.00 Build 0)  -->
<svg version="1.1" id="Ebene_1" xmlns="http://www.w3.org/2000/svg" xmlns:xlink="http://www.w3.org/1999/xlink" x="0px" y="0px"
	 viewBox="0 0 150 150" style="enable-background:new 0 0 150 150;" xml:space="preserve">
<style type="text/css">
	.st0{fill:#9C9B9B;}
	.st1{fill:#1D1D1B;stroke:#1D1D1B;stroke-miterlimit:10;}
	.st2{fill:#3C3C3B;}
</style>
<g>
	<path class="st0" d="M36.4,31.8c0,0,3.2-3.8,4.5-2.8c1.3,1.1,31.3,29.7,29.4,29.7S67,57.3,66,56.7s-3.7-0.7-5-2.1
		c-1.4-1.4,0.2-2.1-2.2-4.9C56.3,47,40.6,31,39.9,31.6S38,33.4,38,33.4L36.4,31.8z"/>
	<path class="st0" d="M31.5,25.9c0,0-3.9-4-4.9-3.5c-1,0.5-2.1,1.2-2.1,1.2l-6.7-6.4c0,0-0.5-1-2.3,0.9c-1.8,1.9-2.4,2.5-2.4,2.5
		l7.6,7.3c0,0-1.2,1.6-0.3,2.4c0.9,0.7,3.6,3.4,3.6,3.4L31.5,25.9z"/>
	<polygon class="st1" points="118.3,124.4 22.8,32.6 30.4,24.8 125.6,117.6 	"/>
	<path class="st0" d="M126,117.3l5.4,8.5l0.6,1c0,0-1.7,0.3-2.7,1.3c-1,1-1.4,2.9-1.4,2.9s-9.8-5.6-9.8-6.4c0-0.8,3.3-5.2,4.9-6.1
		C124.7,117.6,126,117.3,126,117.3z"/>
	<path class="st2" d="M132.5,130.2c-1.1,1.5-4.5,0.9-4.5,0.9s-0.6-0.6,1.4-2.9c2-2.3,2.7-1.3,2.7-1.3s1.1,1.3,1,2
		C132.9,129.5,132.5,130.2,132.5,130.2z"/>
</g>
</svg>
