<?xml version="1.0" encoding="utf-8"?>
<!-- Generator: Adobe Illustrator 23.0.1, SVG Export Plug-In . SVG Version: 6.00 Build 0)  -->
<svg version="1.1" id="Ebene_1" xmlns="http://www.w3.org/2000/svg" xmlns:xlink="http://www.w3.org/1999/xlink" x="0px" y="0px"
	 viewBox="0 0 150 150" style="enable-background:new 0 0 150 150;" xml:space="preserve">
<style type="text/css">
	.st0{fill:#BBBAB9;}
	.st1{fill:#5E4E51;}
	.st2{fill:#868782;}
	.st3{fill:#554434;}
	.st4{fill:#CACCC8;}
	.st5{fill:#FBF0D2;}
	.st6{fill:#FFE6A8;}
	.st7{fill:#F9D19B;}
	.st8{fill:#35291C;}
	.st9{fill:#6C6252;}
	.st10{fill:#C7C7C3;}
	.st11{fill:#ABA49B;}
	.st12{fill:#2F2A26;}
	.st13{fill:#615140;}
	.st14{fill:#FBFCF7;}
	.st15{fill:#FCD999;}
	.st16{fill:#FAC478;}
	.st17{fill:#EAC98E;}
	.st18{fill:#D9B583;}
	.st19{fill:#AFB0AA;}
	.st20{fill:#B1B1B1;}
	.st21{fill:#7F7F79;}
	.st22{fill:#6F6F6E;}
</style>
<g>
	<g>
		<polygon class="st0" points="51.6,32.8 83.1,16.4 83.2,61.9 67.8,60.3 51.8,62.7 		"/>
		<polygon class="st0" points="101.4,28.5 111.3,25.3 110.9,67.9 101.7,67.9 		"/>
		<polygon class="st1" points="114,99.7 117.6,97.9 117.7,86.2 113.9,87.4 113.9,87.6 		"/>
		<polygon class="st2" points="104.4,105.7 114,100.2 113.9,87.4 117.7,86.2 117.5,97.9 117.7,98.1 121.1,96.1 121.2,82.7 
			116.1,84.1 115.9,68.3 104.6,68.8 		"/>
		<polygon class="st1" points="41,116.6 67.3,134.9 67.4,135.7 68.3,136.4 69.8,135.3 69.9,134.5 81.5,126.9 81.3,103.2 68.4,108.2 
			37.9,96.1 38.2,89.6 32.7,88.1 33,100.8 40,104.6 40.2,116.3 40.4,116.5 		"/>
		<polygon class="st3" points="95.2,118.9 101,114.7 101.1,95.6 94.4,98.1 94.4,119.5 		"/>
		<polygon class="st4" points="20.1,69.5 19.8,41.2 33,32.1 33.3,69.1 		"/>
		<polygon class="st2" points="52,37.5 33,32.1 33.3,69.1 52.2,67.3 		"/>
		<polygon class="st5" points="114,99.8 117.1,98.1 117.1,86.9 114,87.9 		"/>
		<polygon class="st6" points="69.7,111 69.8,107.7 75,105.7 75,108.8 		"/>
		<polygon class="st6" points="75.9,108.1 75.9,105.3 80.5,103.6 80.3,106.4 		"/>
		<polygon class="st6" points="69.8,112 75,109.9 75.1,129.8 69.9,133.5 		"/>
		<polygon class="st6" points="75.9,129.1 75.9,109.2 80.2,107.4 80.6,126.1 		"/>
		<polygon class="st5" points="94.4,101.2 96.9,100.1 96.9,97.4 94.4,98.3 		"/>
		<polygon class="st5" points="97.7,97.2 97.7,99.9 100.6,98.8 100.6,96.1 		"/>
		<polygon class="st5" points="94.3,101.9 97,100.9 97,116.5 94.3,118.3 		"/>
		<polygon class="st5" points="97.7,100.6 100.6,99.6 100.6,114.4 97.7,116.4 		"/>
		<polygon class="st6" points="41.7,97.6 41.8,99.8 45.8,101.6 45.8,99.2 		"/>
		<polygon class="st6" points="41.7,100.5 41.6,115.8 45.9,118.5 45.8,102.4 		"/>
		<polygon class="st6" points="46.5,99.4 46.5,102 59.1,107.6 59,104.4 		"/>
		<polygon class="st6" points="46.5,103 46.5,119.2 59,127.9 59.1,108.5 		"/>
		<polygon class="st6" points="59.9,104.9 60,108 67.2,110.8 67.3,107.8 		"/>
		<polygon class="st6" points="60,108.9 59.8,128.2 67.4,133.3 67.2,111.9 		"/>
		<polygon class="st7" points="33.4,88.7 33.4,90 38,91.6 38,89.8 		"/>
		<polygon class="st7" points="33.4,90.7 33.4,100.5 39.9,103.8 40,96.6 37.9,96.1 38,92.2 		"/>
		<polygon class="st1" points="34,35.9 46.4,39.3 46.2,62.1 34.2,61.2 		"/>
		<polygon class="st1" points="51.9,62.3 48.5,62.2 48.5,39.3 51.7,40.3 		"/>
		<polygon class="st1" points="24.4,42 24.4,41.2 20.5,43.6 20.6,66.7 24.9,66.3 		"/>
		<polygon class="st8" points="104.4,105.7 104.6,68.8 102.7,68.8 102.7,105.6 		"/>
		<polygon class="st9" points="109.9,59.2 102.7,59.8 102,33.6 110.2,30.9 		"/>
		<polygon class="st9" points="80.9,61.6 80.6,32.2 73.7,35.1 74,60.8 		"/>
		<polygon class="st10" points="38,64.3 68.1,60.3 68.4,108.2 37.9,96.1 		"/>
		<polygon class="st11" points="32,69.7 32.3,88 38,89.6 38,69.5 		"/>
		<polygon class="st12" points="38,68.7 20.1,69.5 32,69.7 38,69.5 		"/>
		<polygon class="st8" points="81.5,126.9 83.2,128 83.3,102.3 81.3,103.2 		"/>
		<path class="st2" d="M94.5,119.9c0-0.2-0.1-21.7-0.1-21.7l7.2-2.6l-0.2,19.5l0.3,0.1l1.2-0.6l-0.1-45.6l-0.2-1h-0.8l-0.3-39.4
			L83.1,16.4l0.1,45.6l-15.1-1.6l0.4,47.9l14.9-5.7L83.2,128L94.5,119.9z"/>
		<polygon class="st13" points="102.6,67.9 110.9,67.9 121.1,68.4 104.6,68.8 102.7,68.8 		"/>
		<polygon class="st2" points="121.5,34 111.3,25.3 110.9,67.9 121.1,68.4 		"/>
		<polygon class="st14" points="74.7,61 74.3,35.5 80.7,33.2 80.9,61.6 		"/>
		<path class="st1" d="M39.1,76.2c0,0.2,0.4,8,0.4,8l26.1,5V77.9L39.1,76.2z"/>
		<polygon class="st15" points="40.4,77 40.5,83.4 43.9,84.1 43.8,77.4 		"/>
		<polygon class="st15" points="44.6,77.6 44.6,84.3 58.7,87.2 58.6,78.4 		"/>
		<polygon class="st15" points="59.7,78.5 59.8,87.3 65.4,88.2 65.5,78.8 		"/>
		<polygon class="st16" points="103.4,59.5 102.8,34.3 110.3,31.8 109.9,59 		"/>
		<polygon class="st8" points="101,114.7 101.4,115 101.6,95.5 101.1,95.7 		"/>
		<polygon class="st3" points="94.4,68.2 100.9,68.4 100.9,91.2 94.3,93.2 		"/>
		<polygon class="st5" points="94.9,83.1 99.9,82.2 100,68.9 94.8,68.9 		"/>
		<polygon class="st5" points="100,83.7 94.8,84.6 94.8,91.9 100,90.6 		"/>
		<polygon class="st17" points="34.7,61 34.6,47.4 39.9,48.4 40,61.4 		"/>
		<polygon class="st17" points="40.7,61.4 45.4,61.8 45.3,49.6 40.6,48.7 		"/>
		<polygon class="st17" points="34.4,46.6 45.2,48.7 45.4,39.7 34.3,36.5 		"/>
		<polygon class="st18" points="51.7,40.5 48.8,39.8 48.9,61.9 51.9,62.1 		"/>
		<polygon class="st7" points="21.1,43.9 24.5,41.8 24.5,42.8 24.9,66.1 20.9,66.4 		"/>
	</g>
	<g>
		<g>
			<path class="st19" d="M52.6,39.8c8.4-3.8,16.9-7.3,25.3-10.9c1.5-0.6,3-1.3,4.5-1.9c0.3-0.1,0.2-0.7-0.2-0.6
				c-8.6,3.4-17,7.3-25.5,11c-1.5,0.6-2.9,1.3-4.4,1.9C51.9,39.4,52.2,39.9,52.6,39.8L52.6,39.8z"/>
		</g>
	</g>
	<g>
		<g>
			<path class="st19" d="M52.6,46.8c6.8-2.2,13.7-4.4,20.6-6.4c0.4-0.1,0.2-0.7-0.2-0.6c-6.9,2-13.7,4.2-20.6,6.4
				C52.1,46.3,52.3,46.9,52.6,46.8L52.6,46.8z"/>
		</g>
	</g>
	<g>
		<g>
			<path class="st19" d="M52.6,54.1c7-1.1,13.6-3.7,20.5-4.9c0.4-0.1,0.2-0.6-0.2-0.6c-7,1.1-13.6,3.8-20.5,4.9
				C52.1,53.6,52.2,54.1,52.6,54.1L52.6,54.1z"/>
		</g>
	</g>
	<g>
		<g>
			<path class="st19" d="M52.6,61.4c6.9-1.2,13.7-2.2,20.6-3.2c0.4-0.1,0.4-0.6,0-0.6c-7,0.9-13.9,2-20.8,3.2
				C52.1,60.9,52.2,61.5,52.6,61.4L52.6,61.4z"/>
		</g>
	</g>
	<g>
		<g>
			<path class="st19" d="M57.2,31.2c-0.2,9.2-0.3,18.5-0.5,27.7c0,0.4,0.6,0.4,0.6,0c0.2-9.2,0.3-18.5,0.5-27.7
				C57.8,30.8,57.2,30.8,57.2,31.2L57.2,31.2z"/>
		</g>
	</g>
	<g>
		<g>
			<path class="st19" d="M61.9,28.6c0,5-0.2,10.1-0.1,15.2c0,2.4,0.5,4.7,0.4,7.1c-0.1,2.5-0.3,5-0.5,7.6c0,0.4,0.6,0.4,0.6,0
				c0.2-2.5,0.3-5,0.5-7.6c0.1-2.4-0.3-4.7-0.4-7.1c-0.1-5,0.1-10.1,0.1-15.2C62.5,28.2,61.9,28.2,61.9,28.6L61.9,28.6z"/>
		</g>
	</g>
	<g>
		<g>
			<path class="st19" d="M67.3,25.9c-0.1,11-0.3,22-0.4,33c0,0.4,0.6,0.4,0.6,0c0.1-11,0.3-22,0.4-33C67.9,25.6,67.3,25.6,67.3,25.9
				L67.3,25.9z"/>
		</g>
	</g>
	<g>
		<g>
			<path class="st19" d="M73.3,22.5c0,3.7,0.1,7.4,0.3,11.2c0,0.4,0.6,0.4,0.6,0c-0.2-3.7-0.4-7.4-0.3-11.2
				C73.9,22.1,73.3,22.1,73.3,22.5L73.3,22.5z"/>
		</g>
	</g>
	<g>
		<g>
			<path class="st19" d="M80.6,18.8c-0.2,4.1-0.2,8.3,0,12.4c0,0.4,0.6,0.4,0.6,0c-0.2-4.1-0.2-8.3,0-12.4
				C81.2,18.4,80.6,18.4,80.6,18.8L80.6,18.8z"/>
		</g>
	</g>
	<g>
		<g>
			<path class="st19" d="M53.6,33.2c-0.1,0.4,0.4,0.6,0.7,0.3c0.3-0.4-0.3-0.8-0.6-0.4c-0.3,0.3,0.2,0.7,0.4,0.4
				c-0.1-0.1-0.2-0.1-0.3-0.2c0-0.1,0.1-0.1,0.1-0.2c0.1,0,0.2,0,0.3,0.1c0,0.1,0,0.2,0,0.2c0,0,0,0,0,0
				C54.2,33,53.6,32.8,53.6,33.2L53.6,33.2z"/>
		</g>
	</g>
	<g>
		<g>
			<path class="st19" d="M54.2,37.4c0.5,0,0.8-0.8,0.3-1.1c-0.1-0.1-0.2-0.1-0.3,0c-0.2,0.1-0.3,0.3-0.3,0.5c0,0.2,0.1,0.3,0.3,0.3
				c0.1,0,0.3-0.1,0.3-0.3c0,0,0,0,0,0c-0.1,0-0.2,0-0.3,0c0,0,0,0,0,0c-0.1,0,0.1,0,0.1,0C53.8,36.8,53.8,37.4,54.2,37.4L54.2,37.4
				z"/>
		</g>
	</g>
	<g>
		<g>
			<path class="st19" d="M55.7,36.1c0.1,0.2,0.3,0.5,0.5,0.5c0.2,0.1,0.5,0,0.6-0.3c0.1-0.2,0-0.5-0.2-0.7c-0.2-0.2-0.5-0.2-0.8-0.1
				c-0.4,0.1-0.2,0.6,0.2,0.6c0.1,0,0.4,0,0.4-0.1c0,0-0.1-0.1-0.1-0.1c0-0.1-0.1-0.1-0.1-0.2C56,35.5,55.5,35.8,55.7,36.1
				L55.7,36.1z"/>
		</g>
	</g>
	<g>
		<g>
			<path class="st19" d="M55.9,32.3c0.2,0.3,0.5,0.3,0.7,0.1c0.2-0.3,0-0.6-0.3-0.7c-0.4-0.1-0.5,0.5-0.2,0.6
				c0.1-0.1,0.1-0.2,0.2-0.2C56.2,31.7,55.7,32,55.9,32.3L55.9,32.3z"/>
		</g>
	</g>
	<g>
		<g>
			<path class="st19" d="M58.4,31.1c0.3,0.3,0.7,0.1,0.8-0.2c0-0.1,0-0.2-0.1-0.3c-0.3-0.3-0.7-0.1-0.9,0.2
				c-0.1,0.4,0.4,0.5,0.6,0.2c0,0.1-0.1,0.1-0.1,0c0-0.1-0.1-0.2-0.1-0.3c0-0.1,0.1-0.1,0.2-0.1C58.5,30.5,58.1,30.9,58.4,31.1
				L58.4,31.1z"/>
		</g>
	</g>
	<g>
		<g>
			<path class="st19" d="M61.1,30.2c0.2-0.4-0.4-0.9-0.7-0.4c-0.3,0.5,0.6,0.8,0.7,0.3c0.1-0.4-0.5-0.5-0.6-0.2c0,0,0,0,0,0
				c0.1,0,0.1-0.1,0.2-0.1c-0.1,0.1-0.1,0.2-0.2,0.3c0-0.1,0-0.2,0-0.2c0,0,0,0,0,0C60.4,30.2,60.9,30.5,61.1,30.2L61.1,30.2z"/>
		</g>
	</g>
	<g>
		<g>
			<path class="st19" d="M58.4,35.2c0.2,0.2,0.5,0.2,0.7,0c0.2-0.1,0.3-0.4,0.2-0.6c-0.3-0.5-1.1-0.1-0.8,0.4c0.2,0.3,0.7,0,0.5-0.3
				c0.1,0.2-0.4,0-0.4,0C58.4,34.5,58.1,35,58.4,35.2L58.4,35.2z"/>
		</g>
	</g>
	<g>
		<g>
			<path class="st19" d="M60.8,34.3c0.3-0.2,0.3-0.4,0.3-0.7c0-0.1-0.1-0.2-0.2-0.2c-0.3-0.1-0.5,0.2-0.5,0.5
				c0.1,0.4,0.5,0.4,0.8,0.3c0.4-0.1,0.2-0.7-0.2-0.6c-0.2,0-0.2,0.1-0.3,0.3c-0.1-0.1-0.1-0.1-0.2-0.2c0,0,0,0,0,0
				C60.2,34,60.5,34.5,60.8,34.3L60.8,34.3z"/>
		</g>
	</g>
	<g>
		<g>
			<path class="st19" d="M63,32.7c0,0.2,0.1,0.3,0.2,0.5c0.1,0.1,0.3,0.1,0.4,0c0.3-0.1,0.4-0.5,0.2-0.7c-0.2-0.3-0.5-0.3-0.8-0.2
				c-0.3,0.2,0,0.7,0.3,0.5c0,0-0.1-0.1-0.1-0.1c0.1,0,0.2,0,0.4,0c0,0,0,0,0,0C63.7,32.4,63.1,32.4,63,32.7L63,32.7z"/>
		</g>
	</g>
	<g>
		<g>
			<path class="st19" d="M63.3,28.8C63.3,28.8,63.3,28.8,63.3,28.8c0,0,0-0.1,0-0.2c0,0,0,0,0-0.1c0.1,0,0.1-0.1,0.2-0.1
				c0,0,0,0,0,0c0.1,0,0.1,0.1,0.2,0.1c0,0.1,0,0.1,0.1,0.2c0,0.1-0.1,0.1-0.1,0.2c0,0,0,0,0,0c0.3-0.2,0-0.7-0.3-0.5
				c-0.3,0.2-0.3,0.6,0.1,0.7c0.3,0.1,0.5-0.3,0.4-0.5C63.6,28.2,63.1,28.5,63.3,28.8L63.3,28.8z"/>
		</g>
	</g>
	<g>
		<g>
			<path class="st19" d="M65.6,27.6c0.3,0.4,1-0.1,0.8-0.5c-0.2-0.4-0.9-0.2-0.9,0.3c0,0.2,0.1,0.3,0.3,0.3c0.1,0,0.3-0.1,0.3-0.3
				c-0.1,0.1-0.1,0.1-0.1-0.1c-0.1-0.1-0.1-0.2,0.1-0.1C65.7,26.9,65.3,27.3,65.6,27.6L65.6,27.6z"/>
		</g>
	</g>
	<g>
		<g>
			<path class="st19" d="M66.2,30.9c-0.6-0.2-0.9,0.6-0.4,1c0.1,0.1,0.3,0,0.4,0c0.2-0.2,0.3-0.3,0.3-0.6c0.1-0.4-0.5-0.5-0.6-0.2
				c0,0.1-0.1,0.2-0.2,0.3c0.1,0,0.2,0,0.4,0c0,0,0,0.1-0.1,0.1C66.4,31.6,66.5,31,66.2,30.9L66.2,30.9z"/>
		</g>
	</g>
	<g>
		<g>
			<path class="st19" d="M68.9,29.8c-0.3,0.3-0.2,1,0.3,0.9c0.5-0.1,0.4-0.8-0.1-0.9c-0.4-0.1-0.5,0.5-0.2,0.6c0,0,0,0,0,0
				c0-0.1,0-0.2,0-0.2c0,0,0.1,0,0.1-0.1c0.1,0,0.1,0.1,0.2,0.1c0,0,0,0,0,0C69.6,29.9,69.2,29.5,68.9,29.8L68.9,29.8z"/>
		</g>
	</g>
	<g>
		<g>
			<path class="st19" d="M69,25.3c-0.4,0.2-0.4,0.9,0.1,0.9c0.2,0,0.4-0.2,0.4-0.4c0.1-0.2-0.1-0.4-0.3-0.5
				c-0.4-0.1-0.5,0.4-0.2,0.6c0,0,0.1,0,0.1,0C69.6,25.7,69.4,25.1,69,25.3L69,25.3z"/>
		</g>
	</g>
	<g>
		<g>
			<path class="st19" d="M71.8,23.9C71.8,23.9,71.8,23.9,71.8,23.9c-0.1,0.2-0.1,0.3,0,0.4c0.3,0.4,0.8-0.1,0.6-0.5
				c-0.1-0.2-0.3-0.2-0.5-0.2c-0.2,0.1-0.3,0.3-0.3,0.5c0.1,0.4,0.6,0.2,0.6-0.2c0,0,0-0.1,0-0.1c0,0.1,0,0.2,0,0.4c0,0,0,0,0,0
				C72.5,23.9,72,23.6,71.8,23.9L71.8,23.9z"/>
		</g>
	</g>
	<g>
		<g>
			<path class="st19" d="M72,28.9c0.1,0.1,0.1,0.1,0.2,0.2c0.1,0.1,0.2,0.1,0.3,0.1c0.6-0.2,0.4-1.1-0.3-0.9
				c-0.4,0.1-0.2,0.7,0.2,0.6c0-0.1,0-0.1-0.1-0.2c0.1,0,0.2,0.1,0.3,0.1c-0.1-0.1-0.1-0.1-0.2-0.2C72.1,28.2,71.7,28.6,72,28.9
				L72,28.9z"/>
		</g>
	</g>
	<g>
		<g>
			<path class="st19" d="M75.1,27c-0.3,0.4,0.2,0.9,0.6,0.7c0.5-0.2,0.3-0.9-0.1-1c-0.4-0.1-0.5,0.4-0.2,0.6c0.1,0,0.1,0,0.2,0
				C75.8,27,75.3,26.7,75.1,27L75.1,27z"/>
		</g>
	</g>
	<g>
		<g>
			<path class="st19" d="M78.8,25.4c-0.4,0.3-0.3,1,0.3,0.9C79.6,26.2,79.4,25.3,78.8,25.4c-0.3,0.2-0.1,0.7,0.2,0.7
				c0-0.1,0-0.1,0.1-0.2C79.4,25.7,79.1,25.1,78.8,25.4L78.8,25.4z"/>
		</g>
	</g>
	<g>
		<g>
			<path class="st19" d="M53.6,40.7c0,0.1,0,0.3,0.1,0.4c0.1,0.1,0.4,0.1,0.5-0.1c0.1-0.2,0.2-0.5,0-0.7c-0.2-0.1-0.4-0.1-0.6,0
				c-0.2,0.3,0.2,0.7,0.4,0.4C54,40.8,53.9,40.8,53.6,40.7c0.2,0,0.4,0,0.6-0.1c0,0,0,0,0,0.1C54.3,40.3,53.7,40.3,53.6,40.7
				L53.6,40.7z"/>
		</g>
	</g>
	<g>
		<g>
			<path class="st19" d="M54.1,44.2c-0.3,0.1-0.2,0.5,0,0.6c0.3,0.2,0.5-0.1,0.6-0.4c0-0.3-0.2-0.5-0.5-0.6s-0.5,0.2-0.5,0.5
				c0,0.4,0.6,0.4,0.6,0c-0.1,0-0.1-0.1-0.2-0.1c0.1,0,0.2,0,0.3,0c0,0.1,0.1,0.1,0.1,0.2c-0.1,0.1-0.1,0.2-0.1,0.3c0,0,0,0,0,0
				C54.7,44.5,54.4,44,54.1,44.2L54.1,44.2z"/>
		</g>
	</g>
	<g>
		<g>
			<path class="st19" d="M56,43.9c0.3,0.2,0.7-0.1,0.6-0.4c-0.1-0.4-0.6-0.4-0.9-0.3c-0.3,0.2,0,0.7,0.3,0.5
				c0.1-0.1,0.2-0.2,0.2-0.3C56,43.2,55.7,43.7,56,43.9L56,43.9z"/>
		</g>
	</g>
	<g>
		<g>
			<path class="st19" d="M56.8,39.8c-0.1-0.6-0.8-0.5-0.8,0c0,0.4,0.6,0.4,0.6,0c-0.1,0-0.2,0.1-0.3,0.1c0-0.1-0.1-0.1-0.1-0.2
				c0,0,0,0,0,0.1C56.2,40.2,56.8,40.2,56.8,39.8L56.8,39.8z"/>
		</g>
	</g>
	<g>
		<g>
			<path class="st19" d="M58.3,38.8c0,0.2,0,0.5,0.3,0.6c0.2,0.1,0.5-0.1,0.4-0.4c0-0.4-0.6-0.4-0.6,0c0,0,0,0,0,0
				c0-0.1,0.1-0.1,0.1-0.2c0.1,0,0.1,0,0.2,0c0.1,0,0.1,0.1,0.2,0.1c0,0,0,0,0,0C58.9,38.6,58.4,38.4,58.3,38.8L58.3,38.8z"/>
		</g>
	</g>
	<g>
		<g>
			<path class="st19" d="M58.2,43.1c0.3,0.4,0.9,0.2,0.9-0.3s-0.8-0.5-0.9,0c-0.1,0.4,0.4,0.5,0.6,0.2c-0.2,0.4-0.3-0.5,0-0.1
				C58.5,42.5,58,42.8,58.2,43.1L58.2,43.1z"/>
		</g>
	</g>
	<g>
		<g>
			<path class="st19" d="M60.7,41.5c-0.1,0.1-0.1,0.2-0.1,0.4c0,0.2,0.2,0.3,0.4,0.3c0.2,0,0.3-0.2,0.3-0.3c0-0.2-0.1-0.3-0.3-0.4
				c-0.3-0.2-0.6,0.3-0.3,0.5c0.1,0,0.1,0.1,0.2,0.1c-0.1-0.1-0.1-0.2-0.1-0.3c0,0,0.1-0.1,0.1-0.1c0.1,0.1,0.3,0.2,0.4,0.3
				c0,0,0-0.1,0-0.1C61.3,41.5,60.8,41.2,60.7,41.5L60.7,41.5z"/>
		</g>
	</g>
	<g>
		<g>
			<path class="st19" d="M60.8,37.5c-0.4,0.2-0.3,0.6,0,0.8c0.1,0.1,0.3,0,0.4,0c0.1-0.1,0.2-0.3,0.2-0.4c0-0.4-0.6-0.4-0.6,0
				c0,0,0,0,0,0c0.1,0,0.2,0,0.4,0c0,0.1,0,0.1,0,0.2C61.5,37.8,61.2,37.3,60.8,37.5L60.8,37.5z"/>
		</g>
	</g>
	<g>
		<g>
			<path class="st19" d="M63.3,36.6c-0.3,0.4,0.1,0.8,0.5,0.7c0.1,0,0.2-0.1,0.2-0.2c0.1-0.3-0.1-0.5-0.4-0.5c-0.4,0-0.4,0.6,0,0.6
				c-0.1-0.1-0.1-0.2-0.2-0.2c0.1-0.1,0.1-0.1,0.2-0.2c0.1,0.1,0.1,0.1,0.1,0.2C64,36.6,63.5,36.3,63.3,36.6L63.3,36.6z"/>
		</g>
	</g>
	<g>
		<g>
			<path class="st19" d="M63.3,41.1c0,0.2,0.1,0.4,0.3,0.5c0.1,0.1,0.2,0.1,0.3,0c0.3-0.2,0.5-0.6,0.2-0.9c-0.2-0.3-0.6-0.2-0.8,0.1
				c-0.2,0.3,0.3,0.6,0.5,0.3c-0.1,0.2-0.1,0-0.2,0c0.1,0,0.2,0,0.3,0c0,0,0,0,0,0C63.9,40.8,63.3,40.8,63.3,41.1L63.3,41.1z"/>
		</g>
	</g>
	<g>
		<g>
			<path class="st19" d="M66,40.1c0.1,0.4,0.7,0.5,0.8,0c0.1-0.4-0.4-0.7-0.7-0.5c-0.3,0.2,0,0.7,0.3,0.5c-0.1-0.1-0.1-0.1-0.2-0.2
				c0.1,0,0.1-0.1,0.2-0.1c0.1,0,0.1,0.1,0.2,0.1C66.5,39.6,65.9,39.8,66,40.1L66,40.1z"/>
		</g>
	</g>
	<g>
		<g>
			<path class="st19" d="M65.8,35.7c0.1,0.2,0.2,0.3,0.4,0.3c0.1,0,0.2-0.1,0.3-0.2c0.1-0.3-0.2-0.5-0.5-0.5
				c-0.4,0.1-0.2,0.6,0.2,0.6c0,0,0,0,0,0c-0.1,0-0.2,0-0.2,0c0-0.1,0-0.1-0.1-0.2c0.1-0.1,0.2-0.1,0.3-0.2c0,0,0,0,0.1,0
				c0,0.1,0.1,0.1,0.1,0.2c0,0,0,0,0-0.1C66.2,35.2,65.7,35.3,65.8,35.7L65.8,35.7z"/>
		</g>
	</g>
	<g>
		<g>
			<path class="st19" d="M68.9,34.8c0.3,0.2,0.8,0.1,0.8-0.4c-0.1-0.4-0.6-0.5-0.8-0.1c-0.2,0.3,0.3,0.6,0.5,0.3c0-0.1,0-0.1,0-0.2
				C69,34.1,68.6,34.5,68.9,34.8L68.9,34.8z"/>
		</g>
	</g>
	<g>
		<g>
			<path class="st19" d="M68.9,38.9c0.1,0.3,0.5,0.4,0.7,0.2c0.1-0.1,0.1-0.3,0.1-0.4c-0.1-0.2-0.3-0.2-0.5-0.2
				c-0.4,0.1-0.2,0.6,0.2,0.6c0,0-0.1,0-0.1,0c0-0.1-0.1-0.2-0.1-0.3c0.1,0,0.2,0,0.3,0C69.4,38.4,68.8,38.5,68.9,38.9L68.9,38.9z"
				/>
		</g>
	</g>
	<g>
		<g>
			<path class="st19" d="M71.7,37.8c0,0.1,0,0.2,0.1,0.3c0.1,0.1,0.2,0.2,0.3,0.1c0.5-0.1,0.5-0.8,0-0.9c-0.4-0.1-0.5,0.5-0.2,0.6
				c0-0.1,0-0.1,0-0.2c0.1,0,0.2,0.1,0.3,0.1c0,0,0,0,0,0C72.3,37.4,71.7,37.4,71.7,37.8L71.7,37.8z"/>
		</g>
	</g>
	<g>
		<g>
			<path class="st19" d="M72,33.5c0.2,0.2,0.6,0,0.6-0.3c0-0.3-0.3-0.5-0.6-0.5c-0.4,0-0.4,0.6,0,0.6c0.2,0,0.2-0.1,0.3-0.3
				C71.9,32.7,71.6,33.2,72,33.5L72,33.5z"/>
		</g>
	</g>
	<g>
		<g>
			<path class="st19" d="M75.2,31.7c-0.1,0.3,0.2,0.8,0.5,0.6c0.3-0.1,0.3-0.5,0.1-0.7c-0.2-0.3-0.7,0.1-0.4,0.4c0-0.1,0-0.1,0-0.2
				c0.1,0,0.2,0,0.3,0c0,0,0,0,0,0.1C75.8,31.5,75.3,31.3,75.2,31.7L75.2,31.7z"/>
		</g>
	</g>
	<g>
		<g>
			<path class="st19" d="M78.9,30.2c-0.3,0.2-0.2,0.7,0.1,0.8c0.4,0.1,0.6-0.3,0.5-0.7c-0.1-0.4-0.7-0.2-0.6,0.2
				c0,0.1,0.1,0.2,0.2,0.3C79.5,30.5,79.2,30,78.9,30.2L78.9,30.2z"/>
		</g>
	</g>
	<g>
		<g>
			<path class="st19" d="M53.6,48.1c0,0.3,0.3,0.6,0.6,0.4c0.3-0.1,0.3-0.5,0.1-0.7c-0.3-0.3-0.7,0.2-0.4,0.4c0.1,0,0.2-0.1,0.3-0.1
				C54.2,47.7,53.6,47.7,53.6,48.1L53.6,48.1z"/>
		</g>
	</g>
	<g>
		<g>
			<path class="st19" d="M54,51.7c0,0.2,0,0.4,0.2,0.5c0.2,0.1,0.4,0.1,0.5-0.1c0.3-0.3-0.1-0.8-0.5-0.7c-0.4,0.1-0.2,0.7,0.2,0.6
				c0.1-0.1,0.1-0.1,0.2-0.2C54.6,51.4,54,51.3,54,51.7L54,51.7z"/>
		</g>
	</g>
	<g>
		<g>
			<path class="st19" d="M56.4,51.4C56.4,51.4,56.4,51.4,56.4,51.4c0.4,0,0.4-0.6,0.1-0.6c0,0,0,0-0.1,0C56,50.8,56,51.4,56.4,51.4
				L56.4,51.4z"/>
		</g>
	</g>
	<g>
		<g>
			<path class="st19" d="M56.2,47c-0.4,0.1-0.4,0.6,0,0.8c0.1,0,0.2,0,0.3-0.1c0.2-0.2,0.2-0.6,0-0.8c-0.3-0.3-0.7,0.2-0.4,0.4
				c0,0,0,0,0,0c0.1,0,0.2-0.1,0.3-0.1c0,0.1,0,0.3,0,0.4C56.7,47.5,56.5,46.9,56.2,47L56.2,47z"/>
		</g>
	</g>
	<g>
		<g>
			<path class="st19" d="M58.4,46.4c-0.1,0.4,0.3,0.7,0.6,0.5c0.3-0.2,0.2-0.7-0.1-0.8c-0.4-0.1-0.5,0.5-0.2,0.6
				c0.1-0.1,0.2-0.1,0.3-0.2C59.1,46.2,58.5,46.1,58.4,46.4L58.4,46.4z"/>
		</g>
	</g>
	<g>
		<g>
			<path class="st19" d="M58.3,50.4c0,0.2,0.1,0.4,0.3,0.5c0.2,0.1,0.4,0,0.5-0.2c0.1-0.2,0-0.4-0.1-0.5c-0.2-0.2-0.4-0.1-0.6-0.1
				c-0.4,0.1-0.2,0.7,0.2,0.6c0.1,0,0.4-0.1,0.4-0.3C58.9,50,58.3,50,58.3,50.4L58.3,50.4z"/>
		</g>
	</g>
	<g>
		<g>
			<path class="st19" d="M60.9,50c0.2,0.2,0.5,0.1,0.6-0.1c0.2-0.3-0.1-0.6-0.3-0.6c-0.4-0.1-0.5,0.5-0.2,0.6
				c0.1-0.1,0.2-0.2,0.3-0.3C61.1,49.3,60.6,49.7,60.9,50L60.9,50z"/>
		</g>
	</g>
	<g>
		<g>
			<path class="st19" d="M60.9,46.2c0.3,0.2,0.7-0.1,0.7-0.4c-0.1-0.3-0.5-0.4-0.7-0.2c-0.3,0.3,0.2,0.7,0.4,0.4c0-0.1,0-0.2,0-0.3
				C60.9,45.4,60.6,46,60.9,46.2L60.9,46.2z"/>
		</g>
	</g>
	<g>
		<g>
			<path class="st19" d="M62.8,45.2c0.2,0.3,0.8,0.4,0.9,0c0.1-0.4-0.3-0.6-0.6-0.3c-0.1,0.1-0.1,0.2,0,0.4c0,0,0,0,0,0
				c0.2,0.3,0.7,0,0.5-0.3c0,0,0,0,0,0c0,0.1,0,0.2,0,0.4c-0.1,0-0.1,0-0.2,0.1c-0.1,0-0.1-0.1-0.2-0.1c0,0,0,0,0,0
				c0-0.1,0-0.2,0-0.2c0,0,0,0,0,0.1c0-0.1,0.1-0.1,0.1-0.2c0,0-0.1,0-0.1-0.1C63,44.5,62.6,44.9,62.8,45.2L62.8,45.2z"/>
		</g>
	</g>
	<g>
		<g>
			<path class="st19" d="M63.3,49.1c0,0.5,0.7,0.6,0.8,0.1c0.1-0.5-0.4-0.7-0.8-0.6c-0.4,0.1-0.2,0.7,0.2,0.6c0,0,0.1,0,0.1,0
				c-0.1-0.1-0.1-0.1,0-0.2c0.1,0,0.2,0.1,0.3,0.1c0,0,0,0,0,0C63.9,48.7,63.3,48.7,63.3,49.1L63.3,49.1z"/>
		</g>
	</g>
	<g>
		<g>
			<path class="st19" d="M65.8,48.6c0.2,0.2,0.6,0.1,0.7-0.2c0.1-0.3-0.1-0.6-0.4-0.6c-0.4,0-0.4,0.6,0,0.6c0.1-0.2,0.1-0.3,0-0.4
				C65.8,47.9,65.5,48.4,65.8,48.6L65.8,48.6z"/>
		</g>
	</g>
	<g>
		<g>
			<path class="st19" d="M65.9,44.4c0.2,0.2,0.4,0.2,0.7,0c0.1-0.1,0.1-0.2,0.1-0.3c-0.2-0.4-0.7-0.5-1-0.1
				c-0.2,0.3,0.3,0.6,0.5,0.3c0,0.1,0,0-0.1,0c0-0.1,0.1-0.2,0.1-0.3c0.1,0,0.1,0,0.2,0C66,43.7,65.6,44.1,65.9,44.4L65.9,44.4z"/>
		</g>
	</g>
	<g>
		<g>
			<path class="st19" d="M69.4,43.3c0-0.2-0.1-0.4-0.4-0.5c-0.2-0.1-0.5,0.1-0.6,0.3c-0.2,0.3,0.3,0.6,0.5,0.3
				c-0.1,0-0.1-0.1-0.2-0.1C68.9,43.6,69.5,43.7,69.4,43.3L69.4,43.3z"/>
		</g>
	</g>
	<g>
		<g>
			<path class="st19" d="M69.1,48.1c0.3,0,0.6-0.4,0.3-0.7c-0.2-0.3-0.6-0.1-0.7,0.2c-0.1,0.4,0.4,0.5,0.6,0.2
				c-0.1-0.1-0.1-0.2-0.2-0.2C68.7,47.5,68.7,48.1,69.1,48.1L69.1,48.1z"/>
		</g>
	</g>
	<g>
		<g>
			<path class="st19" d="M72.5,47.1c0.2-0.2,0.2-0.6-0.1-0.8c-0.3-0.2-0.7,0.1-0.7,0.5c0,0.4,0.6,0.4,0.6,0c-0.1,0-0.2-0.1-0.3-0.1
				C71.8,46.9,72.2,47.3,72.5,47.1L72.5,47.1z"/>
		</g>
	</g>
	<g>
		<g>
			<path class="st19" d="M72,42.3C72,42.3,72,42.3,72,42.3c0,0,0-0.1,0-0.2c0,0,0,0,0,0c0.1,0,0.2,0,0.2,0c0,0,0,0-0.1,0
				c-0.3-0.2-0.6,0.3-0.3,0.5c0.3,0.2,0.8,0,0.6-0.4C72.5,41.7,71.9,41.9,72,42.3L72,42.3z"/>
		</g>
	</g>
	<g>
		<g>
			<path class="st19" d="M53.8,55.4c0.1,0.4,0.6,0.4,0.7,0c0.1-0.2,0-0.4-0.2-0.4c-0.2-0.1-0.4-0.1-0.6,0c-0.3,0.2,0,0.7,0.3,0.5
				c0,0,0,0-0.1,0c0-0.1-0.1-0.1-0.1-0.2c0,0,0,0,0,0.1c0-0.1,0.1-0.1,0.1-0.2c0.1,0,0.2,0.1,0.4,0.1C54.3,54.9,53.7,55,53.8,55.4
				L53.8,55.4z"/>
		</g>
	</g>
	<g>
		<g>
			<path class="st19" d="M53.8,58.9c0,0.1,0,0.2,0.1,0.3c0.1,0.1,0.3,0.2,0.4,0.1c0.1,0,0.1-0.1,0.2-0.2c0.1-0.1,0.1-0.2,0-0.4
				c-0.1-0.1-0.2-0.2-0.3-0.3c-0.4-0.1-0.5,0.4-0.2,0.6c0,0,0,0-0.1,0c0-0.1,0-0.2,0-0.4c0,0,0,0.1-0.1,0.1c0.1,0,0.3,0.1,0.4,0.1
				c0,0,0,0,0,0C54.4,58.5,53.8,58.5,53.8,58.9L53.8,58.9z"/>
		</g>
	</g>
	<g>
		<g>
			<path class="st19" d="M56.5,58.8c0.1-0.2,0-0.5-0.2-0.6c-0.3-0.2-0.6,0.3-0.3,0.5c0,0,0-0.1,0-0.1C55.8,59,56.4,59.2,56.5,58.8
				L56.5,58.8z"/>
		</g>
	</g>
	<g>
		<g>
			<path class="st19" d="M55.9,54.6c0,0.2,0,0.3,0.1,0.5c0.1,0.2,0.4,0.2,0.5,0c0.1-0.2,0.1-0.5-0.2-0.6C56,54.3,55.7,54.9,56,55
				c0-0.1,0-0.2,0-0.2c0.2,0,0.3,0,0.5,0c0,0,0,0,0,0C56.5,54.4,56,54.3,55.9,54.6L55.9,54.6z"/>
		</g>
	</g>
	<g>
		<g>
			<path class="st19" d="M57.9,54.4c0.1,0.2,0.3,0.3,0.5,0.2c0.2-0.1,0.3-0.2,0.4-0.4c0-0.1-0.1-0.2-0.1-0.3
				c-0.2-0.1-0.5-0.1-0.6,0.2c-0.2,0.3,0.3,0.6,0.5,0.3c-0.1,0-0.1,0-0.2,0.1c-0.1-0.1-0.1-0.2-0.1-0.3c0.1,0,0.2-0.1,0.3-0.1
				C58.3,53.8,57.8,54.1,57.9,54.4L57.9,54.4z"/>
		</g>
	</g>
	<g>
		<g>
			<path class="st19" d="M59.1,58.5c0.3-0.3,0.1-0.9-0.3-0.9c-0.4,0-0.6,0.7-0.2,0.9c0.3,0.2,0.6-0.3,0.3-0.5
				c0.1,0.2,0.1,0.2-0.1,0.2c-0.1,0-0.1,0-0.1-0.1C58.4,58.4,58.8,58.8,59.1,58.5L59.1,58.5z"/>
		</g>
	</g>
	<g>
		<g>
			<path class="st19" d="M60.9,57.5c-0.2,0.2-0.1,0.6,0.2,0.7c0.1,0,0.2,0,0.3-0.1c0.3-0.3,0-0.9-0.5-0.8c-0.4,0.1-0.2,0.7,0.2,0.6
				c0-0.1-0.1-0.2-0.1-0.2c0.1,0,0.2-0.1,0.3-0.1c0,0.1,0.1,0.2,0.1,0.3C61.6,57.6,61.2,57.2,60.9,57.5L60.9,57.5z"/>
		</g>
	</g>
	<g>
		<g>
			<path class="st19" d="M60.9,54.2c0.3,0,0.8-0.4,0.5-0.7c-0.2-0.3-0.6-0.1-0.7,0.2c-0.1,0.4,0.4,0.5,0.6,0.2c-0.1,0-0.2,0-0.3,0.1
				c0-0.1,0-0.2,0-0.3c0,0,0,0,0,0C60.5,53.6,60.5,54.2,60.9,54.2L60.9,54.2z"/>
		</g>
	</g>
	<g>
		<g>
			<path class="st19" d="M63.6,53.7c0.2-0.1,0.3-0.3,0.3-0.5c0-0.1-0.1-0.2-0.2-0.3c-0.2-0.1-0.5,0.1-0.6,0.3
				c-0.1,0.4,0.5,0.5,0.6,0.2c0,0-0.1,0.1-0.1,0.1c-0.1-0.1-0.1-0.2-0.2-0.3c0,0,0,0,0,0C63,53.3,63.3,53.8,63.6,53.7L63.6,53.7z"/>
		</g>
	</g>
	<g>
		<g>
			<path class="st19" d="M65.9,52.4c-0.2,0.3-0.1,0.7,0.3,0.7c0.4,0,0.5-0.4,0.3-0.7c-0.2-0.3-0.7,0.1-0.4,0.4c0,0,0,0,0,0
				c0-0.1-0.1-0.1-0.1-0.2c0.1,0,0.3,0,0.4,0C66.6,52.4,66.1,52.1,65.9,52.4L65.9,52.4z"/>
		</g>
	</g>
	<g>
		<g>
			<path class="st19" d="M63.5,57.5c0.2,0.2,0.6,0.2,0.7-0.2c0.1-0.4-0.4-0.6-0.7-0.4c-0.3,0.2,0,0.7,0.3,0.5c-0.1,0-0.1,0-0.2,0
				c0-0.1,0-0.2,0-0.3c0.1,0,0.2,0,0.2,0C63.7,56.8,63.2,57.3,63.5,57.5L63.5,57.5z"/>
		</g>
	</g>
	<g>
		<g>
			<path class="st19" d="M66.2,57.3c0.3,0.1,0.7-0.2,0.5-0.5c-0.1-0.3-0.5-0.4-0.7-0.2c-0.3,0.2,0.1,0.6,0.4,0.4
				c0-0.1-0.1-0.2-0.1-0.3C66,56.6,65.8,57.2,66.2,57.3L66.2,57.3z"/>
		</g>
	</g>
	<g>
		<g>
			<path class="st19" d="M68.9,56.6c0.2,0.2,0.4,0.2,0.6,0.1c0.4-0.1,0.2-0.7-0.2-0.6l0,0C69.1,56,68.6,56.4,68.9,56.6L68.9,56.6z"
				/>
		</g>
	</g>
	<g>
		<g>
			<path class="st19" d="M69.4,56.7c0.4,0,0.4-0.6,0-0.6C69,56.1,69,56.7,69.4,56.7L69.4,56.7z"/>
		</g>
	</g>
	<g>
		<g>
			<path class="st19" d="M69.2,52.2c0.1,0.1,0.2,0.1,0.3,0.1c0.1,0,0.3-0.1,0.3-0.3c0-0.3-0.3-0.5-0.6-0.4c-0.4,0.1-0.2,0.7,0.2,0.6
				c0,0-0.1-0.1-0.1-0.1c0.1-0.1,0.2-0.2,0.3-0.3c0,0,0,0,0,0C69.1,51.5,68.8,52,69.2,52.2L69.2,52.2z"/>
		</g>
	</g>
	<g>
		<g>
			<path class="st19" d="M72.1,51.8c0.1,0,0.2,0,0.3,0c0.1,0,0.3-0.1,0.3-0.2c0.1-0.4-0.4-0.8-0.7-0.4c-0.2,0.3,0.2,0.7,0.4,0.4
				c-0.1-0.1-0.2-0.1-0.3-0.2c0.1-0.1,0.2-0.1,0.3-0.2c-0.1,0-0.2,0-0.3,0C71.7,51.2,71.7,51.8,72.1,51.8L72.1,51.8z"/>
		</g>
	</g>
	<g>
		<g>
			<path class="st19" d="M72.1,55.8c0,0.4,0.6,0.6,0.8,0.2c0.2-0.4-0.4-0.8-0.7-0.5c-0.3,0.3,0.1,0.7,0.4,0.4c0-0.1,0-0.1,0.1-0.2
				C72.7,55.5,72.2,55.5,72.1,55.8L72.1,55.8z"/>
		</g>
	</g>
	<g>
		<g>
			<path class="st20" d="M39.3,68.3c9.5-0.5,19-1.1,28.4-1.9c0.4,0,0.4-0.6,0-0.6c-9.5,0.7-18.9,1.3-28.4,1.9
				C39,67.7,39,68.3,39.3,68.3L39.3,68.3z"/>
		</g>
	</g>
	<g>
		<g>
			<path class="st20" d="M38.8,92.5c9.5,2.8,18.9,5.5,28.5,8.1c0.4,0.1,0.5-0.5,0.2-0.6c-9.5-2.6-19-5.2-28.5-8.1
				C38.6,91.8,38.4,92.4,38.8,92.5L38.8,92.5z"/>
		</g>
	</g>
	<g>
		<g>
			<path class="st20" d="M39.3,85.1c4.6,1.2,9.3,1.6,13.9,2.5c4.4,0.9,8.7,2.6,13.2,2.9c0.4,0,0.4-0.6,0-0.6c-4.6-0.3-9-2.1-13.5-3
				c-4.5-0.9-9-1.3-13.5-2.4C39,84.5,38.9,85.1,39.3,85.1L39.3,85.1z"/>
		</g>
	</g>
	<g>
		<g>
			<path class="st20" d="M39,84.5c-0.1,3.7-0.1,7.4-0.2,11.1c0,0.4,0.6,0.4,0.6,0c0.1-3.7,0.1-7.4,0.2-11.1
				C39.6,84.1,39,84.1,39,84.5L39,84.5z"/>
		</g>
	</g>
	<g>
		<g>
			<path class="st20" d="M43.6,85.4c-0.1,3.9-0.2,7.7-0.5,11.6c0,0.4,0.6,0.4,0.6,0c0.3-3.9,0.4-7.7,0.5-11.6
				C44.2,85.1,43.6,85.1,43.6,85.4L43.6,85.4z"/>
		</g>
	</g>
	<g>
		<g>
			<path class="st20" d="M47.8,86.4c-0.1,4.2-0.2,8.4-0.4,12.6c0,0.4,0.6,0.4,0.6,0c0.2-4.2,0.3-8.4,0.4-12.6
				C48.4,86,47.8,86,47.8,86.4L47.8,86.4z"/>
		</g>
	</g>
	<g>
		<g>
			<path class="st20" d="M53,87.9c-0.2,4.3-0.6,8.6-1,12.9c0,0.4,0.6,0.4,0.6,0c0.5-4.3,0.8-8.6,1-12.9C53.6,87.5,53.1,87.5,53,87.9
				L53,87.9z"/>
		</g>
	</g>
	<g>
		<g>
			<path class="st20" d="M58.6,89.1c0.5,4.7,0.6,9.3,0.4,14c0,0.4,0.6,0.4,0.6,0c0.3-4.7,0.1-9.3-0.4-14
				C59.1,88.8,58.5,88.8,58.6,89.1L58.6,89.1z"/>
		</g>
	</g>
	<g>
		<g>
			<path class="st20" d="M65.3,90.4c0.3,5.1,0.2,10.1-0.1,15.2c0,0.4,0.6,0.4,0.6,0c0.3-5.1,0.3-10.1,0.1-15.2
				C65.9,90.1,65.3,90.1,65.3,90.4L65.3,90.4z"/>
		</g>
	</g>
	<g>
		<g>
			<path class="st20" d="M39.3,65.4c-0.4,3.1-0.7,6.1-0.7,9.2c0,0.4,0.6,0.4,0.6,0c0-3.1,0.3-6.1,0.7-9.2
				C39.9,65.1,39.3,65.1,39.3,65.4L39.3,65.4z"/>
		</g>
	</g>
	<g>
		<g>
			<path class="st20" d="M43,65c-0.4,3.4-0.6,6.9-0.6,10.3c0,0.4,0.6,0.4,0.6,0c0-3.4,0.3-6.9,0.6-10.3C43.6,64.6,43,64.6,43,65
				L43,65z"/>
		</g>
	</g>
	<g>
		<g>
			<path class="st20" d="M47.4,64.4c0,3.8-0.1,7.6-0.5,11.4c0,0.4,0.6,0.4,0.6,0c0.4-3.8,0.5-7.6,0.5-11.4C48,64,47.4,64,47.4,64.4
				L47.4,64.4z"/>
		</g>
	</g>
	<g>
		<g>
			<path class="st20" d="M52.7,63.8c-0.3,3.9-0.4,7.7-0.3,11.6c0,0.4,0.6,0.4,0.6,0c-0.1-3.9,0-7.7,0.3-11.6
				C53.3,63.5,52.7,63.5,52.7,63.8L52.7,63.8z"/>
		</g>
	</g>
	<g>
		<g>
			<path class="st20" d="M58.4,63.2c0.1,4.3,0.1,8.7-0.3,13c0,0.4,0.6,0.4,0.6,0c0.3-4.3,0.4-8.7,0.3-13
				C59,62.8,58.4,62.8,58.4,63.2L58.4,63.2z"/>
		</g>
	</g>
	<g>
		<g>
			<path class="st20" d="M65.5,61.7c-0.1,4.8-0.2,9.7-0.4,14.5c0,0.4,0.6,0.4,0.6,0c0.1-4.8,0.2-9.7,0.4-14.5
				C66.1,61.4,65.5,61.4,65.5,61.7L65.5,61.7z"/>
		</g>
	</g>
	<g>
		<g>
			<path class="st20" d="M40.6,65.6C40.6,65.6,40.6,65.5,40.6,65.6c-0.3-0.3-0.7,0.1-0.5,0.4c0,0,0,0,0.1,0.1
				C40.5,66.3,40.9,65.9,40.6,65.6L40.6,65.6z"/>
		</g>
	</g>
	<g>
		<g>
			<path class="st20" d="M40.4,70.3c0.3-0.1,0.4-0.5,0.2-0.7c-0.3-0.3-0.7,0-0.7,0.3c0,0.4,0.6,0.4,0.6,0c-0.1-0.1-0.2-0.1-0.3-0.2
				C39.9,69.8,40,70.4,40.4,70.3L40.4,70.3z"/>
		</g>
	</g>
	<g>
		<g>
			<path class="st20" d="M39.9,73.9c0,0.5,0.7,0.5,0.7,0c0-0.4-0.6-0.4-0.6,0c0,0,0,0,0-0.1c0.1,0,0.1-0.1,0.2-0.1
				c0.1,0,0.1,0,0.2,0c0,0.1,0.1,0.1,0.1,0.2c0,0,0,0,0-0.1C40.5,73.5,39.9,73.5,39.9,73.9L39.9,73.9z"/>
		</g>
	</g>
	<g>
		<g>
			<path class="st20" d="M41.8,74.3c0.3,0.1,0.6-0.1,0.6-0.4c0-0.3-0.3-0.5-0.6-0.4c-0.4,0.1-0.2,0.7,0.2,0.6c0-0.1,0-0.2,0-0.4
				C41.6,73.6,41.5,74.1,41.8,74.3L41.8,74.3z"/>
		</g>
	</g>
	<g>
		<g>
			<path class="st20" d="M41.9,70.1c0.2,0.2,0.7,0.1,0.6-0.3c0-0.2-0.1-0.3-0.3-0.3c-0.1,0-0.3,0.1-0.3,0.3c0.1-0.1,0.1-0.1,0.2-0.2
				c0.1,0,0.1,0.1,0.2,0.1c0,0,0,0,0,0C42,69.4,41.6,69.8,41.9,70.1L41.9,70.1z"/>
		</g>
	</g>
	<g>
		<g>
			<path class="st20" d="M41.9,65.9c0.2,0.4,0.9,0.1,0.6-0.3C42.3,65.2,41.8,65.5,41.9,65.9c0.1-0.1,0.1-0.1,0.1-0.1
				c0-0.1,0.1-0.1,0.1-0.2c0,0,0,0,0,0c0.1,0,0.1-0.1,0.2-0.1c0.1,0,0.1,0.1,0.2,0.1C42.3,65.2,41.8,65.5,41.9,65.9L41.9,65.9z"/>
		</g>
	</g>
	<g>
		<g>
			<path class="st20" d="M44,65.6c0.2,0.2,0.6,0.2,0.8-0.1c0.1-0.1,0.1-0.3-0.1-0.4c-0.2-0.1-0.5,0-0.6,0.2
				c-0.1,0.4,0.5,0.5,0.6,0.2c0,0,0,0,0,0c0,0.1-0.1,0.1-0.1,0.2l0,0c-0.1,0-0.2,0-0.2,0c0,0,0,0,0,0c0-0.1-0.1-0.3-0.1-0.4
				c0.1,0,0.1,0,0.2,0C44.1,64.9,43.7,65.4,44,65.6L44,65.6z"/>
		</g>
	</g>
	<g>
		<g>
			<path class="st20" d="M44.1,70.1c0.2,0.1,0.5,0,0.5-0.3c0-0.3-0.3-0.4-0.5-0.3c-0.4,0.1-0.2,0.7,0.2,0.6
				C44.2,70.1,44.1,70.1,44.1,70.1c0-0.1,0-0.2-0.1-0.2c0,0,0,0,0,0c0-0.1,0-0.2,0-0.2c0,0,0,0,0.1-0.1c0.1,0,0.2,0,0.3,0
				c0,0,0,0,0,0C44,69.5,43.7,70,44.1,70.1L44.1,70.1z"/>
		</g>
	</g>
	<g>
		<g>
			<path class="st20" d="M43.9,74.1c0,0.1,0,0.2,0.1,0.3c0.1,0.1,0.3,0.2,0.4,0.1c0.2-0.1,0.2-0.2,0.3-0.3c0-0.1,0-0.3-0.1-0.3
				c-0.2-0.1-0.3-0.1-0.5-0.1c-0.4,0.1-0.2,0.6,0.2,0.6c0,0,0,0,0,0c0-0.1-0.1-0.2-0.1-0.3c0,0,0,0,0,0c0.1,0,0.3,0.1,0.4,0.1
				c0,0,0,0,0,0C44.5,73.8,43.9,73.8,43.9,74.1L43.9,74.1z"/>
		</g>
	</g>
	<g>
		<g>
			<path class="st20" d="M46.1,74.1c-0.1,0.4,0.4,0.6,0.6,0.3c0.2-0.3-0.3-0.6-0.5-0.3c0,0,0,0,0,0c0.1-0.1,0.2-0.1,0.3-0.1
				c0.1,0,0.1,0.1,0.2,0.1c0,0.1,0,0.2,0,0.2c0,0,0,0,0,0C46.8,73.9,46.2,73.7,46.1,74.1L46.1,74.1z"/>
		</g>
	</g>
	<g>
		<g>
			<path class="st20" d="M46.1,69.9c0.2,0.2,0.4,0.2,0.6,0c0.3-0.3-0.2-0.7-0.4-0.4c0.1,0,0.2,0,0.2,0
				C46.2,69.2,45.8,69.6,46.1,69.9L46.1,69.9z"/>
		</g>
	</g>
	<g>
		<g>
			<path class="st20" d="M46,65.4c0,0,0.1,0.1,0.1,0.1c0.3,0.3,0.7-0.2,0.4-0.4c0,0-0.1-0.1-0.1-0.1C46.1,64.7,45.7,65.1,46,65.4
				L46,65.4z"/>
		</g>
	</g>
	<g>
		<g>
			<path class="st20" d="M48.6,64.8c0,0.1,0,0.2,0.1,0.3c0.1,0.2,0.3,0.2,0.5,0.1c0,0,0.1-0.1,0.1-0.1c0.3-0.2-0.1-0.7-0.4-0.4
				c0,0-0.1,0.1-0.1,0.1c0.2,0,0.3,0,0.5,0.1c0,0,0,0,0,0C49.2,64.4,48.7,64.4,48.6,64.8L48.6,64.8z"/>
		</g>
	</g>
	<g>
		<g>
			<path class="st20" d="M51,64.9c0.2,0.4,0.8,0.1,0.7-0.3c-0.1-0.4-0.6-0.2-0.6,0.2c0,0,0,0,0,0c0-0.1,0-0.2,0-0.2
				c0.1,0,0.2,0,0.3,0C51.4,64.2,50.9,64.5,51,64.9L51,64.9z"/>
		</g>
	</g>
	<g>
		<g>
			<path class="st20" d="M48.4,69.7c0.1,0.4,0.7,0.4,0.8,0c0.1-0.4-0.5-0.5-0.6-0.2c0.1-0.2,0.2-0.2,0.3,0
				C48.8,69.2,48.3,69.3,48.4,69.7L48.4,69.7z"/>
		</g>
	</g>
	<g>
		<g>
			<path class="st20" d="M48.7,74.6c0.1,0.3,0.5,0.3,0.7,0c0.1-0.4-0.4-0.5-0.6-0.2c0,0,0,0,0,0c0.1-0.1,0.1-0.1,0.2-0.2
				c0,0,0.1,0,0.1,0c0.1,0.1,0.1,0.1,0.2,0.2c0,0,0,0,0,0C49.1,74.1,48.5,74.2,48.7,74.6L48.7,74.6z"/>
		</g>
	</g>
	<g>
		<g>
			<path class="st20" d="M48.6,74.5c0.4,0,0.4-0.6,0-0.6C48.3,74,48.3,74.5,48.6,74.5L48.6,74.5z"/>
		</g>
	</g>
	<g>
		<g>
			<path class="st20" d="M51.2,74.6c0.3,0.5,0.9,0.2,0.8-0.3c-0.1-0.4-0.7-0.2-0.6,0.2c0.1,0,0.2-0.1,0.3-0.1
				C51.5,74,51,74.2,51.2,74.6L51.2,74.6z"/>
		</g>
	</g>
	<g>
		<g>
			<path class="st20" d="M51.1,69.4c0.1,0.3,0.3,0.4,0.5,0.3c0.2,0,0.3-0.2,0.2-0.4c-0.1-0.3-0.4-0.4-0.7-0.2
				c-0.3,0.3,0.1,0.7,0.4,0.4c-0.1,0-0.2-0.1-0.3-0.1c0.1-0.1,0.1-0.2,0.2-0.4c0.1,0,0.1,0.1,0.2,0.1C51.5,68.9,51,69.1,51.1,69.4
				L51.1,69.4z"/>
		</g>
	</g>
	<g>
		<g>
			<path class="st20" d="M54,69.3c0.1,0.3,0.5,0.4,0.7,0.2c0.1-0.1,0.2-0.3,0.1-0.4c-0.3-0.4-0.8-0.3-1,0.1
				c-0.1,0.4,0.4,0.5,0.6,0.2c0,0-0.1,0.1-0.1,0c0-0.1,0.1-0.3,0.1-0.4c0,0,0.1,0,0.1,0C54.3,68.7,53.8,69,54,69.3L54,69.3z"/>
		</g>
	</g>
	<g>
		<g>
			<path class="st20" d="M53.7,64.6c0.1,0.3,0.6,0.3,0.7,0c0.2-0.3-0.4-0.6-0.5-0.3c0.1,0,0.2,0,0.3,0C54.1,64,53.6,64.3,53.7,64.6
				L53.7,64.6z"/>
		</g>
	</g>
	<g>
		<g>
			<path class="st20" d="M56.8,64.4c0.1,0.1,0.2,0.1,0.4,0.1c0.2,0,0.4-0.3,0.3-0.4c-0.2-0.3-0.5-0.3-0.8-0.1
				c-0.3,0.3,0.1,0.7,0.4,0.4c-0.1,0-0.1,0-0.2,0c0.1-0.2,0.2-0.3,0.3-0.4c0,0-0.1,0-0.1,0C56.8,63.8,56.5,64.3,56.8,64.4L56.8,64.4
				z"/>
		</g>
	</g>
	<g>
		<g>
			<path class="st20" d="M56.8,69.5c0.2,0.3,0.7,0.3,0.8,0c0.2-0.4-0.2-0.7-0.6-0.6c-0.4,0.1-0.2,0.7,0.2,0.6c0-0.1,0.1-0.1,0.1-0.2
				C57.1,68.9,56.5,69.2,56.8,69.5L56.8,69.5z"/>
		</g>
	</g>
	<g>
		<g>
			<path class="st20" d="M54,74.8c0.4,0.4,1,0,0.9-0.5c-0.1-0.4-0.7-0.2-0.6,0.2c0,0,0.1,0,0.1-0.1C54.1,74.1,53.7,74.5,54,74.8
				L54,74.8z"/>
		</g>
	</g>
	<g>
		<g>
			<path class="st20" d="M54.3,74.5c0.4,0,0.4-0.6,0-0.6C53.9,73.9,53.9,74.5,54.3,74.5L54.3,74.5z"/>
		</g>
	</g>
	<g>
		<g>
			<path class="st20" d="M56.9,74.9c0.2,0.1,0.3,0.1,0.5,0c0.3-0.2,0-0.7-0.3-0.5c0,0,0.1,0,0.1,0C56.9,74.2,56.6,74.7,56.9,74.9
				L56.9,74.9z"/>
		</g>
	</g>
	<g>
		<g>
			<path class="st20" d="M60.2,74.6c0,0.3,0.4,0.5,0.6,0.3c0.1-0.1,0.1-0.3,0.1-0.4c-0.1-0.2-0.2-0.2-0.4-0.3
				C60.1,73.9,59.9,74.4,60.2,74.6c0.1,0.1,0.1,0.1,0.1,0c0-0.1,0.1-0.1,0.1-0.2c0.1,0,0.2,0,0.3,0c0,0.1,0.1,0.1,0.1,0.2
				c0,0,0,0,0,0C60.7,74.2,60.1,74.2,60.2,74.6L60.2,74.6z"/>
		</g>
	</g>
	<g>
		<g>
			<path class="st20" d="M64.1,74.9c0.2-0.3,0.3-0.7-0.1-0.9c-0.4-0.1-0.6,0.3-0.5,0.6c0.2,0.3,0.7,0,0.5-0.3c0,0,0,0,0,0
				c0,0.1,0,0.2,0,0.2c-0.1,0-0.3,0-0.4,0C63.4,74.8,63.9,75.2,64.1,74.9L64.1,74.9z"/>
		</g>
	</g>
	<g>
		<g>
			<path class="st20" d="M63.8,68.4c-0.2,0.3-0.3,0.7,0.1,0.9c0.3,0.1,0.7-0.3,0.4-0.6c-0.2-0.3-0.7,0-0.5,0.3
				c0-0.1,0.1-0.2,0.1-0.3c0.1,0,0.2,0,0.2,0c0,0,0.1,0.1,0.1,0.1C64.5,68.5,64.1,68.1,63.8,68.4L63.8,68.4z"/>
		</g>
	</g>
	<g>
		<g>
			<path class="st20" d="M60,69.2c0,0.2,0.2,0.4,0.4,0.4c0.2,0,0.4-0.2,0.4-0.4c0-0.1,0-0.2-0.1-0.3c-0.1-0.1-0.3-0.1-0.4,0
				c-0.3,0.2,0,0.7,0.3,0.5c-0.1,0-0.1,0-0.2,0c0-0.1-0.1-0.2-0.1-0.3c0,0.1,0.1,0.1,0.3,0c0,0.1,0.1,0.1,0.1,0.2c0,0,0,0,0,0
				C60.6,68.9,60,68.9,60,69.2L60,69.2z"/>
		</g>
	</g>
	<g>
		<g>
			<path class="st20" d="M60.1,63.7c0,0.3,0.2,0.6,0.5,0.5c0.3-0.1,0.3-0.4,0.1-0.6c-0.3-0.3-0.7,0.1-0.4,0.4c0-0.1,0-0.1-0.1-0.2
				c0-0.1,0.1-0.1,0.1-0.2c0,0,0,0,0,0c0.1,0,0.2,0,0.2,0c0,0,0,0-0.1,0c0.1,0,0.1,0.1,0.2,0.1c0,0,0,0,0-0.1c0,0.1,0,0.2,0,0.2
				c0,0,0,0,0-0.1C60.7,63.5,60.2,63.3,60.1,63.7L60.1,63.7z"/>
		</g>
	</g>
	<g>
		<g>
			<path class="st20" d="M63.6,63.2c0,0.2,0.1,0.4,0.3,0.4c0.2,0.1,0.4-0.1,0.5-0.2c0.2-0.5-0.4-0.7-0.8-0.5c-0.3,0.2,0,0.7,0.3,0.5
				c0,0,0,0-0.1,0c0-0.1,0-0.2,0-0.2c0.1,0,0.2,0,0.3,0.1C64.1,62.8,63.5,62.8,63.6,63.2L63.6,63.2z"/>
		</g>
	</g>
	<g>
		<g>
			<path class="st21" d="M69.6,66.4c8,0.6,16,0.9,24.1,1c0.4,0,0.4-0.6,0-0.6c-8-0.1-16.1-0.4-24.1-1C69.2,65.8,69.2,66.4,69.6,66.4
				L69.6,66.4z"/>
		</g>
	</g>
	<g>
		<g>
			<path class="st21" d="M70.3,78.1c7.8-0.4,15.5-0.8,23.3-1.2c0.4,0,0.4-0.6,0-0.6c-7.8,0.4-15.5,0.8-23.3,1.2
				C69.9,77.5,69.9,78.1,70.3,78.1L70.3,78.1z"/>
		</g>
	</g>
	<g>
		<g>
			<path class="st21" d="M69.5,89.9c8.1-0.7,15.8-3.5,23.8-4.7c0.4-0.1,0.2-0.6-0.2-0.6c-8,1.2-15.6,4-23.7,4.7
				C69.1,89.4,69.1,90,69.5,89.9L69.5,89.9z"/>
		</g>
	</g>
	<g>
		<g>
			<path class="st21" d="M69.2,102c8.1-2.8,16.3-5.4,24.5-7.9c0.4-0.1,0.2-0.7-0.2-0.6c-8.2,2.5-16.4,5.1-24.5,7.9
				C68.7,101.5,68.8,102.1,69.2,102L69.2,102z"/>
		</g>
	</g>
	<g>
		<g>
			<path class="st21" d="M84.2,107.2c3.1-1.6,6.2-3,9.4-4.4c0.3-0.2,0.1-0.7-0.3-0.5c-3.2,1.4-6.3,2.8-9.4,4.4
				C83.6,106.9,83.9,107.4,84.2,107.2L84.2,107.2z"/>
		</g>
	</g>
	<g>
		<g>
			<path class="st21" d="M84.5,117c3.1-1.8,6.3-3.4,9.5-4.9c0.3-0.2,0-0.7-0.3-0.5c-3.2,1.5-6.4,3.1-9.5,4.9
				C83.9,116.7,84.2,117.2,84.5,117L84.5,117z"/>
		</g>
	</g>
	<g>
		<g>
			<path class="st21" d="M84.5,56.9c2.7,0.4,5.4,0.7,8.1,1.1c2.6,0.4,5.2,0.6,7.7,1.3c0.4,0.1,0.5-0.5,0.2-0.6
				c-2.5-0.8-5.2-1-7.7-1.3c-2.7-0.4-5.4-0.7-8.1-1.1C84.3,56.3,84.1,56.9,84.5,56.9L84.5,56.9z"/>
		</g>
	</g>
	<g>
		<g>
			<path class="st21" d="M84.4,47.2c5.3,1.8,10.7,3.4,16.1,4.9c0.4,0.1,0.5-0.5,0.2-0.6c-5.4-1.5-10.8-3.1-16.1-4.9
				C84.2,46.5,84,47.1,84.4,47.2L84.4,47.2z"/>
		</g>
	</g>
	<g>
		<g>
			<path class="st21" d="M83.9,36.8c5.6,2.2,11.2,4.4,16.8,6.7c0.4,0.1,0.5-0.4,0.2-0.6c-5.6-2.2-11.2-4.4-16.8-6.7
				C83.7,36.1,83.6,36.7,83.9,36.8L83.9,36.8z"/>
		</g>
	</g>
	<g>
		<g>
			<path class="st21" d="M84.3,26.8c5.2,2.9,10.9,4.7,16.1,7.6c0.3,0.2,0.6-0.3,0.3-0.5c-5.2-2.9-10.9-4.7-16.1-7.6
				C84.3,26.1,84,26.6,84.3,26.8L84.3,26.8z"/>
		</g>
	</g>
	<g>
		<g>
			<path class="st21" d="M84.6,24.5c0.1,0.2,0.1,0.3,0.3,0.3c0.1,0,0.3,0,0.3-0.1c0.1-0.2,0-0.6-0.2-0.7c-0.3-0.1-0.5,0.1-0.6,0.4
				c-0.1,0.4,0.4,0.5,0.6,0.2c-0.1-0.1-0.1-0.1-0.2-0.2c0.1,0,0.2-0.1,0.3-0.1c0,0,0.1,0.1,0.1,0.1C85,24,84.4,24.2,84.6,24.5
				L84.6,24.5z"/>
		</g>
	</g>
	<g>
		<g>
			<path class="st21" d="M87.4,26.2c0.1,0.4,0.7,0.4,0.7,0c0.1-0.4-0.3-0.6-0.7-0.5c-0.3,0.2,0,0.7,0.3,0.5
				c-0.1-0.1-0.1-0.2-0.2-0.2c0.1,0,0.2-0.1,0.3-0.1c0,0,0.1,0.1,0.1,0.1C87.9,25.7,87.4,25.8,87.4,26.2L87.4,26.2z"/>
		</g>
	</g>
	<g>
		<g>
			<path class="st21" d="M90.2,23.2c0.2,0.3,0.5,0.4,0.9,0.3c0.2-0.1,0.3-0.3,0.1-0.5c-0.2-0.2-0.4-0.2-0.6-0.2
				c-0.4,0.1-0.2,0.7,0.2,0.6c0,0,0,0,0.1,0c0-0.2,0.1-0.3,0.1-0.5c-0.1,0-0.2,0-0.2-0.1C90.5,22.6,89.9,22.9,90.2,23.2L90.2,23.2z"
				/>
		</g>
	</g>
	<g>
		<g>
			<path class="st21" d="M90.2,27.7c-0.1,0.3,0.2,0.6,0.5,0.6c0.3-0.1,0.4-0.4,0.3-0.7c-0.2-0.3-0.7,0-0.5,0.3c0.1,0,0.2,0,0.3-0.1
				C90.8,27.4,90.3,27.3,90.2,27.7L90.2,27.7z"/>
		</g>
	</g>
	<g>
		<g>
			<path class="st21" d="M92.8,25c0.1,0.2,0.3,0.3,0.5,0.2c0.2-0.1,0.3-0.2,0.2-0.4c0-0.1-0.1-0.2-0.2-0.3c-0.3-0.2-0.6,0.3-0.3,0.5
				c0,0,0,0,0-0.1c0.1-0.1,0.1-0.2,0.2-0.4c0,0,0.1,0,0.1,0.1C93.1,24.4,92.6,24.7,92.8,25L92.8,25z"/>
		</g>
	</g>
	<g>
		<g>
			<path class="st21" d="M93.5,29.5c0,0,0-0.1,0.1-0.1c0.2-0.3-0.3-0.6-0.5-0.3c0,0,0,0.1-0.1,0.1C92.8,29.5,93.3,29.8,93.5,29.5
				L93.5,29.5z"/>
		</g>
	</g>
	<g>
		<g>
			<path class="st21" d="M95.1,25.9c-0.2,0.2-0.1,0.5,0.1,0.6c0.2,0.1,0.5-0.1,0.5-0.3c0-0.4-0.6-0.4-0.6,0c0,0,0,0,0,0
				C95.1,26.1,95.2,26.1,95.1,25.9C95.2,26,95.2,26,95.1,25.9c0.1,0.1,0.2,0,0.2,0c0,0,0,0,0,0c0.1,0,0.1,0.1,0.2,0.1c0,0,0,0,0,0
				c0,0.1,0.1,0.1,0.1,0.2c0,0,0,0,0,0c0,0.1-0.1,0.1-0.1,0.2c0,0,0,0,0,0C95.8,26.1,95.4,25.7,95.1,25.9L95.1,25.9z"/>
		</g>
	</g>
	<g>
		<g>
			<path class="st21" d="M95.2,30.7c0.2,0.2,0.7,0.1,0.7-0.3c-0.1-0.4-0.5-0.4-0.7-0.1c-0.2,0.3,0.3,0.6,0.5,0.3c0,0,0,0,0,0
				c-0.1,0-0.1,0.1-0.2,0.1c-0.1,0-0.1-0.1-0.2-0.1c0-0.1,0-0.2,0-0.2c0.1,0,0.2-0.1,0.3-0.1C95.3,30,94.9,30.4,95.2,30.7L95.2,30.7
				z"/>
		</g>
	</g>
	<g>
		<g>
			<path class="st21" d="M97.5,27.7c0,0.4,0.6,0.6,0.7,0.2c0.2-0.4-0.3-0.7-0.7-0.5c-0.3,0.2,0,0.7,0.3,0.5c0-0.1,0.1-0.2,0.1-0.4
				c0,0.1,0.1,0.1,0.1,0.2c0,0,0,0,0,0C98,27.3,97.5,27.3,97.5,27.7L97.5,27.7z"/>
		</g>
	</g>
	<g>
		<g>
			<path class="st21" d="M97.9,32.3c0.4,0,0.7-0.4,0.4-0.7c-0.3-0.3-0.7-0.1-0.8,0.2c-0.1,0.4,0.4,0.5,0.6,0.2
				c-0.1-0.1-0.1-0.1-0.2-0.2C97.6,31.6,97.6,32.2,97.9,32.3L97.9,32.3z"/>
		</g>
	</g>
	<g>
		<g>
			<path class="st21" d="M99.7,33c0.5,0.3,0.8-0.5,0.3-0.6c-0.4-0.1-0.5,0.5-0.2,0.6c0,0,0,0-0.1,0c0-0.1-0.1-0.1-0.1-0.2
				c0,0,0,0,0,0c0-0.1,0.1-0.1,0.1-0.2c0,0,0,0,0,0c0.1,0,0.1-0.1,0.2-0.1c0,0,0,0,0.1,0C99.7,32.3,99.4,32.8,99.7,33L99.7,33z"/>
		</g>
	</g>
	<g>
		<g>
			<path class="st21" d="M100.2,28.9c0,0-0.1,0-0.1-0.1c-0.3-0.2-0.6,0.3-0.3,0.5c0,0,0.1,0,0.1,0.1
				C100.2,29.6,100.5,29.1,100.2,28.9L100.2,28.9z"/>
		</g>
	</g>
	<g>
		<g>
			<path class="st21" d="M84.5,29.7c0.2,0.1,0.5,0,0.5-0.2c0-0.2-0.2-0.4-0.4-0.4c-0.4,0.1-0.2,0.7,0.2,0.6c0,0,0,0,0,0
				C84.7,29.6,84.6,29.6,84.5,29.7C84.5,29.6,84.5,29.6,84.5,29.7c0-0.1,0-0.2-0.1-0.2c0,0,0,0,0,0c0-0.1,0-0.2,0-0.2c0,0,0,0,0,0
				c0.1,0,0.1-0.1,0.2-0.1c0,0,0,0,0,0c0.1,0,0.2,0,0.2,0c0,0,0,0,0,0C84.4,28.9,84.1,29.5,84.5,29.7L84.5,29.7z"/>
		</g>
	</g>
	<g>
		<g>
			<path class="st21" d="M84.7,34.2c-0.1,0.1-0.2,0.2-0.2,0.3c-0.1,0.2,0.2,0.5,0.4,0.3c0,0,0.1-0.1,0.1-0.1
				C85.4,34.6,85.1,34,84.7,34.2c0,0.1,0,0.1-0.1,0.2c0.1,0.1,0.3,0.2,0.4,0.3c0,0,0-0.1,0-0.1C85.4,34.3,85,33.9,84.7,34.2
				L84.7,34.2z"/>
		</g>
	</g>
	<g>
		<g>
			<path class="st21" d="M87.4,35.7c0,0.1,0,0.2,0.1,0.3c0.1,0.1,0.2,0.2,0.3,0.1c0.4-0.1,0.4-0.7,0-0.8c-0.4-0.1-0.5,0.5-0.2,0.6
				c0-0.1,0-0.2,0-0.3c0.1,0,0.2,0.1,0.3,0.1c0,0,0,0,0,0C88,35.3,87.4,35.3,87.4,35.7L87.4,35.7z"/>
		</g>
	</g>
	<g>
		<g>
			<path class="st21" d="M87.4,31C87.4,31,87.4,31,87.4,31c0.1,0.1,0.2,0.2,0.3,0.2c0,0,0,0,0,0c0.1,0,0.2-0.1,0.3-0.2c0,0,0,0,0,0
				c0.1-0.4-0.5-0.5-0.6-0.2c0,0,0,0,0,0c0.1-0.1,0.2-0.1,0.3-0.2c0,0,0,0,0,0c0.1,0.1,0.2,0.1,0.3,0.2c0,0,0,0,0,0
				C87.9,30.5,87.3,30.6,87.4,31L87.4,31z"/>
		</g>
	</g>
	<g>
		<g>
			<path class="st21" d="M90.2,32.5c0.1,0.4,0.7,0.4,0.8,0c0.1-0.4-0.5-0.5-0.6-0.2c0.1,0,0.2,0,0.4,0
				C90.7,31.9,90.1,32.1,90.2,32.5L90.2,32.5z"/>
		</g>
	</g>
	<g>
		<g>
			<path class="st21" d="M90.5,36.8c-0.1,0.1-0.2,0.2-0.3,0.4c0,0.2,0,0.3,0.2,0.4c0.5,0.2,0.8-0.6,0.3-0.8
				c-0.3-0.2-0.6,0.3-0.3,0.5c0-0.1,0.1-0.2,0.1-0.2c0.1,0.1,0.1,0.2,0.2,0.4c0,0,0,0,0,0C91.2,37.1,90.9,36.6,90.5,36.8L90.5,36.8z
				"/>
		</g>
	</g>
	<g>
		<g>
			<path class="st21" d="M92.8,38.3c0,0.1,0,0.3,0.1,0.4c0.2,0.2,0.4,0.1,0.5-0.1c0.1-0.3-0.1-0.5-0.3-0.6c-0.4-0.1-0.5,0.5-0.2,0.6
				C93,38.4,92.9,38.4,92.8,38.3c0.2,0,0.4,0,0.6-0.1c0,0,0,0,0,0.1C93.5,37.9,92.9,37.9,92.8,38.3L92.8,38.3z"/>
		</g>
	</g>
	<g>
		<g>
			<path class="st21" d="M93.3,33.8c0.1-0.2-0.1-0.4-0.3-0.5c-0.4-0.1-0.5,0.4-0.2,0.6c0,0,0,0,0,0c-0.1,0-0.1-0.1-0.2-0.1
				c0,0,0,0,0,0c0-0.1,0-0.2,0-0.2c0,0,0,0,0,0C92.7,34,93.3,34.2,93.3,33.8L93.3,33.8z"/>
		</g>
	</g>
	<g>
		<g>
			<path class="st21" d="M95.1,35.2c0.4,0.2,0.9-0.1,0.6-0.6c-0.2-0.4-0.7-0.2-0.8,0.2c0,0.4,0.6,0.4,0.6,0
				c-0.1-0.1-0.1-0.1-0.2-0.2C95.1,34.5,94.8,35.1,95.1,35.2L95.1,35.2z"/>
		</g>
	</g>
	<g>
		<g>
			<path class="st21" d="M95.5,39.1c-0.2,0.2-0.1,0.7,0.3,0.7c0.4-0.1,0.4-0.5,0.1-0.7c-0.3-0.2-0.6,0.3-0.3,0.5c0,0,0,0,0,0
				c0-0.1-0.1-0.1-0.1-0.2c0-0.1,0.1-0.1,0.1-0.2c0.1,0,0.2,0,0.2,0c0,0.1,0.1,0.2,0.1,0.3C96.2,39.2,95.8,38.8,95.5,39.1L95.5,39.1
				z"/>
		</g>
	</g>
	<g>
		<g>
			<path class="st21" d="M97.9,40.6c0.2-0.2,0.1-0.6-0.2-0.7c-0.4-0.1-0.5,0.5-0.2,0.6c0-0.1-0.1-0.2-0.1-0.3
				C97.2,40.5,97.7,40.9,97.9,40.6L97.9,40.6z"/>
		</g>
	</g>
	<g>
		<g>
			<path class="st21" d="M97.7,36.5c0.1,0,0.3,0,0.4-0.1c0.1-0.1,0.1-0.3,0-0.4c-0.1,0-0.1-0.1-0.2-0.1c-0.3-0.2-0.7,0.2-0.4,0.4
				c0.1,0,0.1,0.1,0.2,0.1c0-0.1,0-0.3,0-0.4c0,0,0,0,0.1,0C97.3,35.9,97.3,36.5,97.7,36.5L97.7,36.5z"/>
		</g>
	</g>
	<g>
		<g>
			<path class="st21" d="M99.8,37.5c0.3,0.2,0.6,0,0.7-0.2c0.1-0.4-0.4-0.5-0.6-0.2c0.1,0,0.1-0.1,0.2-0.1
				C99.8,36.7,99.5,37.2,99.8,37.5L99.8,37.5z"/>
		</g>
	</g>
	<g>
		<g>
			<path class="st21" d="M100.2,41.5c0,0,0-0.1,0-0.1c0-0.4-0.6-0.4-0.6,0c0,0,0,0.1,0,0.1C99.6,41.9,100.2,41.9,100.2,41.5
				L100.2,41.5z"/>
		</g>
	</g>
	<g>
		<g>
			<path class="st21" d="M100,41.3c0.4,0,0.4-0.6,0-0.6S99.6,41.3,100,41.3L100,41.3z"/>
		</g>
	</g>
	<g>
		<g>
			<path class="st21" d="M85.2,39.7c0.2-0.2,0.2-0.6-0.1-0.7c-0.2-0.1-0.5,0-0.6,0.3c-0.1,0.4,0.5,0.5,0.6,0.2c-0.1,0-0.2,0-0.4,0
				C84.5,39.7,85,40,85.2,39.7L85.2,39.7z"/>
		</g>
	</g>
	<g>
		<g>
			<path class="st21" d="M85.3,44.5C85.3,44.4,85.3,44.4,85.3,44.5c0-0.4-0.6-0.4-0.6-0.1c0,0,0,0,0,0.1
				C84.7,44.8,85.3,44.8,85.3,44.5L85.3,44.5z"/>
		</g>
	</g>
	<g>
		<g>
			<path class="st21" d="M88.1,45.4c0-0.1,0-0.1,0-0.2c0.1-0.4-0.5-0.5-0.6-0.2c0,0.1,0,0.1,0,0.2C87.5,45.6,88,45.8,88.1,45.4
				L88.1,45.4z"/>
		</g>
	</g>
	<g>
		<g>
			<path class="st21" d="M87.6,41c0.1,0.1,0.3,0.1,0.4,0c0.3-0.2,0-0.7-0.3-0.5c0.1,0,0.1,0,0.2,0C87.6,40.2,87.3,40.7,87.6,41
				L87.6,41z"/>
		</g>
	</g>
	<g>
		<g>
			<path class="st21" d="M90,41.9c0.2,0.4,0.8,0.1,0.7-0.3c-0.1-0.4-0.6-0.2-0.6,0.2c0,0,0,0,0,0c0-0.1,0-0.2,0-0.2
				c0.1,0,0.2,0,0.3,0C90.4,41.2,89.8,41.5,90,41.9L90,41.9z"/>
		</g>
	</g>
	<g>
		<g>
			<path class="st21" d="M90.5,46.7c0.2,0,0.5-0.1,0.5-0.3c0.1-0.4-0.5-0.5-0.6-0.2c0,0,0,0,0,0c0.1,0,0.2,0,0.2,0c0,0,0,0-0.1,0
				C90.3,46,90.2,46.6,90.5,46.7L90.5,46.7z"/>
		</g>
	</g>
	<g>
		<g>
			<path class="st21" d="M93.2,47.5c0.5,0,0.8-0.6,0.4-1c-0.3-0.2-0.7,0.2-0.4,0.4c0.1,0.1,0,0,0,0C92.8,46.9,92.8,47.5,93.2,47.5
				L93.2,47.5z"/>
		</g>
	</g>
	<g>
		<g>
			<path class="st21" d="M93.1,43c0.2,0.1,0.5,0,0.5-0.2c0.1-0.2,0-0.4-0.3-0.4c-0.2,0-0.4,0.1-0.5,0.3c-0.2,0.3,0.3,0.6,0.5,0.3
				c0,0,0,0-0.1,0c-0.1-0.2-0.2-0.3-0.3-0.4c0,0,0.1,0,0.1,0C92.9,42.3,92.7,42.9,93.1,43L93.1,43z"/>
		</g>
	</g>
	<g>
		<g>
			<path class="st21" d="M95.6,43.4c-0.1,0-0.2,0-0.2,0.1c-0.4,0.1-0.2,0.7,0.2,0.6c0.1,0,0.2,0,0.2-0.1
				C96.1,43.9,96,43.3,95.6,43.4L95.6,43.4z"/>
		</g>
	</g>
	<g>
		<g>
			<path class="st21" d="M95.6,48.4c0.4,0,0.7-0.5,0.4-0.8c-0.2-0.3-0.7,0-0.5,0.3c0,0,0-0.1,0.1-0.1C95.2,47.8,95.2,48.4,95.6,48.4
				L95.6,48.4z"/>
		</g>
	</g>
	<g>
		<g>
			<path class="st21" d="M98,44.4C98,44.4,97.9,44.3,98,44.4c-0.3-0.3-0.7,0.1-0.5,0.4c0,0,0,0,0.1,0.1C97.8,45.1,98.3,44.6,98,44.4
				L98,44.4z"/>
		</g>
	</g>
	<g>
		<g>
			<path class="st21" d="M97.6,49.1c0.4,0.1,0.7-0.4,0.4-0.7c-0.3-0.3-0.7,0.2-0.4,0.4c0.1-0.1,0.1-0.2,0.2-0.3
				C97.4,48.4,97.3,49,97.6,49.1L97.6,49.1z"/>
		</g>
	</g>
	<g>
		<g>
			<path class="st21" d="M99.6,45.4c0.2,0.3,0.7,0.1,0.6-0.3c-0.1-0.4-0.7-0.2-0.6,0.2C99.7,45.3,99.7,45.3,99.6,45.4
				c0.1-0.2,0.1-0.2,0.1-0.3c0.1,0,0.1-0.1,0.2-0.1c0.1,0.1,0.2,0.1,0.3,0.1c0,0,0,0,0,0C99.9,44.8,99.4,45.1,99.6,45.4L99.6,45.4z"
				/>
		</g>
	</g>
	<g>
		<g>
			<path class="st21" d="M100,49.7c0.1,0,0.1,0,0.2-0.1c0.4-0.1,0.2-0.7-0.2-0.6c-0.1,0-0.1,0-0.2,0.1C99.5,49.3,99.6,49.8,100,49.7
				L100,49.7z"/>
		</g>
	</g>
	<g>
		<g>
			<path class="st21" d="M84.8,49.7c0.1,0.1,0.2,0.1,0.4,0c0.2-0.1,0.3-0.3,0.1-0.5c-0.1,0-0.1-0.1-0.2-0.1
				c-0.3-0.2-0.7,0.2-0.4,0.4C84.8,49.6,84.8,49.6,84.8,49.7c0.1-0.2,0.2-0.4,0.2-0.5c0,0,0.1,0,0.1,0C84.7,49,84.4,49.5,84.8,49.7
				L84.8,49.7z"/>
		</g>
	</g>
	<g>
		<g>
			<path class="st21" d="M84.9,54.7c0.4,0,0.6-0.5,0.3-0.7c-0.2-0.3-0.7,0.1-0.4,0.4c0-0.1,0.1-0.2,0.1-0.3
				C84.5,54.1,84.5,54.7,84.9,54.7L84.9,54.7z"/>
		</g>
	</g>
	<g>
		<g>
			<path class="st21" d="M87.6,55c0.3,0.2,0.7,0,0.7-0.4c0-0.1-0.1-0.2-0.1-0.3c-0.1-0.1-0.3-0.1-0.4-0.1c-0.2,0-0.3,0.1-0.3,0.3
				c0,0.1,0.1,0.3,0.3,0.3c0.1,0,0.1,0,0.1,0c-0.1-0.1-0.1-0.2-0.1-0.3c0.1,0,0.1-0.1,0.2-0.1C87.5,54.3,87.2,54.8,87.6,55L87.6,55z
				"/>
		</g>
	</g>
	<g>
		<g>
			<path class="st21" d="M87.5,50.1c0,0.1,0,0.2,0.1,0.3c0.1,0.2,0.3,0.2,0.5,0.1c0,0,0.1-0.1,0.1-0.1c0.3-0.2-0.1-0.7-0.4-0.4
				c0,0-0.1,0.1-0.1,0.1c0.2,0,0.3,0,0.5,0.1c0,0,0,0,0,0C88.1,49.7,87.5,49.7,87.5,50.1L87.5,50.1z"/>
		</g>
	</g>
	<g>
		<g>
			<path class="st21" d="M90.3,51.4c0.2,0,0.3,0,0.5-0.2c0.1-0.1,0.1-0.2,0-0.3c-0.2-0.3-0.6-0.4-0.8-0.1c-0.2,0.3,0.2,0.7,0.4,0.4
				c0,0-0.1,0-0.1,0c0-0.1,0-0.2,0-0.3c0,0,0,0,0,0c0.1,0,0.1-0.1,0.2-0.1c0,0,0,0,0.1,0C90,50.7,89.9,51.3,90.3,51.4L90.3,51.4z"/>
		</g>
	</g>
	<g>
		<g>
			<path class="st21" d="M90.7,55.8c0.1,0,0.2,0,0.3-0.1c0.1-0.1,0.2-0.3,0.1-0.4c0-0.1-0.1-0.1-0.2-0.2c-0.1-0.1-0.2-0.1-0.4,0
				c-0.1,0.1-0.2,0.2-0.3,0.3c-0.1,0.4,0.4,0.5,0.6,0.2c0,0,0,0,0,0.1c-0.1,0-0.2,0-0.4,0c0,0,0.1,0,0.1,0.1c0-0.1,0.1-0.3,0.1-0.4
				c0,0,0,0,0,0C90.4,55.2,90.4,55.8,90.7,55.8L90.7,55.8z"/>
		</g>
	</g>
	<g>
		<g>
			<path class="st21" d="M92.6,56.3c0.2,0.2,0.5,0.3,0.6,0c0.1-0.2,0-0.5-0.3-0.6c-0.4-0.1-0.5,0.5-0.2,0.6c0-0.1-0.1-0.2-0.1-0.3
				c0.1,0,0.1-0.1,0.2-0.1c0,0,0,0,0.1,0c0.1,0,0.1,0.1,0.2,0.1c0,0,0,0,0,0C92.9,55.7,92.4,56,92.6,56.3L92.6,56.3z"/>
		</g>
	</g>
	<g>
		<g>
			<path class="st21" d="M92.8,51.4c0,0.1,0,0.3,0.1,0.3c0.1,0.1,0.2,0.1,0.4,0c0.2-0.1,0.3-0.4,0.2-0.6c-0.2-0.3-0.7,0-0.5,0.3
				c0-0.1,0-0.1,0-0.2c0.1,0,0.2,0,0.4,0c0,0,0,0.1,0,0.1C93.4,51,92.8,51,92.8,51.4L92.8,51.4z"/>
		</g>
	</g>
	<g>
		<g>
			<path class="st21" d="M95.5,52.2c-0.1,0-0.1,0-0.2-0.1c-0.4-0.1-0.5,0.5-0.2,0.6c0.1,0,0.1,0,0.2,0.1
				C95.7,52.8,95.9,52.3,95.5,52.2L95.5,52.2z"/>
		</g>
	</g>
	<g>
		<g>
			<path class="st21" d="M95.6,56.4c0,0-0.1,0-0.1,0.1c-0.3,0.2,0,0.7,0.3,0.5c0,0,0.1,0,0.1-0.1C96.2,56.7,95.9,56.2,95.6,56.4
				L95.6,56.4z"/>
		</g>
	</g>
	<g>
		<g>
			<path class="st21" d="M97.7,57.2c0.4,0,0.4-0.6,0-0.6C97.3,56.6,97.3,57.2,97.7,57.2L97.7,57.2z"/>
		</g>
	</g>
	<g>
		<g>
			<path class="st21" d="M97.7,57.2c0.4,0,0.4-0.6,0-0.6C97.3,56.6,97.3,57.2,97.7,57.2L97.7,57.2z"/>
		</g>
	</g>
	<g>
		<g>
			<path class="st21" d="M97.7,53.2c0.4,0,0.4-0.6,0-0.6C97.3,52.6,97.3,53.2,97.7,53.2L97.7,53.2z"/>
		</g>
	</g>
	<g>
		<g>
			<path class="st21" d="M99.8,53.3C99.8,53.3,99.7,53.4,99.8,53.3c-0.3,0.3,0.1,0.7,0.4,0.5c0,0,0,0,0.1-0.1
				C100.5,53.5,100,53,99.8,53.3L99.8,53.3z"/>
		</g>
	</g>
	<g>
		<g>
			<path class="st21" d="M100.3,57.4C100.3,57.4,100.3,57.4,100.3,57.4c0-0.4-0.6-0.4-0.6-0.1c0,0,0,0,0,0.1
				C99.7,57.8,100.3,57.8,100.3,57.4L100.3,57.4z"/>
		</g>
	</g>
	<g>
		<g>
			<path class="st21" d="M74.3,63.7c0.2-0.1,0.3-0.3,0.2-0.5c-0.1-0.2-0.2-0.3-0.4-0.3c-0.4,0-0.6,0.7-0.2,0.9
				c0.3,0.2,0.6-0.3,0.3-0.5c-0.1,0-0.1,0-0.2,0C73.7,63.4,74,63.9,74.3,63.7L74.3,63.7z"/>
		</g>
	</g>
	<g>
		<g>
			<path class="st21" d="M78.2,63.5c-0.3-0.2-0.6,0-0.7,0.3c-0.1,0.4,0.4,0.5,0.6,0.2c-0.1,0-0.1,0.1-0.2,0.1
				C78.2,64.2,78.5,63.7,78.2,63.5L78.2,63.5z"/>
		</g>
	</g>
	<g>
		<g>
			<path class="st21" d="M81.4,64.3c0-0.1-0.1-0.1-0.1-0.2c-0.1,0.4,0.4,0.5,0.6,0.2c0.1-0.2,0-0.4-0.2-0.5
				C81.3,63.6,81,64.1,81.4,64.3L81.4,64.3z"/>
		</g>
	</g>
	<g>
		<g>
			<path class="st21" d="M84.8,64.7c0,0,0.1,0,0.1,0.1c0.3,0.2,0.6-0.3,0.3-0.5c0,0-0.1,0-0.1-0.1C84.7,64.1,84.4,64.6,84.8,64.7
				L84.8,64.7z"/>
		</g>
	</g>
	<g>
		<g>
			<path class="st21" d="M88.3,64.9c0,0,0-0.1,0.1-0.1c0.2-0.3-0.3-0.6-0.5-0.3c0,0,0,0.1-0.1,0.1C87.6,64.9,88.2,65.2,88.3,64.9
				L88.3,64.9z"/>
		</g>
	</g>
	<g>
		<g>
			<path class="st21" d="M87.7,64.8c0.4,0,0.4-0.6,0-0.6C87.3,64.2,87.3,64.8,87.7,64.8L87.7,64.8z"/>
		</g>
	</g>
	<g>
		<g>
			<path class="st21" d="M90.3,64.9c0.2,0.2,0.3,0.2,0.5,0.1c0.4-0.2,0.1-0.7-0.3-0.5c0.1,0,0.1,0,0.2,0
				C90.4,64.2,90,64.6,90.3,64.9L90.3,64.9z"/>
		</g>
	</g>
	<g>
		<g>
			<path class="st21" d="M93.5,64.6c-0.1-0.1-0.3-0.1-0.4,0c-0.3,0.2,0,0.7,0.3,0.5c-0.1,0-0.1,0-0.2,0
				C93.5,65.4,93.8,64.9,93.5,64.6L93.5,64.6z"/>
		</g>
	</g>
	<g>
		<g>
			<path class="st21" d="M95.9,65C95.8,65,95.8,65,95.9,65c-0.4,0-0.4,0.6-0.1,0.6c0,0,0,0,0.1,0C96.2,65.6,96.3,65,95.9,65L95.9,65
				z"/>
		</g>
	</g>
	<g>
		<g>
			<path class="st21" d="M97.5,65.1C97.5,65.1,97.5,65.1,97.5,65.1c0,0.4,0.6,0.4,0.6,0.1c0,0,0,0,0-0.1
				C98.1,64.7,97.5,64.7,97.5,65.1L97.5,65.1z"/>
		</g>
	</g>
	<g>
		<g>
			<path class="st21" d="M99.8,65.6c0.4,0,0.4-0.6,0-0.6C99.4,65,99.4,65.6,99.8,65.6L99.8,65.6z"/>
		</g>
	</g>
	<g>
		<g>
			<path class="st21" d="M84.9,59.5C84.9,59.5,84.9,59.5,84.9,59.5c0-0.1-0.1-0.2-0.1-0.2c0,0,0,0,0,0c0.1-0.1,0.1-0.2,0.1-0.3
				c0,0,0,0,0,0c-0.3,0.2,0,0.7,0.3,0.5c0,0,0,0,0,0c0.1,0,0.1-0.2,0.1-0.3c0,0,0,0,0,0c0-0.1-0.1-0.2-0.1-0.3c0,0,0,0,0,0
				C84.9,58.8,84.6,59.3,84.9,59.5L84.9,59.5z"/>
		</g>
	</g>
	<g>
		<g>
			<path class="st21" d="M87.8,60.1C87.8,60.1,87.9,60.1,87.8,60.1c0.4,0,0.4-0.6,0.1-0.6c0,0,0,0-0.1,0
				C87.4,59.5,87.4,60.1,87.8,60.1L87.8,60.1z"/>
		</g>
	</g>
	<g>
		<g>
			<path class="st21" d="M87.9,60c0.4,0,0.4-0.6,0-0.6C87.5,59.4,87.5,60,87.9,60L87.9,60z"/>
		</g>
	</g>
	<g>
		<g>
			<path class="st21" d="M90.2,60.2c0,0,0,0.1,0.1,0.1c0.2,0.3,0.7,0,0.5-0.3c0,0,0-0.1-0.1-0.1C90.5,59.5,90,59.8,90.2,60.2
				L90.2,60.2z"/>
		</g>
	</g>
	<g>
		<g>
			<path class="st21" d="M93,60.8c0.2,0,0.3,0,0.5-0.1c0.2-0.1,0.2-0.3,0.1-0.5c-0.2-0.3-0.7-0.3-0.9,0c-0.2,0.3,0.2,0.7,0.4,0.4
				c0,0,0,0,0.1,0c0-0.2,0-0.3,0.1-0.5c-0.1,0-0.1,0-0.2,0c-0.2,0-0.3,0.2-0.3,0.3C92.7,60.7,92.9,60.8,93,60.8L93,60.8z"/>
		</g>
	</g>
	<g>
		<g>
			<path class="st21" d="M95.4,61.1c0.4,0,0.4-0.6,0-0.6C95,60.5,95,61.1,95.4,61.1L95.4,61.1z"/>
		</g>
	</g>
	<g>
		<g>
			<path class="st21" d="M98.1,61.3c0-0.2-0.1-0.4-0.3-0.5c-0.4-0.1-0.5,0.4-0.2,0.6c0,0-0.1-0.1-0.1-0.1c0,0.2,0.2,0.3,0.3,0.3
				C97.9,61.6,98,61.4,98.1,61.3L98.1,61.3z"/>
		</g>
	</g>
	<g>
		<g>
			<path class="st21" d="M70,68.6C70,68.6,70,68.6,70,68.6c-0.1,0.1-0.1,0.2-0.1,0.3c0,0,0,0,0,0c0,0.1,0.2,0.2,0.3,0.2c0,0,0,0,0,0
				c0.1,0,0.2-0.1,0.3-0.1c0,0,0,0,0,0c0.2-0.3-0.3-0.6-0.5-0.3c0,0,0,0,0,0c0.1-0.1,0.2-0.1,0.3-0.1c0,0,0,0,0,0
				c0.1,0.1,0.2,0.1,0.3,0.2c0,0,0,0,0,0c0,0.1-0.1,0.2-0.1,0.3c0,0,0,0,0,0C70.7,68.8,70.3,68.3,70,68.6L70,68.6z"/>
		</g>
	</g>
	<g>
		<g>
			<path class="st21" d="M69.9,74.8c0,0.3,0.1,0.5,0.4,0.4c0.3-0.1,0.3-0.4,0.2-0.7c-0.2-0.3-0.7,0-0.5,0.3c0,0,0-0.1,0.1-0.1
				c0.1,0,0.1-0.1,0.2-0.1c0,0,0.1,0,0.1,0.1c0,0.1,0.1,0.2,0.1,0.3c0,0,0,0,0,0C70.5,74.5,70,74.4,69.9,74.8L69.9,74.8z"/>
		</g>
	</g>
	<g>
		<g>
			<path class="st21" d="M74,69.3c0.4,0.2,0.7-0.2,0.5-0.5c-0.2-0.3-0.7,0-0.5,0.3c0,0,0,0,0,0c0-0.1,0-0.2,0-0.2
				c0,0,0.1-0.1,0.1-0.1c0.1,0,0.2,0,0.2,0c0,0,0,0,0,0C74,68.6,73.7,69.2,74,69.3L74,69.3z"/>
		</g>
	</g>
	<g>
		<g>
			<path class="st21" d="M74.6,74.9c0.2-0.3,0.1-0.6-0.2-0.7c-0.4-0.1-0.5,0.4-0.2,0.6c0-0.1,0-0.2-0.1-0.3
				C74,74.8,74.4,75.2,74.6,74.9L74.6,74.9z"/>
		</g>
	</g>
	<g>
		<g>
			<path class="st21" d="M77.8,69.3c0.1,0.2,0.4,0.2,0.5,0.1c0.2-0.1,0.2-0.4,0.1-0.5c-0.2-0.3-0.7,0-0.5,0.3c0,0,0,0,0-0.1
				C77.9,69,78,69,78,68.9c0.1,0,0.1,0,0.2,0C78,68.6,77.6,69,77.8,69.3L77.8,69.3z"/>
		</g>
	</g>
	<g>
		<g>
			<path class="st21" d="M78.3,74.8c0.3-0.1,0.5-0.5,0.2-0.8c-0.3-0.3-0.8,0-0.8,0.4c0,0.4,0.6,0.4,0.6,0c-0.3,0-0.3-0.1-0.2-0.1
				C77.8,74.3,77.9,74.9,78.3,74.8L78.3,74.8z"/>
		</g>
	</g>
	<g>
		<g>
			<path class="st21" d="M81.6,74.1c-0.1-0.1-0.3-0.1-0.4,0c-0.3,0.2,0,0.7,0.3,0.5c-0.1,0-0.1,0-0.2,0
				C81.6,74.8,81.9,74.3,81.6,74.1L81.6,74.1z"/>
		</g>
	</g>
	<g>
		<g>
			<path class="st21" d="M81.7,69.5c0.4,0,0.4-0.6,0-0.6S81.3,69.5,81.7,69.5L81.7,69.5z"/>
		</g>
	</g>
	<g>
		<g>
			<path class="st21" d="M84.8,69.4c0,0,0.1,0.1,0.1,0.1c0.3,0.3,0.7-0.1,0.4-0.4c0,0-0.1-0.1-0.1-0.1
				C84.9,68.7,84.5,69.1,84.8,69.4L84.8,69.4z"/>
		</g>
	</g>
	<g>
		<g>
			<path class="st21" d="M84.7,74.4c0.2,0.2,0.6,0.1,0.7-0.2c0.1-0.4-0.5-0.5-0.6-0.2c0.1,0,0.1-0.1,0.2-0.1c0.1,0,0.1,0.1,0.2,0.1
				c0,0,0,0,0,0C84.8,73.7,84.4,74.1,84.7,74.4L84.7,74.4z"/>
		</g>
	</g>
	<g>
		<g>
			<path class="st21" d="M88,74.4c0.1,0,0.1,0,0.2-0.1c0.4-0.1,0.2-0.7-0.2-0.6c-0.1,0-0.1,0-0.2,0.1C87.5,74,87.7,74.6,88,74.4
				L88,74.4z"/>
		</g>
	</g>
	<g>
		<g>
			<path class="st21" d="M87.9,69.7c0.4,0,0.6-0.4,0.4-0.7c-0.2-0.3-0.7-0.1-0.8,0.2c-0.1,0.4,0.4,0.5,0.6,0.2
				c-0.1-0.1-0.1-0.1-0.2-0.2C87.6,69.1,87.6,69.7,87.9,69.7L87.9,69.7z"/>
		</g>
	</g>
	<g>
		<g>
			<path class="st21" d="M90.4,69.6C90.4,69.7,90.5,69.7,90.4,69.6c0.3,0.3,0.7-0.1,0.5-0.4c0,0,0,0-0.1-0.1
				C90.6,68.9,90.1,69.4,90.4,69.6L90.4,69.6z"/>
		</g>
	</g>
	<g>
		<g>
			<path class="st21" d="M90.5,74.2c0.2,0.2,0.5,0.2,0.6,0c0.2-0.3-0.1-0.7-0.4-0.4c-0.1,0-0.1,0.1-0.2,0.1
				c-0.3,0.3,0.1,0.7,0.4,0.4c0.1,0,0.1-0.1,0.2-0.1c-0.1-0.1-0.3-0.3-0.4-0.4c0.1,0,0.1,0,0.2,0C90.6,73.5,90.2,73.9,90.5,74.2
				L90.5,74.2z"/>
		</g>
	</g>
	<g>
		<g>
			<path class="st21" d="M93.2,74.2C93.3,74.2,93.3,74.2,93.2,74.2c0.4,0,0.4-0.6,0.1-0.6c0,0,0,0-0.1,0
				C92.9,73.6,92.9,74.2,93.2,74.2L93.2,74.2z"/>
		</g>
	</g>
	<g>
		<g>
			<path class="st21" d="M93.1,69.7c0.4,0,0.4-0.6,0-0.6S92.7,69.7,93.1,69.7L93.1,69.7z"/>
		</g>
	</g>
	<g>
		<g>
			<path class="st21" d="M70.5,81c0.2-0.1,0.4-0.3,0.2-0.5c-0.1-0.2-0.5-0.2-0.6,0.1c-0.2,0.3,0.3,0.6,0.5,0.3c0,0,0,0,0,0
				C70.5,80.8,70.5,80.8,70.5,81c-0.1-0.1-0.1-0.1-0.1-0.1c-0.1-0.1-0.1-0.1-0.2-0.2c0,0,0,0,0,0c0-0.1,0-0.2,0-0.2c0,0,0,0,0,0
				c0.1,0,0.1-0.1,0.2-0.1c0,0,0,0,0,0C69.9,80.5,70.1,81.1,70.5,81L70.5,81z"/>
		</g>
	</g>
	<g>
		<g>
			<path class="st21" d="M70.6,86.9c0.7,0,0.7-0.9,0-1c-0.4,0-0.4,0.6,0,0.6c0-0.1,0-0.1,0-0.2C70.2,86.4,70.2,86.9,70.6,86.9
				L70.6,86.9z"/>
		</g>
	</g>
	<g>
		<g>
			<path class="st21" d="M74.6,86.1C74.6,86.1,74.6,86.1,74.6,86.1c0.3-0.3-0.1-0.7-0.4-0.5c0,0,0,0-0.1,0.1
				C73.9,86,74.3,86.4,74.6,86.1L74.6,86.1z"/>
		</g>
	</g>
	<g>
		<g>
			<path class="st21" d="M74.2,80.4c0,0,0.1,0.1,0.1,0.1c0.3,0.3,0.7-0.2,0.4-0.4c0,0-0.1-0.1-0.1-0.1
				C74.3,79.7,73.9,80.1,74.2,80.4L74.2,80.4z"/>
		</g>
	</g>
	<g>
		<g>
			<path class="st21" d="M78.3,80.2c0.3,0.1,0.6-0.4,0.3-0.6c-0.3-0.2-0.7,0.2-0.4,0.4c0,0,0,0,0,0c0-0.1-0.1-0.1-0.1-0.2
				c0-0.1,0.1-0.1,0.1-0.2c0.1,0,0.2,0,0.2,0c0,0,0,0,0,0C78.1,79.5,77.9,80.1,78.3,80.2L78.3,80.2z"/>
		</g>
	</g>
	<g>
		<g>
			<path class="st21" d="M78.4,85.5c0.3-0.2,0.3-0.5,0.1-0.8c-0.3-0.3-0.7-0.1-0.9,0.1c-0.3,0.3,0.2,0.7,0.4,0.4
				c0,0,0.1-0.1,0.1-0.1c-0.1,0-0.1-0.1,0-0.2C77.8,85.2,78.1,85.7,78.4,85.5L78.4,85.5z"/>
		</g>
	</g>
	<g>
		<g>
			<path class="st21" d="M81.3,85.1c0.2,0,0.3,0,0.4-0.1c0.3-0.2,0-0.7-0.3-0.5c0,0-0.1,0-0.2,0C81,84.4,81,85,81.3,85.1L81.3,85.1z
				"/>
		</g>
	</g>
	<g>
		<g>
			<path class="st21" d="M81.5,79.4C81.5,79.4,81.5,79.5,81.5,79.4c0,0.4,0.6,0.4,0.6,0.1c0,0,0,0,0-0.1C82,79,81.5,79,81.5,79.4
				L81.5,79.4z"/>
		</g>
	</g>
	<g>
		<g>
			<path class="st21" d="M84.7,79.5C84.7,79.5,84.7,79.5,84.7,79.5c0.3,0.3,0.7-0.1,0.5-0.4c0,0,0,0-0.1-0.1
				C84.8,78.8,84.4,79.2,84.7,79.5L84.7,79.5z"/>
		</g>
	</g>
	<g>
		<g>
			<path class="st21" d="M85.4,84.2c0-0.1,0-0.1,0.1-0.2c0.1-0.4-0.4-0.5-0.6-0.2c0,0.1,0,0.1-0.1,0.2
				C84.7,84.4,85.3,84.6,85.4,84.2L85.4,84.2z"/>
		</g>
	</g>
	<g>
		<g>
			<path class="st21" d="M85,84.1c0.4,0,0.4-0.6,0-0.6C84.6,83.5,84.6,84.1,85,84.1L85,84.1z"/>
		</g>
	</g>
	<g>
		<g>
			<path class="st21" d="M88.2,79.3c0.2-0.1,0.2-0.4,0-0.6c-0.3-0.2-0.6,0.3-0.3,0.5c0,0,0,0,0,0c-0.1-0.1-0.1-0.2-0.1-0.3
				c0,0,0,0,0,0c0.1-0.1,0.1-0.2,0.1-0.3c0,0,0,0,0,0C87.5,79,87.8,79.5,88.2,79.3L88.2,79.3z"/>
		</g>
	</g>
	<g>
		<g>
			<path class="st21" d="M88.1,83.6c0,0,0-0.1,0-0.1c0-0.4-0.6-0.4-0.6,0c0,0,0,0.1,0,0.1C87.5,84,88.1,84,88.1,83.6L88.1,83.6z"/>
		</g>
	</g>
	<g>
		<g>
			<path class="st21" d="M87.4,83.4c0,0,0,0.1,0,0.1c0,0.4,0.6,0.4,0.6,0c0,0,0-0.1,0-0.1C87.9,83,87.4,83,87.4,83.4L87.4,83.4z"/>
		</g>
	</g>
	<g>
		<g>
			<path class="st21" d="M90.7,83.4c0.4,0,0.4-0.6,0-0.6C90.4,82.8,90.4,83.4,90.7,83.4L90.7,83.4z"/>
		</g>
	</g>
	<g>
		<g>
			<path class="st21" d="M90.3,78.5c0,0,0,0.1,0,0.1c0,0.4,0.6,0.4,0.6,0c0,0,0-0.1,0-0.1C90.9,78.2,90.3,78.2,90.3,78.5L90.3,78.5z
				"/>
		</g>
	</g>
	<g>
		<g>
			<path class="st21" d="M93,78.3c0,0.1,0,0.1,0.1,0.2c0.1,0.4,0.7,0.2,0.6-0.2c0-0.1,0-0.1-0.1-0.2C93.5,77.8,92.9,78,93,78.3
				L93,78.3z"/>
		</g>
	</g>
	<g>
		<g>
			<path class="st21" d="M93.1,83c0,0,0,0.1,0,0.1c0,0.4,0.6,0.4,0.6,0c0,0,0-0.1,0-0.1C93.7,82.6,93.1,82.6,93.1,83L93.1,83z"/>
		</g>
	</g>
	<g>
		<g>
			<path class="st21" d="M70.6,92.1c-0.1,0-0.1,0-0.2-0.1c-0.4-0.1-0.5,0.5-0.2,0.6c0.1,0,0.1,0,0.2,0.1
				C70.8,92.8,71,92.2,70.6,92.1L70.6,92.1z"/>
		</g>
	</g>
	<g>
		<g>
			<path class="st21" d="M70.2,98.5c0.4,0.2,0.8-0.2,0.6-0.6c-0.2-0.3-0.7,0-0.5,0.3c0.1-0.1,0.2-0.2,0.2-0.2
				C70.2,97.8,69.9,98.3,70.2,98.5L70.2,98.5z"/>
		</g>
	</g>
	<g>
		<g>
			<path class="st21" d="M70.8,104.4c0.3-0.2,0.1-0.7-0.2-0.7c-0.4-0.1-0.5,0.5-0.2,0.6c0-0.1-0.1-0.2-0.1-0.3
				C70.1,104.2,70.5,104.6,70.8,104.4L70.8,104.4z"/>
		</g>
	</g>
	<g>
		<g>
			<path class="st21" d="M74.4,103c0.2,0.2,0.5,0.2,0.7-0.1c0.2-0.3,0-0.5-0.3-0.6c-0.4-0.1-0.5,0.5-0.2,0.6
				c0.1-0.1,0.1-0.2,0.2-0.3C74.6,102.4,74.1,102.8,74.4,103L74.4,103z"/>
		</g>
	</g>
	<g>
		<g>
			<path class="st21" d="M74.3,97c0.1,0.2,0.3,0.4,0.6,0.4c0.3,0,0.5-0.3,0.5-0.5c0-0.7-1-0.7-1.1-0.1c0,0.2,0,0.3,0.2,0.4
				c0.1,0,0.3-0.1,0.4-0.2c0-0.1,0-0.1-0.1-0.1c0-0.1,0.1-0.1,0.1,0C74.7,96.5,74.1,96.7,74.3,97L74.3,97z"/>
		</g>
	</g>
	<g>
		<g>
			<path class="st21" d="M74.3,91.6c0.2,0.1,0.3,0.1,0.5,0c0.3-0.2,0-0.7-0.3-0.5c0,0,0.1,0,0.1,0C74.2,90.9,73.9,91.4,74.3,91.6
				L74.3,91.6z"/>
		</g>
	</g>
	<g>
		<g>
			<path class="st21" d="M78.2,90.3c0,0-0.1,0-0.1,0.1c-0.3,0.2,0,0.7,0.3,0.5c0,0,0.1,0,0.1-0.1C78.8,90.7,78.5,90.1,78.2,90.3
				L78.2,90.3z"/>
		</g>
	</g>
	<g>
		<g>
			<path class="st21" d="M78.8,96.1c0-0.4-0.5-0.6-0.8-0.3c-0.3,0.3,0.1,0.7,0.4,0.4c-0.1,0-0.2-0.1-0.3-0.1
				C78.2,96.4,78.8,96.4,78.8,96.1L78.8,96.1z"/>
		</g>
	</g>
	<g>
		<g>
			<path class="st21" d="M78.2,101.6c0.2,0.2,0.6,0.2,0.7-0.1c0.1-0.3-0.2-0.6-0.5-0.5c-0.4,0.1-0.2,0.6,0.2,0.6
				c0-0.1,0.1-0.2,0.1-0.3C78.4,100.9,77.9,101.3,78.2,101.6L78.2,101.6z"/>
		</g>
	</g>
	<g>
		<g>
			<path class="st21" d="M81.5,100.4c0.3,0.2,0.7,0,0.7-0.3c0.1-0.4-0.5-0.5-0.6-0.2c0.1,0,0.1,0,0.1-0.1
				C81.5,99.7,81.2,100.2,81.5,100.4L81.5,100.4z"/>
		</g>
	</g>
	<g>
		<g>
			<path class="st21" d="M81.7,95.3C81.7,95.3,81.7,95.3,81.7,95.3c0.4,0,0.4-0.6,0.1-0.6c0,0,0,0-0.1,0
				C81.3,94.7,81.3,95.3,81.7,95.3L81.7,95.3z"/>
		</g>
	</g>
	<g>
		<g>
			<path class="st21" d="M81.5,90c0,0,0.1,0.1,0.1,0.1c0.3,0.3,0.7-0.2,0.4-0.4c0,0-0.1-0.1-0.1-0.1C81.6,89.3,81.2,89.7,81.5,90
				L81.5,90z"/>
		</g>
	</g>
	<g>
		<g>
			<path class="st21" d="M85,89.3c0.1,0.1,0.3,0.1,0.4,0c0.3-0.2,0-0.7-0.3-0.5c0.1,0,0.1,0,0.2,0C85,88.6,84.7,89.1,85,89.3
				L85,89.3z"/>
		</g>
	</g>
	<g>
		<g>
			<path class="st21" d="M84.9,94.3c0.1,0,0.1,0,0.2,0c0.1,0,0.3-0.1,0.3-0.2c0-0.1,0-0.3-0.1-0.4c-0.2-0.3-0.7,0-0.5,0.3
				c0,0,0,0,0-0.1c0.1-0.1,0.2-0.1,0.3-0.2c-0.1,0-0.1,0-0.2,0C84.5,93.7,84.5,94.3,84.9,94.3L84.9,94.3z"/>
		</g>
	</g>
	<g>
		<g>
			<path class="st21" d="M87.8,88.7C87.8,88.7,87.8,88.7,87.8,88.7c0.3,0.3,0.7-0.1,0.5-0.4c0,0,0,0-0.1-0.1
				C87.9,88,87.5,88.4,87.8,88.7L87.8,88.7z"/>
		</g>
	</g>
	<g>
		<g>
			<path class="st21" d="M87.8,93.1C87.8,93.1,87.8,93.2,87.8,93.1c0,0.4,0.6,0.4,0.6,0.1c0,0,0,0,0-0.1
				C88.4,92.7,87.8,92.7,87.8,93.1L87.8,93.1z"/>
		</g>
	</g>
	<g>
		<g>
			<path class="st21" d="M91.2,92.7C91.2,92.7,91.3,92.7,91.2,92.7c0.4,0,0.4-0.6,0.1-0.6c0,0,0,0-0.1,0
				C90.8,92.1,90.8,92.7,91.2,92.7L91.2,92.7z"/>
		</g>
	</g>
	<g>
		<g>
			<path class="st21" d="M90.7,88.2C90.7,88.2,90.7,88.2,90.7,88.2c0.3,0.3,0.7-0.1,0.5-0.4c0,0,0,0-0.1-0.1
				C90.8,87.5,90.4,87.9,90.7,88.2L90.7,88.2z"/>
		</g>
	</g>
	<g>
		<g>
			<path class="st21" d="M93,87.3c0,0.1,0,0.3,0.2,0.4c0.1,0.1,0.2,0.1,0.3,0.1c0.2-0.1,0.2-0.1,0.3-0.3c0.1-0.4-0.4-0.5-0.6-0.2
				c0,0,0.1-0.1,0.1-0.1c0.1,0,0.2,0.1,0.3,0.1c0,0,0,0,0,0C93.6,86.9,93.1,86.9,93,87.3L93,87.3z"/>
		</g>
	</g>
	<g>
		<g>
			<path class="st21" d="M93.5,92.1c0.4,0,0.4-0.6,0-0.6S93.1,92.1,93.5,92.1L93.5,92.1z"/>
		</g>
	</g>
	<g>
		<g>
			<path class="st21" d="M85.4,99.2C85.4,99.2,85.4,99.1,85.4,99.2c0.3-0.3-0.1-0.7-0.4-0.5c0,0,0,0-0.1,0.1
				C84.7,99,85.1,99.4,85.4,99.2L85.4,99.2z"/>
		</g>
	</g>
	<g>
		<g>
			<path class="st21" d="M88.2,98.3c0-0.1,0.1-0.1,0.1-0.2c0.2-0.3-0.3-0.6-0.5-0.3c0,0.1-0.1,0.1-0.1,0.2
				C87.5,98.3,88,98.6,88.2,98.3L88.2,98.3z"/>
		</g>
	</g>
	<g>
		<g>
			<path class="st21" d="M90.3,97.4c0.1,0.1,0.3,0.1,0.4,0c0.3-0.2,0-0.7-0.3-0.5c0.1,0,0.1,0,0.2,0C90.3,96.7,90,97.2,90.3,97.4
				L90.3,97.4z"/>
		</g>
	</g>
	<g>
		<g>
			<path class="st21" d="M90.6,97.4c0.4,0,0.4-0.6,0-0.6C90.2,96.8,90.2,97.4,90.6,97.4L90.6,97.4z"/>
		</g>
	</g>
	<g>
		<g>
			<path class="st21" d="M92.8,96.4c0,0,0,0.1,0.1,0.1c0.2,0.3,0.7,0,0.5-0.3c0,0,0-0.1-0.1-0.1C93.2,95.8,92.6,96.1,92.8,96.4
				L92.8,96.4z"/>
		</g>
	</g>
	<g>
		<g>
			<path class="st21" d="M84.7,103.8c0,0.1,0.1,0.1,0.1,0.2c0.2,0.3,0.7,0,0.5-0.3c0-0.1-0.1-0.1-0.1-0.2
				C85,103.2,84.5,103.5,84.7,103.8L84.7,103.8z"/>
		</g>
	</g>
	<g>
		<g>
			<path class="st21" d="M87.6,103c0,0,0.1,0,0.1,0.1c0.3,0.2,0.6-0.3,0.3-0.5c0,0-0.1,0-0.1-0.1C87.5,102.4,87.2,102.9,87.6,103
				L87.6,103z"/>
		</g>
	</g>
	<g>
		<g>
			<path class="st21" d="M90.5,101.6C90.5,101.6,90.5,101.6,90.5,101.6c0,0.4,0.6,0.4,0.6,0.1c0,0,0,0,0-0.1
				C91.1,101.2,90.5,101.2,90.5,101.6L90.5,101.6z"/>
		</g>
	</g>
	<g>
		<g>
			<path class="st21" d="M92.8,101C92.8,101,92.8,101.1,92.8,101c0.3,0.3,0.7-0.1,0.5-0.4c0,0,0,0-0.1-0.1
				C92.9,100.3,92.5,100.8,92.8,101L92.8,101z"/>
		</g>
	</g>
	<g>
		<g>
			<path class="st21" d="M75.4,62.5c0.3,6.5,0.5,13,0.8,19.6c0.3,6.4,0.9,13,0.5,19.4c0,0.4,0.6,0.4,0.6,0c0.4-6.4-0.2-13-0.5-19.4
				c-0.3-6.5-0.5-13-0.8-19.6C75.9,62.1,75.3,62.1,75.4,62.5L75.4,62.5z"/>
		</g>
	</g>
	<g>
		<g>
			<path class="st21" d="M82.9,63.4c0.4,6.8-0.3,13.6-0.1,20.5c0.1,2.9,0.4,5.8,0.4,8.8c0,2.8-0.1,5.5-0.1,8.3
				c0,0.2,0.3,0.4,0.5,0.2c0,0,0,0,0,0c0.2-0.3-0.2-0.7-0.4-0.4c0,0,0,0,0,0.1c-0.2,0.3,0.2,0.7,0.4,0.4c0,0,0,0,0,0
				c0.2-0.3-0.2-0.7-0.4-0.4c0,0,0,0,0,0c0.1,0.1,0.3,0.3,0.4,0.4c0,0,0,0,0-0.1c-0.1-0.1-0.3-0.3-0.4-0.4c0,0,0,0,0,0
				c0.2,0.1,0.3,0.1,0.5,0.2c0-2.8,0.1-5.5,0.1-8.3c0-2.9-0.3-5.8-0.4-8.8c-0.2-6.8,0.4-13.6,0.1-20.5C83.5,63,82.9,63,82.9,63.4
				L82.9,63.4z"/>
		</g>
	</g>
	<g>
		<g>
			<path class="st21" d="M88.8,21.4c0.7,3.9,0.5,7.9,0.2,11.8c-0.1,1.9-0.2,3.8-0.3,5.8c0,1.9,0.2,3.8,0.2,5.7
				c0,1.7,0.2,3.4,0.1,5.1c-0.1,1.9-0.2,3.7-0.3,5.6c-0.1,3.9,0,7.8,0.1,11.7c0,0.4,0.6,0.4,0.6,0c-0.1-4-0.2-8-0.1-11.9
				c0.1-1.9,0.2-3.7,0.3-5.5c0-1.8-0.2-3.5-0.1-5.3c0-1.9-0.2-3.8-0.2-5.7c0-1.9,0.2-3.8,0.3-5.7c0.2-3.8,0.4-7.7-0.3-11.5
				C89.3,20.8,88.8,21,88.8,21.4L88.8,21.4z"/>
		</g>
	</g>
	<g>
		<g>
			<path class="st21" d="M94,25c0.5,7-0.2,14-0.3,20.9c0,1.7,0,3.4,0.1,5.1c0.1,1.7,0.4,3.4,0.3,5.1c-0.1,1.7-0.4,3.3-0.5,5
				c-0.1,1.7-0.1,3.5,0,5.2c0,0.4,0.6,0.4,0.6,0c-0.2-3.4,0.3-6.6,0.5-9.9c0.1-1.7-0.2-3.4-0.3-5.1c-0.1-1.8-0.1-3.6-0.1-5.4
				c0.1-7,0.8-14,0.3-20.9C94.6,24.6,94,24.6,94,25L94,25z"/>
		</g>
	</g>
	<g>
		<g>
			<path class="st21" d="M98.6,27.8c1.2,6.3-0.2,12.9-0.1,19.3c0,6.5,0.6,12.9,0.3,19.4c0,0.4,0.6,0.4,0.6,0
				c0.3-6.6-0.3-13.3-0.3-19.9c0-6.3,1.3-12.7,0.1-18.9C99,27.3,98.5,27.4,98.6,27.8L98.6,27.8z"/>
		</g>
	</g>
	<g>
		<g>
			<path class="st21" d="M89,67.2c-0.4,9.3-0.5,18.6-0.1,27.9c0,0.4,0.6,0.4,0.6,0c-0.3-9.3-0.3-18.6,0.1-27.9
				C89.6,66.8,89,66.8,89,67.2L89,67.2z"/>
		</g>
	</g>
	<g>
		<g>
			<path class="st21" d="M88.9,96.1c-0.2,8.9,0,17.9,0.5,26.8c0,0.4,0.6,0.4,0.6,0c-0.5-8.9-0.6-17.9-0.5-26.8
				C89.5,95.7,88.9,95.7,88.9,96.1L88.9,96.1z"/>
		</g>
	</g>
	<g>
		<g>
			<path class="st21" d="M84.8,114.2C84.9,114.2,84.9,114.2,84.8,114.2c0.5,0,0.5-0.6,0.1-0.6c0,0-0.1,0-0.1,0
				C84.5,113.6,84.5,114.2,84.8,114.2L84.8,114.2z"/>
		</g>
	</g>
	<g>
		<g>
			<path class="st21" d="M85.1,109c-0.1,0.1-0.1,0.1-0.2,0.2c-0.3,0.3,0.2,0.7,0.4,0.4c0.1-0.1,0.1-0.1,0.2-0.2
				C85.8,109.2,85.4,108.7,85.1,109L85.1,109z"/>
		</g>
	</g>
	<g>
		<g>
			<path class="st21" d="M84.9,119.6c0.4,0,0.7-0.4,0.6-0.8c-0.1-0.4-0.7-0.2-0.6,0.2c0,0,0,0.1-0.1,0.1
				C84.5,119,84.5,119.6,84.9,119.6L84.9,119.6z"/>
		</g>
	</g>
	<g>
		<g>
			<path class="st21" d="M85.2,124.3c0.4,0,0.4-0.6,0-0.6S84.8,124.3,85.2,124.3L85.2,124.3z"/>
		</g>
	</g>
	<g>
		<g>
			<path class="st21" d="M88.5,122C88.5,122,88.5,121.9,88.5,122c0-0.5-0.6-0.5-0.6-0.1c0,0,0,0.1,0,0.1
				C87.9,122.4,88.5,122.4,88.5,122L88.5,122z"/>
		</g>
	</g>
	<g>
		<g>
			<path class="st21" d="M88.4,117.1C88.4,117,88.4,117,88.4,117.1c0-0.5-0.6-0.5-0.6-0.1c0,0,0,0.1,0,0.1
				C87.8,117.5,88.4,117.5,88.4,117.1L88.4,117.1z"/>
		</g>
	</g>
	<g>
		<g>
			<path class="st21" d="M90.6,115.3C90.6,115.3,90.6,115.3,90.6,115.3c-0.4,0.4,0.1,0.8,0.3,0.5c0,0,0.1-0.1,0.1-0.1
				C91.3,115.4,90.9,115,90.6,115.3L90.6,115.3z"/>
		</g>
	</g>
	<g>
		<g>
			<path class="st21" d="M90.7,106.4c0,0-0.1,0.1-0.1,0.1c0.4,0,0.4-0.6,0-0.6c-0.3,0-0.5,0.2-0.5,0.5
				C90.1,106.7,90.7,106.7,90.7,106.4L90.7,106.4z"/>
		</g>
	</g>
	<g>
		<g>
			<path class="st21" d="M90.8,111.3c0.2,0,0.4-0.1,0.5-0.1c0.4-0.1,0.2-0.6-0.2-0.6c-0.2,0-0.4,0.1-0.5,0.1
				C90.3,110.8,90.5,111.4,90.8,111.3L90.8,111.3z"/>
		</g>
	</g>
	<g>
		<g>
			<path class="st21" d="M93.1,105.2C93.2,105.3,93.2,105.3,93.1,105.2c0.4,0.4,0.8-0.1,0.5-0.3c0,0-0.1-0.1-0.1-0.1
				C93.3,104.5,92.9,105,93.1,105.2L93.1,105.2z"/>
		</g>
	</g>
	<g>
		<g>
			<path class="st21" d="M93.2,104.9C93.2,105,93.2,105,93.2,104.9c0,0.5,0.6,0.5,0.6,0.1c0,0,0-0.1,0-0.1
				C93.8,104.5,93.2,104.5,93.2,104.9L93.2,104.9z"/>
		</g>
	</g>
	<g>
		<g>
			<path class="st21" d="M92.9,109.5c-0.1,0.3-0.2,0.5-0.4,0.8c-0.2,0.3,0.4,0.6,0.5,0.3c0.1-0.3,0.2-0.5,0.4-0.8
				C93.6,109.5,93.1,109.2,92.9,109.5L92.9,109.5z"/>
		</g>
	</g>
	<g>
		<g>
			<path class="st21" d="M93.4,114.6c0.4,0,0.4-0.6,0-0.6C93,114,93,114.6,93.4,114.6L93.4,114.6z"/>
		</g>
	</g>
	<g>
		<g>
			<path class="st21" d="M93.3,119c0.2,0.2,0.4,0.2,0.6,0c0.3-0.3-0.1-0.7-0.4-0.4c0.1,0,0.2,0,0.2,0C93.4,118.3,93,118.7,93.3,119
				L93.3,119z"/>
		</g>
	</g>
	<g>
		<g>
			<path class="st20" d="M25.1,43.9c2.3-0.9,4.6-1.9,6.9-2.9c0.3-0.1,0.2-0.7-0.2-0.6c-2.3,0.9-4.6,1.9-6.9,2.9
				C24.6,43.4,24.7,44,25.1,43.9L25.1,43.9z"/>
		</g>
	</g>
	<g>
		<g>
			<path class="st20" d="M25.3,50.2c2.4-0.9,4.7-1.7,7.1-2.6c0.4-0.1,0.2-0.7-0.2-0.6c-2.4,0.9-4.7,1.7-7.1,2.6
				C24.8,49.7,24.9,50.3,25.3,50.2L25.3,50.2z"/>
		</g>
	</g>
	<g>
		<g>
			<path class="st20" d="M25.5,56.8c2.3-0.7,4.7-1.4,7.1-1.8c0.4-0.1,0.2-0.6-0.2-0.6c-2.4,0.5-4.8,1.1-7.1,1.8
				C25,56.3,25.1,56.9,25.5,56.8L25.5,56.8z"/>
		</g>
	</g>
	<g>
		<g>
			<path class="st20" d="M25.5,63c2.4-0.3,4.9-0.7,7.3-1.1c0.4-0.1,0.2-0.6-0.2-0.6c-2.4,0.4-4.7,0.7-7.1,1
				C25.1,62.5,25.1,63.1,25.5,63L25.5,63z"/>
		</g>
	</g>
	<g>
		<g>
			<path class="st20" d="M28,36.1c0.2,10.6,0.2,21.2,0.3,31.8c0,0.4,0.6,0.4,0.6,0c-0.1-10.6-0.1-21.2-0.3-31.8
				C28.6,35.7,28,35.7,28,36.1L28,36.1z"/>
		</g>
	</g>
	<g>
		<g>
			<path class="st22" d="M115.4,30c-1,11.9-1.3,23.9-0.8,35.8c0,0.4,0.6,0.4,0.6,0C114.8,53.8,115,41.9,116,30
				C116.1,29.6,115.5,29.6,115.4,30L115.4,30z"/>
		</g>
	</g>
	<g>
		<g>
			<path class="st22" d="M118.6,32.8c-0.3,11.4-0.5,22.8-0.5,34.1c0,0.4,0.6,0.4,0.6,0c0-11.4,0.2-22.8,0.5-34.1
				C119.2,32.4,118.6,32.4,118.6,32.8L118.6,32.8z"/>
		</g>
	</g>
	<g>
		<g>
			<path class="st22" d="M111.5,59.5c3,0.6,5.9,2,9,2.3c0.4,0,0.4-0.6,0-0.6c-3-0.3-5.9-1.6-8.8-2.3
				C111.3,58.8,111.1,59.4,111.5,59.5L111.5,59.5z"/>
		</g>
	</g>
	<g>
		<g>
			<path class="st22" d="M111.6,54.9c3.1,0.7,6.1,1.6,9,2.8c0.4,0.1,0.5-0.4,0.2-0.6c-2.9-1.2-5.9-2.1-9-2.8
				C111.4,54.2,111.2,54.8,111.6,54.9L111.6,54.9z"/>
		</g>
	</g>
	<g>
		<g>
			<path class="st22" d="M111.6,50.6c2.9,1.1,5.9,2.2,8.8,3.2c0.4,0.1,0.5-0.4,0.2-0.6c-2.9-1.1-5.9-2.1-8.8-3.2
				C111.4,49.9,111.3,50.5,111.6,50.6L111.6,50.6z"/>
		</g>
	</g>
	<g>
		<g>
			<path class="st22" d="M112.1,47.2c2.9,0.5,5.5,2.3,8.3,3c0.4,0.1,0.5-0.5,0.2-0.6c-2.9-0.7-5.4-2.5-8.3-3
				C111.9,46.5,111.7,47.1,112.1,47.2L112.1,47.2z"/>
		</g>
	</g>
	<g>
		<g>
			<path class="st22" d="M112.1,42.8c1.7,0.6,3.4,1.3,5,2c1.3,0.6,2.6,1.4,4,1.7c0.4,0.1,0.5-0.5,0.2-0.6c-1.6-0.4-3.2-1.4-4.7-2.1
				c-1.4-0.6-2.9-1.2-4.3-1.7C111.9,42.1,111.7,42.6,112.1,42.8L112.1,42.8z"/>
		</g>
	</g>
	<g>
		<g>
			<path class="st22" d="M112.1,38.2c2.8,1.6,5.7,3,8.6,4.3c0.3,0.2,0.6-0.4,0.3-0.5c-2.9-1.3-5.8-2.8-8.6-4.3
				C112,37.5,111.7,38,112.1,38.2L112.1,38.2z"/>
		</g>
	</g>
	<g>
		<g>
			<path class="st22" d="M112.3,34.1c1.5,0.5,3,1.5,4.3,2.3c1.4,0.8,2.8,1.6,4.2,2.5c0.3,0.2,0.6-0.3,0.3-0.5
				c-1.5-0.9-3.1-1.8-4.6-2.7c-1.3-0.8-2.6-1.7-4.1-2.1C112.1,33.5,111.9,34,112.3,34.1L112.3,34.1z"/>
		</g>
	</g>
</g>
</svg>
