<?xml version="1.0" encoding="utf-8"?>
<!-- Generator: Adobe Illustrator 23.0.1, SVG Export Plug-In . SVG Version: 6.00 Build 0)  -->
<svg version="1.1" id="Ebene_1" xmlns="http://www.w3.org/2000/svg" xmlns:xlink="http://www.w3.org/1999/xlink" x="0px" y="0px"
	 viewBox="0 0 150 150" style="enable-background:new 0 0 150 150;" xml:space="preserve">
<style type="text/css">
	.st0{fill:#78BCE9;}
	.st1{fill:#36A9E1;}
	.st2{fill:#585252;}
	.st3{fill:#A3897A;}
	.st4{fill:#D49F00;}
	.st5{fill:#48443B;}
	.st6{fill:#A8A39E;}
	.st7{fill:#656057;}
</style>
<g>
	<polygon class="st0" points="15.3,117.1 15.5,73.1 107.3,74.1 107.3,117.1 	"/>
	<polygon class="st1" points="119.3,48.2 133.7,70.8 133,112 107.3,117.1 107.3,74.1 	"/>
	<polygon class="st2" points="27.7,93.4 41.2,93.4 41.2,115.8 28.5,115.6 	"/>
	<polygon class="st2" points="79.8,99.8 79.3,84 95,83.9 94.8,101.5 80.2,101.3 	"/>
	<polygon class="st1" points="78.5,100.3 96,100.8 96.1,104.2 78.7,103.6 	"/>
	<polygon class="st3" points="25.5,117.7 43.4,118.1 43.5,121.7 25.7,121.1 	"/>
	<polygon class="st3" points="26.9,114.3 42,114.7 42.1,117.7 27,117.1 	"/>
	<polygon class="st4" points="80.9,85.5 86.1,85.6 86.3,92.6 80.9,92.5 	"/>
	<polygon class="st4" points="87.8,85.4 87.8,92.5 93.2,92.4 93.4,85.9 	"/>
	<polygon class="st4" points="80.9,93.8 86.2,93.9 86,99.1 80.7,98.8 	"/>
	<polygon class="st4" points="87.7,94.1 93.2,93.8 93.5,99.5 87.8,99 	"/>
	<polygon class="st4" points="118.5,76.4 118.7,89.4 123.4,89.1 123.3,76.1 	"/>
	<path class="st5" d="M44.1,47.5c0-0.4,0-7.9,0-7.9l6.7,0.3l0.1,8L44.1,47.5z"/>
	<polygon class="st5" points="14.5,73.5 107.9,74.6 119.3,48.7 133.7,70.8 134.5,70.1 119.7,46.4 33,45.4 	"/>
	<g>
		<g>
			<path class="st2" d="M33.3,49c1.4,1.8,4,2.3,5.9,1c-0.2-0.1-0.5-0.1-0.7-0.2c1,1.5,3.2,1.5,4.2,0.1c-0.3,0-0.5,0.1-0.8,0.1
				c2,1.8,5,1.8,6.9-0.1c-0.2,0-0.5,0-0.7,0c1.6,1.6,4.3,1.6,5.8-0.1c-0.2,0-0.5,0-0.7,0c2.2,2,5.8,1.4,7.2-1.1
				c-0.3,0-0.6-0.1-1-0.1c1.2,3,5.1,3.7,7.2,1.1c-0.3,0-0.5-0.1-0.8-0.1c1.1,2,4.1,2.3,5.6,0.6c-0.3,0-0.5-0.1-0.8-0.1
				c1.4,2.4,5.1,2.5,6.6,0.1c-0.3,0-0.5,0.1-0.8,0.1c1.6,1.9,4.6,2,6.3,0.2c-0.3,0-0.5-0.1-0.8-0.1c1.2,1.7,3.7,1.7,4.9,0
				c-0.2,0.1-0.5,0.1-0.7,0.2c1.6,1.2,3.8,1.2,5.3,0c-0.2-0.1-0.5-0.1-0.7-0.2c1.5,2.6,5.4,2.8,7.2,0.4c-0.3,0-0.6,0-0.9,0
				c1.2,2.4,4.4,2.1,5.4-0.3c-0.3,0-0.7,0-1,0c0.3,1,1.2,1.6,2.2,1.6c1.3,0,2.2-0.9,2.9-2c-0.3,0-0.6,0-0.9,0
				c1.3,1.7,3.6,2.2,5.5,1.1c-0.3-0.1-0.5-0.2-0.8-0.3c0.4,1.1,1.5,1.7,2.7,1.5c1.5-0.2,2.4-1.5,3.1-2.7c0.4-0.6-0.5-1.1-0.9-0.5
				c-0.4,0.7-0.9,1.4-1.5,1.8c-0.7,0.5-2,0.6-2.3-0.4c-0.1-0.3-0.5-0.5-0.8-0.3c-1.3,0.8-3.1,0.5-4.1-0.8c-0.2-0.3-0.7-0.4-0.9,0
				c-0.6,1-2.6,2.4-3.2,0.6c-0.2-0.5-0.8-0.5-1,0c-0.7,1.6-2.7,1.5-3.5,0c-0.2-0.4-0.7-0.3-0.9,0c-1.3,1.8-4.3,1.4-5.4-0.4
				c-0.1-0.2-0.5-0.4-0.7-0.2c-1.3,1-2.9,1-4.3,0c-0.2-0.2-0.6,0-0.7,0.2c-0.7,1-2.4,1-3.1,0c-0.2-0.3-0.6-0.4-0.8-0.1
				c-1.3,1.4-3.6,1.3-4.8-0.2c-0.2-0.3-0.7-0.2-0.8,0.1c-1.1,1.7-3.8,1.6-4.8-0.1c-0.2-0.3-0.6-0.4-0.8-0.1
				c-1.1,1.2-3.1,1.1-3.9-0.4c-0.2-0.3-0.6-0.4-0.8-0.1c-1.5,1.9-4.5,1.7-5.4-0.7c-0.2-0.4-0.7-0.6-1-0.1c-1.1,1.9-3.9,2.4-5.6,0.9
				c-0.2-0.2-0.5-0.2-0.7,0c-1.1,1.3-3.1,1.3-4.3,0.1c-0.2-0.2-0.5-0.2-0.7,0c-1.5,1.4-3.9,1.5-5.4,0.1c-0.3-0.2-0.6-0.2-0.8,0.1
				c-0.6,0.8-1.9,0.7-2.4-0.1c-0.1-0.2-0.5-0.4-0.7-0.2c-1.4,1-3.4,0.8-4.4-0.6C33.8,47.9,32.9,48.5,33.3,49L33.3,49z"/>
		</g>
	</g>
	<g>
		<g>
			<path class="st2" d="M30.7,52.1c1.3,2.1,4.2,2.5,6.1,0.9c-0.2,0-0.4,0.1-0.6,0.1c1.5,1,3.7,1.8,4.9-0.1c-0.3,0-0.6,0-0.9,0
				c1.5,2.1,4.7,2.3,6.5,0.4c-0.2,0-0.5,0-0.7,0c1.5,1.4,3.7,1.4,5.1,0c-0.2,0-0.4,0.1-0.6,0.1c1.1,0.8,2.4,1.7,3.9,1.6
				c1.1-0.1,2.1-0.8,2.4-1.9c-0.3,0-0.7,0-1,0c0.9,2.8,4.9,2.7,5.5-0.2c-0.3,0-0.6,0.1-1,0.1c1.1,1.8,3.7,1.9,5,0.2
				c-0.3,0-0.6,0-0.9,0c0.9,1.9,3.5,2,4.5,0.1c-0.3,0-0.6-0.1-1-0.1c1,2.6,4.6,2.9,5.7,0.2c0.3-0.6-0.6-1.2-0.9-0.5
				c-0.7,1.7-3.1,1.9-3.8,0c-0.2-0.4-0.7-0.6-1-0.1c-0.6,1.2-2.1,1.1-2.7-0.1c-0.2-0.4-0.7-0.3-0.9,0c-0.8,1.1-2.5,0.9-3.2-0.2
				c-0.2-0.4-0.9-0.3-1,0.1c-0.4,1.9-2.9,2.1-3.4,0.2c-0.1-0.5-0.9-0.5-1,0c-0.6,2.4-3.6,0.6-4.7-0.3c-0.2-0.1-0.5-0.1-0.6,0.1
				c-1,1-2.6,1-3.6,0c-0.2-0.2-0.5-0.2-0.7,0c-1.3,1.4-3.7,1.4-4.9-0.2c-0.2-0.3-0.7-0.4-0.9,0c-0.9,1.3-2.5,0.3-3.5-0.3
				c-0.2-0.1-0.5-0.1-0.6,0.1c-1.4,1.1-3.5,0.8-4.5-0.7C31.2,51,30.3,51.5,30.7,52.1L30.7,52.1z"/>
		</g>
	</g>
	<g>
		<g>
			<path class="st2" d="M72.8,53.5c1,1.8,3.7,1.9,4.9,0.2c-0.3,0-0.6,0-0.9,0c1.5,2.1,4.7,2.1,6.2,0c-0.2,0.1-0.5,0.1-0.7,0.2
				c1.9,1.4,4.6,1.1,6.2-0.7c-0.3,0-0.5-0.1-0.8-0.1c0.8,1.9,3.7,2,4.8,0.3c-0.3,0-0.6,0-0.9,0c1,2,3.9,2.4,5.4,0.7
				c-0.2,0-0.5,0-0.7,0c1.4,1.8,4.3,1.6,5.6-0.2c-0.3,0-0.6,0-0.9,0c1,1.8,3.7,1.8,4.7,0.1c-0.3,0-0.6,0-0.9,0
				c1.3,2.2,4.3,1.9,5.2-0.4c-0.3,0.1-0.6,0.2-0.9,0.2c1.1,1.4,2.9,2,4.6,1.7c0.7-0.1,0.4-1.1-0.3-1c-1.4,0.2-2.7-0.3-3.6-1.4
				c-0.3-0.3-0.8-0.1-0.9,0.2c-0.6,1.5-2.5,1.5-3.3,0.2c-0.2-0.3-0.7-0.3-0.9,0c-0.6,1.1-2.3,1-2.9-0.1c-0.2-0.4-0.7-0.3-0.9,0
				c-0.9,1.3-3,1.3-3.9,0c-0.2-0.2-0.6-0.2-0.7,0c-1.1,1.2-3,0.9-3.7-0.5c-0.2-0.4-0.7-0.3-0.9,0c-0.7,1.1-2.5,0.8-3-0.3
				c-0.1-0.3-0.6-0.3-0.8-0.1c-1.3,1.4-3.4,1.7-4.9,0.5c-0.2-0.2-0.6,0-0.7,0.2c-1,1.4-3.4,1.4-4.4,0c-0.2-0.3-0.7-0.3-0.9,0
				c-0.8,1.1-2.5,0.8-3.1-0.2C73.4,52.4,72.5,52.9,72.8,53.5L72.8,53.5z"/>
		</g>
	</g>
	<g>
		<g>
			<path class="st2" d="M28.6,56.1c0.2,2.7,3.9,3.2,4.7,0.5c-0.3,0.1-0.5,0.2-0.8,0.3c0.9,0.7,2,1.3,3.2,1.1c1-0.2,1.8-0.9,2-1.9
				c-0.3,0-0.6,0.1-1,0.1c0.7,1.2,1.5,2.5,3,2.7c1.1,0.1,2.3-0.5,2.5-1.7c-0.3,0.1-0.6,0.2-0.9,0.2c2.2,2.3,5.9,1.7,7.3-1.1
				c-0.3,0-0.6-0.1-1-0.1c1,2.5,4.3,2.8,5.6,0.3c-0.3,0-0.6,0-0.9,0c0.7,1,1.8,1.9,3.1,1.8c1.1-0.1,2.1-0.8,2.3-1.9
				c-0.3,0-0.7,0-1,0c0.6,1.9,3.1,2.8,4.7,1.5c0.3-0.3,0.4-0.6,0.9-0.4c0.2,0.1,0.3,0.3,0.5,0.4c0.4,0.3,0.9,0.4,1.3,0.4
				c1,0,1.9-0.5,2.3-1.4c-0.3,0-0.5,0.1-0.8,0.1c1.7,2,5,1.8,6.4-0.4c0.4-0.6-0.5-1.1-0.9-0.5c-1.1,1.6-3.6,1.6-4.8,0.1
				c-0.2-0.2-0.7-0.2-0.8,0.1c-0.4,0.9-1.5,1.2-2.3,0.6c-0.5-0.4-0.8-0.9-1.5-0.7c-0.7,0.2-1,1-1.8,1.1c-0.9,0.1-1.9-0.4-2.2-1.3
				c-0.1-0.5-0.9-0.5-1,0c-0.5,1.9-2.7,1-3.5-0.1c-0.2-0.3-0.7-0.4-0.9,0c-0.8,1.5-2.9,1.7-3.6,0c-0.2-0.4-0.7-0.6-1-0.1
				c-1.1,2.3-3.9,2.7-5.6,0.9c-0.3-0.3-0.8-0.2-0.9,0.2c-0.2,1.1-1.4,1.1-2.2,0.6c-0.6-0.4-1-1.2-1.4-1.8c-0.2-0.4-0.9-0.3-1,0.1
				c-0.3,2.1-2.7,0.9-3.7,0.2c-0.3-0.2-0.7,0-0.8,0.3c-0.4,1.5-2.5,1.4-2.6-0.2C29.6,55.4,28.6,55.4,28.6,56.1L28.6,56.1z"/>
		</g>
	</g>
	<g>
		<g>
			<path class="st2" d="M71.2,56.6c0.7,1,1.7,2.1,3,1.9c1.1-0.1,1.8-0.9,1.9-1.9c-0.3,0.1-0.7,0.2-1,0.3c1.1,2.4,4.4,2.5,5.6,0.2
				c-0.3,0-0.5,0.1-0.8,0.1c1.7,1.7,4.8,1.6,6.3-0.3c-0.3,0-0.5-0.1-0.8-0.1c1.2,2.1,4.1,2,5.2-0.1c-0.3,0-0.6-0.1-1-0.1
				c0.5,2.7,4.1,2.8,4.9,0.2c-0.3,0-0.6,0.1-1,0.1c1.2,2.3,4.2,2.4,5.6,0.3c-0.3,0-0.6-0.1-1-0.1c0.7,2.2,3.5,2.2,4.3,0.1
				c-0.3,0-0.6,0.1-1,0.1c1,1.9,3.9,2.3,5.3,0.6c-0.2,0-0.5,0-0.7,0c1.3,1.5,3.6,1.8,5.3,0.7c0.6-0.4,0-1.3-0.5-0.9
				c-1.3,0.9-3,0.6-4-0.5c-0.2-0.2-0.6-0.2-0.7,0c-1,1.2-2.9,1-3.6-0.3c-0.2-0.4-0.8-0.3-1,0.1c-0.5,1.2-2,1-2.3-0.1
				c-0.1-0.4-0.7-0.5-1-0.1c-1,1.5-3,1.2-3.8-0.3c-0.2-0.4-0.8-0.3-1,0.1c-0.5,1.6-2.5,1.4-2.9-0.2c-0.1-0.4-0.8-0.5-1-0.1
				c-0.7,1.4-2.6,1.5-3.4,0.1c-0.2-0.3-0.6-0.4-0.8-0.1c-1.2,1.5-3.4,1.7-4.8,0.3c-0.2-0.2-0.7-0.2-0.8,0.1c-0.9,1.7-3,1.5-3.8-0.2
				c-0.2-0.5-0.9-0.2-1,0.3c-0.1,0.9-1.2,1-1.8,0.7c-0.5-0.3-0.9-0.8-1.2-1.3C71.8,55.5,70.9,56,71.2,56.6L71.2,56.6z"/>
		</g>
	</g>
	<g>
		<g>
			<path class="st2" d="M25.6,60.5c0.9,1.7,3,2,4.5,0.9c-0.2,0-0.5,0-0.7,0c1.4,1.8,4.4,1.4,5.4-0.6c-0.2,0.1-0.5,0.1-0.7,0.2
				c1.7,1,4.1,1.8,5.5-0.2c-0.3,0-0.6-0.1-1-0.1c1,2.4,4.1,2.8,5.5,0.5c-0.3,0-0.5,0.1-0.8,0.1c1.4,1.8,4.4,1.5,5.5-0.5
				c-0.3,0-0.6,0-0.9,0c1.1,2.4,4.2,2.1,5.2-0.2c-0.3,0-0.6,0.1-1,0.1c1.2,2,4.3,2.1,5.6,0.1c-0.3,0-0.6,0-0.9,0
				c1.1,1.8,3.7,2.1,5.2,0.6c-0.2,0-0.4,0.1-0.6,0.1c1.4,0.8,3.6,1.4,4.3-0.6c-0.3,0-0.6,0.1-1,0.1c1.2,2.2,4.2,2.2,5.5,0
				c0.3-0.6-0.6-1.1-0.9-0.5c-0.9,1.5-2.8,1.5-3.6,0c-0.2-0.4-0.8-0.3-1,0.1c-0.4,1.3-2,0.4-2.7,0c-0.2-0.1-0.5-0.1-0.6,0.1
				c-1,1.1-2.8,0.9-3.5-0.3c-0.2-0.4-0.7-0.3-0.9,0c-0.9,1.3-3,1.2-3.7-0.1c-0.2-0.4-0.8-0.3-1,0.1c-0.6,1.6-2.6,1.4-3.3,0
				c-0.2-0.4-0.7-0.3-0.9,0c-0.8,1.4-2.9,1.5-3.9,0.3c-0.2-0.3-0.7-0.2-0.8,0.1c-0.9,1.5-2.9,1.4-3.6-0.2c-0.2-0.4-0.7-0.5-1-0.1
				c-1,1.4-2.9,0.4-4-0.2c-0.2-0.1-0.6-0.1-0.7,0.2c-0.7,1.4-2.8,1.6-3.8,0.4c-0.2-0.2-0.5-0.2-0.7,0c-0.9,0.7-2.3,0.3-2.8-0.7
				C26.2,59.3,25.3,59.9,25.6,60.5L25.6,60.5z"/>
		</g>
	</g>
	<g>
		<g>
			<path class="st2" d="M68.9,60.9c1.1,1.8,3.9,1.8,4.9-0.1c-0.3,0-0.6,0-0.9,0c0.6,0.9,1.5,1.9,2.7,1.8c1,0,1.8-0.8,1.9-1.8
				c-0.3,0.1-0.6,0.2-0.9,0.4c1.7,1.8,5,1.3,6-1.1c-0.3,0-0.6,0-0.9,0c1.3,2,4.3,2,5.6,0c-0.3,0-0.6-0.1-1-0.1
				c0.7,2.3,3.6,2.7,4.9,0.6c-0.3,0-0.6-0.1-1-0.1c0.6,2.5,3.9,2.9,4.9,0.5c-0.3,0-0.5,0.1-0.8,0.1c1.5,1.5,4,1.3,5.2-0.5
				c-0.3,0-0.6,0-0.9,0c1,2.1,3.9,1.8,4.6-0.3c-0.3,0-0.6,0.1-1,0.1c1.2,2.2,4.3,2.2,5.5,0c-0.3,0-0.6-0.1-1-0.1c0.2,1,1,1.7,2,1.8
				c1.2,0.1,2.3-0.6,3.2-1.3c0.5-0.4-0.2-1.2-0.7-0.7c-0.9,0.7-3,1.8-3.4,0c-0.1-0.4-0.8-0.5-1-0.1c-0.8,1.5-2.8,1.5-3.7,0
				c-0.2-0.4-0.8-0.3-1,0.1c-0.5,1.4-2.1,1.3-2.7,0.1c-0.2-0.4-0.7-0.3-0.9,0c-0.8,1.2-2.6,1.3-3.5,0.2c-0.2-0.2-0.7-0.2-0.8,0.1
				c-0.7,1.5-2.6,1.3-3-0.3c-0.1-0.4-0.7-0.5-1-0.1c-0.8,1.3-2.5,1.1-2.9-0.3c-0.1-0.4-0.7-0.5-1-0.1c-0.8,1.3-2.9,1.3-3.8,0
				c-0.2-0.3-0.7-0.4-0.9,0c-0.7,1.7-3.1,2.2-4.4,0.8c-0.3-0.3-0.9-0.1-0.9,0.4c-0.1,1-1.2,0.8-1.7,0.4c-0.4-0.3-0.7-0.6-0.9-1
				c-0.2-0.3-0.7-0.4-0.9,0c-0.6,1.2-2.4,1.2-3.1,0.1C69.5,59.8,68.6,60.3,68.9,60.9L68.9,60.9z"/>
		</g>
	</g>
	<g>
		<g>
			<path class="st2" d="M23.1,64.1c0.5,1.1,1.3,2.3,2.5,2.4c1,0.1,2-0.5,2.2-1.5c-0.3,0.1-0.6,0.2-0.9,0.2c1.4,1.5,3.8,1.2,5-0.5
				c-0.3,0-0.6,0-0.9,0c1.5,2.2,4.9,2.2,6.4,0c-0.3,0-0.6-0.1-1-0.1c0.7,2.1,3.5,2.1,4.1,0c-0.3,0.1-0.6,0.2-0.9,0.2
				c0.8,0.9,1.9,1.9,3.2,1.7c1.1-0.1,2-1.1,1.9-2.2c-0.3,0.1-0.7,0.2-1,0.3c1,2.2,3.9,2.3,5.1,0.3c-0.3,0-0.6,0-0.9,0
				c1.3,1.9,4,1.6,4.7-0.7c-0.3,0-0.6,0.1-1,0.1c1.1,2.2,4,2.3,5.3,0.2c-0.3,0-0.6,0-0.9,0c1.4,2,4.5,2.2,6,0.2
				c0.4-0.5-0.3-1.3-0.7-0.7c-1.1,1.4-3.3,1.5-4.4,0c-0.2-0.3-0.7-0.4-0.9,0c-0.9,1.4-2.7,1.3-3.4-0.2c-0.2-0.4-0.8-0.3-1,0.1
				c-0.4,1.3-2,1.6-2.7,0.4c-0.2-0.3-0.7-0.3-0.9,0c-0.9,1.4-2.7,1.1-3.3-0.3c-0.2-0.5-1-0.2-1,0.3c0.1,1.1-1.2,1.4-2,1
				c-0.5-0.3-1-0.7-1.3-1.2c-0.3-0.3-0.8-0.1-0.9,0.2c-0.3,1.1-1.7,1.2-2.1,0c-0.1-0.5-0.7-0.5-1-0.1c-1.1,1.5-3.5,1.5-4.6,0
				c-0.2-0.3-0.7-0.3-0.9,0c-0.8,1.1-2.4,1.2-3.3,0.3c-0.3-0.3-0.8-0.2-0.9,0.2c-0.1,0.9-1.2,0.9-1.8,0.4c-0.5-0.4-0.8-1-1-1.5
				C23.7,62.9,22.8,63.5,23.1,64.1L23.1,64.1z"/>
		</g>
	</g>
	<g>
		<g>
			<path class="st2" d="M61.4,65c1.8,1.8,4.7,1.8,6.5-0.1c-0.2,0-0.5,0-0.7,0c0.9,0.8,1.9,1.7,3.2,1.6c1-0.1,1.8-0.7,2.1-1.6
				c-0.3,0.1-0.6,0.2-0.9,0.2c1.4,1.5,3.8,1.4,5.1,0c-0.2,0-0.5,0-0.7,0c1.7,1.6,4.4,1.3,5.8-0.6c-0.3,0-0.5,0.1-0.8,0.1
				c1.7,1.9,4.8,1.7,6.3-0.3c0.4-0.5-0.5-1.1-0.9-0.5c-1.1,1.5-3.5,1.4-4.6,0.1c-0.2-0.3-0.6-0.1-0.8,0.1c-1,1.3-3,1.4-4.2,0.3
				c-0.2-0.2-0.5-0.2-0.7,0c-1,1.1-2.6,1.1-3.6,0c-0.3-0.3-0.8-0.1-0.9,0.2c-0.5,1.9-2.7,0.3-3.5-0.4c-0.2-0.2-0.5-0.2-0.7,0
				c-1.3,1.4-3.6,1.4-5,0.1C61.6,63.7,60.9,64.5,61.4,65L61.4,65z"/>
		</g>
	</g>
	<g>
		<g>
			<path class="st2" d="M87.1,64.6c0.3-0.3,0.3-0.5,0.4-0.9c-0.3,0-0.7,0.1-1,0.1c1,2.5,4.4,2.8,5.6,0.2c-0.3,0-0.5,0.1-0.8,0.1
				c0.9,1,2.2,1.9,3.6,1.8c1.1-0.1,2-0.8,2.4-1.9c-0.3,0-0.6,0.1-1,0.1c1.4,2.3,4.7,2.1,5.8-0.4c-0.3,0-0.6-0.1-1-0.1
				c1.1,2.9,5,2.9,6.2,0c-0.3,0-0.7,0-1,0c0.5,1.3,1.7,2.2,3.2,2.1c0.7-0.1,0.7-1.1,0-1.1c-1,0.1-1.8-0.4-2.2-1.3
				c-0.2-0.5-0.8-0.5-1,0c-0.8,1.9-3.4,1.9-4.1,0c-0.1-0.4-0.8-0.6-1-0.1c-0.8,1.7-2.9,2-4,0.4c-0.2-0.4-0.8-0.3-1,0.1
				c-0.7,2.2-3.3,0.8-4.2-0.3c-0.2-0.2-0.7-0.2-0.8,0.1c-0.7,1.6-2.9,1.8-3.6,0c-0.2-0.6-1-0.5-1,0.1c0,0,0,0.1-0.1,0.1
				C85.9,64.3,86.7,65.1,87.1,64.6L87.1,64.6z"/>
		</g>
	</g>
	<g>
		<g>
			<path class="st2" d="M21.1,67.1c-0.6,1.3-0.2,2.9,1.2,3.4c1.4,0.5,3-0.5,3.2-1.9c-0.3,0-0.7,0-1,0c0.7,2.2,3.5,2.6,4.7,0.5
				c-0.3,0-0.5,0.1-0.8,0.1c2.1,2.2,5.9,1.8,7.5-0.8c-0.3,0-0.6,0-0.9,0c0.8,1,1.7,2.2,3.2,2.2c1.1-0.1,1.9-0.7,2-1.8
				c-0.3,0-0.7,0.1-1,0.1c0.8,2.4,4.3,2.3,4.7-0.3c-0.3,0.1-0.6,0.2-0.9,0.2c1.6,1.9,5.1,2.5,6-0.4c-0.3,0-0.6,0.1-1,0.1
				c1.3,2.2,4.4,1.8,5.1-0.7c0.2-0.7-0.8-0.9-1-0.3c-0.4,1.6-2.4,1.8-3.2,0.4c-0.2-0.4-0.8-0.3-1,0.1c-0.7,2.2-3.2,1.2-4.3,0
				c-0.2-0.3-0.8-0.1-0.9,0.2c-0.2,1.5-2.1,1.9-2.6,0.3c-0.2-0.6-1-0.4-1,0.1c-0.1,0.8-1.2,0.8-1.7,0.6c-0.6-0.3-1.1-0.9-1.5-1.5
				c-0.2-0.3-0.7-0.4-0.9,0c-1.3,2-4.3,2.2-5.9,0.5c-0.2-0.2-0.7-0.2-0.8,0.1c-0.7,1.2-2.3,1.1-2.8-0.3c-0.1-0.5-0.9-0.5-1,0
				c-0.4,2.1-3.4,1.2-2.5-0.7C22.3,67,21.4,66.5,21.1,67.1L21.1,67.1z"/>
		</g>
	</g>
	<g>
		<g>
			<path class="st2" d="M52.5,69.5c1.4,1.3,3.9,1,4.7-0.8c-0.3,0-0.6,0-0.9,0c1.2,1.9,4.1,1.9,5.3,0.1c-0.3,0-0.6,0-0.9,0
				c1.6,2.3,4.8,2.2,6.2-0.3c-0.3,0-0.6,0-0.9,0c1.5,2.5,5.2,2,5.9-0.8c-0.3,0-0.7,0-1,0c0.2,1.2,1.1,2.5,2.5,2.5
				c1.2,0,2.1-1,2.1-2.1c-0.3,0.1-0.7,0.2-1,0.3c0.8,1.1,1.8,2.5,3.4,2.3c1.2-0.2,2.1-1.2,1.8-2.5c-0.2-0.6-1.2-0.4-1,0.3
				c0.2,0.5-0.3,1-0.8,1.1c-0.4,0.1-0.8,0-1.2-0.2c-0.6-0.3-0.9-1-1.3-1.5c-0.3-0.4-1-0.3-1,0.3c0,0.9-0.9,1.3-1.6,0.9
				c-0.5-0.3-0.8-0.9-0.9-1.5c-0.1-0.5-0.9-0.5-1,0c-0.5,2-2.9,2.3-4,0.6c-0.2-0.3-0.7-0.4-0.9,0c-1,1.7-3.2,1.9-4.4,0.3
				c-0.2-0.3-0.7-0.3-0.9,0c-0.8,1.2-2.7,1.2-3.5-0.1c-0.2-0.3-0.7-0.4-0.9,0c-0.6,1.2-2.1,1.5-3.1,0.6C52.7,68.3,52,69,52.5,69.5
				L52.5,69.5z"/>
		</g>
	</g>
	<g>
		<g>
			<path class="st2" d="M78.6,68.4c0.7,2.7,4.1,2.8,5.2,0.3c-0.3,0-0.7,0-1,0c0.6,2.7,4.4,2.6,4.8-0.1c-0.3,0-0.6,0.1-1,0.1
				c1.3,2.5,4.7,2.1,5.5-0.6c-0.3,0-0.7-0.1-1-0.1c0.1,1.3,1.1,2.4,2.5,2.5c1.5,0.1,2.7-0.9,3.4-2.2c-0.3,0-0.6-0.1-1-0.1
				c0.6,2.6,4.1,3,5.2,0.5c-0.3,0-0.6-0.1-1-0.1c0.4,2.6,3.5,3.1,5,1.1c-0.3,0-0.6,0-0.9,0c0.5,0.9,1.3,1.4,2.3,1.7
				c0.7,0.2,0.9-0.8,0.3-1c-0.7-0.2-1.3-0.6-1.7-1.2c-0.2-0.4-0.7-0.3-0.9,0c-1,1.4-2.9,0.7-3.1-0.9c-0.1-0.4-0.8-0.5-1-0.1
				c-0.7,1.6-2.9,1.6-3.3-0.2c-0.1-0.4-0.7-0.5-1-0.1c-0.4,0.7-1,1.3-1.8,1.6c-1,0.3-2.2-0.3-2.2-1.4c0-0.6-0.9-0.7-1-0.1
				c-0.5,1.8-2.7,2-3.6,0.3c-0.2-0.4-0.9-0.3-1,0.1c-0.3,1.7-2.4,1.8-2.8,0.1c-0.1-0.6-0.8-0.4-1,0c-0.7,1.6-2.7,1.3-3.1-0.3
				C79.4,67.5,78.4,67.7,78.6,68.4L78.6,68.4z"/>
		</g>
	</g>
	<path class="st6" d="M44.1,39.6c0.5-0.7,3.7-2.1,3.7-2.1l4.5,0.9l-1.4,1.4L44.1,39.6z"/>
	<polygon class="st7" points="51,47.2 52.9,45.6 52.3,38.5 50.8,40 	"/>
</g>
</svg>
