<?xml version="1.0" encoding="utf-8"?>
<!-- Generator: Adobe Illustrator 23.0.1, SVG Export Plug-In . SVG Version: 6.00 Build 0)  -->
<svg version="1.1" id="Ebene_1" xmlns="http://www.w3.org/2000/svg" xmlns:xlink="http://www.w3.org/1999/xlink" x="0px" y="0px"
	 viewBox="0 0 300 300" style="enable-background:new 0 0 300 300;" xml:space="preserve">
<style type="text/css">
	.st0{fill:#78BCE9;}
	.st1{fill:#36A9E1;}
	.st2{fill:#585252;}
	.st3{fill:#A3897A;}
	.st4{fill:#D49F00;}
	.st5{fill:#48443B;}
	.st6{fill:#A8A39E;}
	.st7{fill:#656057;}
</style>
<g>
	<polygon class="st0" points="16.74,227.4 17.29,130.15 220.03,132.35 220.03,227.4 	"/>
	<polygon class="st1" points="246.4,75.21 278.27,125.21 276.62,216.11 220.03,227.4 220.03,132.35 	"/>
	<polygon class="st2" points="44.21,175.13 73.88,175.13 73.88,224.57 45.86,224.02 	"/>
	<polygon class="st2" points="159.29,189.05 158.05,154.3 192.8,154.09 192.39,192.98 160.12,192.57 	"/>
	<polygon class="st1" points="156.4,190.29 195.08,191.33 195.29,198.98 156.81,197.53 	"/>
	<polygon class="st3" points="39.3,228.67 78.85,229.65 79.08,237.6 39.75,236.19 	"/>
	<polygon class="st3" points="42.35,221.22 75.7,222.11 75.88,228.71 42.71,227.46 	"/>
	<polygon class="st4" points="161.57,157.61 173.15,157.82 173.57,173.33 161.57,173.12 	"/>
	<polygon class="st4" points="176.88,157.4 176.88,173.12 188.87,172.71 189.29,158.44 	"/>
	<polygon class="st4" points="161.57,175.81 173.36,176.02 172.94,187.61 161.15,186.98 	"/>
	<polygon class="st4" points="176.67,176.64 188.87,175.81 189.49,188.43 176.88,187.4 	"/>
	<polygon class="st4" points="244.73,137.54 245.14,166.09 255.49,165.47 255.28,136.72 	"/>
	<path class="st5" d="M80.47,73.62c0-0.93,0-17.38,0-17.38l14.89,0.62l0.31,17.69L80.47,73.62z"/>
	<polygon class="st5" points="15,131.03 221.35,133.51 246.49,76.41 278.27,125.21 280,123.58 247.42,71.14 55.96,68.97 	"/>
	<g>
		<g>
			<path class="st2" d="M56.58,76.95c3.07,3.99,8.75,5.11,12.97,2.18c-0.53-0.14-1.06-0.28-1.59-0.42c2.14,3.38,7.03,3.42,9.31,0.19
				c-0.61,0.08-1.21,0.16-1.82,0.23c4.33,3.94,11.04,3.9,15.3-0.14c-0.55,0-1.09,0-1.64,0c3.46,3.56,9.42,3.49,12.75-0.21
				c-0.55,0-1.09,0-1.64,0c4.76,4.34,12.81,3.14,16-2.5c-0.71-0.09-1.41-0.18-2.12-0.28c2.75,6.62,11.29,8.26,15.91,2.49
				c-0.61-0.08-1.21-0.16-1.82-0.23c2.47,4.39,8.99,5.13,12.32,1.31c-0.61-0.08-1.21-0.16-1.82-0.23c3.1,5.32,11.3,5.44,14.64,0.32
				c-0.61,0.08-1.21,0.16-1.82,0.23c3.47,4.22,10.2,4.37,13.92,0.42c-0.61-0.08-1.21-0.16-1.82-0.23c2.58,3.76,8.25,3.76,10.82-0.02
				c-0.53,0.14-1.06,0.28-1.59,0.42c3.51,2.57,8.29,2.54,11.76-0.09c-0.53-0.14-1.06-0.28-1.59-0.42c3.31,5.78,11.93,6.12,15.9,0.92
				c-0.67,0-1.34,0-2,0c2.65,5.35,9.73,4.71,11.94-0.59c-0.75,0-1.49,0-2.24,0c0.72,2.15,2.61,3.51,4.91,3.52
				c2.82,0.01,4.93-2.09,6.3-4.34c-0.67,0-1.34,0-2,0c2.88,3.78,7.99,4.93,12.14,2.49c-0.57-0.23-1.14-0.46-1.7-0.69
				c0.8,2.53,3.32,3.8,5.9,3.42c3.22-0.47,5.22-3.37,6.87-5.89c0.82-1.26-1.19-2.42-2-1.17c-0.95,1.45-1.91,2.99-3.37,3.98
				c-1.58,1.07-4.42,1.36-5.15-0.95c-0.22-0.71-1.04-1.09-1.7-0.69c-2.96,1.74-6.84,1.12-8.96-1.66c-0.52-0.68-1.51-0.81-2,0
				c-1.28,2.1-5.66,5.29-6.97,1.38c-0.39-1.16-1.81-1.03-2.24,0c-1.52,3.63-6.07,3.33-7.69,0.04c-0.43-0.87-1.52-0.63-2,0
				c-2.96,3.87-9.54,3.2-11.9-0.92c-0.28-0.5-1.09-0.79-1.59-0.42c-2.88,2.19-6.49,2.23-9.41,0.09c-0.53-0.39-1.27-0.06-1.59,0.42
				c-1.55,2.28-5.25,2.3-6.81,0.02c-0.41-0.59-1.28-0.81-1.82-0.23c-2.92,3.1-7.96,2.84-10.64-0.42c-0.5-0.61-1.45-0.34-1.82,0.23
				c-2.4,3.69-8.44,3.45-10.63-0.32c-0.35-0.61-1.33-0.81-1.82-0.23c-2.35,2.71-6.89,2.32-8.67-0.84c-0.34-0.6-1.35-0.82-1.82-0.23
				c-3.38,4.22-9.87,3.74-12.03-1.47c-0.36-0.86-1.58-1.23-2.12-0.28c-2.43,4.29-8.68,5.38-12.35,2.03c-0.44-0.41-1.21-0.48-1.64,0
				c-2.51,2.78-6.84,2.91-9.47,0.21c-0.45-0.46-1.19-0.43-1.64,0c-3.31,3.14-8.64,3.21-12.02,0.14c-0.59-0.54-1.38-0.39-1.82,0.23
				c-1.28,1.81-4.15,1.64-5.31-0.19c-0.32-0.5-1.06-0.78-1.59-0.42c-3.08,2.13-7.44,1.7-9.8-1.35
				C57.68,74.61,55.67,75.77,56.58,76.95L56.58,76.95z"/>
		</g>
	</g>
	<g>
		<g>
			<path class="st2" d="M50.78,83.73c2.98,4.58,9.34,5.49,13.53,2.04c-0.47,0.06-0.94,0.12-1.41,0.18
				c3.42,2.11,8.22,3.91,10.92-0.23c-0.67,0-1.34,0-2,0c3.41,4.58,10.48,5.14,14.36,0.81c-0.55,0-1.09,0-1.64,0
				c3.21,3.02,8.17,3,11.34-0.06c-0.47,0.06-0.94,0.12-1.41,0.18c2.47,1.85,5.29,3.82,8.55,3.45c2.48-0.28,4.59-1.82,5.21-4.28
				c-0.75,0-1.49,0-2.24,0c1.95,6.27,10.76,6.07,12.08-0.51c-0.71,0.09-1.41,0.18-2.12,0.28c2.42,4.02,8.24,4.14,10.99,0.45
				c-0.67,0-1.34,0-2,0c2.09,4.26,7.7,4.32,9.98,0.2c-0.71-0.09-1.41-0.18-2.12-0.28c2.21,5.79,10.15,6.43,12.69,0.47
				c0.58-1.36-1.42-2.54-2-1.17c-1.62,3.82-6.84,4.28-8.44,0.08c-0.34-0.88-1.6-1.22-2.12-0.28c-1.43,2.59-4.65,2.5-5.97-0.2
				c-0.42-0.86-1.53-0.63-2,0c-1.74,2.32-5.54,1.95-6.99-0.45c-0.48-0.81-1.92-0.74-2.12,0.28c-0.83,4.16-6.3,4.73-7.61,0.51
				c-0.33-1.06-1.95-1.15-2.24,0c-1.35,5.34-7.9,1.28-10.35-0.56c-0.41-0.31-1.07-0.15-1.41,0.18C92,87,88.47,87.04,86.19,84.89
				c-0.44-0.41-1.21-0.48-1.64,0c-2.79,3.11-8.16,3.1-10.72-0.34c-0.52-0.7-1.49-0.78-2,0c-1.9,2.92-5.59,0.73-7.75-0.6
				c-0.47-0.29-1.01-0.14-1.41,0.18c-3.02,2.48-7.78,1.68-9.89-1.57C51.97,81.31,49.96,82.47,50.78,83.73L50.78,83.73z"/>
		</g>
	</g>
	<g>
		<g>
			<path class="st2" d="M143.8,86.88c2.25,4.06,8.11,4.21,10.77,0.55c-0.67,0-1.34,0-2,0c3.32,4.58,10.28,4.6,13.65,0.08
				c-0.53,0.14-1.06,0.28-1.59,0.42c4.21,3.08,10.26,2.39,13.7-1.52c-0.61-0.08-1.21-0.16-1.82-0.23c1.86,4.27,8.1,4.51,10.6,0.77
				c-0.67,0-1.34,0-2,0c2.24,4.37,8.55,5.21,11.88,1.62c-0.55,0-1.09,0-1.64,0c3.17,3.96,9.46,3.49,12.32-0.54c-0.67,0-1.34,0-2,0
				c2.13,3.96,8.12,4.03,10.43,0.21c-0.67,0-1.34,0-2,0c2.84,4.86,9.44,4.13,11.46-0.99c-0.65,0.17-1.29,0.34-1.94,0.51
				c2.52,3.09,6.31,4.36,10.2,3.67c1.47-0.26,0.85-2.5-0.62-2.24c-3.11,0.55-5.97-0.65-7.94-3.07c-0.61-0.75-1.66-0.21-1.94,0.51
				c-1.31,3.32-5.49,3.4-7.22,0.44c-0.44-0.76-1.56-0.74-2,0c-1.43,2.37-5.13,2.19-6.42-0.21c-0.44-0.83-1.53-0.67-2,0
				c-2.08,2.93-6.52,2.77-8.68,0.07c-0.38-0.48-1.25-0.42-1.64,0c-2.36,2.54-6.66,1.92-8.24-1.15c-0.42-0.82-1.55-0.68-2,0
				c-1.64,2.45-5.49,1.77-6.59-0.77c-0.29-0.67-1.37-0.75-1.82-0.23c-2.81,3.2-7.46,3.66-10.88,1.15c-0.54-0.4-1.25-0.04-1.59,0.42
				c-2.29,3.06-7.41,3.01-9.64-0.08c-0.54-0.74-1.46-0.74-2,0c-1.69,2.32-5.44,1.86-6.77-0.55C145.08,84.4,143.07,85.57,143.8,86.88
				L143.8,86.88z"/>
		</g>
	</g>
	<g>
		<g>
			<path class="st2" d="M46.24,92.55c0.47,6.07,8.62,7.05,10.3,1.1c-0.57,0.23-1.14,0.46-1.7,0.69c2.01,1.54,4.46,2.96,7.09,2.51
				c2.25-0.38,4.08-1.98,4.45-4.25c-0.71,0.09-1.41,0.18-2.12,0.28c1.44,2.57,3.39,5.54,6.6,5.9c2.5,0.28,5.07-1.09,5.57-3.66
				c-0.65,0.17-1.29,0.34-1.94,0.51c4.85,5.05,13,3.86,16.1-2.46c-0.71-0.09-1.41-0.18-2.12-0.28c2.25,5.46,9.51,6.1,12.29,0.66
				c-0.67,0-1.34,0-2,0c1.54,2.22,3.87,4.14,6.74,3.97c2.48-0.15,4.57-1.83,5.15-4.24c-0.75,0-1.49,0-2.24,0
				c1.3,4.17,6.81,6.13,10.33,3.34c0.74-0.59,0.85-1.38,2.01-0.84c0.39,0.18,0.72,0.72,1.1,0.97c0.85,0.57,1.89,0.84,2.91,0.84
				c2.2,0.01,4.23-1.17,5.18-3.16c-0.61,0.08-1.21,0.16-1.82,0.23c3.66,4.5,11.01,3.93,14.2-0.78c0.84-1.24-1.17-2.4-2-1.17
				c-2.42,3.58-7.9,3.57-10.55,0.31c-0.45-0.55-1.52-0.4-1.82,0.23c-0.93,1.93-3.35,2.66-5.11,1.32c-1.12-0.85-1.8-1.93-3.37-1.46
				c-1.62,0.47-2.23,2.22-4.06,2.44c-2.04,0.25-4.13-0.89-4.75-2.89c-0.33-1.05-1.96-1.15-2.24,0c-1.04,4.29-5.92,2.21-7.65-0.28
				c-0.46-0.67-1.58-0.83-2,0c-1.75,3.42-6.5,3.66-8.05-0.11c-0.34-0.82-1.63-1.27-2.12-0.28c-2.44,4.97-8.61,5.99-12.45,1.99
				c-0.57-0.6-1.77-0.35-1.94,0.51c-0.46,2.32-3.18,2.34-4.79,1.24c-1.43-0.98-2.31-2.56-3.14-4.04c-0.45-0.81-1.96-0.74-2.12,0.28
				C63.4,96.58,58.17,94,56,92.34c-0.61-0.47-1.52,0.04-1.7,0.69c-0.93,3.32-5.46,3.07-5.74-0.48
				C48.44,91.07,46.12,91.06,46.24,92.55L46.24,92.55z"/>
		</g>
	</g>
	<g>
		<g>
			<path class="st2" d="M140.28,93.76c1.5,2.28,3.75,4.61,6.73,4.3c2.33-0.24,4.01-1.9,4.26-4.2c-0.72,0.2-1.44,0.39-2.16,0.59
				c2.43,5.37,9.62,5.45,12.41,0.36c-0.61,0.08-1.21,0.16-1.82,0.23c3.84,3.82,10.54,3.55,13.91-0.76
				c-0.61-0.08-1.21-0.16-1.82-0.23c2.67,4.59,9.09,4.51,11.51-0.28c-0.71-0.09-1.41-0.18-2.12-0.28c1.17,5.9,8.99,6.09,10.8,0.5
				c-0.71,0.09-1.41,0.18-2.12,0.28c2.55,5.11,9.19,5.32,12.33,0.7c-0.71-0.09-1.41-0.18-2.12-0.28c1.5,4.94,7.72,4.92,9.6,0.28
				c-0.71,0.09-1.41,0.18-2.12,0.28c2.23,4.26,8.6,4.99,11.66,1.23c-0.55,0-1.09,0-1.64,0c2.93,3.39,8,4.06,11.71,1.57
				c1.24-0.83,0.07-2.84-1.17-2c-2.91,1.94-6.62,1.43-8.9-1.21c-0.38-0.44-1.27-0.46-1.64,0c-2.13,2.62-6.43,2.28-8.02-0.76
				c-0.51-0.98-1.78-0.57-2.12,0.28c-1.06,2.63-4.36,2.21-5.12-0.28c-0.3-0.99-1.56-1.1-2.12-0.28c-2.24,3.29-6.6,2.75-8.32-0.7
				c-0.47-0.94-1.83-0.61-2.12,0.28c-1.15,3.57-5.63,3-6.32-0.5c-0.19-0.96-1.68-1.15-2.12-0.28c-1.62,3.2-5.67,3.42-7.5,0.28
				c-0.34-0.58-1.35-0.84-1.82-0.23c-2.59,3.31-7.61,3.76-10.63,0.76c-0.52-0.52-1.46-0.42-1.82,0.23c-2.02,3.68-6.72,3.37-8.4-0.36
				c-0.53-1.17-2.06-0.42-2.16,0.59c-0.21,1.98-2.56,2.19-3.94,1.51c-1.19-0.59-2.01-1.71-2.72-2.78
				C141.46,91.35,139.45,92.51,140.28,93.76L140.28,93.76z"/>
		</g>
	</g>
	<g>
		<g>
			<path class="st2" d="M39.52,102.26c1.97,3.66,6.71,4.42,9.89,1.91c-0.55,0-1.09,0-1.64,0c3.13,3.87,9.71,3.12,11.98-1.27
				c-0.53,0.14-1.06,0.28-1.59,0.42c3.85,2.12,9.01,3.94,12.05-0.42c-0.71-0.09-1.41-0.18-2.12-0.28c2.21,5.4,9.15,6.17,12.22,1.04
				c-0.61,0.08-1.21,0.16-1.82,0.23c3.19,3.92,9.76,3.24,12.22-1.11c-0.67,0-1.34,0-2,0c2.5,5.2,9.36,4.57,11.47-0.54
				c-0.71,0.09-1.41,0.18-2.12,0.28c2.64,4.49,9.43,4.57,12.26,0.25c-0.67,0-1.34,0-2,0c2.39,4.01,8.27,4.69,11.44,1.22
				c-0.47,0.06-0.94,0.12-1.41,0.18c3.11,1.82,7.86,3.12,9.42-1.3c-0.71,0.09-1.41,0.18-2.12,0.28c2.69,4.87,9.29,4.9,12.05,0.09
				c0.75-1.3-1.26-2.47-2-1.17c-1.9,3.31-6.2,3.25-8.05-0.09c-0.51-0.93-1.8-0.62-2.12,0.28c-0.99,2.82-4.51,0.79-6.01-0.09
				c-0.43-0.25-1.06-0.2-1.41,0.18c-2.16,2.36-6.14,2.03-7.79-0.75c-0.46-0.78-1.53-0.72-2,0c-1.89,2.88-6.52,2.68-8.25-0.25
				c-0.55-0.94-1.76-0.6-2.12,0.28c-1.42,3.45-5.73,3.11-7.22-0.01c-0.38-0.8-1.6-0.72-2,0c-1.79,3.15-6.33,3.39-8.57,0.64
				c-0.48-0.6-1.47-0.35-1.82,0.23c-1.94,3.23-6.51,3.11-7.98-0.49c-0.38-0.94-1.52-1.14-2.12-0.28c-2.18,3.13-6.35,0.98-8.88-0.41
				c-0.53-0.29-1.29-0.15-1.59,0.42c-1.64,3.16-6.13,3.53-8.34,0.8c-0.43-0.53-1.19-0.35-1.64,0c-2.05,1.62-5.06,0.77-6.24-1.44
				C40.82,99.78,38.82,100.95,39.52,102.26L39.52,102.26z"/>
		</g>
	</g>
	<g>
		<g>
			<path class="st2" d="M135.14,103.3c2.33,3.99,8.58,3.95,10.8-0.13c-0.67,0-1.34,0-2,0c1.42,2.03,3.36,4.18,6.07,4.05
				c2.27-0.11,3.97-1.7,4.14-3.94c-0.66,0.27-1.32,0.55-1.98,0.82c3.84,3.93,11.09,2.77,13.33-2.32c-0.67,0-1.34,0-2,0
				c2.77,4.4,9.5,4.43,12.33,0.07c-0.71-0.09-1.41-0.18-2.12-0.28c1.58,5.11,8.03,5.92,10.75,1.27c-0.71-0.09-1.41-0.18-2.12-0.28
				c1.31,5.43,8.51,6.3,10.92,1.17c-0.61,0.08-1.21,0.16-1.82,0.23c3.24,3.39,8.85,2.8,11.47-1.02c-0.67,0-1.34,0-2,0
				c2.22,4.71,8.51,4.05,10.16-0.7c-0.71,0.09-1.41,0.18-2.12,0.28c2.66,4.94,9.4,4.96,12.1,0.03c-0.71-0.09-1.41-0.18-2.12-0.28
				c0.44,2.17,2.24,3.68,4.43,3.95c2.69,0.33,4.99-1.22,6.97-2.84c1.16-0.94-0.49-2.58-1.64-1.64c-1.95,1.59-6.7,4.03-7.53-0.09
				c-0.2-0.98-1.66-1.12-2.12-0.28c-1.86,3.41-6.25,3.39-8.09-0.03c-0.5-0.93-1.81-0.62-2.12,0.28c-1.06,3.06-4.64,2.87-5.92,0.15
				c-0.4-0.85-1.56-0.65-2,0c-1.79,2.62-5.67,2.8-7.82,0.55c-0.48-0.5-1.5-0.44-1.82,0.23c-1.53,3.25-5.81,2.95-6.68-0.61
				c-0.24-0.98-1.63-1.12-2.12-0.28c-1.69,2.89-5.51,2.52-6.51-0.71c-0.3-0.98-1.57-1.12-2.12-0.28c-1.87,2.88-6.5,2.82-8.33-0.07
				c-0.42-0.66-1.63-0.84-2,0c-1.63,3.71-6.81,4.8-9.69,1.85c-0.75-0.77-1.9-0.14-1.98,0.82c-0.18,2.22-2.74,1.68-3.85,0.93
				c-0.85-0.57-1.45-1.38-2.04-2.21c-0.47-0.68-1.56-0.82-2,0c-1.38,2.54-5.32,2.66-6.79,0.13
				C136.39,100.84,134.38,102.01,135.14,103.3L135.14,103.3z"/>
		</g>
	</g>
	<g>
		<g>
			<path class="st2" d="M34.05,110.25c1.11,2.34,2.78,4.97,5.62,5.22c2.2,0.2,4.41-1.1,4.75-3.37c-0.65,0.17-1.29,0.34-1.94,0.51
				c3.14,3.23,8.5,2.64,11-1.04c-0.67,0-1.34,0-2,0c3.33,4.81,10.73,4.84,14.12,0.08c-0.71-0.09-1.41-0.18-2.12-0.28
				c1.53,4.68,7.71,4.67,9.11-0.11c-0.65,0.17-1.29,0.34-1.94,0.51c1.71,2.07,4.11,4.09,6.98,3.72c2.46-0.32,4.44-2.35,4.29-4.87
				c-0.72,0.2-1.44,0.39-2.16,0.59c2.11,4.96,8.52,5.11,11.28,0.69c-0.67,0-1.34,0-2,0c2.77,4.26,8.81,3.45,10.28-1.45
				c-0.71,0.09-1.41,0.18-2.12,0.28c2.34,4.91,8.84,5.06,11.61,0.47c-0.67,0-1.34,0-2,0c3.09,4.35,9.95,4.81,13.32,0.49
				c0.91-1.16-0.72-2.82-1.64-1.64c-2.37,3.04-7.36,3.24-9.68-0.02c-0.5-0.7-1.52-0.79-2,0c-1.92,3.17-6.04,2.82-7.61-0.47
				c-0.45-0.94-1.85-0.61-2.12,0.28c-0.88,2.93-4.34,3.5-6.04,0.89c-0.48-0.74-1.53-0.76-2,0c-1.94,3.1-5.92,2.5-7.28-0.69
				c-0.45-1.07-2.23-0.51-2.16,0.59c0.15,2.4-2.58,3.02-4.34,2.16c-1.21-0.59-2.13-1.63-2.97-2.65c-0.58-0.7-1.71-0.26-1.94,0.51
				c-0.73,2.51-3.81,2.64-4.63,0.11c-0.33-1-1.54-1.09-2.12-0.28c-2.34,3.29-7.82,3.23-10.11-0.08c-0.51-0.74-1.49-0.75-2,0
				c-1.68,2.47-5.31,2.67-7.36,0.57c-0.56-0.57-1.81-0.37-1.94,0.51c-0.3,2-2.6,1.94-3.89,0.91c-1.06-0.85-1.67-2.11-2.23-3.32
				C35.42,107.73,33.42,108.91,34.05,110.25L34.05,110.25z"/>
		</g>
	</g>
	<g>
		<g>
			<path class="st2" d="M118.53,112.22c3.9,3.93,10.47,3.88,14.31-0.12c-0.55,0-1.09,0-1.64,0c1.95,1.76,4.24,3.66,7.05,3.46
				c2.16-0.15,3.98-1.5,4.53-3.6c-0.65,0.17-1.29,0.34-1.94,0.51c3.02,3.22,8.29,3.2,11.27-0.06c-0.55,0-1.09,0-1.64,0
				c3.8,3.51,9.78,2.86,12.84-1.24c-0.61,0.08-1.21,0.16-1.82,0.23c3.73,4.24,10.56,3.74,13.91-0.65c0.91-1.19-1.11-2.34-2-1.17
				c-2.5,3.28-7.62,3.18-10.26,0.18c-0.54-0.62-1.41-0.32-1.82,0.23c-2.16,2.89-6.59,3.19-9.2,0.77c-0.44-0.41-1.2-0.48-1.64,0
				c-2.16,2.36-5.79,2.4-7.99,0.06c-0.6-0.64-1.72-0.32-1.94,0.51c-1.08,4.13-6.02,0.63-7.7-0.89c-0.46-0.41-1.19-0.47-1.64,0
				c-2.97,3.11-7.99,3.18-11.02,0.12C119.12,109.51,117.48,111.16,118.53,112.22L118.53,112.22z"/>
		</g>
	</g>
	<g>
		<g>
			<path class="st2" d="M175.29,111.32c0.59-0.73,0.72-1.03,0.8-1.96c-0.76,0.1-1.52,0.21-2.28,0.31c2.18,5.52,9.7,6.17,12.27,0.54
				c-0.61,0.08-1.21,0.16-1.82,0.23c2.02,2.25,4.79,4.23,7.97,3.87c2.49-0.29,4.51-1.86,5.25-4.27c-0.71,0.09-1.41,0.18-2.12,0.28
				c3.14,4.99,10.4,4.73,12.83-0.8c-0.71-0.09-1.41-0.18-2.12-0.28c2.52,6.46,11.08,6.46,13.62,0.02c-0.75,0-1.49,0-2.24,0
				c1.13,2.96,3.77,4.81,6.99,4.54c1.48-0.13,1.49-2.45,0-2.32c-2.1,0.18-3.97-0.79-4.75-2.83c-0.42-1.11-1.81-1.09-2.24,0
				c-1.68,4.24-7.49,4.23-9.15-0.02c-0.32-0.81-1.67-1.29-2.12-0.28c-1.68,3.83-6.51,4.46-8.82,0.8c-0.54-0.85-1.82-0.69-2.12,0.28
				c-1.52,4.92-7.18,1.78-9.34-0.62c-0.47-0.52-1.52-0.43-1.82,0.23c-1.62,3.54-6.48,3.92-8.03,0.01c-0.48-1.22-2.15-1.03-2.28,0.31
				c-0.04,0.11-0.08,0.21-0.12,0.32C172.72,110.83,174.35,112.49,175.29,111.32L175.29,111.32z"/>
		</g>
	</g>
	<g>
		<g>
			<path class="st2" d="M29.6,117c-1.31,2.8-0.34,6.45,2.74,7.61c3.12,1.18,6.52-1.11,7.08-4.27c-0.75,0-1.49,0-2.24,0
				c1.53,4.9,7.77,5.68,10.33,1.16c-0.61,0.08-1.21,0.16-1.82,0.23c4.67,4.77,13,3.87,16.64-1.67c-0.67,0-1.34,0-2,0
				c1.72,2.27,3.86,4.92,7.02,4.75c2.36-0.13,4.11-1.64,4.39-3.96c-0.76,0.1-1.52,0.21-2.28,0.31c1.75,5.35,9.43,5.11,10.29-0.69
				c-0.65,0.17-1.29,0.34-1.94,0.51c3.59,4.25,11.25,5.46,13.31-0.97c-0.71,0.09-1.41,0.18-2.12,0.28c2.82,4.89,9.75,4,11.26-1.44
				c0.4-1.44-1.84-2.06-2.24-0.62c-0.97,3.49-5.22,4-7.02,0.88c-0.51-0.89-1.82-0.65-2.12,0.28c-1.54,4.81-7.1,2.7-9.43-0.06
				c-0.53-0.62-1.81-0.33-1.94,0.51c-0.49,3.3-4.69,4.11-5.81,0.69c-0.43-1.31-2.12-0.96-2.28,0.31c-0.22,1.8-2.57,1.82-3.73,1.27
				c-1.42-0.67-2.43-2.01-3.36-3.23c-0.53-0.7-1.49-0.79-2,0c-2.84,4.32-9.41,4.86-12.99,1.2c-0.52-0.53-1.46-0.41-1.82,0.23
				c-1.53,2.69-5.13,2.46-6.09-0.61c-0.32-1.01-2.03-1.19-2.24,0c-0.84,4.74-7.55,2.64-5.58-1.55
				C32.23,116.83,30.23,115.65,29.6,117L29.6,117z"/>
		</g>
	</g>
	<g>
		<g>
			<path class="st2" d="M98.87,122.25c3.12,2.96,8.53,2.13,10.43-1.82c-0.67,0-1.34,0-2,0c2.58,4.23,8.99,4.27,11.68,0.14
				c-0.67,0-1.34,0-2,0c3.56,4.97,10.68,4.78,13.72-0.64c-0.67,0-1.34,0-2,0c3.4,5.5,11.41,4.44,13.09-1.86c-0.75,0-1.49,0-2.24,0
				c0.49,2.66,2.44,5.42,5.42,5.43c2.55,0.01,4.68-2.1,4.6-4.64c-0.72,0.2-1.44,0.39-2.16,0.59c1.67,2.48,4.06,5.52,7.43,5.07
				c2.64-0.35,4.74-2.76,3.93-5.42c-0.43-1.43-2.67-0.82-2.24,0.62c0.35,1.17-0.71,2.15-1.7,2.37c-0.94,0.21-1.74-0.02-2.56-0.55
				c-1.22-0.77-2.07-2.1-2.86-3.26c-0.61-0.9-2.2-0.63-2.16,0.59c0.06,1.92-2,2.84-3.56,1.91c-1.19-0.71-1.66-2.04-1.89-3.32
				c-0.21-1.16-1.96-1.05-2.24,0c-1.15,4.31-6.49,5.13-8.85,1.31c-0.45-0.73-1.57-0.78-2,0c-2.13,3.78-7.13,4.25-9.71,0.64
				c-0.51-0.72-1.5-0.77-2,0c-1.74,2.67-6.03,2.56-7.67-0.14c-0.42-0.69-1.61-0.81-2,0c-1.23,2.55-4.67,3.35-6.78,1.35
				C99.43,119.58,97.79,121.22,98.87,122.25L98.87,122.25z"/>
		</g>
	</g>
	<g>
		<g>
			<path class="st2" d="M156.54,119.82c1.5,5.99,9.15,6.19,11.42,0.67c-0.75,0-1.49,0-2.24,0c1.24,5.93,9.62,5.85,10.58-0.2
				c-0.71,0.09-1.41,0.18-2.12,0.28c2.84,5.42,10.46,4.54,12.15-1.28c-0.76-0.1-1.52-0.21-2.28-0.31c0.12,2.98,2.45,5.4,5.47,5.63
				c3.31,0.25,6.01-2.08,7.59-4.76c-0.71-0.09-1.41-0.18-2.12-0.28c1.43,5.75,9.15,6.56,11.56,1.03c-0.71-0.09-1.41-0.18-2.12-0.28
				c0.88,5.73,7.81,6.95,11.1,2.49c-0.67,0-1.34,0-2,0c1.2,1.91,2.84,3.14,5.04,3.69c1.45,0.37,2.07-1.87,0.62-2.24
				c-1.62-0.41-2.77-1.22-3.65-2.62c-0.5-0.79-1.49-0.7-2,0c-2.25,3.05-6.33,1.51-6.86-1.94c-0.15-0.95-1.73-1.16-2.12-0.28
				c-1.57,3.6-6.35,3.44-7.32-0.48c-0.24-0.98-1.62-1.12-2.12-0.28c-0.89,1.51-2.13,2.92-3.87,3.44c-2.21,0.66-4.77-0.68-4.87-3.13
				c-0.05-1.29-1.91-1.59-2.28-0.31c-1.14,3.94-6.02,4.33-7.91,0.73c-0.43-0.83-1.96-0.72-2.12,0.28c-0.59,3.73-5.31,3.98-6.1,0.2
				c-0.26-1.24-1.85-0.95-2.24,0c-1.47,3.57-6.06,2.84-6.94-0.67C158.42,117.75,156.18,118.36,156.54,119.82L156.54,119.82z"/>
		</g>
	</g>
	<path class="st6" d="M80.47,56.24c1.03-1.65,8.07-4.55,8.07-4.55l9.93,2.07l-3.1,3.1L80.47,56.24z"/>
	<polygon class="st7" points="95.5,72.96 99.83,69.47 98.47,53.76 95.16,57.03 	"/>
</g>
</svg>
