<?xml version="1.0" encoding="utf-8"?>
<!-- Generator: Adobe Illustrator 23.0.1, SVG Export Plug-In . SVG Version: 6.00 Build 0)  -->
<svg version="1.1" id="Ebene_1" xmlns="http://www.w3.org/2000/svg" xmlns:xlink="http://www.w3.org/1999/xlink" x="0px" y="0px"
	 viewBox="0 0 150 150" style="enable-background:new 0 0 150 150;" xml:space="preserve">
<style type="text/css">
	.st0{fill:#99816B;}
	.st1{fill:#0E1117;}
	.st2{fill:#CDA26B;}
	.st3{fill:#48443B;}
</style>
<path class="st0" d="M72.1,110.4c0,0,2.6,7.3,4.1,7.5c1.6,0.2,3.5-0.2,2.2-2.5c-1.3-2.3-2.9-8-2.9-8L72.1,110.4z"/>
<path class="st0" d="M77.9,107.4c0,0,3.2,9.1,5.3,8.4c2.1-0.7,1.1-1.6,0.7-3.2c-0.4-1.6-2.8-8.2-2.8-8.2L77.9,107.4z"/>
<path class="st0" d="M24.6,108c0,0-4.2,4.1-3.9,5.3c0.4,1.2,1.3,2.4,2.5,0.7c1.2-1.6,4.6-4.6,4.6-4.6L24.6,108z"/>
<path class="st0" d="M31.8,111.1c0,0-0.5,5.9,0.6,6.6c1,0.7,2.5,0.9,2.4-1.1c-0.2-2,0.5-6.5,0.5-6.5L31.8,111.1z"/>
<path class="st1" d="M90.2,101.3c0,0-5.4,9.5-28.6,11.4s-36.1-2.3-42.1-4.4c-6-2.1-6-2.1-6-2.1l2.1-3.1L10,98.8l3.7-3.9l-6.2-4.6
	c0,0,6.6-4.4,6-3.7C12.9,87.2,9.4,82,9.4,82l4.4-3.3l-5.8-7.9l6-2.3l-1-6.8l5.2-1.2l2.5-7l5.2,1.2l0.6-8.3l3.9,1.7
	c0,0,2.1-5.4,2.1-4.8c0,0.6,7,1.7,7,1.7s4.4-6.6,4.4-6c0,0.6,3.7,4.4,3.7,4.4l5-5.8l4.4,5.4l5-4.4l4.1,5l5.6-4.1l1.5,5l5.6-2.3
	l1.5,5.6l6.2-3.3l0.2,6.6l7.3-0.8l-0.2,4.1l5.6-1.7l1.5,5.8l5.4-0.8l-2.1,4.4l4.6,2.1l-2.3,3.7L90.2,101.3z"/>
<path class="st2" d="M133.9,90.1c0.3,0.3-20.7-16.5-24.2-21.5c-2.2-3.1-3.5-4.7-3.5-4.7l-0.9,2.5l-6.9-1.1l-1.3,2.9l-4.7-0.9
	l1.3,3.2l-3.2-0.5l-0.2,2.3L82.6,70l3.4,3.1L82.4,73l2.7,2.3l-3.9,2.3l3.7,2l-3.7,4.6l3.1,1.2l-2.6,2.3l3.8,1.7l-5,3.3L86,92
	l-4.1,6.3l4.7-0.9l-2.8,11.8c0,0,4.9-6.2,6.2-7.5c1.3-1.2,1.3-1.3,1.3-1.3l-0.3,4.7c0,0,1.9-1.5,2.3-2.7s0.5-1.1,0.5-1.1
	s1.5,2.7,1.3,4c-0.2,1.3,2.1-1.6,2.1-1.6l1.2-2.1l1.8,3.3l1.4-1.7c0,0,35.2-3.4,35.7-6.1C137.7,93.8,133.9,90.1,133.9,90.1z"/>
<ellipse transform="matrix(8.590032e-02 -0.9963 0.9963 8.590032e-02 27.8492 221.6035)" class="st3" cx="134.7" cy="95.6" rx="3.1" ry="2.8"/>
<ellipse class="st3" cx="98" cy="85.7" rx="1" ry="0.9"/>
<g>
	<g>
		<path class="st3" d="M116.1,99.3c1.1,1.4,3,1.9,4.7,1.4c0.8-0.2,0.6-1.1-0.2-0.9c-1.2,0.4-2.5-0.1-3.2-1.1
			C117,98.3,115.7,98.8,116.1,99.3L116.1,99.3z"/>
	</g>
</g>
<g>
	<g>
		<path class="st2" d="M28.2,61.2c1.4,0.1,2.7,0.5,4,1c0.6,0.2,1.6-0.6,0.8-0.9c-1.4-0.6-2.8-0.9-4.3-1
			C27.9,60.1,27.2,61.1,28.2,61.2L28.2,61.2z"/>
	</g>
</g>
<g>
	<g>
		<path class="st2" d="M30.8,54.3c0.8,0.3,1.5,0.7,2.3,1c0.6,0.2,1.6-0.5,0.8-0.9c-0.8-0.3-1.5-0.7-2.3-1C31,53.2,30,54,30.8,54.3
			L30.8,54.3z"/>
	</g>
</g>
<g>
	<g>
		<path class="st2" d="M39.3,51.3c0.8,0.5,1.5,1,2.3,1.5c0.3,0.2,0.7,0.2,1-0.1c0.2-0.2,0.4-0.6,0.1-0.8c-0.8-0.5-1.5-1-2.3-1.5
			c-0.3-0.2-0.7-0.2-1,0.1C39.1,50.7,39,51.1,39.3,51.3L39.3,51.3z"/>
	</g>
</g>
<g>
	<g>
		<path class="st2" d="M46.4,46.8c0.3,0.8,0.6,1.6,0.9,2.4c0.5-0.1,0.9-0.2,1.4-0.4c-0.1-0.3-0.2-0.6-0.3-0.9
			c-0.2-0.4-1.5,0-1.4,0.4c0.1,0.3,0.2,0.6,0.3,0.9c0.2,0.4,1.5,0,1.4-0.4c-0.3-0.8-0.6-1.6-0.9-2.4C47.6,46,46.2,46.4,46.4,46.8
			L46.4,46.8z"/>
	</g>
</g>
<g>
	<g>
		<path class="st2" d="M45.8,55.5c0.5,0.4,1,0.7,1.7,0.9c0.3,0.1,0.6,0,0.9-0.1c0.1,0,0.5-0.2,0.3-0.4c-0.2-0.1-0.3-0.2-0.5-0.3
			c-0.2-0.1-0.6,0-0.9,0.1c-0.1,0-0.6,0.3-0.4,0.4c0.2,0.1,0.3,0.2,0.5,0.3c0.4-0.2,0.8-0.3,1.2-0.5c-0.6-0.2-1.1-0.5-1.5-0.8
			c-0.2-0.2-0.7,0-0.9,0.1C46.1,55.2,45.6,55.4,45.8,55.5L45.8,55.5z"/>
	</g>
</g>
<g>
	<g>
		<path class="st2" d="M40.8,57.8c0.6,0.5,1.3,0.9,2.1,1.1c0.3,0.1,0.7,0,0.9-0.2c0.2-0.1,0.3-0.4,0.1-0.5c-0.2-0.1-0.4-0.2-0.6-0.4
			c-0.3-0.2-0.7,0-1,0.1c-0.2,0.1-0.4,0.4-0.1,0.6c0.2,0.1,0.4,0.2,0.6,0.4c0.3-0.2,0.6-0.5,1-0.7c-0.6-0.1-1.2-0.4-1.7-0.9
			C41.7,57,40.5,57.5,40.8,57.8L40.8,57.8z"/>
	</g>
</g>
<g>
	<g>
		<path class="st2" d="M18.8,66.2c1,0.3,2,0.5,3,0.4c0.3,0,0.8-0.1,0.9-0.4c0.1-0.3-0.1-0.3-0.4-0.3c-0.8,0-1.6-0.1-2.4-0.4
			c-0.3-0.1-0.7,0-1,0.1C18.8,65.9,18.5,66.1,18.8,66.2L18.8,66.2z"/>
	</g>
</g>
<g>
	<g>
		<path class="st2" d="M16.5,73.3c1.8,0.2,3.6,0.4,5.4,0.5c0.7,0.1,1.4-0.9,0.5-1c-1.8-0.2-3.6-0.4-5.4-0.5
			C16.3,72.2,15.6,73.2,16.5,73.3L16.5,73.3z"/>
	</g>
</g>
<g>
	<g>
		<path class="st2" d="M16.8,85.9c1.3,0.2,2.7,0.4,4,0.5c0.6,0.1,1.2-0.8,0.4-0.9c-1.3-0.2-2.7-0.4-4-0.5
			C16.6,84.9,16,85.8,16.8,85.9L16.8,85.9z"/>
	</g>
</g>
<g>
	<g>
		<path class="st2" d="M19,78.9c0.9,0.4,1.9,0.7,2.9,0.8c0.3,0,0.7-0.1,0.9-0.4c0.1-0.3-0.1-0.5-0.4-0.5c-0.9-0.1-1.7-0.4-2.6-0.7
			C19.3,77.7,18.2,78.5,19,78.9L19,78.9z"/>
	</g>
</g>
<g>
	<g>
		<path class="st2" d="M20.4,91.8c1.1,0.1,2.2,0,3.3-0.2c0.2,0,0.8-0.2,0.8-0.4c0-0.3-0.4-0.3-0.6-0.2c-1,0.2-2,0.3-2.9,0.2
			C20.5,91.1,19.5,91.7,20.4,91.8L20.4,91.8z"/>
	</g>
</g>
<g>
	<g>
		<path class="st2" d="M24,98.6c0.5,0,1,0,1.5,0c0.3,0,0.7-0.2,0.7-0.6c0-0.4-0.4-0.5-0.6-0.5c-0.5,0-1,0-1.5,0
			c-0.3,0-0.7,0.2-0.7,0.6C23.3,98.4,23.7,98.6,24,98.6L24,98.6z"/>
	</g>
</g>
<g>
	<g>
		<path class="st2" d="M26.7,104.9c1.1,0.1,2.2-0.2,3.2-0.7c0.4-0.2,0.3-0.5-0.1-0.4c-0.3,0-0.6,0.1-0.9,0.1c-0.3,0-0.7,0.1-0.9,0.3
			c-0.2,0.2,0.1,0.3,0.3,0.3c0.3,0,0.6-0.1,0.9-0.1c0-0.1-0.1-0.3-0.1-0.4c-0.5,0.3-1,0.4-1.6,0.3c-0.3,0-0.7,0.1-1,0.3
			C26.4,104.7,26.4,104.8,26.7,104.9L26.7,104.9z"/>
	</g>
</g>
<g>
	<g>
		<path class="st2" d="M35.2,109.1c1-0.5,1.9-1,2.7-1.7c0.7-0.6-0.4-1-0.9-0.6c-0.7,0.6-1.5,1.1-2.4,1.6c-0.2,0.1-0.5,0.4-0.3,0.7
			C34.4,109.3,34.9,109.3,35.2,109.1L35.2,109.1z"/>
	</g>
</g>
<g>
	<g>
		<path class="st2" d="M42.1,109.1c0.6-0.6,1.2-1.2,1.9-1.9c0.2-0.2,0.1-0.6-0.2-0.7c-0.3-0.1-0.7,0-1,0.3c-0.6,0.6-1.2,1.2-1.9,1.9
			c-0.2,0.2-0.1,0.6,0.2,0.7C41.4,109.5,41.8,109.4,42.1,109.1L42.1,109.1z"/>
	</g>
</g>
<g>
	<g>
		<path class="st2" d="M32.1,93.6c1,0,2.1-0.1,3.1-0.3c0.1,0,0.6-0.2,0.6-0.3c0-0.2-0.3-0.2-0.4-0.2c-0.3,0-0.6,0-0.9,0.1
			c-0.2,0-0.8,0.1-0.9,0.3c-0.1,0.2,0.1,0.3,0.3,0.2c0.3,0,0.6,0,0.9-0.1c0.1-0.2,0.2-0.3,0.2-0.5C34.4,93,33.7,93.1,33,93
			c-0.3,0-0.7,0.1-1,0.3C31.8,93.4,31.8,93.6,32.1,93.6L32.1,93.6z"/>
	</g>
</g>
<g>
	<g>
		<path class="st2" d="M26.9,89.1c1.4,0.1,2.7,0,4.1-0.3c0.9-0.2,0.6-1.2-0.3-1c-1.1,0.2-2.2,0.3-3.4,0.2c-0.3,0-0.8,0.1-0.9,0.4
			C26.4,88.8,26.6,89.1,26.9,89.1L26.9,89.1z"/>
	</g>
</g>
<g>
	<g>
		<path class="st2" d="M27.4,81.9c0.7-0.2,1.4-0.2,2.1,0.1c0.3,0.1,0.7,0,1-0.2c0.1-0.1,0.5-0.3,0.2-0.4c-1.1-0.4-2.2-0.3-3.3,0
			c-0.1,0-0.7,0.2-0.6,0.4C26.7,82,27.3,81.9,27.4,81.9L27.4,81.9z"/>
	</g>
</g>
<g>
	<g>
		<path class="st2" d="M27,74.2c1.2,0.1,2.3,0.4,3.4,0.9c0.3,0.1,0.6,0,0.9-0.1c0,0,0.6-0.3,0.4-0.4c-1.2-0.5-2.4-0.8-3.6-0.9
			c-0.3,0-0.7,0-0.9,0.2C27.1,73.9,26.7,74.2,27,74.2L27,74.2z"/>
	</g>
</g>
<g>
	<g>
		<path class="st2" d="M26.9,68.4c0.9,0.7,1.9,1.2,3,1.6c0.3,0.1,0.7,0,1-0.1c0.1-0.1,0.5-0.4,0.1-0.5c-1-0.3-2-0.8-2.8-1.4
			C27.8,67.6,26.6,68.2,26.9,68.4L26.9,68.4z"/>
	</g>
</g>
<g>
	<g>
		<path class="st2" d="M33.9,65.5c0.8,0.9,1.7,1.6,2.8,2.1c0.3,0.1,0.7,0,1-0.1c0.2-0.1,0.4-0.4,0.1-0.5c-1-0.5-1.9-1.2-2.6-2
			C34.9,64.6,33.6,65.1,33.9,65.5L33.9,65.5z"/>
	</g>
</g>
<g>
	<g>
		<path class="st2" d="M41.4,64.5c0.6,0.6,1.3,1,2.1,1.4c0.3,0.1,0.6,0,0.9-0.1c0.1,0,0.6-0.3,0.4-0.4c-0.8-0.4-1.5-0.9-2.1-1.4
			C42.5,63.8,41.2,64.3,41.4,64.5L41.4,64.5z"/>
	</g>
</g>
<g>
	<g>
		<path class="st2" d="M51.7,60.5c0.7,0.6,1.3,1.2,1.8,1.9c0.3,0.4,1.6-0.1,1.3-0.6c-0.6-0.7-1.2-1.3-1.8-1.9
			c-0.2-0.2-0.6-0.2-0.9,0C51.9,60,51.5,60.3,51.7,60.5L51.7,60.5z"/>
	</g>
</g>
<g>
	<g>
		<path class="st2" d="M56.5,55.4c0.6,0.8,1.4,1.4,2.3,1.8c0.6,0.3,1.6-0.6,0.8-1c-0.7-0.4-1.3-0.9-1.8-1.5
			C57.3,54.2,56,54.8,56.5,55.4L56.5,55.4z"/>
	</g>
</g>
<g>
	<g>
		<path class="st2" d="M55,48.8c0.5,0.4,1,0.8,1.5,1.2c0.2,0.2,0.7,0,0.9-0.1c0.1,0,0.6-0.2,0.4-0.4c-0.5-0.4-1-0.8-1.5-1.2
			c-0.2-0.2-0.7,0-0.9,0.1C55.3,48.5,54.8,48.7,55,48.8L55,48.8z"/>
	</g>
</g>
<g>
	<g>
		<path class="st2" d="M63.2,49.4c0.2,1.2,0.9,2.3,1.8,3.1c0.3,0.3,1.6-0.2,1.3-0.5c-0.9-0.8-1.5-1.8-1.7-3
			C64.5,48.6,63.1,49,63.2,49.4L63.2,49.4z"/>
	</g>
</g>
<g>
	<g>
		<path class="st2" d="M65.6,58.7c0.5,0.5,1,1,1.4,1.5c0.2,0.2,0.6,0.3,0.9,0.1c0.2-0.1,0.6-0.5,0.3-0.7c-0.5-0.5-1-1-1.4-1.5
			c-0.2-0.2-0.6-0.3-0.9-0.1C65.7,58,65.4,58.4,65.6,58.7L65.6,58.7z"/>
	</g>
</g>
<g>
	<g>
		<path class="st2" d="M50.2,69.2c0.8,0.3,1.5,0.6,2.3,0.9c0.5,0.2,1.6-0.5,0.8-0.8c-0.8-0.3-1.5-0.6-2.3-0.9
			C50.6,68.2,49.5,68.9,50.2,69.2L50.2,69.2z"/>
	</g>
</g>
<g>
	<g>
		<path class="st2" d="M41.9,75.3c0.7,0.7,1.7,1,2.7,1.1c0.3,0,0.7-0.1,0.9-0.4c0.2-0.3-0.1-0.3-0.4-0.3c-0.8,0-1.4-0.4-2-0.9
			C42.8,74.5,41.5,75,41.9,75.3L41.9,75.3z"/>
	</g>
</g>
<g>
	<g>
		<path class="st2" d="M38.1,81.6c1.1,0.7,2.4,0.9,3.7,0.7c0.2,0,0.8-0.2,0.8-0.4c0-0.3-0.4-0.2-0.6-0.2c-0.9,0.1-1.9-0.1-2.7-0.7
			C39,80.9,37.8,81.4,38.1,81.6L38.1,81.6z"/>
	</g>
</g>
<g>
	<g>
		<path class="st2" d="M37.9,87.7c1.2,0.2,2.5,0.2,3.7,0.1c0.2,0,0.8-0.1,0.9-0.3c0.1-0.2-0.1-0.3-0.3-0.3c-1.1,0.1-2.3,0.1-3.4-0.1
			c-0.3,0-0.7,0.1-1,0.3C37.6,87.5,37.6,87.6,37.9,87.7L37.9,87.7z"/>
	</g>
</g>
<g>
	<g>
		<path class="st2" d="M35.8,98.7c0.8,0.1,1.7-0.1,2.4-0.5c0.2-0.1,0.5-0.3,0.3-0.6c-0.2-0.2-0.7-0.2-0.9-0.1
			c-0.4,0.2-0.8,0.3-1.3,0.3c-0.3,0-0.7,0.1-0.9,0.4C35.3,98.6,35.6,98.7,35.8,98.7L35.8,98.7z"/>
	</g>
</g>
<g>
	<g>
		<path class="st2" d="M41,103.4c1-0.3,2-0.7,2.8-1.4c0.7-0.6-0.4-1.1-0.9-0.7c-0.6,0.5-1.4,0.9-2.2,1.1
			C39.9,102.6,40.2,103.6,41,103.4L41,103.4z"/>
	</g>
</g>
<g>
	<g>
		<path class="st2" d="M48,106.4c0.5-0.3,1-0.7,1.5-1c0.2-0.1,0.2-0.3-0.1-0.3c-0.3,0-0.7,0.1-1,0.3c-0.5,0.3-1,0.7-1.5,1
			c-0.2,0.1-0.2,0.3,0.1,0.3C47.4,106.7,47.8,106.6,48,106.4L48,106.4z"/>
	</g>
</g>
<g>
	<g>
		<path class="st2" d="M50.6,109.9c1.1-0.1,2.3-0.6,2.8-1.7c0.1-0.2-0.5-0.2-0.6-0.2c-0.3,0-0.7,0.1-0.8,0.4
			c-0.2,0.3-0.5,0.8-0.9,0.9c-0.3,0-0.7,0.1-0.9,0.3C50.1,109.8,50.4,109.9,50.6,109.9L50.6,109.9z"/>
	</g>
</g>
<g>
	<g>
		<path class="st2" d="M58.9,109.8c0.6-0.6,1.1-1.2,1.7-1.9c0.2-0.2,0.1-0.6-0.2-0.7c-0.3-0.1-0.7,0-1,0.3c-0.6,0.6-1.1,1.2-1.7,1.9
			c-0.2,0.2-0.1,0.6,0.2,0.7C58.3,110.1,58.7,110,58.9,109.8L58.9,109.8z"/>
	</g>
</g>
<g>
	<g>
		<path class="st2" d="M66.5,107.1c0.3-0.7,0.7-1.4,1-2.1c0.2-0.3-0.1-0.6-0.4-0.6c-0.3-0.1-0.7,0.1-0.9,0.4c-0.3,0.7-0.7,1.4-1,2.1
			c-0.2,0.3,0.1,0.6,0.4,0.6C65.9,107.6,66.3,107.4,66.5,107.1L66.5,107.1z"/>
	</g>
</g>
<g>
	<g>
		<path class="st2" d="M53.4,101.3c0.9-0.4,1.7-1.1,2-2.1c0.1-0.4-1.2-0.3-1.4,0.2c-0.2,0.6-0.6,1.1-1.2,1.4
			c-0.2,0.1-0.6,0.3-0.4,0.5C52.7,101.6,53.2,101.4,53.4,101.3L53.4,101.3z"/>
	</g>
</g>
<g>
	<g>
		<path class="st2" d="M47.2,97.6c0.6-0.5,1.3-1,1.9-1.5c0.2-0.2,0.2-0.3-0.1-0.4c-0.3-0.1-0.7,0.1-1,0.3c-0.6,0.5-1.3,1-1.9,1.5
			c-0.2,0.2-0.2,0.3,0.1,0.4C46.6,97.9,47,97.7,47.2,97.6L47.2,97.6z"/>
	</g>
</g>
<g>
	<g>
		<path class="st2" d="M38.5,94.1c0.8-0.2,1.5-0.5,2.2-0.9c0.1-0.1,0.4-0.3,0.2-0.5c-0.2-0.2-0.5-0.1-0.7-0.1
			c-0.2,0-0.4,0.1-0.6,0.1c-0.2,0-0.7,0.2-0.6,0.5c0.1,0.3,0.6,0.2,0.8,0.1c0.2,0,0.4-0.1,0.6-0.1c-0.2-0.2-0.3-0.3-0.5-0.5
			c-0.5,0.3-1,0.5-1.5,0.6c-0.2,0-0.7,0.2-0.6,0.5C37.8,94.2,38.3,94.1,38.5,94.1L38.5,94.1z"/>
	</g>
</g>
<g>
	<g>
		<path class="st2" d="M34.6,104.2c1.1-0.4,2.2-0.8,3.3-1.2c0.2-0.1,0.7-0.3,0.6-0.6c-0.1-0.3-0.6-0.3-0.8-0.2
			c-1.1,0.4-2.2,0.8-3.3,1.2c-0.2,0.1-0.7,0.3-0.6,0.6C33.8,104.3,34.3,104.3,34.6,104.2L34.6,104.2z"/>
	</g>
</g>
<g>
	<g>
		<path class="st2" d="M49.9,88.3c0.9-0.2,1.7-0.5,2.3-1.1c0.2-0.2,0.2-0.4-0.1-0.5c-0.3-0.1-0.7,0-1,0.3c-0.3,0.3-0.6,0.5-1,0.6
			c-0.2,0-0.7,0.2-0.8,0.5S49.7,88.3,49.9,88.3L49.9,88.3z"/>
	</g>
</g>
<g>
	<g>
		<path class="st2" d="M49.9,79.2c1.3-0.2,2.6-0.4,4-0.6c0.3,0,0.7-0.2,0.8-0.5c0-0.3-0.3-0.5-0.6-0.4c-1.3,0.2-2.6,0.4-4,0.6
			c-0.3,0-0.7,0.2-0.8,0.5C49.3,79.1,49.7,79.3,49.9,79.2L49.9,79.2z"/>
	</g>
</g>
<g>
	<g>
		<path class="st2" d="M53.3,74c1.4,0.3,2.7,0.5,4.1,0.6c0.3,0,0.8-0.1,0.9-0.4c0.1-0.3-0.1-0.5-0.4-0.5c-1.3,0-2.6-0.2-3.8-0.5
			C53.6,73.1,52.5,73.8,53.3,74L53.3,74z"/>
	</g>
</g>
<g>
	<g>
		<path class="st2" d="M19.9,103.5c1.4-0.3,2.7-0.7,4-1.3c0.9-0.4,0.1-1-0.6-0.7c-1.2,0.5-2.4,0.9-3.6,1.2
			C18.9,102.9,19.1,103.6,19.9,103.5L19.9,103.5z"/>
	</g>
</g>
<g>
	<g>
		<path class="st2" d="M61.2,68c1.1,0,2.1,0.3,3.1,0.8c0.2,0.1,0.6,0,0.9-0.1c0.1,0,0.6-0.2,0.4-0.4c-1.1-0.6-2.3-0.9-3.5-0.9
			c-0.3,0-0.7,0.1-1,0.3C61,67.9,60.9,68,61.2,68L61.2,68z"/>
	</g>
</g>
<g>
	<g>
		<path class="st2" d="M62.7,62.4c1.3,0.5,2.6,1.1,4,1.6c0.3,0.1,0.6,0,0.9-0.1c0,0,0.6-0.3,0.4-0.4c-1.3-0.5-2.6-1.1-4-1.6
			c-0.3-0.1-0.6,0-0.9,0.1C63,62,62.5,62.3,62.7,62.4L62.7,62.4z"/>
	</g>
</g>
<g>
	<g>
		<path class="st2" d="M74.3,58.6c0.7,0.5,1.4,1,2.1,1.4c0.3,0.2,0.6,0.1,0.9,0c0.1,0,0.6-0.3,0.4-0.5c-0.7-0.5-1.4-1-2.1-1.4
			c-0.3-0.2-0.6-0.1-0.9,0C74.6,58.2,74.1,58.5,74.3,58.6L74.3,58.6z"/>
	</g>
</g>
<g>
	<g>
		<path class="st2" d="M72.2,48c0.4,1,0.7,1.9,1.1,2.9c0.2,0.6,1.6,0.3,1.4-0.4c-0.4-1-0.7-1.9-1.1-2.9C73.3,47,71.9,47.3,72.2,48
			L72.2,48z"/>
	</g>
</g>
<g>
	<g>
		<path class="st2" d="M80.4,52.1c0,1.2,0.2,2.4,0.6,3.5c0.2,0.5,1.5,0.1,1.4-0.4c-0.4-1.1-0.6-2.3-0.6-3.5
			C81.8,51.3,80.4,51.6,80.4,52.1L80.4,52.1z"/>
	</g>
</g>
<g>
	<g>
		<path class="st2" d="M87.4,56c-0.1,0.9,0,1.7,0.2,2.6c0.1,0.5,1.5,0.2,1.4-0.4c-0.2-0.8-0.3-1.6-0.2-2.4
			C88.8,55.2,87.5,55.4,87.4,56L87.4,56z"/>
	</g>
</g>
<g>
	<g>
		<path class="st2" d="M93.4,58.5c-0.1,0.8-0.2,1.5-0.2,2.3c-0.1,0.5,1.3,0.3,1.4-0.2c0.1-0.8,0.2-1.5,0.2-2.3
			C94.9,57.8,93.5,58,93.4,58.5L93.4,58.5z"/>
	</g>
</g>
<g>
	<g>
		<path class="st2" d="M80.7,60.7c-0.3,1-0.1,2.1,0.5,2.9c0.3,0.4,1.6-0.1,1.3-0.6c-0.5-0.7-0.7-1.6-0.4-2.5
			C82.3,60,80.9,60.2,80.7,60.7L80.7,60.7z"/>
	</g>
</g>
<g>
	<g>
		<path class="st2" d="M71,67.4c1.1,0.6,2.2,0.8,3.5,0.8c0.8,0,1-1,0.1-1.1c-1,0-1.9-0.3-2.8-0.8C71.2,66.1,70.3,67,71,67.4L71,67.4
			z"/>
	</g>
</g>
<g>
	<g>
		<path class="st2" d="M64,74.3c0.9,0.2,1.8,0.4,2.7,0.6c0.3,0.1,0.7,0,0.9-0.2c0.1-0.1,0.5-0.3,0.2-0.3c-0.9-0.2-1.8-0.4-2.7-0.6
			c-0.3-0.1-0.7,0-0.9,0.2C64.1,74,63.7,74.2,64,74.3L64,74.3z"/>
	</g>
</g>
<g>
	<g>
		<path class="st2" d="M57.9,82.4c1,0.2,2,0.4,2.9,0.5c0.7,0.1,1.4-0.8,0.5-1c-1-0.2-2-0.4-2.9-0.5C57.7,81.3,57,82.3,57.9,82.4
			L57.9,82.4z"/>
	</g>
</g>
<g>
	<g>
		<path class="st2" d="M55.3,88.1c1.1,0.2,2.3,0.2,3.4,0.1c0.2,0,0.8-0.1,0.9-0.3c0.1-0.2-0.1-0.2-0.3-0.2c-1,0.1-1.9,0.1-2.9-0.1
			c-0.3-0.1-0.7,0-1,0.2C55.3,87.7,55,88,55.3,88.1L55.3,88.1z"/>
	</g>
</g>
<g>
	<g>
		<path class="st2" d="M56.6,93.8c1,0,1.9,0,2.9,0c0.8,0,1-1,0.1-1c-1,0-1.9,0-2.9,0C55.9,92.8,55.7,93.8,56.6,93.8L56.6,93.8z"/>
	</g>
</g>
<g>
	<g>
		<path class="st2" d="M60.4,99.2c0.8-0.1,1.4-0.4,2.1-0.8c0.2-0.1,0.3-0.4,0.2-0.6c-0.2-0.2-0.5-0.2-0.7-0.1
			c-0.2,0-0.4,0.1-0.6,0.1c-0.3,0.1-0.6,0.3-0.6,0.6c0.1,0.3,0.6,0.3,0.8,0.2c0.2,0,0.4-0.1,0.6-0.1c-0.2-0.2-0.4-0.5-0.6-0.7
			c-0.3,0.2-0.7,0.3-1.1,0.4c-0.3,0-0.7,0.2-0.8,0.5C59.7,99.1,60.1,99.3,60.4,99.2L60.4,99.2z"/>
	</g>
</g>
<g>
	<g>
		<path class="st2" d="M66.5,101.9c1.2-0.7,2.5-1.4,3.7-2.1c0.3-0.1,0.3-0.4,0.1-0.6c-0.3-0.2-0.7,0-1,0.1c-1.2,0.7-2.5,1.4-3.7,2.1
			c-0.3,0.1-0.3,0.4-0.1,0.6C65.8,102.2,66.2,102.1,66.5,101.9L66.5,101.9z"/>
	</g>
</g>
<g>
	<g>
		<path class="st2" d="M67.3,91.8c1.1,0.1,2.1,0,3.2-0.3c0.2,0,0.7-0.2,0.6-0.5c-0.1-0.2-0.6-0.1-0.8-0.1c-0.7,0.2-1.5,0.2-2.2,0.2
			c-0.3,0-0.7,0.1-1,0.3C67,91.5,67,91.7,67.3,91.8L67.3,91.8z"/>
	</g>
</g>
<g>
	<g>
		<path class="st2" d="M64.3,85.4c0.8,0,1.5,0,2.3,0c0.3,0,0.7-0.1,0.9-0.4c0.2-0.3-0.1-0.4-0.4-0.4c-0.8,0-1.5,0-2.3,0
			c-0.3,0-0.7,0.1-0.9,0.4C63.8,85.3,64.1,85.4,64.3,85.4L64.3,85.4z"/>
	</g>
</g>
<g>
	<g>
		<path class="st2" d="M65.8,78.7c1,0.3,2.1,0.6,3.1,0.9c0.5,0.1,1.6-0.6,0.8-0.8c-1-0.3-2.1-0.6-3.1-0.9
			C66.2,77.8,65,78.5,65.8,78.7L65.8,78.7z"/>
	</g>
</g>
<g>
	<g>
		<path class="st2" d="M73.2,74.4c0.7,0.3,1.4,0.5,2.1,0.6c0.3,0,0.8-0.1,0.9-0.4c0.2-0.3-0.1-0.5-0.4-0.5c-0.2,0-0.4-0.1-0.6-0.1
			c-0.3-0.1-0.8,0.1-0.9,0.4c-0.2,0.3,0.1,0.5,0.4,0.5c0.2,0,0.4,0.1,0.6,0.1c0.2-0.3,0.3-0.6,0.5-0.9c-0.6-0.1-1.2-0.3-1.8-0.5
			C73.5,73.3,72.4,74,73.2,74.4L73.2,74.4z"/>
	</g>
</g>
<g>
	<g>
		<path class="st2" d="M71.8,85.9c1-0.1,1.9-0.2,2.9-0.2c0.8-0.1,1-1.1,0.1-1.1c-1,0.1-1.9,0.2-2.9,0.2C71.1,85,70.9,86,71.8,85.9
			L71.8,85.9z"/>
	</g>
</g>
<g>
	<g>
		<path class="st2" d="M72.4,108.2c0.9-1,1.8-2,2.9-2.8c0.2-0.2,0.1-0.3-0.1-0.4c-0.3-0.1-0.7,0.1-1,0.3c-1.1,0.9-2.2,1.8-3.1,2.9
			c-0.2,0.2,0.2,0.3,0.3,0.3C71.8,108.5,72.2,108.4,72.4,108.2L72.4,108.2z"/>
	</g>
</g>
<g>
	<g>
		<path class="st2" d="M73.6,101.9c0.4-0.3,0.8-0.7,1.3-1c0.2-0.2,0.2-0.4-0.1-0.4c-0.3-0.1-0.7,0.1-1,0.3c-0.4,0.3-0.8,0.7-1.3,1
			c-0.2,0.2-0.2,0.4,0.1,0.4C73,102.2,73.4,102.1,73.6,101.9L73.6,101.9z"/>
	</g>
</g>
<g>
	<g>
		<path class="st2" d="M70.8,95.6c0.4,0,0.9,0,1.3-0.1c0.4-0.1,0.9-0.4,0.6-0.8c-0.1-0.1-0.3-0.1-0.4-0.1c-0.2,0-0.4,0-0.5,0.1
			c-0.2,0.1-0.5,0.3-0.4,0.6c-0.1-0.1,0-0.3,0.3-0.4c0.3-0.1,0.3-0.1,0.2-0.1c-0.1,0,0.1,0-0.1,0c-0.2,0-0.4,0-0.6,0
			c-0.3,0-0.7,0.1-0.9,0.4C70.2,95.5,70.5,95.6,70.8,95.6L70.8,95.6z"/>
	</g>
</g>
<g>
	<g>
		<path class="st2" d="M45.2,92.3c-0.1-0.1-0.1-0.1-0.2-0.2c-0.3,0.2-0.6,0.4-0.9,0.6c1.2,0,2.5,0,3.7,0c0.3,0,0.8-0.1,0.9-0.4
			c0.1-0.3-0.1-0.4-0.4-0.4c-1.2,0-2.5,0-3.7,0c-0.2,0-1.1,0.2-0.9,0.6c0.1,0.3,0.2,0.4,0.5,0.5c0.3,0.1,0.7,0.1,1-0.1
			C45.2,92.8,45.5,92.5,45.2,92.3L45.2,92.3z"/>
	</g>
</g>
<g>
	<g>
		<path class="st2" d="M44.5,82.2c1.4,0.2,2.8,0.3,4.2,0.1c0.4,0,1.5-0.6,0.6-0.5c-1.2,0.1-2.5,0-3.7-0.1c-0.3,0-0.7,0-0.9,0.2
			C44.5,81.9,44.1,82.1,44.5,82.2L44.5,82.2z"/>
	</g>
</g>
<g>
	<g>
		<path class="st2" d="M33.4,77c0.9,0.1,1.8,0.3,2.7,0.4c0.3,0,0.7-0.1,1-0.3c0.2-0.2,0.2-0.3-0.1-0.3c-0.9-0.1-1.8-0.3-2.7-0.4
			c-0.3,0-0.7,0.1-1,0.3C33.1,76.8,33.1,77,33.4,77L33.4,77z"/>
	</g>
</g>
<g>
	<g>
		<path class="st2" d="M88.6,63.6c-0.2,1-0.4,2.1-0.6,3.1c-0.1,0.6,1.3,0.4,1.4-0.1c0.2-1,0.4-2.1,0.6-3.1
			C90.1,62.9,88.8,63.1,88.6,63.6L88.6,63.6z"/>
	</g>
</g>
<g>
	<g>
		<path class="st2" d="M100,60.1c-0.5,0.9-1,1.8-1.5,2.7c-0.3,0.5,1.1,0.4,1.3,0c0.5-0.9,1-1.8,1.5-2.7
			C101.5,59.5,100.2,59.7,100,60.1L100,60.1z"/>
	</g>
</g>
</svg>
