<?xml version="1.0" encoding="utf-8"?>
<!-- Generator: Adobe Illustrator 23.0.1, SVG Export Plug-In . SVG Version: 6.00 Build 0)  -->
<svg version="1.1" id="Ebene_1" xmlns="http://www.w3.org/2000/svg" xmlns:xlink="http://www.w3.org/1999/xlink" x="0px" y="0px"
	 viewBox="0 0 300 300" style="enable-background:new 0 0 300 300;" xml:space="preserve">
<style type="text/css">
	.st0{fill:#F9E8A2;}
	.st1{fill:#4F2714;}
	.st2{fill:#D8847D;}
	.st3{fill:#A49050;}
</style>
<g>
	<path class="st0" d="M85.85,96.37c0,0-1.57,13.12,1.05,15.21s14.69-3.67,17.84,4.72c3.15,8.39,3.15,8.39,3.15,8.39
		s13.12-1.05,13.12,7.87c0,8.92,0,8.92,0,8.92s7.34,3.15,2.1,14.16c-5.25,11.02-5.25,11.02-5.25,11.02s8.39,12.07,6.3,19.41
		c-2.1,7.34-2.1,7.34-2.1,7.34s7.87,13.64,1.05,19.41c-6.82,5.77-6.82,5.77-6.82,5.77s-4.2,11.02-11.02,14.69
		c-6.82,3.67-6.82,3.67-6.82,3.67l-8.39,1.57c0,0,9.44,14.69,14.16,16.26s11.02,6.82,19.41,9.44c8.39,2.62,32.53-2.1,47.74-6.3
		c15.21-4.2,28.33-9.44,28.33-12.59c0-3.15,2.1-8.92,5.77-9.44c3.67-0.52,3.67-0.52,3.67-0.52s-4.72-2.1-12.59-13.64
		c-7.87-11.54-7.87-11.54-7.87-11.54s-5.25,6.3-6.82-7.87c-1.57-14.16-1.57-14.16-1.57-14.16s-7.34-11.54-1.57-18.36
		c5.77-6.82,5.77-6.82,5.77-6.82s-7.87-12.59-0.52-19.94s7.34-7.34,7.34-7.34s-7.87-15.21,4.2-16.79
		c12.07-1.57,12.07-1.57,12.07-1.57s-3.67-5.25,5.77-10.49c9.44-5.25,16.26-5.25,16.26-5.25l-0.52-6.3c0,0-11.54-6.3-22.03-7.87
		C196.54,85.88,85.85,96.37,85.85,96.37z"/>
	<path class="st1" d="M137.79,168.24c-1.05,0.7-4.9,10.14-2.45,15.74c2.45,5.6,3.5,4.9,4.55,1.05c1.05-3.85,1.75-11.89,1.05-13.99
		C140.24,168.94,137.79,168.24,137.79,168.24z"/>
	<path class="st1" d="M155.97,166.49c0,0-4.2,5.95-0.7,12.59c3.5,6.65,7.34,6.65,8.04,1.05S155.97,166.49,155.97,166.49z"/>
	<path class="st2" d="M79.03,98.47c0,0,24.13-17.84,42.49-19.94s25.18,2.62,31.48,1.57c6.3-1.05,54.04-1.05,64.53,5.77
		c10.49,6.82,14.69,11.54,14.69,11.54s-7.34-8.39-13.12-0.52c-5.77,7.87-5.77,7.87-5.77,7.87s-7.87-16.26-26.76-11.54
		s-18.89,4.72-18.89,4.72s-13.64-6.82-24.66-1.05c-11.02,5.77-11.02,5.77-11.02,5.77s-14.16-14.16-28.33-7.34
		c-14.16,6.82-14.16,6.82-14.16,6.82L79.03,98.47z"/>
	<path class="st3" d="M149.85,89.02c0,0,0-13.12-4.72-27.8s-11.02-23.61-9.97-28.85c1.05-5.25,7.16-8.21,10.31-1.39
		c3.15,6.82,0.71,11.36,3.33,19.76c2.62,8.39,7.34,24.13,7.87,34.1C157.2,94.79,149.85,89.02,149.85,89.02z"/>
</g>
</svg>
