<?xml version="1.0" encoding="utf-8"?>
<!-- Generator: Adobe Illustrator 23.0.1, SVG Export Plug-In . SVG Version: 6.00 Build 0)  -->
<svg version="1.1" id="Ebene_1" xmlns="http://www.w3.org/2000/svg" xmlns:xlink="http://www.w3.org/1999/xlink" x="0px" y="0px"
	 viewBox="0 0 150 150" style="enable-background:new 0 0 150 150;" xml:space="preserve">
<style type="text/css">
	.st0{fill:#F9E8A2;}
	.st1{fill:#4F2714;}
	.st2{fill:#D8847D;}
	.st3{fill:#A49050;}
</style>
<g>
	<path class="st0" d="M42.4,49c0,0-0.8,6.6,0.5,7.7c1.3,1.1,7.4-1.9,9,2.4c1.6,4.2,1.6,4.2,1.6,4.2s6.6-0.5,6.6,4s0,4.5,0,4.5
		s3.7,1.6,1.1,7.1c-2.6,5.6-2.6,5.6-2.6,5.6s4.2,6.1,3.2,9.8c-1.1,3.7-1.1,3.7-1.1,3.7s4,6.9,0.5,9.8s-3.4,2.9-3.4,2.9
		s-2.1,5.6-5.6,7.4c-3.4,1.9-3.4,1.9-3.4,1.9l-4.2,0.8c0,0,4.8,7.4,7.1,8.2c2.4,0.8,5.6,3.4,9.8,4.8c4.2,1.3,16.4-1.1,24.1-3.2
		c7.7-2.1,14.3-4.8,14.3-6.3c0-1.6,1.1-4.5,2.9-4.8c1.9-0.3,1.9-0.3,1.9-0.3s-2.4-1.1-6.3-6.9c-4-5.8-4-5.8-4-5.8s-2.6,3.2-3.4-4
		c-0.8-7.1-0.8-7.1-0.8-7.1s-3.7-5.8-0.8-9.3s2.9-3.4,2.9-3.4s-4-6.3-0.3-10.1c3.7-3.7,3.7-3.7,3.7-3.7s-4-7.7,2.1-8.5
		c6.1-0.8,6.1-0.8,6.1-0.8s-1.9-2.6,2.9-5.3c4.8-2.6,8.2-2.6,8.2-2.6l-0.3-3.2c0,0-5.8-3.2-11.1-4C98.3,43.7,42.4,49,42.4,49z"/>
	<path class="st1" d="M68.6,85.2c-0.5,0.4-2.5,5.1-1.2,7.9c1.2,2.8,1.8,2.5,2.3,0.5c0.5-1.9,0.9-6,0.5-7.1
		C69.9,85.6,68.6,85.2,68.6,85.2z"/>
	<path class="st1" d="M77.8,84.3c0,0-2.1,3-0.4,6.3c1.8,3.4,3.7,3.4,4.1,0.5S77.8,84.3,77.8,84.3z"/>
	<path class="st2" d="M39,50c0,0,12.2-9,21.4-10.1s12.7,1.3,15.9,0.8c3.2-0.5,27.3-0.5,32.5,2.9c5.3,3.4,7.4,5.8,7.4,5.8
		s-3.7-4.2-6.6-0.3c-2.9,4-2.9,4-2.9,4s-4-8.2-13.5-5.8c-9.5,2.4-9.5,2.4-9.5,2.4s-6.9-3.4-12.4-0.5c-5.6,2.9-5.6,2.9-5.6,2.9
		s-7.1-7.1-14.3-3.7c-7.1,3.4-7.1,3.4-7.1,3.4L39,50z"/>
	<path class="st3" d="M74.7,45.3c0,0,0-6.6-2.4-14c-2.4-7.4-5.6-11.9-5-14.5c0.5-2.6,3.6-4.1,5.2-0.7s0.4,5.7,1.7,10
		c1.3,4.2,3.7,12.2,4,17.2C78.4,48.2,74.7,45.3,74.7,45.3z"/>
</g>
</svg>
