<?xml version="1.0" encoding="utf-8"?>
<!-- Generator: Adobe Illustrator 23.0.1, SVG Export Plug-In . SVG Version: 6.00 Build 0)  -->
<svg version="1.1" id="Ebene_1" xmlns="http://www.w3.org/2000/svg" xmlns:xlink="http://www.w3.org/1999/xlink" x="0px" y="0px"
	 viewBox="0 0 300 300" style="enable-background:new 0 0 300 300;" xml:space="preserve">
<style type="text/css">
	.st0{fill:#BBBAB9;}
	.st1{fill:#5E4E51;}
	.st2{fill:#868782;}
	.st3{fill:#554434;}
	.st4{fill:#CACCC8;}
	.st5{fill:#FBF0D2;}
	.st6{fill:#FFE6A8;}
	.st7{fill:#F9D19B;}
	.st8{fill:#35291C;}
	.st9{fill:#6C6252;}
	.st10{fill:#C7C7C3;}
	.st11{fill:#ABA49B;}
	.st12{fill:#2F2A26;}
	.st13{fill:#615140;}
	.st14{fill:#FBFCF7;}
	.st15{fill:#FCD999;}
	.st16{fill:#FAC478;}
	.st17{fill:#EAC98E;}
	.st18{fill:#D9B583;}
	.st19{fill:#AFB0AA;}
	.st20{fill:#B1B1B1;}
	.st21{fill:#7F7F79;}
	.st22{fill:#6F6F6E;}
</style>
<g>
	<g>
		<polygon class="st0" points="107.77,64.65 170.4,31.85 170.53,122.61 139.93,119.37 108.03,124.04 		"/>
		<polygon class="st0" points="206.83,55.97 226.59,49.72 225.88,134.44 207.48,134.41 		"/>
		<polygon class="st1" points="231.9,197.84 239.05,194.19 239.29,170.87 231.87,173.3 231.81,173.72 		"/>
		<polygon class="st2" points="212.83,209.79 231.99,198.86 231.87,173.3 239.29,170.87 238.94,194.33 239.42,194.68 246.14,190.72 
			246.32,163.93 236.26,166.69 235.73,135.27 213.21,136.25 		"/>
		<polygon class="st1" points="86.49,231.47 138.99,268.05 139.08,269.47 140.95,270.9 143.89,268.85 144.06,267.17 167.26,252.03 
			166.79,204.81 141.16,214.77 80.41,190.57 80.88,177.75 70.11,174.79 70.65,200.06 84.62,207.62 84.89,230.94 85.45,231.33 		"/>
		<polygon class="st3" points="194.61,236.1 206,227.74 206.37,189.62 192.92,194.72 192.89,237.35 		"/>
		<polygon class="st4" points="45.01,137.66 44.36,81.38 70.56,63.23 71.2,136.88 		"/>
		<polygon class="st2" points="108.42,73.86 70.56,63.23 71.2,136.88 108.94,133.38 		"/>
		<polygon class="st5" points="231.97,197.99 238.11,194.68 238.18,172.44 231.91,174.32 		"/>
		<polygon class="st6" points="143.8,220.26 143.89,213.68 154.21,209.76 154.21,215.99 		"/>
		<polygon class="st6" points="155.99,214.65 155.99,209.05 165.16,205.58 164.89,211.09 		"/>
		<polygon class="st6" points="143.98,222.31 154.21,218.21 154.48,257.82 144.07,265.11 		"/>
		<polygon class="st6" points="156.17,256.48 156.08,216.79 164.71,213.14 165.42,250.34 		"/>
		<polygon class="st5" points="192.89,200.77 198,198.55 197.91,193.3 192.89,195.08 		"/>
		<polygon class="st5" points="199.51,192.85 199.51,198.28 205.2,196.06 205.2,190.72 		"/>
		<polygon class="st5" points="192.83,202.31 198.08,200.15 198.08,231.3 192.83,234.86 		"/>
		<polygon class="st5" points="199.42,199.7 205.29,197.57 205.2,227.11 199.51,231.03 		"/>
		<polygon class="st6" points="87.91,193.56 88.09,198.01 96.1,201.57 96.1,196.86 		"/>
		<polygon class="st6" points="88,199.44 87.82,229.96 96.28,235.21 96.19,203.17 		"/>
		<polygon class="st6" points="97.43,197.3 97.52,202.37 122.53,213.59 122.35,207.27 		"/>
		<polygon class="st6" points="97.52,204.42 97.61,236.72 122.44,253.99 122.53,215.28 		"/>
		<polygon class="st6" points="124.22,208.16 124.4,214.39 138.82,219.99 138.9,214.03 		"/>
		<polygon class="st6" points="124.31,216.17 124.04,254.61 139.17,264.85 138.82,222.13 		"/>
		<polygon class="st7" points="71.36,175.93 71.45,178.58 80.53,181.79 80.66,178.03 		"/>
		<polygon class="st7" points="71.45,179.89 71.48,199.5 84.38,206.05 84.56,191.64 80.41,190.57 80.59,182.91 		"/>
		<polygon class="st1" points="72.61,70.67 97.26,77.52 96.99,122.99 73.05,121.21 		"/>
		<polygon class="st1" points="108.29,123.26 101.44,123.08 101.44,77.61 107.94,79.57 		"/>
		<polygon class="st1" points="53.57,82.93 53.56,81.26 45.73,86.06 45.91,132.16 54.47,131.25 		"/>
		<polygon class="st8" points="212.83,209.79 213.21,136.25 209.56,136.34 209.5,209.55 		"/>
		<polygon class="st9" points="223.73,117.17 209.45,118.42 208.08,66.24 224.41,60.87 		"/>
		<polygon class="st9" points="166.08,121.98 165.48,63.37 151.72,69.18 152.31,120.44 		"/>
		<polygon class="st10" points="80.54,127.41 140.45,119.37 141.16,214.77 80.41,190.57 		"/>
		<polygon class="st11" points="68.61,138.17 69.26,174.61 80.64,177.69 80.54,137.66 		"/>
		<polygon class="st12" points="80.52,136 45.01,137.66 68.61,138.17 80.54,137.66 		"/>
		<polygon class="st8" points="167.26,252.03 170.66,254.22 170.79,203.01 166.79,204.81 		"/>
		<path class="st2" d="M193.06,238.01c0-0.39-0.14-43.29-0.14-43.29l14.3-5.2l-0.39,38.77l0.52,0.13l2.46-1.17l-0.25-90.91
			l-0.4-1.93h-1.69l-0.65-78.45L170.4,31.85l0.13,90.76l-30.08-3.24l0.71,95.4l29.6-11.26l-0.1,50.71L193.06,238.01z"/>
		<polygon class="st13" points="209.17,134.41 225.88,134.44 246.17,135.39 213.21,136.25 209.56,136.34 		"/>
		<polygon class="st2" points="247,66.93 226.59,49.72 225.88,134.44 246.17,135.39 		"/>
		<polygon class="st14" points="153.62,120.68 152.91,70.01 165.6,65.39 166.08,121.98 		"/>
		<path class="st1" d="M82.84,151.03c0,0.36,0.71,15.84,0.71,15.84l51.97,9.88V154.5L82.84,151.03z"/>
		<polygon class="st15" points="85.39,152.6 85.63,165.29 92.39,166.72 92.04,153.43 		"/>
		<polygon class="st15" points="93.7,153.78 93.82,167.07 121.82,172.89 121.7,155.33 		"/>
		<polygon class="st15" points="123.84,155.68 123.95,173.13 135.23,174.9 135.34,156.16 		"/>
		<polygon class="st16" points="210.79,117.69 209.73,67.5 224.68,62.51 223.76,116.81 		"/>
		<polygon class="st8" points="206,227.74 206.83,228.29 207.22,189.52 206.27,189.89 		"/>
		<polygon class="st3" points="192.89,135.04 205.95,135.39 205.95,180.96 192.77,184.99 		"/>
		<polygon class="st5" points="193.84,164.69 203.97,163.06 204.17,136.39 193.68,136.4 		"/>
		<polygon class="st5" points="204.17,165.93 193.68,167.72 193.76,182.31 204.12,179.62 		"/>
		<polygon class="st17" points="74.06,120.66 73.73,93.74 84.33,95.65 84.5,121.56 		"/>
		<polygon class="st17" points="85.96,121.64 95.39,122.25 95.22,98.05 85.7,96.34 		"/>
		<polygon class="st17" points="73.38,91.99 95,96.25 95.28,78.39 73.24,71.98 		"/>
		<polygon class="st18" points="107.94,79.95 102.17,78.49 102.36,122.46 108.31,122.93 		"/>
		<polygon class="st7" points="46.92,86.61 53.61,82.57 53.65,84.54 54.51,130.96 46.42,131.56 		"/>
	</g>
	<g>
		<g>
			<path class="st19" d="M109.59,78.47c16.64-7.62,33.59-14.61,50.42-21.81c2.96-1.26,5.9-2.56,8.89-3.76
				c0.69-0.28,0.39-1.42-0.31-1.14c-17.1,6.87-33.93,14.5-50.83,21.85c-2.92,1.27-5.86,2.52-8.76,3.84
				C108.31,77.77,108.91,78.79,109.59,78.47L109.59,78.47z"/>
		</g>
	</g>
	<g>
		<g>
			<path class="st19" d="M109.76,92.44c13.61-4.44,27.28-8.7,41-12.78c0.73-0.22,0.42-1.35-0.31-1.14
				c-13.72,4.08-27.39,8.35-41,12.78C108.73,91.53,109.03,92.67,109.76,92.44L109.76,92.44z"/>
		</g>
	</g>
	<g>
		<g>
			<path class="st19" d="M109.69,106.94c13.88-2.19,27.05-7.45,40.93-9.69c0.75-0.12,0.43-1.26-0.31-1.14
				c-13.87,2.24-27.04,7.5-40.93,9.69C108.63,105.92,108.94,107.06,109.69,106.94L109.69,106.94z"/>
		</g>
	</g>
	<g>
		<g>
			<path class="st19" d="M109.67,121.64c13.67-2.35,27.37-4.45,41.12-6.29c0.74-0.1,0.75-1.28,0-1.18
				c-13.85,1.86-27.66,3.97-41.43,6.33C108.61,120.63,108.92,121.76,109.67,121.64L109.67,121.64z"/>
		</g>
	</g>
	<g>
		<g>
			<path class="st19" d="M118.74,61.41c-0.33,18.39-0.66,36.78-1,55.18c-0.01,0.76,1.16,0.76,1.18,0c0.33-18.39,0.66-36.78,1-55.18
				C119.93,60.65,118.75,60.65,118.74,61.41L118.74,61.41z"/>
		</g>
	</g>
	<g>
		<g>
			<path class="st19" d="M128.16,56.25c-0.09,10.06-0.43,20.15-0.23,30.21c0.09,4.74,0.93,9.38,0.71,14.13
				c-0.24,5.03-0.62,10.06-0.93,15.08c-0.05,0.76,1.13,0.75,1.18,0c0.31-5.03,0.69-10.05,0.93-15.08c0.23-4.75-0.61-9.39-0.71-14.13
				c-0.2-10.06,0.14-20.15,0.23-30.21C129.35,55.49,128.17,55.49,128.16,56.25L128.16,56.25z"/>
		</g>
	</g>
	<g>
		<g>
			<path class="st19" d="M138.87,50.91c-0.29,21.89-0.58,43.78-0.88,65.67c-0.01,0.76,1.17,0.76,1.18,0
				c0.29-21.89,0.58-43.78,0.88-65.67C140.06,50.15,138.88,50.15,138.87,50.91L138.87,50.91z"/>
		</g>
	</g>
	<g>
		<g>
			<path class="st19" d="M150.87,43.97c-0.05,7.42,0.16,14.84,0.65,22.24c0.05,0.75,1.23,0.76,1.18,0
				c-0.49-7.41-0.7-14.82-0.65-22.24C152.05,43.21,150.88,43.21,150.87,43.97L150.87,43.97z"/>
		</g>
	</g>
	<g>
		<g>
			<path class="st19" d="M165.4,36.68c-0.44,8.24-0.46,16.49-0.08,24.73c0.04,0.76,1.21,0.76,1.18,0
				c-0.39-8.24-0.36-16.49,0.08-24.73C166.62,35.92,165.44,35.92,165.4,36.68L165.4,36.68z"/>
		</g>
	</g>
	<g>
		<g>
			<path class="st19" d="M111.62,65.36c-0.12,0.76,0.84,1.26,1.33,0.6c0.54-0.74-0.62-1.52-1.2-0.87c-0.5,0.56,0.33,1.4,0.83,0.83
				c-0.23-0.11-0.46-0.22-0.68-0.32c0.06-0.14,0.12-0.28,0.17-0.42c0.21,0.03,0.41,0.06,0.62,0.1c0.02,0.15,0.04,0.3,0.06,0.45
				c0-0.02,0.01-0.04,0.01-0.06C112.87,64.94,111.74,64.62,111.62,65.36L111.62,65.36z"/>
		</g>
	</g>
	<g>
		<g>
			<path class="st19" d="M112.86,73.72c1.06-0.09,1.51-1.57,0.53-2.13c-0.17-0.1-0.43-0.12-0.59,0c-0.33,0.25-0.56,0.58-0.51,1.01
				c0.04,0.32,0.24,0.59,0.59,0.59c0.29,0,0.63-0.27,0.59-0.59c-0.02-0.06-0.05-0.06-0.08,0c-0.2,0-0.4,0-0.59,0
				c-0.09-0.05,0.03-0.08-0.04-0.04c-0.13,0.09,0.26-0.04,0.11-0.03C112.11,72.61,112.1,73.78,112.86,73.72L112.86,73.72z"/>
		</g>
	</g>
	<g>
		<g>
			<path class="st19" d="M115.75,71.14c0.22,0.46,0.53,0.93,1.05,1.06c0.48,0.13,1.04-0.06,1.26-0.52c0.23-0.47,0.04-1.02-0.33-1.35
				c-0.46-0.4-1.08-0.34-1.64-0.25c-0.75,0.11-0.43,1.25,0.31,1.14c0.12-0.02,0.72,0.07,0.71-0.15c0,0-0.14-0.13-0.15-0.14
				c-0.08-0.11-0.14-0.26-0.2-0.38C116.44,69.86,115.43,70.46,115.75,71.14L115.75,71.14z"/>
		</g>
	</g>
	<g>
		<g>
			<path class="st19" d="M116.14,63.65c0.31,0.52,1.08,0.66,1.48,0.15c0.41-0.52,0.07-1.21-0.51-1.4c-0.72-0.23-1.03,0.91-0.31,1.14
				c0.12-0.16,0.24-0.32,0.36-0.48C116.77,62.4,115.75,62.99,116.14,63.65L116.14,63.65z"/>
		</g>
	</g>
	<g>
		<g>
			<path class="st19" d="M121.19,61.27c0.54,0.5,1.37,0.28,1.59-0.42c0.06-0.18,0-0.45-0.15-0.57c-0.64-0.52-1.45-0.29-1.76,0.46
				c-0.29,0.7,0.85,1,1.14,0.31c-0.03,0.1-0.1,0.12-0.21,0.06c-0.05-0.19-0.1-0.38-0.15-0.57c0.09-0.17,0.22-0.2,0.38-0.1
				C121.47,59.92,120.64,60.75,121.19,61.27L121.19,61.27z"/>
		</g>
	</g>
	<g>
		<g>
			<path class="st19" d="M126.53,59.39c0.41-0.89-0.83-1.7-1.36-0.82c-0.6,1.01,1.21,1.66,1.38,0.5c0.11-0.74-1.03-1.06-1.14-0.31
				c0.02-0.02,0.03-0.04,0.05-0.06c0.14-0.06,0.28-0.12,0.42-0.17c-0.13,0.22-0.26,0.43-0.39,0.65c0.02-0.15,0.04-0.3,0.06-0.45
				c-0.01,0.03-0.02,0.05-0.03,0.08C125.2,59.48,126.21,60.08,126.53,59.39L126.53,59.39z"/>
		</g>
	</g>
	<g>
		<g>
			<path class="st19" d="M121.24,69.41c0.44,0.3,1.03,0.41,1.49,0.09c0.4-0.28,0.57-0.84,0.36-1.29c-0.5-1.06-2.14-0.18-1.55,0.83
				c0.38,0.66,1.4,0.06,1.02-0.59c0.26,0.44-0.7-0.03-0.72-0.05C121.2,67.97,120.61,68.99,121.24,69.41L121.24,69.41z"/>
		</g>
	</g>
	<g>
		<g>
			<path class="st19" d="M125.98,67.64c0.5-0.32,0.68-0.8,0.6-1.37c-0.03-0.2-0.23-0.35-0.41-0.41c-0.59-0.2-1.09,0.37-1.02,0.94
				c0.1,0.76,0.93,0.83,1.52,0.66c0.73-0.22,0.42-1.35-0.31-1.14c-0.31,0.05-0.47,0.28-0.51,0.68c-0.14-0.14-0.27-0.27-0.41-0.41
				c-0.02,0.01-0.04,0.03-0.06,0.04C124.75,67.02,125.34,68.04,125.98,67.64L125.98,67.64z"/>
		</g>
	</g>
	<g>
		<g>
			<path class="st19" d="M130.43,64.44c-0.03,0.37,0.1,0.64,0.32,0.92c0.17,0.21,0.5,0.2,0.71,0.09c0.53-0.25,0.79-0.96,0.48-1.48
				c-0.31-0.52-1.03-0.66-1.53-0.32c-0.62,0.42-0.03,1.45,0.59,1.02c0,0-0.1-0.25-0.14-0.23c0.24,0.03,0.48,0.06,0.71,0.09
				c0.01-0.03,0.02-0.05,0.02-0.08C131.68,63.68,130.51,63.69,130.43,64.44L130.43,64.44z"/>
		</g>
	</g>
	<g>
		<g>
			<path class="st19" d="M130.96,56.63c0.01,0.02,0.02,0.05,0.04,0.07c-0.02-0.15-0.04-0.3-0.06-0.45c0.02-0.04,0.05-0.08,0.07-0.12
				c0.14-0.06,0.28-0.12,0.42-0.17c-0.03,0-0.05,0.01-0.08,0.01c0.14,0.06,0.28,0.12,0.42,0.17c0.03,0.12,0.07,0.24,0.1,0.36
				c-0.09,0.12-0.18,0.23-0.27,0.35c0.02-0.01,0.05-0.03,0.07-0.04c0.65-0.39,0.06-1.4-0.59-1.02c-0.51,0.3-0.53,1.16,0.12,1.33
				c0.67,0.18,1.05-0.55,0.79-1.09C131.65,55.36,130.63,55.95,130.96,56.63L130.96,56.63z"/>
		</g>
	</g>
	<g>
		<g>
			<path class="st19" d="M135.5,54.22c0.65,0.75,2.01-0.11,1.53-1.02c-0.43-0.81-1.85-0.38-1.73,0.53c0.04,0.32,0.24,0.59,0.59,0.59
				c0.29,0,0.63-0.27,0.59-0.59c-0.15,0.29-0.24,0.26-0.28-0.1c-0.21-0.29-0.16-0.38,0.14-0.25C135.84,52.81,135,53.65,135.5,54.22
				L135.5,54.22z"/>
		</g>
	</g>
	<g>
		<g>
			<path class="st19" d="M136.67,60.88c-1.21-0.31-1.86,1.25-0.81,1.9c0.23,0.14,0.52,0.08,0.71-0.09c0.34-0.31,0.57-0.68,0.69-1.12
				c0.21-0.73-0.93-1.04-1.14-0.31c-0.07,0.26-0.19,0.43-0.39,0.6c0.24-0.03,0.48-0.06,0.71-0.09c-0.03,0.08-0.07,0.17-0.1,0.25
				C137.09,62.2,137.41,61.07,136.67,60.88L136.67,60.88z"/>
		</g>
	</g>
	<g>
		<g>
			<path class="st19" d="M142.17,58.51c-0.56,0.63-0.45,2.01,0.67,1.76c0.99-0.23,0.78-1.51-0.1-1.71
				c-0.74-0.17-1.05,0.96-0.31,1.14c-0.02-0.01-0.03-0.01-0.05-0.02c0.02-0.15,0.04-0.3,0.06-0.45c0.07-0.04,0.13-0.08,0.2-0.11
				c0.12,0.09,0.23,0.18,0.35,0.27c0.01-0.01,0.02-0.02,0.03-0.03C143.51,58.78,142.68,57.94,142.17,58.51L142.17,58.51z"/>
		</g>
	</g>
	<g>
		<g>
			<path class="st19" d="M142.43,49.54c-0.86,0.31-0.82,1.75,0.2,1.76c0.41,0,0.74-0.32,0.82-0.71c0.1-0.49-0.16-0.87-0.6-1.05
				c-0.71-0.28-1.01,0.86-0.31,1.14c0.07,0,0.14,0,0.21,0C143.45,50.42,143.14,49.28,142.43,49.54L142.43,49.54z"/>
		</g>
	</g>
	<g>
		<g>
			<path class="st19" d="M147.89,46.88c-0.01,0.02-0.02,0.04-0.03,0.06c-0.14,0.25-0.08,0.5,0.09,0.71c0.62,0.78,1.63-0.23,1.18-1
				c-0.2-0.34-0.63-0.49-1-0.35c-0.45,0.17-0.61,0.62-0.52,1.06c0.14,0.74,1.27,0.43,1.14-0.31c0.01-0.08,0.02-0.16,0.04-0.24
				c0.03,0.24,0.06,0.48,0.09,0.71c0.01-0.02,0.02-0.04,0.03-0.06C149.28,46.81,148.26,46.22,147.89,46.88L147.89,46.88z"/>
		</g>
	</g>
	<g>
		<g>
			<path class="st19" d="M148.32,56.79c0.12,0.1,0.24,0.2,0.36,0.3c0.15,0.13,0.37,0.23,0.57,0.15c1.23-0.44,0.76-2.19-0.52-1.88
				c-0.74,0.18-0.42,1.32,0.31,1.14c-0.03-0.13-0.07-0.26-0.1-0.39c0.19,0.05,0.38,0.1,0.57,0.15c-0.12-0.1-0.24-0.2-0.36-0.3
				C148.58,55.47,147.75,56.3,148.32,56.79L148.32,56.79z"/>
		</g>
	</g>
	<g>
		<g>
			<path class="st19" d="M154.44,53.01c-0.51,0.81,0.35,1.84,1.24,1.42c0.98-0.47,0.63-1.7-0.25-2.01
				c-0.72-0.26-1.02,0.88-0.31,1.14c0.11,0.02,0.23,0.04,0.34,0.05C155.87,52.96,154.85,52.37,154.44,53.01L154.44,53.01z"/>
		</g>
	</g>
	<g>
		<g>
			<path class="st19" d="M161.76,49.73c-0.85,0.54-0.63,2,0.52,1.83c1.16-0.17,0.76-1.87-0.37-1.65c-0.74,0.15-0.43,1.28,0.31,1.14
				c0.04-0.1,0.09-0.2,0.13-0.3C162.99,50.34,162.4,49.32,161.76,49.73L161.76,49.73z"/>
		</g>
	</g>
	<g>
		<g>
			<path class="st19" d="M111.75,80.34c-0.03,0.29,0.08,0.51,0.27,0.72c0.26,0.29,0.74,0.19,0.93-0.12
				c0.25-0.42,0.36-0.96-0.06-1.31c-0.32-0.27-0.82-0.28-1.1,0.06c-0.48,0.58,0.35,1.42,0.83,0.83c-0.23-0.06-0.46-0.11-0.7-0.17
				c0.31-0.04,0.62-0.08,0.93-0.12c0.02,0.04,0.05,0.08,0.07,0.11C113.01,79.59,111.83,79.59,111.75,80.34L111.75,80.34z"/>
		</g>
	</g>
	<g>
		<g>
			<path class="st19" d="M112.63,87.2c-0.5,0.24-0.44,0.95,0,1.2c0.54,0.31,1.08-0.21,1.1-0.75c0.02-0.54-0.41-1.06-0.96-1.1
				c-0.55-0.04-1.04,0.45-0.99,1c0.07,0.75,1.25,0.76,1.18,0c-0.1-0.05-0.2-0.1-0.3-0.15c0.2,0,0.4,0,0.59,0
				c0.07,0.11,0.13,0.22,0.2,0.33c-0.1,0.17-0.19,0.34-0.29,0.51c0.02-0.01,0.04-0.02,0.06-0.03
				C113.91,87.9,113.32,86.88,112.63,87.2L112.63,87.2z"/>
		</g>
	</g>
	<g>
		<g>
			<path class="st19" d="M116.53,86.66c0.6,0.34,1.36-0.14,1.23-0.84c-0.15-0.86-1.1-0.83-1.71-0.53c-0.68,0.33-0.09,1.35,0.59,1.02
				c0.16-0.22,0.32-0.44,0.48-0.66C116.47,85.26,115.87,86.28,116.53,86.66L116.53,86.66z"/>
		</g>
	</g>
	<g>
		<g>
			<path class="st19" d="M117.95,78.47c-0.1-1.11-1.55-1.01-1.58,0.09c-0.02,0.76,1.16,0.76,1.18,0c-0.2,0.07-0.41,0.15-0.61,0.22
				c-0.06-0.14-0.12-0.28-0.17-0.42c0,0.04,0.01,0.07,0.01,0.11C116.83,79.22,118.01,79.22,117.95,78.47L117.95,78.47z"/>
		</g>
	</g>
	<g>
		<g>
			<path class="st19" d="M121.02,76.5c-0.08,0.44,0.02,1.01,0.54,1.13c0.46,0.1,0.91-0.29,0.88-0.75c-0.06-0.75-1.24-0.76-1.18,0
				c0,0.03,0,0.06,0.01,0.08c0.06-0.14,0.12-0.28,0.17-0.42c0.12-0.03,0.24-0.05,0.36-0.08c0.12,0.09,0.23,0.18,0.35,0.27
				c0,0.03,0,0.05,0.01,0.08C122.28,76.07,121.15,75.76,121.02,76.5L121.02,76.5z"/>
		</g>
	</g>
	<g>
		<g>
			<path class="st19" d="M120.9,85.11c0.51,0.74,1.84,0.44,1.72-0.56c-0.12-1-1.5-0.92-1.81-0.09c-0.26,0.71,0.88,1.02,1.14,0.31
				c-0.3,0.83-0.54-0.98-0.03-0.26C121.49,83.9,120.47,84.49,120.9,85.11L120.9,85.11z"/>
		</g>
	</g>
	<g>
		<g>
			<path class="st19" d="M125.7,81.94c-0.12,0.26-0.19,0.47-0.19,0.76c-0.01,0.4,0.38,0.65,0.75,0.57c0.34-0.08,0.59-0.33,0.65-0.68
				c0.08-0.49-0.26-0.68-0.64-0.87c-0.67-0.34-1.27,0.67-0.59,1.02c0.12,0.06,0.23,0.12,0.35,0.18c-0.1-0.17-0.19-0.34-0.29-0.51
				c0.07-0.09,0.14-0.18,0.21-0.27c0.25,0.19,0.5,0.38,0.75,0.57c0.01-0.05,0.02-0.11,0.03-0.16
				C127.04,81.86,126.03,81.26,125.7,81.94L125.7,81.94z"/>
		</g>
	</g>
	<g>
		<g>
			<path class="st19" d="M126.04,73.94c-0.7,0.35-0.62,1.24-0.06,1.66c0.19,0.14,0.56,0.09,0.71-0.09c0.22-0.27,0.34-0.52,0.33-0.87
				c-0.01-0.76-1.19-0.76-1.18,0c0,0.01,0.01,0.02,0.01,0.04c0.24-0.03,0.48-0.06,0.71-0.09c0.02,0.12,0.04,0.25,0.06,0.37
				C127.31,74.62,126.72,73.6,126.04,73.94L126.04,73.94z"/>
		</g>
	</g>
	<g>
		<g>
			<path class="st19" d="M130.92,72.09c-0.5,0.7,0.26,1.63,1.04,1.41c0.19-0.05,0.37-0.21,0.41-0.41c0.1-0.53-0.23-1.08-0.83-1.04
				c-0.75,0.06-0.76,1.24,0,1.18c-0.1-0.15-0.2-0.3-0.31-0.45c0.14-0.14,0.27-0.27,0.41-0.41c0.1,0.11,0.19,0.22,0.29,0.33
				C132.38,72.07,131.36,71.48,130.92,72.09L130.92,72.09z"/>
		</g>
	</g>
	<g>
		<g>
			<path class="st19" d="M130.96,81.17c0.03,0.47,0.23,0.82,0.64,1.06c0.17,0.1,0.43,0.12,0.59,0c0.55-0.41,0.93-1.2,0.39-1.8
				c-0.46-0.51-1.22-0.41-1.6,0.12c-0.45,0.61,0.57,1.2,1.02,0.59c-0.25,0.35-0.23-0.06-0.4,0.07c0.2,0,0.4,0,0.59,0
				c-0.02-0.02-0.04-0.03-0.05-0.05C132.08,80.41,130.9,80.41,130.96,81.17L130.96,81.17z"/>
		</g>
	</g>
	<g>
		<g>
			<path class="st19" d="M136.44,79.18c0.27,0.76,1.37,0.93,1.56,0.01c0.17-0.82-0.76-1.37-1.42-0.92
				c-0.62,0.43-0.03,1.45,0.59,1.02c-0.11-0.12-0.21-0.24-0.32-0.37c0.12-0.09,0.23-0.18,0.35-0.27c0.12,0.07,0.25,0.14,0.37,0.21
				C137.32,78.16,136.18,78.47,136.44,79.18L136.44,79.18z"/>
		</g>
	</g>
	<g>
		<g>
			<path class="st19" d="M135.96,70.29c0.16,0.39,0.38,0.56,0.79,0.6c0.27,0.03,0.49-0.21,0.57-0.43c0.22-0.64-0.37-1.08-0.95-0.99
				c-0.75,0.11-0.43,1.25,0.31,1.14c0.03,0,0.06-0.01,0.09-0.01c-0.15-0.02-0.3-0.04-0.45-0.06c-0.05-0.13-0.09-0.26-0.14-0.38
				c0.19-0.14,0.38-0.29,0.57-0.43c0.04,0,0.07,0,0.11,0.01c0.09,0.12,0.18,0.23,0.27,0.35c-0.01-0.03-0.03-0.06-0.04-0.1
				C136.82,69.28,135.68,69.59,135.96,70.29L135.96,70.29z"/>
		</g>
	</g>
	<g>
		<g>
			<path class="st19" d="M142.1,68.47c0.6,0.48,1.67,0.14,1.53-0.75c-0.13-0.84-1.28-0.95-1.68-0.26c-0.38,0.66,0.64,1.25,1.02,0.59
				c-0.01-0.14-0.02-0.28-0.04-0.42C142.34,67.17,141.5,67.99,142.1,68.47L142.1,68.47z"/>
		</g>
	</g>
	<g>
		<g>
			<path class="st19" d="M142.12,76.7c0.14,0.6,0.94,0.82,1.39,0.38c0.25-0.24,0.29-0.59,0.1-0.87c-0.23-0.34-0.56-0.39-0.94-0.34
				c-0.75,0.1-0.43,1.24,0.31,1.14c-0.08-0.01-0.17-0.02-0.25-0.02c-0.05-0.19-0.1-0.38-0.15-0.57c0.23-0.01,0.45-0.02,0.68-0.03
				C143.08,75.65,141.94,75.96,142.12,76.7L142.12,76.7z"/>
		</g>
	</g>
	<g>
		<g>
			<path class="st19" d="M147.69,74.52c0,0.25,0.05,0.45,0.18,0.65c0.15,0.24,0.4,0.32,0.67,0.27c1.03-0.19,1.02-1.62,0.01-1.84
				c-0.74-0.16-1.06,0.98-0.31,1.14c0-0.14-0.01-0.29-0.01-0.43c0.22,0.09,0.44,0.18,0.67,0.27c-0.01-0.02-0.01-0.04-0.02-0.06
				C148.87,73.76,147.69,73.76,147.69,74.52L147.69,74.52z"/>
		</g>
	</g>
	<g>
		<g>
			<path class="st19" d="M148.22,65.89c0.48,0.34,1.15-0.05,1.2-0.61c0.07-0.66-0.58-0.98-1.15-0.97c-0.76,0.02-0.76,1.2,0,1.18
				c0.31,0.03,0.49-0.18,0.54-0.62C148.19,64.44,147.6,65.46,148.22,65.89L148.22,65.89z"/>
		</g>
	</g>
	<g>
		<g>
			<path class="st19" d="M154.61,62.39c-0.15,0.62,0.32,1.57,1.08,1.22c0.6-0.28,0.64-1.02,0.25-1.48
				c-0.49-0.58-1.32,0.26-0.83,0.83c0-0.12-0.01-0.25-0.01-0.37c0.2,0,0.4,0,0.59,0c0.02,0.04,0.04,0.08,0.06,0.12
				C155.93,61.97,154.79,61.65,154.61,62.39L154.61,62.39z"/>
		</g>
	</g>
	<g>
		<g>
			<path class="st19" d="M161.98,59.32c-0.6,0.38-0.47,1.34,0.25,1.52c0.77,0.19,1.25-0.69,1-1.33c-0.27-0.7-1.41-0.4-1.14,0.31
				c0.07,0.23,0.23,0.41,0.48,0.52C163.22,59.93,162.63,58.91,161.98,59.32L161.98,59.32z"/>
		</g>
	</g>
	<g>
		<g>
			<path class="st19" d="M111.67,95.04c0.07,0.61,0.65,1.13,1.28,0.79c0.52-0.28,0.55-1.04,0.13-1.41c-0.57-0.5-1.4,0.33-0.83,0.83
				c0.2-0.07,0.4-0.14,0.6-0.22C112.76,94.3,111.58,94.29,111.67,95.04L111.67,95.04z"/>
		</g>
	</g>
	<g>
		<g>
			<path class="st19" d="M112.4,102.15c-0.06,0.39,0.04,0.73,0.4,0.95c0.32,0.19,0.76,0.17,1.02-0.11c0.57-0.62-0.14-1.64-0.91-1.35
				c-0.71,0.26-0.4,1.4,0.31,1.14c0.11-0.1,0.21-0.2,0.32-0.3C113.64,101.72,112.5,101.4,112.4,102.15L112.4,102.15z"/>
		</g>
	</g>
	<g>
		<g>
			<path class="st19" d="M117.19,101.57c0.04,0,0.08,0,0.12,0c0.76,0,0.76-1.18,0-1.18c-0.04,0-0.08,0-0.12,0
				C116.43,100.39,116.43,101.57,117.19,101.57L117.19,101.57z"/>
		</g>
	</g>
	<g>
		<g>
			<path class="st19" d="M116.8,92.86c-0.79,0.19-0.72,1.25-0.02,1.5c0.2,0.07,0.42-0.02,0.57-0.15c0.48-0.42,0.47-1.16,0.02-1.6
				c-0.54-0.53-1.38,0.3-0.83,0.83c0.01-0.03,0-0.05-0.02-0.07c0.19-0.05,0.38-0.1,0.57-0.15c0.01,0.26,0.01,0.51,0.02,0.77
				C117.85,93.82,117.53,92.68,116.8,92.86L116.8,92.86z"/>
		</g>
	</g>
	<g>
		<g>
			<path class="st19" d="M121.15,91.7c-0.29,0.72,0.59,1.45,1.23,1.01c0.61-0.42,0.37-1.32-0.29-1.52
				c-0.73-0.22-1.04,0.92-0.31,1.14c0.17-0.1,0.34-0.21,0.51-0.31C122.57,91.31,121.43,91.01,121.15,91.7L121.15,91.7z"/>
		</g>
	</g>
	<g>
		<g>
			<path class="st19" d="M121,99.68c-0.02,0.39,0.12,0.8,0.5,0.96c0.39,0.16,0.8-0.04,0.97-0.41c0.15-0.33,0.09-0.75-0.18-0.99
				c-0.34-0.31-0.82-0.28-1.23-0.16c-0.73,0.21-0.42,1.35,0.31,1.14c0.24-0.07,0.79-0.27,0.8-0.53
				C122.22,98.92,121.04,98.92,121,99.68L121,99.68z"/>
		</g>
	</g>
	<g>
		<g>
			<path class="st19" d="M126.14,98.9c0.33,0.41,1.02,0.28,1.26-0.16c0.33-0.58-0.16-1.11-0.69-1.29c-0.72-0.24-1.03,0.9-0.31,1.14
				c0.19-0.17,0.38-0.35,0.58-0.52C126.5,97.48,125.68,98.32,126.14,98.9L126.14,98.9z"/>
		</g>
	</g>
	<g>
		<g>
			<path class="st19" d="M126.19,91.23c0.59,0.43,1.47-0.13,1.31-0.85c-0.14-0.65-1.03-0.84-1.46-0.36c-0.5,0.56,0.33,1.4,0.83,0.83
				c-0.03-0.21-0.06-0.43-0.09-0.64C126.17,89.76,125.58,90.78,126.19,91.23L126.19,91.23z"/>
		</g>
	</g>
	<g>
		<g>
			<path class="st19" d="M130.05,89.32c0.45,0.52,1.56,0.77,1.86-0.05c0.25-0.7-0.66-1.24-1.15-0.68c-0.18,0.21-0.21,0.46-0.09,0.71
				c0.01,0.01,0.01,0.03,0.02,0.04c0.33,0.68,1.35,0.08,1.02-0.59c-0.01-0.01-0.01-0.03-0.02-0.04c-0.03,0.24-0.06,0.48-0.09,0.71
				c-0.14,0.03-0.28,0.07-0.42,0.1c-0.12-0.09-0.23-0.18-0.35-0.27c0.01,0.02,0.02,0.03,0.03,0.05c-0.02-0.15-0.04-0.3-0.06-0.45
				c-0.01,0.04-0.02,0.07-0.03,0.11c0.09-0.12,0.18-0.23,0.27-0.35c-0.08,0.01-0.13-0.03-0.16-0.12
				C130.38,87.91,129.55,88.75,130.05,89.32L130.05,89.32z"/>
		</g>
	</g>
	<g>
		<g>
			<path class="st19" d="M130.97,97.07c-0.08,1.03,1.3,1.22,1.55,0.24c0.26-1.01-0.82-1.42-1.62-1.22
				c-0.74,0.18-0.42,1.32,0.31,1.14c0.08-0.03,0.16-0.04,0.25-0.03c-0.13-0.13-0.11-0.25,0.07-0.37c0.19,0.05,0.38,0.1,0.57,0.15
				c0.02,0.03,0.03,0.06,0.05,0.08C132.21,96.31,131.03,96.32,130.97,97.07L130.97,97.07z"/>
		</g>
	</g>
	<g>
		<g>
			<path class="st19" d="M136,96.14c0.46,0.31,1.2,0.28,1.42-0.31c0.19-0.51-0.18-1.17-0.77-1.11c-0.74,0.09-0.75,1.26,0,1.18
				c0.2-0.37,0.18-0.63-0.06-0.78C135.97,94.69,135.38,95.71,136,96.14L136,96.14z"/>
		</g>
	</g>
	<g>
		<g>
			<path class="st19" d="M136.12,87.63c0.45,0.35,0.88,0.35,1.32,0c0.15-0.11,0.22-0.4,0.15-0.57c-0.36-0.89-1.48-1.05-2.05-0.26
				c-0.44,0.62,0.58,1.21,1.02,0.59c-0.07,0.1-0.07,0.07-0.11-0.02c0.05-0.19,0.1-0.38,0.15-0.57c0.11,0,0.23,0,0.34,0
				C136.36,86.34,135.52,87.17,136.12,87.63L136.12,87.63z"/>
		</g>
	</g>
	<g>
		<g>
			<path class="st19" d="M143.22,85.44c-0.06-0.45-0.29-0.86-0.77-0.97c-0.45-0.1-0.91,0.14-1.11,0.55
				c-0.32,0.68,0.69,1.28,1.02,0.59c-0.11-0.06-0.22-0.12-0.32-0.17C142.13,86.18,143.31,86.19,143.22,85.44L143.22,85.44z"/>
		</g>
	</g>
	<g>
		<g>
			<path class="st19" d="M142.57,94.95c0.68-0.03,1.18-0.81,0.67-1.38c-0.46-0.52-1.22-0.2-1.42,0.38
				c-0.25,0.72,0.88,1.02,1.14,0.31c-0.13-0.16-0.26-0.33-0.39-0.49C141.82,93.8,141.81,94.98,142.57,94.95L142.57,94.95z"/>
		</g>
	</g>
	<g>
		<g>
			<path class="st19" d="M149.33,93.05c0.46-0.41,0.41-1.25-0.17-1.54c-0.64-0.32-1.39,0.23-1.34,0.92c0.05,0.75,1.23,0.76,1.18,0
				c-0.17-0.07-0.34-0.15-0.5-0.22C147.93,92.72,148.76,93.55,149.33,93.05L149.33,93.05z"/>
		</g>
	</g>
	<g>
		<g>
			<path class="st19" d="M148.34,83.43c0.01,0.03,0.02,0.06,0.03,0.09c0.02-0.15,0.04-0.3,0.06-0.45c0.03-0.03,0.05-0.05,0.08-0.08
				c0.15-0.02,0.3-0.04,0.45-0.06c-0.05-0.01-0.09-0.03-0.14-0.04c-0.66-0.37-1.26,0.65-0.59,1.02c0.6,0.33,1.51,0.04,1.25-0.79
				C149.25,82.39,148.11,82.7,148.34,83.43L148.34,83.43z"/>
		</g>
	</g>
	<g>
		<g>
			<path class="st19" d="M111.96,109.57c0.11,0.72,1.2,0.72,1.4,0.05c0.1-0.34-0.07-0.7-0.35-0.89c-0.35-0.24-0.75-0.11-1.1,0.05
				c-0.69,0.31-0.09,1.33,0.59,1.02c-0.04-0.01-0.09-0.02-0.13-0.03c-0.06-0.14-0.12-0.28-0.17-0.42c0,0.04,0,0.08,0,0.12
				c0.06-0.14,0.12-0.28,0.17-0.42c0.24,0.07,0.48,0.14,0.72,0.21C112.97,108.51,111.84,108.83,111.96,109.57L111.96,109.57z"/>
		</g>
	</g>
	<g>
		<g>
			<path class="st19" d="M111.98,116.53c-0.01,0.23,0.04,0.44,0.18,0.63c0.2,0.26,0.5,0.38,0.81,0.21c0.14-0.08,0.27-0.17,0.37-0.3
				c0.18-0.23,0.21-0.45,0.09-0.71c-0.12-0.27-0.33-0.4-0.59-0.5c-0.71-0.26-1.02,0.88-0.31,1.14c-0.04-0.01-0.07-0.03-0.11-0.04
				c0.03-0.24,0.06-0.48,0.09-0.71c-0.03,0.06-0.07,0.1-0.13,0.12c0.27,0.07,0.54,0.14,0.81,0.21c-0.01-0.01-0.01-0.02-0.02-0.03
				C113.2,115.77,112.02,115.77,111.98,116.53L111.98,116.53z"/>
		</g>
	</g>
	<g>
		<g>
			<path class="st19" d="M117.38,116.44c0.13-0.46-0.05-0.93-0.49-1.15c-0.68-0.33-1.28,0.68-0.59,1.02
				c-0.02-0.06-0.04-0.12-0.05-0.18C116.04,116.86,117.18,117.17,117.38,116.44L117.38,116.44z"/>
		</g>
	</g>
	<g>
		<g>
			<path class="st19" d="M116.16,108.07c-0.09,0.34-0.06,0.66,0.16,0.94c0.24,0.31,0.81,0.45,1.02,0c0.21-0.44,0.13-0.92-0.33-1.16
				c-0.67-0.36-1.27,0.66-0.59,1.02c-0.03-0.15-0.06-0.3-0.09-0.45c0.34,0,0.68,0,1.02,0c-0.01-0.01-0.03-0.02-0.04-0.04
				C117.48,107.65,116.35,107.34,116.16,108.07L116.16,108.07z"/>
		</g>
	</g>
	<g>
		<g>
			<path class="st19" d="M120.3,107.67c0.17,0.37,0.61,0.53,1,0.45c0.43-0.1,0.65-0.42,0.7-0.84c0.02-0.2-0.13-0.41-0.29-0.51
				c-0.43-0.26-0.98-0.13-1.21,0.32c-0.35,0.67,0.67,1.27,1.02,0.59c-0.13,0.03-0.27,0.07-0.4,0.1c-0.1-0.17-0.19-0.34-0.29-0.51
				c0.17-0.07,0.33-0.14,0.5-0.2C121.01,106.39,119.99,106.98,120.3,107.67L120.3,107.67z"/>
		</g>
	</g>
	<g>
		<g>
			<path class="st19" d="M122.57,115.84c0.58-0.59,0.29-1.82-0.66-1.75c-0.85,0.06-1.18,1.34-0.39,1.73
				c0.68,0.34,1.27-0.68,0.59-1.02c0.18,0.35,0.13,0.46-0.17,0.33c-0.21,0.04-0.28,0-0.21-0.12
				C121.2,115.55,122.03,116.38,122.57,115.84L122.57,115.84z"/>
		</g>
	</g>
	<g>
		<g>
			<path class="st19" d="M126.15,113.75c-0.49,0.45-0.25,1.2,0.35,1.4c0.19,0.06,0.44,0,0.57-0.15c0.6-0.65-0.01-1.77-0.9-1.51
				c-0.73,0.21-0.42,1.35,0.31,1.14c-0.08-0.15-0.17-0.31-0.25-0.46c0.19-0.05,0.38-0.1,0.57-0.15c0.06,0.19,0.11,0.38,0.17,0.57
				C127.54,114.07,126.71,113.24,126.15,113.75L126.15,113.75z"/>
		</g>
	</g>
	<g>
		<g>
			<path class="st19" d="M126.2,107.15c0.67-0.05,1.55-0.75,0.94-1.44c-0.47-0.53-1.25-0.23-1.47,0.35
				c-0.28,0.71,0.86,1.01,1.14,0.31c-0.18,0.04-0.37,0.09-0.55,0.13c0-0.2,0-0.4,0-0.59c-0.02,0.02-0.03,0.04-0.05,0.06
				C125.45,106.02,125.45,107.2,126.2,107.15L126.2,107.15z"/>
		</g>
	</g>
	<g>
		<g>
			<path class="st19" d="M131.6,106.12c0.41-0.19,0.6-0.56,0.62-1c0.02-0.28-0.2-0.47-0.43-0.57c-0.49-0.2-1.09,0.14-1.17,0.66
				c-0.11,0.74,1.02,1.06,1.14,0.31c-0.09,0.05-0.19,0.11-0.28,0.16c-0.14-0.19-0.29-0.38-0.43-0.57c-0.01-0.01-0.03-0.01-0.04-0.02
				C130.32,105.43,130.92,106.44,131.6,106.12L131.6,106.12z"/>
		</g>
	</g>
	<g>
		<g>
			<path class="st19" d="M136.15,103.66c-0.37,0.52-0.17,1.42,0.58,1.42c0.71,0,0.99-0.81,0.57-1.3c-0.49-0.58-1.32,0.26-0.83,0.83
				c0.02,0.02,0.03,0.04,0.05,0.06c-0.06-0.14-0.12-0.28-0.17-0.42c0.28,0,0.55,0,0.83,0C137.61,103.64,136.59,103.05,136.15,103.66
				L136.15,103.66z"/>
		</g>
	</g>
	<g>
		<g>
			<path class="st19" d="M131.37,113.85c0.43,0.44,1.27,0.31,1.42-0.34c0.18-0.76-0.74-1.11-1.31-0.82
				c-0.67,0.36-0.08,1.37,0.59,1.02c-0.12-0.02-0.24-0.04-0.37-0.06c0-0.2,0-0.4,0-0.59c0.16-0.01,0.33-0.03,0.49-0.04
				C131.68,112.47,130.84,113.31,131.37,113.85L131.37,113.85z"/>
		</g>
	</g>
	<g>
		<g>
			<path class="st19" d="M136.7,113.34c0.62,0.19,1.3-0.36,1.09-1.02c-0.21-0.65-0.94-0.7-1.42-0.34c-0.6,0.46,0.24,1.29,0.83,0.83
				c-0.07-0.2-0.13-0.41-0.2-0.61C136.29,111.98,135.97,113.12,136.7,113.34L136.7,113.34z"/>
		</g>
	</g>
	<g>
		<g>
			<path class="st19" d="M142.17,112.07c0.34,0.3,0.72,0.4,1.16,0.29c0.74-0.18,0.42-1.32-0.31-1.14c0,0-0.01,0.01-0.01,0.01
				C142.44,110.74,141.6,111.57,142.17,112.07L142.17,112.07z"/>
		</g>
	</g>
	<g>
		<g>
			<path class="st19" d="M143.05,112.13c0.76,0,0.76-1.18,0-1.18C142.3,110.95,142.29,112.13,143.05,112.13L143.05,112.13z"/>
		</g>
	</g>
	<g>
		<g>
			<path class="st19" d="M142.65,103.27c0.2,0.14,0.41,0.19,0.66,0.17c0.28-0.03,0.63-0.25,0.59-0.59
				c-0.08-0.61-0.58-1.07-1.22-0.87c-0.72,0.23-0.41,1.37,0.31,1.14c-0.09-0.09-0.18-0.18-0.27-0.27c0.2-0.2,0.39-0.39,0.59-0.59
				c-0.02,0-0.04-0.01-0.06-0.01C142.61,101.83,142.02,102.85,142.65,103.27L142.65,103.27z"/>
		</g>
	</g>
	<g>
		<g>
			<path class="st19" d="M148.51,102.4c0.23,0,0.46-0.01,0.68-0.01c0.26-0.01,0.5-0.18,0.57-0.43c0.22-0.83-0.81-1.51-1.39-0.77
				c-0.47,0.59,0.36,1.43,0.83,0.83c-0.19-0.12-0.39-0.25-0.58-0.37c0.19-0.14,0.38-0.29,0.57-0.43c-0.23,0-0.46,0.01-0.68,0.01
				C147.75,101.24,147.75,102.42,148.51,102.4L148.51,102.4z"/>
		</g>
	</g>
	<g>
		<g>
			<path class="st19" d="M148.6,110.47c-0.02,0.84,1.21,1.26,1.63,0.48c0.47-0.89-0.74-1.59-1.41-1c-0.57,0.5,0.26,1.33,0.83,0.83
				c0.04-0.11,0.08-0.21,0.13-0.32C149.8,109.71,148.62,109.71,148.6,110.47L148.6,110.47z"/>
		</g>
	</g>
	<g>
		<g>
			<path class="st20" d="M83.24,135.26c18.88-1.03,37.76-2.26,56.61-3.69c0.75-0.06,0.76-1.24,0-1.18
				c-18.86,1.43-37.73,2.66-56.61,3.69C82.49,134.12,82.49,135.3,83.24,135.26L83.24,135.26z"/>
		</g>
	</g>
	<g>
		<g>
			<path class="st20" d="M82.15,183.53c18.83,5.59,37.74,10.94,56.71,16.04c0.73,0.2,1.05-0.94,0.31-1.14
				c-18.97-5.1-37.88-10.45-56.71-16.04C81.73,182.18,81.42,183.31,82.15,183.53L82.15,183.53z"/>
		</g>
	</g>
	<g>
		<g>
			<path class="st20" d="M83.09,168.84c9.14,2.3,18.53,3.18,27.75,5.06c8.8,1.8,17.26,5.16,26.27,5.82c0.76,0.06,0.75-1.12,0-1.18
				c-9.2-0.67-17.88-4.19-26.88-5.96c-8.92-1.75-18-2.65-26.83-4.88C82.67,167.52,82.35,168.66,83.09,168.84L83.09,168.84z"/>
		</g>
	</g>
	<g>
		<g>
			<path class="st20" d="M82.65,167.55c-0.12,7.36-0.25,14.71-0.37,22.07c-0.01,0.76,1.17,0.76,1.18,0
				c0.12-7.36,0.25-14.71,0.37-22.07C83.84,166.79,82.66,166.79,82.65,167.55L82.65,167.55z"/>
		</g>
	</g>
	<g>
		<g>
			<path class="st20" d="M91.77,169.45c-0.11,7.72-0.43,15.42-0.97,23.12c-0.05,0.76,1.13,0.75,1.18,0
				c0.54-7.7,0.86-15.41,0.97-23.12C92.96,168.69,91.78,168.69,91.77,169.45L91.77,169.45z"/>
		</g>
	</g>
	<g>
		<g>
			<path class="st20" d="M100.16,171.35c-0.16,8.35-0.4,16.69-0.73,25.03c-0.03,0.76,1.15,0.76,1.18,0
				c0.33-8.34,0.58-16.68,0.73-25.03C101.36,170.59,100.18,170.59,100.16,171.35L100.16,171.35z"/>
		</g>
	</g>
	<g>
		<g>
			<path class="st20" d="M110.53,174.32c-0.47,8.6-1.15,17.18-2.05,25.74c-0.08,0.75,1.1,0.75,1.18,0
				c0.9-8.56,1.59-17.14,2.05-25.74C111.75,173.56,110.57,173.56,110.53,174.32L110.53,174.32z"/>
		</g>
	</g>
	<g>
		<g>
			<path class="st20" d="M121.58,176.8c1,9.27,1.24,18.58,0.72,27.89c-0.04,0.76,1.14,0.76,1.18,0c0.52-9.31,0.28-18.62-0.72-27.89
				C122.68,176.06,121.5,176.05,121.58,176.8L121.58,176.8z"/>
		</g>
	</g>
	<g>
		<g>
			<path class="st20" d="M135.03,179.41c0.5,10.09,0.43,20.18-0.19,30.26c-0.05,0.76,1.13,0.75,1.18,0
				c0.62-10.08,0.68-20.17,0.19-30.26C136.18,178.65,135,178.65,135.03,179.41L135.03,179.41z"/>
		</g>
	</g>
	<g>
		<g>
			<path class="st20" d="M83.07,129.57c-0.71,6.09-1.33,12.17-1.34,18.31c0,0.76,1.18,0.76,1.18,0c0.01-6.13,0.63-12.22,1.34-18.31
				C84.34,128.82,83.16,128.82,83.07,129.57L83.07,129.57z"/>
		</g>
	</g>
	<g>
		<g>
			<path class="st20" d="M90.52,128.65c-0.77,6.81-1.2,13.65-1.28,20.51c-0.01,0.76,1.17,0.76,1.18,0c0.08-6.86,0.5-13.7,1.28-20.51
				C91.79,127.89,90.61,127.9,90.52,128.65L90.52,128.65z"/>
		</g>
	</g>
	<g>
		<g>
			<path class="st20" d="M99.27,127.44c0.04,7.57-0.29,15.12-0.99,22.66c-0.07,0.75,1.11,0.75,1.18,0
				c0.7-7.54,1.03-15.09,0.99-22.66C100.44,126.68,99.26,126.68,99.27,127.44L99.27,127.44z"/>
		</g>
	</g>
	<g>
		<g>
			<path class="st20" d="M109.85,126.39c-0.64,7.7-0.82,15.41-0.55,23.13c0.03,0.76,1.21,0.76,1.18,0
				c-0.27-7.72-0.09-15.43,0.55-23.13C111.09,125.63,109.91,125.63,109.85,126.39L109.85,126.39z"/>
		</g>
	</g>
	<g>
		<g>
			<path class="st20" d="M121.3,125.07c0.29,8.63,0.1,17.26-0.58,25.87c-0.06,0.76,1.12,0.75,1.18,0
				c0.68-8.61,0.87-17.24,0.58-25.87C122.45,124.31,121.27,124.31,121.3,125.07L121.3,125.07z"/>
		</g>
	</g>
	<g>
		<g>
			<path class="st20" d="M135.33,122.22c-0.24,9.65-0.48,19.3-0.72,28.95c-0.02,0.76,1.16,0.76,1.18,0
				c0.24-9.65,0.48-19.3,0.72-28.95C136.53,121.47,135.35,121.47,135.33,122.22L135.33,122.22z"/>
		</g>
	</g>
	<g>
		<g>
			<path class="st20" d="M85.8,129.87c-0.04-0.04-0.08-0.08-0.12-0.12c-0.54-0.54-1.37,0.3-0.83,0.83c0.04,0.04,0.08,0.08,0.12,0.12
				C85.51,131.24,86.34,130.41,85.8,129.87L85.8,129.87z"/>
		</g>
	</g>
	<g>
		<g>
			<path class="st20" d="M85.3,139.22c0.57-0.2,0.89-0.96,0.37-1.42c-0.56-0.5-1.37,0-1.37,0.69c0,0.76,1.18,0.76,1.18,0
				c-0.17-0.13-0.33-0.27-0.5-0.4C84.28,138.34,84.58,139.48,85.3,139.22L85.3,139.22z"/>
		</g>
	</g>
	<g>
		<g>
			<path class="st20" d="M84.36,146.44c0.07,1.01,1.47,1.02,1.49-0.01c0.02-0.76-1.16-0.76-1.18,0c0.01-0.04,0.01-0.08,0.02-0.12
				c0.12-0.09,0.23-0.18,0.35-0.27c0.11,0.03,0.22,0.05,0.33,0.08c0.06,0.14,0.12,0.28,0.17,0.42c0-0.03,0-0.07-0.01-0.1
				C85.48,145.69,84.3,145.68,84.36,146.44L84.36,146.44z"/>
		</g>
	</g>
	<g>
		<g>
			<path class="st20" d="M88.21,147.21c0.52,0.22,1.14-0.19,1.15-0.76c0.01-0.58-0.61-0.96-1.13-0.79
				c-0.72,0.24-0.41,1.38,0.31,1.14c0-0.24-0.01-0.49-0.01-0.73C87.83,145.79,87.52,146.93,88.21,147.21L88.21,147.21z"/>
		</g>
	</g>
	<g>
		<g>
			<path class="st20" d="M88.29,138.78c0.42,0.44,1.32,0.15,1.23-0.52c-0.04-0.32-0.24-0.59-0.59-0.59c-0.29,0-0.63,0.27-0.59,0.59
				c0.14-0.14,0.28-0.29,0.42-0.43c0.14,0.06,0.28,0.12,0.42,0.17c-0.02-0.02-0.03-0.03-0.05-0.05
				C88.59,137.4,87.76,138.23,88.29,138.78L88.29,138.78z"/>
		</g>
	</g>
	<g>
		<g>
			<path class="st20" d="M88.35,130.47c0.37,0.88,1.74,0.14,1.21-0.69c-0.4-0.64-1.42-0.05-1.02,0.59c-0.02-0.05-0.03-0.1-0.05-0.15
				c0.06-0.14,0.12-0.28,0.17-0.42c-0.02,0.02-0.03,0.04-0.05,0.06c0.14-0.06,0.28-0.12,0.42-0.17c0.11,0.06,0.22,0.13,0.33,0.19
				C89.08,129.18,88.06,129.78,88.35,130.47L88.35,130.47z"/>
		</g>
	</g>
	<g>
		<g>
			<path class="st20" d="M92.47,129.98c0.42,0.47,1.26,0.38,1.52-0.21c0.12-0.28,0.1-0.65-0.21-0.81c-0.46-0.24-0.94-0.05-1.1,0.45
				c-0.23,0.72,0.91,1.04,1.14,0.31c0.01-0.02,0.02-0.05,0.02-0.07c-0.09,0.12-0.18,0.23-0.27,0.35c0,0,0,0,0,0
				c-0.15-0.02-0.3-0.04-0.45-0.06c0.02,0.01,0.05,0.02,0.07,0.04c-0.07-0.27-0.14-0.54-0.21-0.81c0.11-0.01,0.22-0.02,0.33-0.03
				C92.8,128.58,91.97,129.42,92.47,129.98L92.47,129.98z"/>
		</g>
	</g>
	<g>
		<g>
			<path class="st20" d="M92.65,138.93c0.46,0.2,1.01-0.03,1.02-0.59c0.01-0.58-0.59-0.77-1.06-0.65c-0.74,0.18-0.42,1.32,0.31,1.14
				c-0.05-0.01-0.11-0.03-0.16-0.04c-0.09-0.12-0.18-0.23-0.27-0.35c0.01,0.02,0.01,0.04,0.02,0.07c0.02-0.15,0.04-0.3,0.06-0.45
				c0.04-0.04,0.09-0.07,0.13-0.11c0.2,0,0.4,0,0.59,0c-0.02-0.01-0.04-0.02-0.05-0.02C92.56,137.6,91.96,138.62,92.65,138.93
				L92.65,138.93z"/>
		</g>
	</g>
	<g>
		<g>
			<path class="st20" d="M92.28,146.9c-0.01,0.23,0.04,0.44,0.18,0.62c0.2,0.27,0.5,0.36,0.81,0.21c0.31-0.15,0.46-0.38,0.58-0.69
				c0.09-0.24-0.06-0.55-0.27-0.67c-0.33-0.19-0.61-0.21-0.99-0.16c-0.75,0.11-0.43,1.24,0.31,1.14c0.03,0.01,0.05,0.03,0.08,0.04
				c-0.09-0.22-0.18-0.44-0.27-0.67c-0.01,0-0.03-0.01-0.04-0.01c0.27,0.07,0.54,0.14,0.81,0.21c-0.01-0.01-0.01-0.02-0.02-0.03
				C93.5,146.15,92.32,146.15,92.28,146.9L92.28,146.9z"/>
		</g>
	</g>
	<g>
		<g>
			<path class="st20" d="M96.71,146.76c-0.23,0.82,0.8,1.15,1.26,0.55c0.46-0.6-0.56-1.19-1.02-0.59c-0.01,0.02-0.03,0.03-0.04,0.05
				c0.17-0.1,0.34-0.19,0.51-0.29c0.11,0.07,0.23,0.14,0.34,0.21c0.02,0.15,0.04,0.3,0.06,0.45c0.01-0.02,0.01-0.04,0.02-0.06
				C98.05,146.35,96.91,146.03,96.71,146.76L96.71,146.76z"/>
		</g>
	</g>
	<g>
		<g>
			<path class="st20" d="M96.71,138.42c0.34,0.33,0.86,0.36,1.18-0.01c0.5-0.57-0.33-1.4-0.83-0.83c0.16,0,0.32,0.01,0.48,0.01
				C97,137.06,96.17,137.89,96.71,138.42L96.71,138.42z"/>
		</g>
	</g>
	<g>
		<g>
			<path class="st20" d="M96.46,129.42c0.08,0.08,0.16,0.15,0.24,0.23c0.55,0.52,1.38-0.31,0.83-0.83
				c-0.08-0.08-0.16-0.15-0.24-0.23C96.75,128.06,95.91,128.9,96.46,129.42L96.46,129.42z"/>
		</g>
	</g>
	<g>
		<g>
			<path class="st20" d="M101.77,128.28c-0.01,0.24,0.04,0.44,0.19,0.63c0.24,0.32,0.61,0.39,0.93,0.12
				c0.08-0.07,0.17-0.14,0.25-0.21c0.58-0.49-0.26-1.32-0.83-0.83c-0.08,0.07-0.17,0.14-0.25,0.21c0.31,0.04,0.62,0.08,0.93,0.12
				c-0.01-0.01-0.02-0.02-0.03-0.04C102.98,127.52,101.8,127.52,101.77,128.28L101.77,128.28z"/>
		</g>
	</g>
	<g>
		<g>
			<path class="st20" d="M106.48,128.45c0.36,0.82,1.56,0.26,1.4-0.56c-0.15-0.74-1.29-0.43-1.14,0.31c0,0.02,0.01,0.05,0.01,0.07
				c0.02-0.15,0.04-0.3,0.06-0.45c0.23,0.01,0.46,0.02,0.68,0.03C107.19,127.16,106.18,127.76,106.48,128.45L106.48,128.45z"/>
		</g>
	</g>
	<g>
		<g>
			<path class="st20" d="M101.2,138.04c0.2,0.79,1.39,0.79,1.59,0c0.18-0.74-0.95-1.05-1.14-0.31c0.23-0.34,0.46-0.34,0.69,0
				C102.16,136.99,101.02,137.3,101.2,138.04L101.2,138.04z"/>
		</g>
	</g>
	<g>
		<g>
			<path class="st20" d="M101.81,147.77c0.27,0.66,1.07,0.67,1.33,0c0.28-0.71-0.86-1.01-1.14-0.31c-0.01,0.02-0.02,0.04-0.02,0.06
				c0.14-0.14,0.27-0.27,0.41-0.41c0.06,0,0.11,0,0.17,0c0.14,0.14,0.27,0.27,0.41,0.41c-0.01-0.02-0.02-0.04-0.03-0.06
				C102.67,146.77,101.53,147.07,101.81,147.77L101.81,147.77z"/>
		</g>
	</g>
	<g>
		<g>
			<path class="st20" d="M101.76,147.73c0.76,0,0.76-1.18,0-1.18C101,146.55,101,147.73,101.76,147.73L101.76,147.73z"/>
		</g>
	</g>
	<g>
		<g>
			<path class="st20" d="M106.82,147.8c0.56,0.95,1.89,0.37,1.65-0.68c-0.17-0.74-1.3-0.43-1.14,0.31c0.17-0.08,0.34-0.15,0.5-0.23
				C107.45,146.55,106.43,147.14,106.82,147.8L106.82,147.8z"/>
		</g>
	</g>
	<g>
		<g>
			<path class="st20" d="M106.65,137.57c0.15,0.51,0.55,0.7,1.06,0.62c0.3-0.04,0.51-0.45,0.41-0.72c-0.2-0.58-0.83-0.75-1.3-0.34
				c-0.57,0.5,0.26,1.33,0.83,0.83c-0.22-0.06-0.45-0.12-0.67-0.18c0.14-0.24,0.27-0.48,0.41-0.72c0.13,0.07,0.26,0.13,0.39,0.2
				C107.56,136.53,106.43,136.84,106.65,137.57L106.65,137.57z"/>
		</g>
	</g>
	<g>
		<g>
			<path class="st20" d="M112.43,137.34c0.22,0.52,0.93,0.7,1.38,0.37c0.25-0.18,0.39-0.51,0.21-0.81c-0.5-0.81-1.61-0.61-1.95,0.21
				c-0.29,0.7,0.85,1.01,1.14,0.31c-0.03,0.07-0.12,0.2-0.21,0.07c0.07-0.27,0.14-0.54,0.21-0.81c0.08,0.02,0.15,0.04,0.23,0.05
				C113.14,136.05,112.13,136.65,112.43,137.34L112.43,137.34z"/>
		</g>
	</g>
	<g>
		<g>
			<path class="st20" d="M111.93,127.98c0.29,0.58,1.2,0.59,1.48-0.01c0.32-0.68-0.7-1.28-1.02-0.59c0.19,0,0.37,0,0.56,0.01
				C112.61,126.7,111.59,127.3,111.93,127.98L111.93,127.98z"/>
		</g>
	</g>
	<g>
		<g>
			<path class="st20" d="M118.08,127.59c0.25,0.12,0.47,0.18,0.75,0.19c0.47,0.01,0.7-0.5,0.51-0.89c-0.3-0.59-1.04-0.65-1.5-0.22
				c-0.56,0.52,0.28,1.35,0.83,0.83c-0.12-0.01-0.23-0.01-0.35-0.02c0.17-0.3,0.34-0.59,0.51-0.89c-0.05-0.01-0.11-0.02-0.16-0.03
				C117.99,126.25,117.39,127.27,118.08,127.59L118.08,127.59z"/>
		</g>
	</g>
	<g>
		<g>
			<path class="st20" d="M117.95,137.6c0.4,0.54,1.3,0.66,1.64-0.04c0.37-0.75-0.38-1.45-1.12-1.29c-0.74,0.17-0.43,1.3,0.31,1.14
				c0.06-0.14,0.13-0.27,0.19-0.41C118.53,136.4,117.5,136.99,117.95,137.6L117.95,137.6z"/>
		</g>
	</g>
	<g>
		<g>
			<path class="st20" d="M112.48,148.17c0.84,0.74,2.03,0.06,1.79-1.05c-0.16-0.74-1.3-0.43-1.14,0.31c0.06-0.03,0.12-0.07,0.18-0.1
				C112.74,146.84,111.9,147.67,112.48,148.17L112.48,148.17z"/>
		</g>
	</g>
	<g>
		<g>
			<path class="st20" d="M113.03,147.61c0.76,0,0.76-1.18,0-1.18C112.28,146.43,112.27,147.61,113.03,147.61L113.03,147.61z"/>
		</g>
	</g>
	<g>
		<g>
			<path class="st20" d="M118.32,148.35c0.35,0.17,0.59,0.16,0.95,0.01c0.69-0.3,0.09-1.32-0.59-1.02c0.08,0,0.16-0.01,0.24-0.01
				C118.24,147,117.64,148.02,118.32,148.35L118.32,148.35z"/>
		</g>
	</g>
	<g>
		<g>
			<path class="st20" d="M124.71,147.83c0.01,0.63,0.78,0.98,1.24,0.52c0.23-0.23,0.27-0.58,0.14-0.87
				c-0.15-0.35-0.45-0.45-0.75-0.64c-0.64-0.41-1.23,0.61-0.59,1.02c0.13,0.08,0.21,0.19,0.23,0.05c0.06-0.14,0.12-0.28,0.17-0.42
				c0.19,0,0.38,0,0.57,0c0.06,0.14,0.12,0.28,0.17,0.42c0-0.02,0-0.05,0-0.07C125.88,147.07,124.7,147.07,124.71,147.83
				L124.71,147.83z"/>
		</g>
	</g>
	<g>
		<g>
			<path class="st20" d="M132.55,148.51c0.42-0.52,0.69-1.45-0.16-1.76c-0.73-0.26-1.23,0.51-0.95,1.13
				c0.31,0.69,1.33,0.09,1.02-0.59c-0.01-0.03-0.02-0.05-0.04-0.08c0.02,0.15,0.04,0.3,0.06,0.45c-0.26,0-0.51,0.01-0.77,0.01
				C131.25,148.26,132.08,149.1,132.55,148.51L132.55,148.51z"/>
		</g>
	</g>
	<g>
		<g>
			<path class="st20" d="M131.98,135.47c-0.45,0.5-0.69,1.42,0.14,1.72c0.65,0.23,1.33-0.55,0.89-1.14
				c-0.45-0.6-1.47-0.02-1.02,0.59c0.07-0.19,0.13-0.37,0.2-0.56c0.15,0.02,0.3,0.04,0.45,0.06c0.05,0.05,0.11,0.11,0.16,0.16
				C133.32,135.74,132.49,134.91,131.98,135.47L131.98,135.47z"/>
		</g>
	</g>
	<g>
		<g>
			<path class="st20" d="M124.4,137.15c-0.04,0.46,0.38,0.82,0.83,0.78c0.45-0.04,0.7-0.41,0.77-0.83c0.05-0.29-0.04-0.49-0.27-0.67
				c-0.26-0.2-0.61-0.19-0.87,0c-0.62,0.43-0.03,1.46,0.59,1.02c-0.11,0-0.21,0-0.32,0c-0.09-0.22-0.18-0.44-0.27-0.67
				c-0.08,0.26,0.1,0.28,0.54,0.03c0.06,0.14,0.12,0.28,0.17,0.42c0-0.03,0.01-0.06,0.01-0.09
				C125.64,136.39,124.46,136.4,124.4,137.15L124.4,137.15z"/>
		</g>
	</g>
	<g>
		<g>
			<path class="st20" d="M124.63,126.14c-0.08,0.54,0.32,1.18,0.95,0.92c0.52-0.21,0.58-0.85,0.22-1.23
				c-0.52-0.55-1.36,0.28-0.83,0.83c-0.04-0.12-0.07-0.23-0.11-0.35c0.09-0.12,0.18-0.23,0.27-0.35c-0.02,0.02-0.05,0.03-0.07,0.05
				c0.15-0.02,0.3-0.04,0.45-0.06c-0.04-0.01-0.07-0.02-0.11-0.02c0.12,0.09,0.23,0.18,0.35,0.27c-0.02-0.03-0.04-0.06-0.07-0.1
				c0.02,0.15,0.04,0.3,0.06,0.45c0.01-0.04,0.01-0.07,0.02-0.11C125.87,125.71,124.74,125.39,124.63,126.14L124.63,126.14z"/>
		</g>
	</g>
	<g>
		<g>
			<path class="st20" d="M131.56,125.07c0.05,0.4,0.23,0.74,0.64,0.86c0.41,0.11,0.85-0.11,1.02-0.49c0.41-0.92-0.85-1.36-1.51-1.01
				c-0.67,0.35-0.08,1.37,0.59,1.02c-0.04-0.01-0.07-0.03-0.11-0.04c-0.02-0.15-0.04-0.3-0.06-0.45c0.2,0.04,0.4,0.08,0.6,0.12
				C132.65,124.33,131.47,124.32,131.56,125.07L131.56,125.07z"/>
		</g>
	</g>
	<g>
		<g>
			<path class="st21" d="M143.53,131.5c15.95,1.13,31.94,1.76,47.93,1.9c0.76,0.01,0.76-1.17,0-1.18
				c-15.99-0.13-31.98-0.77-47.93-1.9C142.78,130.27,142.78,131.45,143.53,131.5L143.53,131.5z"/>
		</g>
	</g>
	<g>
		<g>
			<path class="st21" d="M144.96,154.76c15.46-0.83,30.93-1.65,46.4-2.48c0.75-0.04,0.76-1.22,0-1.18
				c-15.46,0.83-30.93,1.65-46.4,2.48C144.21,153.62,144.2,154.8,144.96,154.76L144.96,154.76z"/>
		</g>
	</g>
	<g>
		<g>
			<path class="st21" d="M143.25,178.36c16.15-1.33,31.47-7.03,47.44-9.38c0.75-0.11,0.43-1.25-0.31-1.14
				c-15.87,2.34-31.09,8.02-47.13,9.34C142.5,177.25,142.5,178.43,143.25,178.36L143.25,178.36z"/>
		</g>
	</g>
	<g>
		<g>
			<path class="st21" d="M142.73,202.41c16.15-5.57,32.41-10.84,48.76-15.81c0.72-0.22,0.42-1.36-0.31-1.14
				c-16.35,4.97-32.6,10.24-48.76,15.81C141.71,201.51,142.02,202.65,142.73,202.41L142.73,202.41z"/>
		</g>
	</g>
	<g>
		<g>
			<path class="st21" d="M172.7,212.88c6.13-3.1,12.34-6,18.65-8.72c0.69-0.3,0.1-1.31-0.59-1.02c-6.31,2.71-12.52,5.62-18.65,8.72
				C171.43,212.2,172.03,213.22,172.7,212.88L172.7,212.88z"/>
		</g>
	</g>
	<g>
		<g>
			<path class="st21" d="M173.26,232.38c6.18-3.52,12.51-6.78,18.97-9.77c0.69-0.32,0.09-1.33-0.59-1.02
				c-6.46,2.99-12.78,6.25-18.97,9.77C172,231.73,172.6,232.75,173.26,232.38L173.26,232.38z"/>
		</g>
	</g>
	<g>
		<g>
			<path class="st21" d="M173.16,112.67c5.38,0.74,10.77,1.48,16.15,2.22c5.14,0.71,10.44,1.12,15.41,2.66
				c0.73,0.23,1.04-0.91,0.31-1.14c-4.97-1.55-10.27-1.96-15.41-2.66c-5.38-0.74-10.77-1.48-16.15-2.22
				C172.73,111.44,172.41,112.57,173.16,112.67L173.16,112.67z"/>
		</g>
	</g>
	<g>
		<g>
			<path class="st21" d="M172.97,93.22c10.6,3.53,21.3,6.78,32.08,9.73c0.73,0.2,1.05-0.94,0.31-1.14
				c-10.78-2.95-21.48-6.19-32.08-9.73C172.56,91.84,172.25,92.98,172.97,93.22L172.97,93.22z"/>
		</g>
	</g>
	<g>
		<g>
			<path class="st21" d="M172.03,72.62c11.13,4.42,22.27,8.84,33.4,13.26c0.71,0.28,1.01-0.86,0.31-1.14
				c-11.13-4.42-22.27-8.84-33.4-13.26C171.64,71.2,171.34,72.34,172.03,72.62L172.03,72.62z"/>
		</g>
	</g>
	<g>
		<g>
			<path class="st21" d="M172.83,52.64c10.37,5.73,21.66,9.38,32.04,15.16c0.66,0.37,1.26-0.65,0.59-1.02
				c-10.37-5.78-21.67-9.43-32.04-15.16C172.76,51.25,172.17,52.27,172.83,52.64L172.83,52.64z"/>
		</g>
	</g>
	<g>
		<g>
			<path class="st21" d="M173.34,48.1c0.13,0.3,0.29,0.53,0.64,0.59c0.26,0.04,0.52-0.03,0.67-0.27c0.29-0.49,0.06-1.12-0.48-1.31
				c-0.61-0.21-1.09,0.28-1.29,0.8c-0.27,0.71,0.87,1.02,1.14,0.31c-0.13-0.13-0.26-0.27-0.39-0.4c0.22-0.09,0.44-0.18,0.67-0.27
				c0.06,0.08,0.12,0.16,0.19,0.24C174.19,47.1,173.04,47.4,173.34,48.1L173.34,48.1z"/>
		</g>
	</g>
	<g>
		<g>
			<path class="st21" d="M179.04,51.42c0.14,0.83,1.3,0.87,1.48,0.03c0.17-0.82-0.66-1.25-1.34-0.94c-0.69,0.31-0.09,1.33,0.59,1.02
				c-0.12-0.15-0.23-0.3-0.35-0.45c0.19-0.05,0.38-0.1,0.57-0.15c0.06,0.06,0.12,0.12,0.18,0.18
				C180.05,50.36,178.91,50.68,179.04,51.42L179.04,51.42z"/>
		</g>
	</g>
	<g>
		<g>
			<path class="st21" d="M184.49,45.54c0.42,0.59,1.07,0.87,1.78,0.67c0.42-0.11,0.59-0.68,0.26-0.98
				c-0.36-0.34-0.79-0.45-1.27-0.33c-0.74,0.18-0.42,1.32,0.31,1.14c0.05-0.03,0.09-0.02,0.13,0.03c0.09-0.33,0.17-0.66,0.26-0.98
				c-0.17,0.05-0.34,0.02-0.45-0.13C185.08,44.34,184.05,44.92,184.49,45.54L184.49,45.54z"/>
		</g>
	</g>
	<g>
		<g>
			<path class="st21" d="M184.53,54.33c-0.15,0.62,0.32,1.28,1,1.14c0.61-0.13,0.8-0.82,0.54-1.32c-0.35-0.68-1.36-0.08-1.02,0.59
				c0.2-0.03,0.41-0.06,0.61-0.1C185.85,53.91,184.71,53.6,184.53,54.33L184.53,54.33z"/>
		</g>
	</g>
	<g>
		<g>
			<path class="st21" d="M189.78,49.07c0.24,0.38,0.63,0.56,1.07,0.41c0.3-0.1,0.51-0.41,0.41-0.72c-0.08-0.27-0.22-0.44-0.45-0.6
				c-0.62-0.44-1.21,0.58-0.59,1.02c-0.03-0.03-0.06-0.07-0.09-0.1c0.14-0.24,0.27-0.48,0.41-0.72c0.09,0.04,0.18,0.09,0.26,0.13
				C190.4,47.83,189.38,48.42,189.78,49.07L189.78,49.07z"/>
		</g>
	</g>
	<g>
		<g>
			<path class="st21" d="M191.16,57.98c0.04-0.08,0.09-0.15,0.13-0.23c0.37-0.66-0.65-1.26-1.02-0.59
				c-0.04,0.08-0.09,0.15-0.13,0.23C189.77,58.05,190.79,58.64,191.16,57.98L191.16,57.98z"/>
		</g>
	</g>
	<g>
		<g>
			<path class="st21" d="M194.39,50.92c-0.37,0.31-0.28,0.95,0.17,1.14c0.46,0.2,0.97-0.19,0.94-0.68c-0.04-0.75-1.22-0.76-1.18,0
				c0,0.03,0,0.05,0,0.08c0.06-0.14,0.12-0.28,0.17-0.42c-0.02,0.02-0.03,0.04-0.05,0.06c0.14-0.06,0.28-0.12,0.42-0.17
				c-0.03,0-0.05,0-0.08,0.01c0.14,0.06,0.28,0.12,0.42,0.17c-0.02-0.02-0.03-0.04-0.05-0.06c0.06,0.14,0.12,0.28,0.17,0.42
				c0-0.03,0.01-0.05,0.01-0.08c-0.06,0.14-0.12,0.28-0.17,0.42c0.02-0.02,0.04-0.03,0.06-0.05
				C195.8,51.27,194.96,50.44,194.39,50.92L194.39,50.92z"/>
		</g>
	</g>
	<g>
		<g>
			<path class="st21" d="M194.52,60.33c0.48,0.48,1.4,0.15,1.3-0.58c-0.1-0.74-1.05-0.8-1.41-0.24c-0.41,0.64,0.61,1.23,1.02,0.59
				c0.01-0.02,0.03-0.05,0.04-0.07c-0.12,0.09-0.23,0.18-0.35,0.27c-0.13-0.06-0.26-0.12-0.39-0.18c-0.02-0.15-0.04-0.3-0.06-0.45
				c0.23-0.06,0.45-0.12,0.68-0.18C194.82,58.96,193.98,59.79,194.52,60.33L194.52,60.33z"/>
		</g>
	</g>
	<g>
		<g>
			<path class="st21" d="M199.07,54.35c0.05,0.75,1.13,1.1,1.47,0.34c0.35-0.77-0.67-1.42-1.31-0.97c-0.61,0.43-0.03,1.46,0.59,1.02
				c0.09-0.24,0.17-0.48,0.26-0.72c0.06,0.14,0.12,0.28,0.17,0.42c0-0.03,0-0.05,0-0.08C200.2,53.6,199.02,53.59,199.07,54.35
				L199.07,54.35z"/>
		</g>
	</g>
	<g>
		<g>
			<path class="st21" d="M200,63.51c0.78,0.09,1.32-0.88,0.81-1.49c-0.5-0.6-1.34-0.28-1.6,0.36c-0.29,0.7,0.85,1,1.14,0.31
				c-0.12-0.12-0.23-0.24-0.35-0.36C199.25,62.25,199.25,63.43,200,63.51L200,63.51z"/>
		</g>
	</g>
	<g>
		<g>
			<path class="st21" d="M203.55,65.03c0.94,0.59,1.6-1.04,0.53-1.27c-0.74-0.16-1.06,0.98-0.31,1.14
				c-0.04-0.02-0.08-0.05-0.12-0.07c-0.06-0.14-0.12-0.28-0.17-0.42c0,0.03,0,0.06,0,0.08c0.06-0.14,0.12-0.28,0.17-0.42
				c-0.02,0.02-0.04,0.04-0.06,0.06c0.14-0.06,0.28-0.12,0.42-0.17c0.05,0.01,0.09,0.03,0.14,0.04
				C203.51,63.61,202.91,64.63,203.55,65.03L203.55,65.03z"/>
		</g>
	</g>
	<g>
		<g>
			<path class="st21" d="M204.46,56.8c-0.08-0.04-0.16-0.08-0.24-0.12c-0.68-0.34-1.27,0.68-0.59,1.02
				c0.08,0.04,0.16,0.08,0.24,0.12C204.55,58.15,205.14,57.14,204.46,56.8L204.46,56.8z"/>
		</g>
	</g>
	<g>
		<g>
			<path class="st21" d="M173.13,58.3c0.42,0.24,0.98,0.04,1.05-0.47c0.07-0.48-0.44-0.88-0.89-0.72c-0.71,0.25-0.4,1.39,0.31,1.14
				c0.02-0.01,0.04-0.02,0.07-0.02c-0.15-0.02-0.3-0.04-0.45-0.06c0.02,0.01,0.04,0.02,0.07,0.03c-0.09-0.12-0.18-0.23-0.27-0.35
				c0.01,0.02,0.02,0.04,0.03,0.06c0.02-0.15,0.04-0.3,0.06-0.45c-0.01,0.02-0.03,0.04-0.04,0.06c0.12-0.09,0.23-0.18,0.35-0.27
				c-0.02,0.01-0.05,0.01-0.07,0.02c0.15,0.02,0.3,0.04,0.45,0.06c-0.02-0.01-0.04-0.02-0.06-0.04
				C173.07,56.9,172.48,57.92,173.13,58.3L173.13,58.3z"/>
		</g>
	</g>
	<g>
		<g>
			<path class="st21" d="M173.61,67.35c-0.19,0.2-0.32,0.41-0.39,0.68c-0.13,0.45,0.44,0.99,0.87,0.67
				c0.08-0.06,0.16-0.12,0.24-0.18c0.59-0.46,0.01-1.48-0.59-1.02c-0.08,0.06-0.16,0.12-0.24,0.18c0.29,0.22,0.58,0.44,0.87,0.67
				c0.01-0.07,0.04-0.12,0.09-0.16C174.97,67.64,174.14,66.8,173.61,67.35L173.61,67.35z"/>
		</g>
	</g>
	<g>
		<g>
			<path class="st21" d="M179.01,70.25c0.01,0.25,0.06,0.45,0.19,0.66c0.14,0.24,0.41,0.32,0.67,0.27c0.82-0.15,0.8-1.41,0.01-1.59
				c-0.74-0.17-1.05,0.97-0.31,1.14c0-0.23-0.01-0.46-0.01-0.69c0.22,0.09,0.44,0.18,0.67,0.27c-0.01-0.02-0.02-0.05-0.02-0.07
				C180.17,69.5,178.99,69.49,179.01,70.25L179.01,70.25z"/>
		</g>
	</g>
	<g>
		<g>
			<path class="st21" d="M179.05,60.93c0,0.01,0.01,0.03,0.01,0.04c0.09,0.24,0.3,0.44,0.57,0.43c0.02,0,0.04,0,0.06,0
				c0.27,0,0.49-0.18,0.57-0.43c0-0.01,0.01-0.03,0.01-0.04c0.24-0.72-0.9-1.03-1.14-0.31c0,0.01-0.01,0.03-0.01,0.04
				c0.19-0.14,0.38-0.29,0.57-0.43c-0.02,0-0.04,0-0.06,0c0.19,0.14,0.38,0.29,0.57,0.43c0-0.01-0.01-0.03-0.01-0.04
				C179.93,59.9,178.79,60.21,179.05,60.93L179.05,60.93z"/>
		</g>
	</g>
	<g>
		<g>
			<path class="st21" d="M184.54,63.88c0.19,0.79,1.39,0.79,1.58,0c0.18-0.74-0.96-1.05-1.14-0.31c0.23,0,0.46,0,0.7,0
				C185.49,62.83,184.36,63.14,184.54,63.88L184.54,63.88z"/>
		</g>
	</g>
	<g>
		<g>
			<path class="st21" d="M185.24,72.48c-0.27,0.18-0.45,0.4-0.52,0.73c-0.06,0.31,0.09,0.63,0.41,0.72c1.06,0.3,1.68-1.16,0.69-1.68
				c-0.67-0.35-1.27,0.67-0.59,1.02c0.07-0.16,0.14-0.32,0.22-0.48c0.14,0.24,0.27,0.48,0.41,0.72c-0.01-0.01-0.02-0.01-0.02-0.02
				C186.46,73.07,185.87,72.05,185.24,72.48L185.24,72.48z"/>
		</g>
	</g>
	<g>
		<g>
			<path class="st21" d="M189.82,75.48c-0.02,0.29,0.08,0.53,0.29,0.73c0.34,0.32,0.83,0.15,0.99-0.26
				c0.21-0.56-0.14-1.08-0.66-1.26c-0.72-0.24-1.03,0.9-0.31,1.14c-0.05-0.06-0.11-0.13-0.16-0.19c0.33-0.09,0.66-0.17,0.99-0.26
				c0.02,0.04,0.04,0.07,0.05,0.11C191.06,74.72,189.88,74.73,189.82,75.48L189.82,75.48z"/>
		</g>
	</g>
	<g>
		<g>
			<path class="st21" d="M190.84,66.61c0.12-0.45-0.1-0.79-0.53-0.94c-0.72-0.25-1.02,0.88-0.31,1.14c0.03,0.01,0.06,0.02,0.09,0.03
				c-0.12-0.09-0.23-0.18-0.35-0.27c0.02,0.03,0.03,0.06,0.05,0.09c-0.02-0.15-0.04-0.3-0.06-0.45c-0.01,0.03-0.02,0.06-0.03,0.09
				C189.51,67.03,190.65,67.34,190.84,66.61L190.84,66.61z"/>
		</g>
	</g>
	<g>
		<g>
			<path class="st21" d="M194.39,69.42c0.7,0.39,1.75-0.29,1.29-1.11c-0.43-0.76-1.48-0.38-1.56,0.39c-0.08,0.75,1.1,0.75,1.18,0
				c-0.1-0.1-0.21-0.2-0.31-0.3C194.32,68.04,193.73,69.06,194.39,69.42L194.39,69.42z"/>
		</g>
	</g>
	<g>
		<g>
			<path class="st21" d="M195.21,77.1c-0.48,0.48-0.15,1.4,0.58,1.3c0.74-0.1,0.8-1.05,0.24-1.41c-0.64-0.41-1.23,0.61-0.59,1.02
				c0.02,0.01,0.05,0.03,0.07,0.04c-0.09-0.12-0.18-0.23-0.27-0.35c0.06-0.13,0.12-0.26,0.18-0.39c0.15-0.02,0.3-0.04,0.45-0.06
				c0.06,0.23,0.12,0.45,0.18,0.68C196.59,77.4,195.75,76.57,195.21,77.1L195.21,77.1z"/>
		</g>
	</g>
	<g>
		<g>
			<path class="st21" d="M199.94,80.14c0.48-0.48,0.26-1.23-0.37-1.43c-0.72-0.24-1.03,0.9-0.31,1.14c-0.05-0.18-0.1-0.36-0.15-0.54
				C198.57,79.85,199.41,80.68,199.94,80.14L199.94,80.14z"/>
		</g>
	</g>
	<g>
		<g>
			<path class="st21" d="M199.54,72.02c0.29,0.03,0.51-0.08,0.72-0.27c0.22-0.2,0.24-0.64,0-0.83c-0.1-0.08-0.2-0.17-0.3-0.25
				c-0.58-0.47-1.42,0.35-0.83,0.83c0.1,0.08,0.2,0.17,0.3,0.25c0-0.28,0-0.56,0-0.83c0.04-0.03,0.08-0.05,0.12-0.08
				C198.78,70.75,198.79,71.93,199.54,72.02L199.54,72.02z"/>
		</g>
	</g>
	<g>
		<g>
			<path class="st21" d="M203.74,73.85c0.51,0.38,1.11,0.04,1.32-0.48c0.29-0.7-0.85-1.01-1.14-0.31c0.14-0.08,0.27-0.15,0.41-0.23
				C203.72,72.38,203.14,73.4,203.74,73.85L203.74,73.85z"/>
		</g>
	</g>
	<g>
		<g>
			<path class="st21" d="M204.51,81.88c0-0.08,0-0.16,0-0.24c0-0.76-1.18-0.76-1.18,0c0,0.08,0,0.16,0,0.24
				C203.34,82.64,204.51,82.64,204.51,81.88L204.51,81.88z"/>
		</g>
	</g>
	<g>
		<g>
			<path class="st21" d="M204.04,81.52c0.76,0,0.76-1.18,0-1.18C203.28,80.34,203.28,81.52,204.04,81.52L204.04,81.52z"/>
		</g>
	</g>
	<g>
		<g>
			<path class="st21" d="M174.53,78.26c0.3-0.48,0.3-1.19-0.28-1.46c-0.48-0.22-1.03,0.03-1.17,0.53c-0.21,0.73,0.93,1.04,1.14,0.31
				c-0.24,0.01-0.47,0.01-0.71,0.02C173.12,78.32,174.13,78.91,174.53,78.26L174.53,78.26z"/>
		</g>
	</g>
	<g>
		<g>
			<path class="st21" d="M174.85,87.81c0-0.04,0-0.08,0-0.12c0-0.76-1.18-0.76-1.18,0c0,0.04,0,0.08,0,0.12
				C173.67,88.57,174.85,88.57,174.85,87.81L174.85,87.81z"/>
		</g>
	</g>
	<g>
		<g>
			<path class="st21" d="M180.35,89.62c0.02-0.12,0.04-0.23,0.06-0.35c0.12-0.74-1.01-1.06-1.14-0.31
				c-0.02,0.12-0.04,0.23-0.06,0.35C179.09,90.05,180.22,90.37,180.35,89.62L180.35,89.62z"/>
		</g>
	</g>
	<g>
		<g>
			<path class="st21" d="M179.43,80.84c0.24,0.18,0.58,0.18,0.82,0c0.61-0.44,0.02-1.46-0.59-1.02c0.12,0,0.25,0,0.37,0
				C179.41,79.37,178.82,80.4,179.43,80.84L179.43,80.84z"/>
		</g>
	</g>
	<g>
		<g>
			<path class="st21" d="M184.24,82.64c0.45,0.79,1.58,0.26,1.42-0.58c-0.14-0.74-1.28-0.43-1.14,0.31c0,0.03,0.01,0.05,0.01,0.08
				c0.02-0.15,0.04-0.3,0.06-0.45c0.22,0.02,0.44,0.03,0.66,0.05C184.88,81.39,183.86,81.98,184.24,82.64L184.24,82.64z"/>
		</g>
	</g>
	<g>
		<g>
			<path class="st21" d="M185.25,92.19c0.48,0.07,0.97-0.12,1.05-0.66c0.12-0.74-1.02-1.06-1.14-0.31c0.02-0.03,0.04-0.06,0.06-0.09
				c0.15-0.02,0.3-0.04,0.45-0.06c-0.04-0.01-0.08-0.01-0.12-0.02C184.82,90.95,184.5,92.08,185.25,92.19L185.25,92.19z"/>
		</g>
	</g>
	<g>
		<g>
			<path class="st21" d="M190.52,93.83c1.04,0.05,1.61-1.26,0.78-1.95c-0.58-0.48-1.42,0.35-0.83,0.83
				c0.14,0.11,0.09-0.06,0.05-0.07C189.76,92.61,189.77,93.79,190.52,93.83L190.52,93.83z"/>
		</g>
	</g>
	<g>
		<g>
			<path class="st21" d="M190.26,84.92c0.41,0.15,0.9-0.04,1.08-0.45c0.18-0.42-0.03-0.85-0.51-0.89c-0.4-0.03-0.71,0.16-0.92,0.5
				c-0.41,0.64,0.61,1.23,1.02,0.59c-0.03,0.03-0.06,0.06-0.1,0.09c-0.17-0.3-0.34-0.59-0.51-0.89c0.08-0.03,0.17-0.06,0.25-0.09
				C189.85,83.52,189.55,84.66,190.26,84.92L190.26,84.92z"/>
		</g>
	</g>
	<g>
		<g>
			<path class="st21" d="M195.35,85.73c-0.16,0.04-0.32,0.08-0.48,0.12c-0.74,0.18-0.42,1.32,0.31,1.14
				c0.16-0.04,0.32-0.08,0.48-0.12C196.4,86.69,196.09,85.55,195.35,85.73L195.35,85.73z"/>
		</g>
	</g>
	<g>
		<g>
			<path class="st21" d="M195.26,95.59c0.79-0.05,1.39-0.96,0.87-1.67c-0.44-0.61-1.47-0.02-1.02,0.59c0.02-0.06,0.07-0.1,0.15-0.1
				C194.5,94.46,194.5,95.64,195.26,95.59L195.26,95.59z"/>
		</g>
	</g>
	<g>
		<g>
			<path class="st21" d="M200.07,87.63c-0.04-0.04-0.08-0.08-0.12-0.12c-0.54-0.54-1.37,0.3-0.83,0.83
				c0.04,0.04,0.08,0.08,0.12,0.12C199.77,89,200.61,88.17,200.07,87.63L200.07,87.63z"/>
		</g>
	</g>
	<g>
		<g>
			<path class="st21" d="M199.39,97.02c0.8,0.16,1.47-0.84,0.8-1.43c-0.57-0.5-1.4,0.33-0.83,0.83c0.12-0.18,0.23-0.36,0.35-0.54
				C198.96,95.73,198.64,96.87,199.39,97.02L199.39,97.02z"/>
		</g>
	</g>
	<g>
		<g>
			<path class="st21" d="M203.32,89.65c0.46,0.61,1.47,0.27,1.26-0.54c-0.19-0.73-1.32-0.42-1.14,0.31
				c0.01,0.02,0.01,0.04,0.02,0.06c0.02-0.15,0.04-0.3,0.06-0.45c0.11-0.07,0.23-0.14,0.34-0.21c0.17,0.1,0.34,0.19,0.51,0.29
				c-0.01-0.02-0.02-0.03-0.04-0.05C203.88,88.46,202.86,89.04,203.32,89.65L203.32,89.65z"/>
		</g>
	</g>
	<g>
		<g>
			<path class="st21" d="M204.09,98.25c0.12-0.04,0.24-0.08,0.36-0.12c0.72-0.23,0.41-1.37-0.31-1.14
				c-0.12,0.04-0.24,0.08-0.36,0.12C203.05,97.34,203.36,98.48,204.09,98.25L204.09,98.25z"/>
		</g>
	</g>
	<g>
		<g>
			<path class="st21" d="M173.73,98.28c0.24,0.14,0.49,0.18,0.75,0.09c0.39-0.13,0.62-0.68,0.26-0.98c-0.1-0.09-0.2-0.17-0.3-0.26
				c-0.58-0.49-1.41,0.34-0.83,0.83c0.1,0.09,0.2,0.17,0.3,0.26c0.09-0.33,0.17-0.66,0.26-0.98c0.05,0.01,0.1,0.02,0.16,0.03
				C173.67,96.88,173.08,97.9,173.73,98.28L173.73,98.28z"/>
		</g>
	</g>
	<g>
		<g>
			<path class="st21" d="M174.03,108.19c0.82,0.05,1.11-0.9,0.65-1.46c-0.48-0.59-1.31,0.25-0.83,0.83
				c0.06-0.18,0.12-0.37,0.18-0.55C173.27,106.97,173.28,108.15,174.03,108.19L174.03,108.19z"/>
		</g>
	</g>
	<g>
		<g>
			<path class="st21" d="M179.29,108.86c0.62,0.35,1.34-0.07,1.37-0.78c0.01-0.19-0.11-0.42-0.29-0.51
				c-0.29-0.14-0.56-0.22-0.88-0.18c-0.32,0.04-0.59,0.24-0.59,0.59c0,0.29,0.27,0.63,0.59,0.59c0.1-0.03,0.19-0.03,0.29,0.02
				c-0.1-0.17-0.19-0.34-0.29-0.51c0.14-0.08,0.27-0.16,0.41-0.24C179.22,107.47,178.63,108.49,179.29,108.86L179.29,108.86z"/>
		</g>
	</g>
	<g>
		<g>
			<path class="st21" d="M179.14,99.09c-0.01,0.24,0.04,0.44,0.19,0.63c0.24,0.32,0.61,0.39,0.93,0.12
				c0.08-0.07,0.17-0.14,0.25-0.21c0.58-0.49-0.26-1.32-0.83-0.83c-0.08,0.07-0.17,0.14-0.25,0.21c0.31,0.04,0.62,0.08,0.93,0.12
				c-0.01-0.01-0.02-0.02-0.03-0.04C180.35,98.33,179.17,98.33,179.14,99.09L179.14,99.09z"/>
		</g>
	</g>
	<g>
		<g>
			<path class="st21" d="M184.67,101.53c0.4,0.07,0.65-0.04,0.9-0.36c0.12-0.16,0.1-0.44,0-0.59c-0.37-0.57-1.22-0.73-1.68-0.16
				c-0.47,0.58,0.35,1.42,0.83,0.83c-0.04-0.04-0.1-0.07-0.17-0.08c0-0.2,0-0.4,0-0.59c-0.02,0.02-0.04,0.05-0.06,0.07
				c0.12-0.09,0.23-0.18,0.35-0.27c0.05,0.01,0.09,0.01,0.14,0.02C184.24,100.27,183.92,101.4,184.67,101.53L184.67,101.53z"/>
		</g>
	</g>
	<g>
		<g>
			<path class="st21" d="M185.65,110.46c0.23,0.01,0.44-0.04,0.63-0.18c0.26-0.2,0.38-0.5,0.21-0.81c-0.08-0.14-0.17-0.27-0.3-0.37
				c-0.23-0.18-0.45-0.21-0.71-0.09c-0.27,0.12-0.4,0.33-0.5,0.59c-0.26,0.71,0.88,1.02,1.14,0.31c-0.01,0.04-0.03,0.07-0.04,0.11
				c-0.24-0.03-0.48-0.06-0.71-0.09c0.06,0.03,0.1,0.07,0.12,0.13c0.07-0.27,0.14-0.54,0.21-0.81c-0.01,0.01-0.02,0.01-0.03,0.02
				C184.9,109.24,184.9,110.42,185.65,110.46L185.65,110.46z"/>
		</g>
	</g>
	<g>
		<g>
			<path class="st21" d="M189.43,111.36c0.32,0.42,0.96,0.58,1.28,0.04c0.26-0.44,0-1.04-0.5-1.14c-0.74-0.15-1.06,0.98-0.31,1.14
				c-0.07-0.18-0.15-0.37-0.22-0.55c0.12-0.09,0.23-0.18,0.35-0.27c0.04,0,0.09,0,0.13,0c0.12,0.09,0.23,0.18,0.35,0.27
				c-0.02-0.02-0.04-0.05-0.06-0.07C189.99,110.17,188.97,110.75,189.43,111.36L189.43,111.36z"/>
		</g>
	</g>
	<g>
		<g>
			<path class="st21" d="M189.7,101.58c-0.03,0.27,0.08,0.5,0.27,0.68c0.21,0.2,0.46,0.2,0.71,0.09c0.46-0.2,0.58-0.77,0.33-1.19
				c-0.38-0.65-1.4-0.06-1.02,0.59c0.03-0.14,0.06-0.28,0.09-0.43c0.24,0.03,0.48,0.06,0.71,0.09c0.02,0.05,0.05,0.1,0.07,0.15
				C190.95,100.82,189.77,100.83,189.7,101.58L189.7,101.58z"/>
		</g>
	</g>
	<g>
		<g>
			<path class="st21" d="M195.19,103.12c-0.12-0.04-0.24-0.08-0.36-0.12c-0.72-0.23-1.03,0.9-0.31,1.14
				c0.12,0.04,0.24,0.08,0.36,0.12C195.6,104.49,195.91,103.36,195.19,103.12L195.19,103.12z"/>
		</g>
	</g>
	<g>
		<g>
			<path class="st21" d="M195.32,111.51c-0.08,0.04-0.16,0.08-0.24,0.12c-0.68,0.34-0.08,1.36,0.59,1.02
				c0.08-0.04,0.16-0.08,0.24-0.12C196.59,112.19,196,111.17,195.32,111.51L195.32,111.51z"/>
		</g>
	</g>
	<g>
		<g>
			<path class="st21" d="M199.53,113.2c0.76,0,0.76-1.18,0-1.18C198.78,112.02,198.77,113.2,199.53,113.2L199.53,113.2z"/>
		</g>
	</g>
	<g>
		<g>
			<path class="st21" d="M199.53,113.2c0.76,0,0.76-1.18,0-1.18C198.78,112.02,198.77,113.2,199.53,113.2L199.53,113.2z"/>
		</g>
	</g>
	<g>
		<g>
			<path class="st21" d="M199.53,105.25c0.76,0,0.76-1.18,0-1.18C198.78,104.07,198.77,105.25,199.53,105.25L199.53,105.25z"/>
		</g>
	</g>
	<g>
		<g>
			<path class="st21" d="M203.63,105.43c-0.04,0.04-0.08,0.08-0.12,0.12c-0.54,0.54,0.3,1.37,0.83,0.83
				c0.04-0.04,0.08-0.08,0.12-0.12C205,105.73,204.16,104.89,203.63,105.43L203.63,105.43z"/>
		</g>
	</g>
	<g>
		<g>
			<path class="st21" d="M204.63,113.56c0-0.04,0-0.08,0-0.12c0-0.76-1.18-0.76-1.18,0c0,0.04,0,0.08,0,0.12
				C203.45,114.32,204.63,114.32,204.63,113.56L204.63,113.56z"/>
		</g>
	</g>
	<g>
		<g>
			<path class="st21" d="M152.95,126.14c0.33-0.26,0.51-0.59,0.39-1.02c-0.1-0.38-0.45-0.68-0.85-0.67
				c-0.89,0.03-1.12,1.33-0.35,1.71c0.68,0.33,1.28-0.68,0.59-1.02c-0.13-0.01-0.25-0.01-0.38-0.02
				C151.76,125.58,152.35,126.6,152.95,126.14L152.95,126.14z"/>
		</g>
	</g>
	<g>
		<g>
			<path class="st21" d="M160.58,125.73c-0.54-0.35-1.11-0.04-1.33,0.5c-0.29,0.7,0.85,1.01,1.14,0.31
				c-0.13,0.07-0.26,0.14-0.4,0.21C160.62,127.16,161.21,126.14,160.58,125.73L160.58,125.73z"/>
		</g>
	</g>
	<g>
		<g>
			<path class="st21" d="M166.96,127.26c-0.05-0.11-0.1-0.22-0.14-0.32c-0.28,0.7,0.85,1.01,1.14,0.31c0.16-0.39-0.03-0.82-0.4-1.01
				C166.88,125.9,166.28,126.91,166.96,127.26L166.96,127.26z"/>
		</g>
	</g>
	<g>
		<g>
			<path class="st21" d="M173.72,128.2c0.08,0.04,0.16,0.08,0.24,0.12c0.68,0.34,1.27-0.68,0.59-1.02
				c-0.08-0.04-0.16-0.08-0.24-0.12C173.64,126.84,173.04,127.86,173.72,128.2L173.72,128.2z"/>
		</g>
	</g>
	<g>
		<g>
			<path class="st21" d="M180.83,128.46c0.04-0.08,0.08-0.16,0.12-0.24c0.34-0.68-0.68-1.27-1.02-0.59
				c-0.04,0.08-0.08,0.16-0.12,0.24C179.47,128.54,180.49,129.14,180.83,128.46L180.83,128.46z"/>
		</g>
	</g>
	<g>
		<g>
			<path class="st21" d="M179.6,128.39c0.76,0,0.76-1.18,0-1.18C178.84,127.21,178.84,128.39,179.6,128.39L179.6,128.39z"/>
		</g>
	</g>
	<g>
		<g>
			<path class="st21" d="M184.68,128.43c0.31,0.33,0.69,0.34,1.08,0.17c0.7-0.3,0.1-1.31-0.59-1.02c0.12,0,0.23,0.01,0.35,0.01
				C184.99,127.04,184.16,127.88,184.68,128.43L184.68,128.43z"/>
		</g>
	</g>
	<g>
		<g>
			<path class="st21" d="M191.04,128.01c-0.24-0.18-0.58-0.18-0.82,0c-0.61,0.44-0.02,1.46,0.59,1.02c-0.12,0-0.25,0-0.37,0
				C191.06,129.47,191.65,128.45,191.04,128.01L191.04,128.01z"/>
		</g>
	</g>
	<g>
		<g>
			<path class="st21" d="M195.86,128.75c-0.04,0-0.08,0-0.12,0c-0.76,0-0.76,1.18,0,1.18c0.04,0,0.08,0,0.12,0
				C196.61,129.93,196.62,128.75,195.86,128.75L195.86,128.75z"/>
		</g>
	</g>
	<g>
		<g>
			<path class="st21" d="M199.06,128.87c0,0.04,0,0.08,0,0.12c0,0.76,1.18,0.76,1.18,0c0-0.04,0-0.08,0-0.12
				C200.24,128.11,199.06,128.11,199.06,128.87L199.06,128.87z"/>
		</g>
	</g>
	<g>
		<g>
			<path class="st21" d="M203.69,129.93c0.76,0,0.76-1.18,0-1.18C202.93,128.75,202.93,129.93,203.69,129.93L203.69,129.93z"/>
		</g>
	</g>
	<g>
		<g>
			<path class="st21" d="M173.97,117.77c0.01,0.01,0.03,0.02,0.04,0.02c-0.1-0.17-0.19-0.34-0.29-0.51c0,0.02,0,0.04,0,0.05
				c0.1-0.17,0.19-0.34,0.29-0.51c-0.01,0.01-0.03,0.01-0.04,0.02c-0.69,0.32-0.09,1.33,0.59,1.02c0.01-0.01,0.03-0.01,0.04-0.02
				c0.19-0.09,0.28-0.31,0.29-0.51c0-0.02,0-0.04,0-0.05c0.01-0.21-0.12-0.41-0.29-0.51c-0.01-0.01-0.03-0.02-0.04-0.02
				C173.91,116.36,173.32,117.38,173.97,117.77L173.97,117.77z"/>
		</g>
	</g>
	<g>
		<g>
			<path class="st21" d="M179.84,118.9c0.04,0,0.08,0,0.12,0c0.76,0,0.76-1.18,0-1.18c-0.04,0-0.08,0-0.12,0
				C179.08,117.72,179.08,118.9,179.84,118.9L179.84,118.9z"/>
		</g>
	</g>
	<g>
		<g>
			<path class="st21" d="M179.96,118.78c0.76,0,0.76-1.18,0-1.18C179.2,117.6,179.2,118.78,179.96,118.78L179.96,118.78z"/>
		</g>
	</g>
	<g>
		<g>
			<path class="st21" d="M184.55,119.08c0.04,0.08,0.08,0.16,0.12,0.24c0.34,0.68,1.36,0.08,1.02-0.59
				c-0.04-0.08-0.08-0.16-0.12-0.24C185.23,117.8,184.21,118.4,184.55,119.08L184.55,119.08z"/>
		</g>
	</g>
	<g>
		<g>
			<path class="st21" d="M190.16,120.43c0.34,0.04,0.62-0.03,0.92-0.19c0.36-0.19,0.35-0.65,0.12-0.93c-0.46-0.54-1.35-0.54-1.81,0
				c-0.48,0.58,0.35,1.42,0.83,0.83c0.07-0.09,0.07-0.09,0.14,0c0.04-0.31,0.08-0.62,0.12-0.93c-0.1,0.06-0.21,0.07-0.32,0.03
				c-0.32-0.04-0.59,0.3-0.59,0.59C189.57,120.19,189.85,120.39,190.16,120.43L190.16,120.43z"/>
		</g>
	</g>
	<g>
		<g>
			<path class="st21" d="M194.91,121.03c0.76,0,0.76-1.18,0-1.18C194.15,119.85,194.15,121.03,194.91,121.03L194.91,121.03z"/>
		</g>
	</g>
	<g>
		<g>
			<path class="st21" d="M200.23,121.27c0.06-0.46-0.25-0.78-0.65-0.93c-0.72-0.25-1.03,0.89-0.31,1.14
				c-0.07-0.07-0.14-0.14-0.21-0.21c-0.04,0.32,0.3,0.59,0.59,0.59C199.99,121.86,200.18,121.58,200.23,121.27L200.23,121.27z"/>
		</g>
	</g>
	<g>
		<g>
			<path class="st21" d="M144.3,135.85c-0.02,0.02-0.04,0.04-0.07,0.06c-0.16,0.14-0.19,0.38-0.15,0.57
				c0.01,0.03,0.01,0.06,0.02,0.08c0.05,0.27,0.32,0.41,0.57,0.43c0.03,0,0.06,0,0.09,0.01c0.21,0.02,0.4-0.13,0.51-0.29
				c0.02-0.02,0.03-0.05,0.05-0.07c0.42-0.64-0.6-1.23-1.02-0.59c-0.02,0.02-0.03,0.05-0.05,0.07c0.17-0.1,0.34-0.19,0.51-0.29
				c-0.03,0-0.06,0-0.09-0.01c0.19,0.14,0.38,0.29,0.57,0.43c-0.01-0.03-0.01-0.06-0.02-0.08c-0.05,0.19-0.1,0.38-0.15,0.57
				c0.02-0.02,0.04-0.04,0.07-0.06C145.71,136.2,144.88,135.36,144.3,135.85L144.3,135.85z"/>
		</g>
	</g>
	<g>
		<g>
			<path class="st21" d="M144.11,148.14c-0.09,0.53,0.29,0.98,0.85,0.88c0.67-0.12,0.68-0.87,0.4-1.35
				c-0.38-0.66-1.4-0.06-1.02,0.59c0.04-0.08,0.08-0.16,0.13-0.24c0.14-0.06,0.28-0.12,0.42-0.17c0.07,0.03,0.13,0.07,0.2,0.1
				c0.05,0.19,0.1,0.38,0.15,0.57c0-0.02,0.01-0.05,0.01-0.07C145.37,147.72,144.23,147.4,144.11,148.14L144.11,148.14z"/>
		</g>
	</g>
	<g>
		<g>
			<path class="st21" d="M152.37,137.33c0.71,0.35,1.41-0.35,1.05-1.05c-0.34-0.68-1.36-0.08-1.02,0.59
				c0.01,0.02,0.02,0.05,0.04,0.07c-0.02-0.15-0.04-0.3-0.06-0.45c0.07-0.07,0.13-0.13,0.2-0.2c0.15,0.02,0.3,0.04,0.45,0.06
				c-0.02-0.01-0.05-0.02-0.07-0.04C152.28,135.97,151.69,136.99,152.37,137.33L152.37,137.33z"/>
		</g>
	</g>
	<g>
		<g>
			<path class="st21" d="M153.56,148.5c0.44-0.52,0.26-1.21-0.38-1.44c-0.71-0.26-1.02,0.88-0.31,1.14
				c-0.05-0.18-0.09-0.35-0.14-0.53C152.23,148.24,153.06,149.08,153.56,148.5L153.56,148.5z"/>
		</g>
	</g>
	<g>
		<g>
			<path class="st21" d="M159.85,137.35c0.24,0.3,0.71,0.37,1.02,0.13c0.34-0.26,0.33-0.74,0.13-1.07c-0.38-0.66-1.4-0.06-1.02,0.59
				c-0.01-0.05-0.03-0.09-0.04-0.14c0.14-0.14,0.27-0.27,0.41-0.41c0.11,0.02,0.22,0.04,0.33,0.07
				C160.21,135.92,159.38,136.76,159.85,137.35L159.85,137.35z"/>
		</g>
	</g>
	<g>
		<g>
			<path class="st21" d="M160.88,148.23c0.66-0.19,1-1.09,0.44-1.6c-0.63-0.57-1.52-0.01-1.55,0.74c-0.04,0.76,1.14,0.76,1.18,0
				c-0.51-0.01-0.64-0.11-0.38-0.28C159.84,147.3,160.15,148.44,160.88,148.23L160.88,148.23z"/>
		</g>
	</g>
	<g>
		<g>
			<path class="st21" d="M167.43,146.75c-0.24-0.18-0.58-0.18-0.82,0c-0.61,0.44-0.02,1.46,0.59,1.02c-0.12,0-0.25,0-0.37,0
				C167.45,148.22,168.04,147.2,167.43,146.75L167.43,146.75z"/>
		</g>
	</g>
	<g>
		<g>
			<path class="st21" d="M167.62,137.76c0.76,0,0.76-1.18,0-1.18C166.86,136.58,166.86,137.76,167.62,137.76L167.62,137.76z"/>
		</g>
	</g>
	<g>
		<g>
			<path class="st21" d="M173.71,137.48c0.08,0.08,0.16,0.16,0.23,0.24c0.53,0.55,1.36-0.29,0.83-0.83
				c-0.08-0.08-0.16-0.16-0.23-0.24C174.02,136.1,173.18,136.94,173.71,137.48L173.71,137.48z"/>
		</g>
	</g>
	<g>
		<g>
			<path class="st21" d="M173.61,147.44c0.42,0.4,1.21,0.27,1.31-0.37c0.11-0.74-1.02-1.06-1.14-0.31c0.1-0.09,0.2-0.17,0.31-0.26
				c0.14,0.06,0.28,0.12,0.42,0.17c-0.02-0.02-0.04-0.04-0.07-0.06C173.89,146.08,173.06,146.91,173.61,147.44L173.61,147.44z"/>
		</g>
	</g>
	<g>
		<g>
			<path class="st21" d="M180.24,147.5c0.12-0.04,0.24-0.08,0.36-0.12c0.72-0.24,0.41-1.38-0.31-1.14
				c-0.12,0.04-0.24,0.08-0.36,0.12C179.21,146.6,179.52,147.74,180.24,147.5L180.24,147.5z"/>
		</g>
	</g>
	<g>
		<g>
			<path class="st21" d="M180.08,138.11c0.76,0.08,1.29-0.88,0.78-1.47c-0.49-0.57-1.35-0.26-1.57,0.38
				c-0.25,0.72,0.89,1.03,1.14,0.31c-0.12-0.13-0.24-0.27-0.35-0.4C179.32,136.86,179.33,138.03,180.08,138.11L180.08,138.11z"/>
		</g>
	</g>
	<g>
		<g>
			<path class="st21" d="M185,137.95c0.04,0.04,0.08,0.08,0.12,0.12c0.54,0.54,1.37-0.3,0.83-0.83c-0.04-0.04-0.08-0.08-0.12-0.12
				C185.29,136.57,184.46,137.41,185,137.95L185,137.95z"/>
		</g>
	</g>
	<g>
		<g>
			<path class="st21" d="M185.12,146.96c0.38,0.31,0.93,0.38,1.27-0.05c0.47-0.59-0.25-1.34-0.83-0.83
				c-0.11,0.09-0.22,0.19-0.33,0.28c-0.58,0.5,0.26,1.33,0.83,0.83c0.11-0.09,0.22-0.19,0.33-0.28c-0.28-0.28-0.56-0.56-0.83-0.83
				c0.13,0.02,0.27,0.03,0.4,0.05C185.37,145.65,184.53,146.48,185.12,146.96L185.12,146.96z"/>
		</g>
	</g>
	<g>
		<g>
			<path class="st21" d="M190.63,147.02c0.04,0,0.08,0,0.12,0c0.76,0,0.76-1.18,0-1.18c-0.04,0-0.08,0-0.12,0
				C189.88,145.84,189.88,147.02,190.63,147.02L190.63,147.02z"/>
		</g>
	</g>
	<g>
		<g>
			<path class="st21" d="M190.4,138c0.76,0,0.76-1.18,0-1.18C189.64,136.82,189.64,138,190.4,138L190.4,138z"/>
		</g>
	</g>
	<g>
		<g>
			<path class="st21" d="M145.23,160.49c0.43-0.18,0.71-0.65,0.38-1.07c-0.29-0.38-0.92-0.31-1.12,0.12
				c-0.32,0.68,0.69,1.28,1.02,0.59c0.01-0.02,0.02-0.04,0.03-0.06c-0.12,0.09-0.23,0.18-0.35,0.27c-0.06,0-0.13,0-0.19,0
				c-0.14-0.14-0.27-0.27-0.41-0.41c0.01,0.02,0.01,0.04,0.02,0.06c0.02-0.15,0.04-0.3,0.06-0.45c-0.01,0.02-0.02,0.04-0.03,0.06
				c0.12-0.09,0.23-0.18,0.35-0.27c-0.02,0.01-0.04,0.02-0.06,0.02C144.22,159.64,144.53,160.78,145.23,160.49L145.23,160.49z"/>
		</g>
	</g>
	<g>
		<g>
			<path class="st21" d="M145.55,172.39c1.31-0.08,1.31-1.86,0-1.95c-0.76-0.05-0.75,1.13,0,1.18c0-0.14,0-0.27,0-0.41
				C144.79,171.26,144.79,172.44,145.55,172.39L145.55,172.39z"/>
		</g>
	</g>
	<g>
		<g>
			<path class="st21" d="M153.44,170.81c0.04-0.04,0.08-0.08,0.12-0.12c0.54-0.54-0.3-1.37-0.83-0.83
				c-0.04,0.04-0.08,0.08-0.12,0.12C152.07,170.52,152.9,171.35,153.44,170.81L153.44,170.81z"/>
		</g>
	</g>
	<g>
		<g>
			<path class="st21" d="M152.7,159.32c0.08,0.08,0.16,0.15,0.24,0.23c0.55,0.52,1.38-0.31,0.83-0.83
				c-0.08-0.08-0.16-0.15-0.24-0.23C152.99,157.97,152.15,158.8,152.7,159.32L152.7,159.32z"/>
		</g>
	</g>
	<g>
		<g>
			<path class="st21" d="M160.81,158.98c0.68,0.19,1.26-0.7,0.68-1.19c-0.58-0.49-1.41,0.34-0.83,0.83
				c0.02,0.01,0.04,0.03,0.05,0.04c-0.06-0.14-0.12-0.28-0.17-0.42c0.07-0.11,0.13-0.22,0.2-0.33c0.15-0.02,0.3-0.04,0.45-0.06
				c-0.02-0.01-0.04-0.01-0.07-0.02C160.4,157.64,160.08,158.77,160.81,158.98L160.81,158.98z"/>
		</g>
	</g>
	<g>
		<g>
			<path class="st21" d="M161.13,169.56c0.53-0.34,0.6-1.05,0.15-1.51c-0.54-0.55-1.34-0.22-1.8,0.26
				c-0.52,0.55,0.31,1.39,0.83,0.83c0.06-0.09,0.14-0.15,0.24-0.2c-0.21-0.07-0.21-0.2-0.02-0.4
				C159.89,168.95,160.49,169.97,161.13,169.56L161.13,169.56z"/>
		</g>
	</g>
	<g>
		<g>
			<path class="st21" d="M166.9,168.73c0.33,0.04,0.6-0.04,0.89-0.19c0.67-0.36,0.07-1.38-0.59-1.02c-0.09,0.06-0.19,0.07-0.3,0.03
				C166.15,167.46,166.16,168.64,166.9,168.73L166.9,168.73z"/>
		</g>
	</g>
	<g>
		<g>
			<path class="st21" d="M167.15,157.46c0,0.04,0,0.08,0,0.12c0,0.76,1.18,0.76,1.18,0c0-0.04,0-0.08,0-0.12
				C168.32,156.7,167.15,156.7,167.15,157.46L167.15,157.46z"/>
		</g>
	</g>
	<g>
		<g>
			<path class="st21" d="M173.61,157.52c0.04,0.04,0.08,0.08,0.12,0.12c0.54,0.54,1.37-0.3,0.83-0.83
				c-0.04-0.04-0.08-0.08-0.12-0.12C173.9,156.15,173.07,156.99,173.61,157.52L173.61,157.52z"/>
		</g>
	</g>
	<g>
		<g>
			<path class="st21" d="M174.95,167c0.04-0.12,0.08-0.24,0.12-0.36c0.25-0.72-0.89-1.03-1.14-0.31c-0.04,0.12-0.08,0.24-0.12,0.36
				C173.57,167.4,174.71,167.71,174.95,167L174.95,167z"/>
		</g>
	</g>
	<g>
		<g>
			<path class="st21" d="M174.14,166.71c0.76,0,0.76-1.18,0-1.18C173.38,165.54,173.38,166.71,174.14,166.71L174.14,166.71z"/>
		</g>
	</g>
	<g>
		<g>
			<path class="st21" d="M180.49,157.12c0.41-0.26,0.46-0.87,0-1.11c-0.67-0.36-1.26,0.66-0.59,1.02c0.01,0.01,0.03,0.01,0.04,0.02
				c-0.1-0.17-0.19-0.34-0.29-0.51c0,0.02,0,0.03,0,0.05c0.1-0.17,0.19-0.34,0.29-0.51c-0.01,0.01-0.03,0.02-0.04,0.02
				C179.26,156.51,179.85,157.53,180.49,157.12L180.49,157.12z"/>
		</g>
	</g>
	<g>
		<g>
			<path class="st21" d="M180.43,165.77c0-0.08,0-0.16,0-0.24c0-0.76-1.18-0.76-1.18,0c0,0.08,0,0.16,0,0.24
				C179.25,166.53,180.43,166.53,180.43,165.77L180.43,165.77z"/>
		</g>
	</g>
	<g>
		<g>
			<path class="st21" d="M178.89,165.41c0,0.08,0,0.16,0,0.24c0,0.76,1.18,0.76,1.18,0c0-0.08,0-0.16,0-0.24
				C180.07,164.65,178.89,164.65,178.89,165.41L178.89,165.41z"/>
		</g>
	</g>
	<g>
		<g>
			<path class="st21" d="M185.65,165.29c0.76,0,0.76-1.18,0-1.18C184.89,164.11,184.89,165.29,185.65,165.29L185.65,165.29z"/>
		</g>
	</g>
	<g>
		<g>
			<path class="st21" d="M184.71,155.68c0,0.08,0,0.16,0,0.24c0,0.76,1.18,0.76,1.18,0c0-0.08,0-0.16,0-0.24
				C185.88,154.92,184.71,154.92,184.71,155.68L184.71,155.68z"/>
		</g>
	</g>
	<g>
		<g>
			<path class="st21" d="M190.19,155.24c0.04,0.12,0.08,0.24,0.12,0.36c0.24,0.71,1.38,0.41,1.14-0.31
				c-0.04-0.12-0.08-0.24-0.12-0.36C191.09,154.22,189.95,154.52,190.19,155.24L190.19,155.24z"/>
		</g>
	</g>
	<g>
		<g>
			<path class="st21" d="M190.4,164.58c0,0.08,0,0.16,0,0.24c0,0.76,1.18,0.76,1.18,0c0-0.08,0-0.16,0-0.24
				C191.58,163.82,190.4,163.82,190.4,164.58L190.4,164.58z"/>
		</g>
	</g>
	<g>
		<g>
			<path class="st21" d="M145.58,182.66c-0.12-0.04-0.24-0.08-0.36-0.12c-0.72-0.23-1.03,0.9-0.31,1.14
				c0.12,0.04,0.24,0.08,0.36,0.12C145.99,184.03,146.3,182.89,145.58,182.66L145.58,182.66z"/>
		</g>
	</g>
	<g>
		<g>
			<path class="st21" d="M144.76,195.48c0.75,0.39,1.53-0.39,1.14-1.14c-0.36-0.67-1.37-0.08-1.02,0.59
				c0.16-0.16,0.32-0.32,0.48-0.47C144.68,194.11,144.09,195.13,144.76,195.48L144.76,195.48z"/>
		</g>
	</g>
	<g>
		<g>
			<path class="st21" d="M145.96,207.12c0.51-0.44,0.27-1.31-0.38-1.46c-0.74-0.17-1.05,0.97-0.31,1.14
				c-0.05-0.17-0.1-0.34-0.14-0.51C144.55,206.78,145.39,207.61,145.96,207.12L145.96,207.12z"/>
		</g>
	</g>
	<g>
		<g>
			<path class="st21" d="M153.1,204.5c0.37,0.38,1.05,0.37,1.34-0.12c0.3-0.5-0.04-1.08-0.55-1.23c-0.73-0.22-1.04,0.92-0.31,1.14
				c0.12-0.21,0.24-0.41,0.35-0.62C153.4,203.12,152.57,203.96,153.1,204.5L153.1,204.5z"/>
		</g>
	</g>
	<g>
		<g>
			<path class="st21" d="M152.82,192.5c0.2,0.49,0.61,0.82,1.17,0.78c0.55-0.04,0.95-0.52,0.94-1.07c-0.02-1.3-1.95-1.41-2.12-0.14
				c-0.04,0.32,0.08,0.63,0.41,0.72c0.27,0.08,0.68-0.1,0.72-0.41c0-0.1-0.06-0.16-0.19-0.17c0.08-0.13,0.15-0.14,0.21-0.03
				C153.68,191.49,152.54,191.8,152.82,192.5L152.82,192.5z"/>
		</g>
	</g>
	<g>
		<g>
			<path class="st21" d="M152.85,181.7c0.35,0.17,0.59,0.16,0.95,0.01c0.69-0.3,0.09-1.32-0.59-1.02c0.08,0,0.16-0.01,0.24-0.01
				C152.76,180.34,152.17,181.36,152.85,181.7L152.85,181.7z"/>
		</g>
	</g>
	<g>
		<g>
			<path class="st21" d="M160.67,179.14c-0.08,0.04-0.16,0.08-0.24,0.12c-0.68,0.34-0.08,1.36,0.59,1.02
				c0.08-0.04,0.16-0.08,0.24-0.12C161.95,179.82,161.35,178.8,160.67,179.14L160.67,179.14z"/>
		</g>
	</g>
	<g>
		<g>
			<path class="st21" d="M161.83,190.58c0.07-0.82-0.95-1.17-1.51-0.66c-0.56,0.52,0.28,1.35,0.83,0.83
				c-0.17-0.06-0.34-0.12-0.51-0.17C160.59,191.33,161.77,191.33,161.83,190.58L161.83,190.58z"/>
		</g>
	</g>
	<g>
		<g>
			<path class="st21" d="M160.69,201.53c0.41,0.42,1.18,0.34,1.4-0.24c0.26-0.69-0.4-1.19-1.03-1.08c-0.75,0.13-0.43,1.27,0.31,1.14
				c0.05-0.21,0.1-0.43,0.16-0.64C160.99,200.16,160.16,200.99,160.69,201.53L160.69,201.53z"/>
		</g>
	</g>
	<g>
		<g>
			<path class="st21" d="M167.32,199.27c0.51,0.38,1.35,0.05,1.44-0.59c0.11-0.74-1.03-1.06-1.14-0.31c0.1-0.04,0.2-0.08,0.29-0.11
				C167.3,197.8,166.71,198.82,167.32,199.27L167.32,199.27z"/>
		</g>
	</g>
	<g>
		<g>
			<path class="st21" d="M167.62,189.14c0.04,0,0.08,0,0.12,0c0.76,0,0.76-1.18,0-1.18c-0.04,0-0.08,0-0.12,0
				C166.86,187.96,166.86,189.14,167.62,189.14L167.62,189.14z"/>
		</g>
	</g>
	<g>
		<g>
			<path class="st21" d="M167.18,178.43c0.08,0.08,0.16,0.15,0.24,0.23c0.55,0.52,1.38-0.31,0.83-0.83
				c-0.08-0.08-0.16-0.15-0.24-0.23C167.46,177.07,166.63,177.9,167.18,178.43L167.18,178.43z"/>
		</g>
	</g>
	<g>
		<g>
			<path class="st21" d="M174.21,177.19c0.24,0.18,0.58,0.18,0.82,0c0.61-0.44,0.02-1.46-0.59-1.02c0.12,0,0.25,0,0.37,0
				C174.19,175.72,173.6,176.74,174.21,177.19L174.21,177.19z"/>
		</g>
	</g>
	<g>
		<g>
			<path class="st21" d="M174.02,187.13c0.13,0,0.26-0.01,0.38-0.01c0.26-0.01,0.5-0.18,0.57-0.43c0.08-0.29,0.04-0.53-0.1-0.8
				c-0.35-0.67-1.37-0.08-1.02,0.59c-0.01-0.04-0.02-0.07-0.02-0.11c0.19-0.14,0.38-0.29,0.57-0.43c-0.13,0-0.26,0.01-0.38,0.01
				C173.27,185.97,173.26,187.15,174.02,187.13L174.02,187.13z"/>
		</g>
	</g>
	<g>
		<g>
			<path class="st21" d="M179.78,175.91c0.04,0.04,0.08,0.08,0.12,0.12c0.54,0.54,1.37-0.3,0.83-0.83
				c-0.04-0.04-0.08-0.08-0.12-0.12C180.07,174.54,179.24,175.38,179.78,175.91L179.78,175.91z"/>
		</g>
	</g>
	<g>
		<g>
			<path class="st21" d="M179.72,184.75c0,0.04,0,0.08,0,0.12c0,0.76,1.18,0.76,1.18,0c0-0.04,0-0.08,0-0.12
				C180.9,183.99,179.72,183.99,179.72,184.75L179.72,184.75z"/>
		</g>
	</g>
	<g>
		<g>
			<path class="st21" d="M186.6,183.92c0.04,0,0.08,0,0.12,0c0.76,0,0.76-1.18,0-1.18c-0.04,0-0.08,0-0.12,0
				C185.84,182.74,185.84,183.92,186.6,183.92L186.6,183.92z"/>
		</g>
	</g>
	<g>
		<g>
			<path class="st21" d="M185.47,174.85c0.04,0.04,0.08,0.08,0.12,0.12c0.54,0.54,1.37-0.3,0.83-0.83
				c-0.04-0.04-0.08-0.08-0.12-0.12C185.77,173.48,184.93,174.31,185.47,174.85L185.47,174.85z"/>
		</g>
	</g>
	<g>
		<g>
			<path class="st21" d="M190.18,173.13c-0.03,0.29,0.08,0.55,0.3,0.74c0.15,0.13,0.37,0.23,0.57,0.15
				c0.34-0.12,0.49-0.29,0.62-0.62c0.27-0.71-0.87-1.01-1.14-0.31c0.07-0.07,0.13-0.14,0.2-0.2c0.19,0.05,0.38,0.1,0.57,0.15
				c0.01,0.03,0.03,0.06,0.04,0.09C191.43,172.38,190.25,172.38,190.18,173.13L190.18,173.13z"/>
		</g>
	</g>
	<g>
		<g>
			<path class="st21" d="M191.11,182.73c0.76,0,0.76-1.18,0-1.18C190.35,181.55,190.35,182.73,191.11,182.73L191.11,182.73z"/>
		</g>
	</g>
	<g>
		<g>
			<path class="st21" d="M174.91,196.8c0.04-0.04,0.08-0.08,0.12-0.12c0.54-0.54-0.3-1.37-0.83-0.83c-0.04,0.04-0.08,0.08-0.12,0.12
				C173.54,196.5,174.38,197.34,174.91,196.8L174.91,196.8z"/>
		</g>
	</g>
	<g>
		<g>
			<path class="st21" d="M180.59,195.02c0.08-0.12,0.16-0.24,0.24-0.36c0.42-0.63-0.6-1.22-1.02-0.59
				c-0.08,0.12-0.16,0.24-0.24,0.36C179.15,195.06,180.17,195.65,180.59,195.02L180.59,195.02z"/>
		</g>
	</g>
	<g>
		<g>
			<path class="st21" d="M184.77,193.33c0.24,0.18,0.58,0.18,0.82,0c0.61-0.44,0.02-1.46-0.59-1.02c0.12,0,0.25,0,0.37,0
				C184.75,191.86,184.16,192.88,184.77,193.33L184.77,193.33z"/>
		</g>
	</g>
	<g>
		<g>
			<path class="st21" d="M185.41,193.29c0.76,0,0.76-1.18,0-1.18C184.66,192.11,184.65,193.29,185.41,193.29L185.41,193.29z"/>
		</g>
	</g>
	<g>
		<g>
			<path class="st21" d="M189.77,191.34c0.04,0.08,0.08,0.16,0.12,0.24c0.34,0.68,1.36,0.08,1.02-0.59
				c-0.04-0.08-0.08-0.16-0.12-0.24C190.45,190.07,189.43,190.66,189.77,191.34L189.77,191.34z"/>
		</g>
	</g>
	<g>
		<g>
			<path class="st21" d="M173.63,206.06c0.08,0.12,0.16,0.24,0.24,0.36c0.42,0.63,1.44,0.04,1.02-0.59
				c-0.08-0.12-0.16-0.24-0.24-0.36C174.23,204.83,173.21,205.42,173.63,206.06L173.63,206.06z"/>
		</g>
	</g>
	<g>
		<g>
			<path class="st21" d="M179.3,204.48c0.08,0.04,0.16,0.08,0.24,0.12c0.68,0.34,1.27-0.68,0.59-1.02
				c-0.08-0.04-0.16-0.08-0.24-0.12C179.22,203.13,178.62,204.14,179.3,204.48L179.3,204.48z"/>
		</g>
	</g>
	<g>
		<g>
			<path class="st21" d="M185.18,201.6c0,0.04,0,0.08,0,0.12c0,0.76,1.18,0.76,1.18,0c0-0.04,0-0.08,0-0.12
				C186.36,200.84,185.18,200.84,185.18,201.6L185.18,201.6z"/>
		</g>
	</g>
	<g>
		<g>
			<path class="st21" d="M189.74,200.48c0.04,0.04,0.08,0.08,0.12,0.12c0.54,0.54,1.37-0.3,0.83-0.83
				c-0.04-0.04-0.08-0.08-0.12-0.12C190.04,199.11,189.21,199.94,189.74,200.48L189.74,200.48z"/>
		</g>
	</g>
	<g>
		<g>
			<path class="st21" d="M155,123.7c0.53,12.99,1.07,25.98,1.6,38.96c0.53,12.8,1.78,25.83,0.99,38.63c-0.05,0.76,1.13,0.75,1.18,0
				c0.79-12.81-0.47-25.83-0.99-38.63c-0.53-12.99-1.07-25.98-1.6-38.96C156.15,122.95,154.97,122.94,155,123.7L155,123.7z"/>
		</g>
	</g>
	<g>
		<g>
			<path class="st21" d="M170.11,125.48c0.73,13.59-0.56,27.18-0.15,40.77c0.17,5.83,0.75,11.61,0.75,17.45
				c0.01,5.51-0.17,11.02-0.24,16.53c-0.01,0.48,0.67,0.81,1.01,0.42c0.02-0.02,0.03-0.04,0.05-0.05c0.49-0.57-0.34-1.41-0.83-0.83
				c-0.03,0.04-0.06,0.07-0.09,0.11c-0.49,0.57,0.34,1.41,0.83,0.83c0.02-0.02,0.03-0.04,0.05-0.05c0.49-0.57-0.34-1.41-0.83-0.83
				c-0.02,0.02-0.03,0.04-0.05,0.05c0.28,0.28,0.56,0.56,0.83,0.83c0.03-0.04,0.06-0.07,0.09-0.11c-0.28-0.28-0.56-0.56-0.83-0.83
				c-0.02,0.02-0.03,0.04-0.05,0.05c0.34,0.14,0.67,0.28,1.01,0.42c0.07-5.51,0.25-11.02,0.24-16.53
				c-0.01-5.84-0.57-11.62-0.75-17.45c-0.41-13.59,0.88-27.18,0.15-40.77C171.25,124.73,170.07,124.73,170.11,125.48L170.11,125.48z
				"/>
		</g>
	</g>
	<g>
		<g>
			<path class="st21" d="M181.8,41.82c1.32,7.78,0.92,15.65,0.45,23.49c-0.23,3.82-0.49,7.65-0.52,11.48
				c-0.03,3.76,0.36,7.49,0.3,11.26c-0.05,3.4,0.34,6.77,0.25,10.18c-0.1,3.7-0.44,7.38-0.55,11.08
				c-0.23,7.76,0.04,15.52,0.14,23.28c0.01,0.76,1.19,0.76,1.18,0c-0.11-7.92-0.38-15.84-0.13-23.76c0.12-3.69,0.47-7.36,0.55-11.05
				c0.07-3.54-0.32-7.05-0.24-10.58c0.09-3.81-0.38-7.58-0.31-11.4c0.07-3.82,0.34-7.63,0.56-11.44c0.46-7.64,0.74-15.28-0.55-22.85
				C182.81,40.76,181.68,41.08,181.8,41.82L181.8,41.82z"/>
		</g>
	</g>
	<g>
		<g>
			<path class="st21" d="M192.23,48.96c1,13.92-0.45,27.81-0.61,41.73c-0.04,3.39,0,6.79,0.18,10.18c0.18,3.4,0.71,6.81,0.55,10.22
				c-0.15,3.32-0.76,6.6-0.98,9.91c-0.23,3.45-0.22,6.9-0.02,10.35c0.04,0.75,1.22,0.76,1.18,0c-0.38-6.72,0.59-13.15,0.98-19.82
				c0.2-3.4-0.31-6.79-0.5-10.18c-0.2-3.55-0.25-7.11-0.21-10.66c0.15-13.92,1.62-27.81,0.61-41.73
				C193.36,48.21,192.18,48.21,192.23,48.96L192.23,48.96z"/>
		</g>
	</g>
	<g>
		<g>
			<path class="st21" d="M201.2,54.64c2.43,12.61-0.33,25.68-0.25,38.4c0.08,12.89,1.24,25.77,0.58,38.66
				c-0.04,0.76,1.14,0.76,1.18,0c0.67-13.22-0.56-26.42-0.59-39.64c-0.02-12.53,2.62-25.31,0.22-37.74
				C202.19,53.58,201.05,53.9,201.2,54.64L201.2,54.64z"/>
		</g>
	</g>
	<g>
		<g>
			<path class="st21" d="M182.13,133.15c-0.82,18.5-0.91,37.01-0.27,55.52c0.03,0.76,1.21,0.76,1.18,0
				c-0.64-18.5-0.55-37.02,0.27-55.52C183.35,132.39,182.17,132.39,182.13,133.15L182.13,133.15z"/>
		</g>
	</g>
	<g>
		<g>
			<path class="st21" d="M182.02,190.63c-0.3,17.8,0.02,35.61,0.97,53.39c0.04,0.75,1.22,0.76,1.18,0
				c-0.95-17.78-1.27-35.59-0.97-53.39C183.22,189.87,182.04,189.87,182.02,190.63L182.02,190.63z"/>
		</g>
	</g>
	<g>
		<g>
			<path class="st21" d="M173.9,226.63c0.06,0,0.12,0,0.18,0c0.76,0,0.76-1.18,0-1.18c-0.06,0-0.12,0-0.18,0
				C173.15,225.46,173.14,226.63,173.9,226.63L173.9,226.63z"/>
		</g>
	</g>
	<g>
		<g>
			<path class="st21" d="M174.38,216.37c-0.12,0.12-0.24,0.24-0.36,0.36c-0.54,0.54,0.3,1.37,0.83,0.83
				c0.12-0.12,0.24-0.24,0.36-0.36C175.75,216.67,174.91,215.84,174.38,216.37L174.38,216.37z"/>
		</g>
	</g>
	<g>
		<g>
			<path class="st21" d="M173.92,237.56c0.84,0.06,1.49-0.8,1.24-1.6c-0.23-0.72-1.37-0.41-1.14,0.31c0.03,0.09,0.01,0.12-0.1,0.11
				C173.17,236.33,173.17,237.51,173.92,237.56L173.92,237.56z"/>
		</g>
	</g>
	<g>
		<g>
			<path class="st21" d="M174.62,246.75c0.76,0,0.76-1.18,0-1.18C173.86,245.57,173.86,246.75,174.62,246.75L174.62,246.75z"/>
		</g>
	</g>
	<g>
		<g>
			<path class="st21" d="M181.08,242.24c0-0.06,0-0.12,0-0.18c0-0.76-1.18-0.76-1.18,0c0,0.06,0,0.12,0,0.18
				C179.9,243,181.08,243,181.08,242.24L181.08,242.24z"/>
		</g>
	</g>
	<g>
		<g>
			<path class="st21" d="M180.9,232.45c0-0.06,0-0.12,0-0.18c0-0.76-1.18-0.76-1.18,0c0,0.06,0,0.12,0,0.18
				C179.72,233.21,180.9,233.21,180.9,232.45L180.9,232.45z"/>
		</g>
	</g>
	<g>
		<g>
			<path class="st21" d="M185.41,228.83c-0.06,0.06-0.12,0.12-0.18,0.18c-0.54,0.54,0.3,1.37,0.83,0.83
				c0.06-0.06,0.12-0.12,0.18-0.18C186.78,229.13,185.95,228.3,185.41,228.83L185.41,228.83z"/>
		</g>
	</g>
	<g>
		<g>
			<path class="st21" d="M185.53,211.09c-0.08,0.08-0.16,0.16-0.24,0.24c0.75-0.06,0.76-1.24,0-1.18c-0.56,0.04-0.9,0.38-0.94,0.94
				C184.3,211.85,185.47,211.85,185.53,211.09L185.53,211.09z"/>
		</g>
	</g>
	<g>
		<g>
			<path class="st21" d="M185.81,220.95c0.36-0.06,0.71-0.12,1.07-0.18c0.75-0.12,0.43-1.26-0.31-1.14
				c-0.36,0.06-0.71,0.12-1.07,0.18C184.75,219.94,185.07,221.07,185.81,220.95L185.81,220.95z"/>
		</g>
	</g>
	<g>
		<g>
			<path class="st21" d="M190.4,208.84c0.06,0.06,0.12,0.12,0.18,0.18c0.54,0.54,1.37-0.3,0.83-0.83c-0.06-0.06-0.12-0.12-0.18-0.18
				C190.69,207.47,189.86,208.3,190.4,208.84L190.4,208.84z"/>
		</g>
	</g>
	<g>
		<g>
			<path class="st21" d="M190.58,208.25c0,0.06,0,0.12,0,0.18c0,0.76,1.18,0.76,1.18,0c0-0.06,0-0.12,0-0.18
				C191.76,207.49,190.58,207.49,190.58,208.25L190.58,208.25z"/>
		</g>
	</g>
	<g>
		<g>
			<path class="st21" d="M189.95,217.38c-0.24,0.53-0.47,1.07-0.71,1.6c-0.31,0.69,0.71,1.29,1.02,0.59
				c0.24-0.53,0.47-1.07,0.71-1.6C191.27,217.29,190.26,216.69,189.95,217.38L189.95,217.38z"/>
		</g>
	</g>
	<g>
		<g>
			<path class="st21" d="M190.99,227.52c0.76,0,0.76-1.18,0-1.18C190.23,226.35,190.23,227.52,190.99,227.52L190.99,227.52z"/>
		</g>
	</g>
	<g>
		<g>
			<path class="st21" d="M190.76,236.25c0.37,0.33,0.8,0.32,1.17,0c0.57-0.5-0.26-1.33-0.83-0.83c0.16,0,0.33,0,0.49,0
				C191.03,234.91,190.19,235.74,190.76,236.25L190.76,236.25z"/>
		</g>
	</g>
	<g>
		<g>
			<path class="st20" d="M54.88,86.61c4.57-1.89,9.13-3.78,13.7-5.68c0.69-0.29,0.39-1.43-0.31-1.14c-4.57,1.89-9.13,3.78-13.7,5.68
				C53.88,85.76,54.18,86.9,54.88,86.61L54.88,86.61z"/>
		</g>
	</g>
	<g>
		<g>
			<path class="st20" d="M55.3,99.21c4.69-1.74,9.38-3.48,14.08-5.22c0.71-0.26,0.4-1.4-0.31-1.14c-4.69,1.74-9.38,3.48-14.08,5.22
				C54.28,98.33,54.58,99.47,55.3,99.21L55.3,99.21z"/>
		</g>
	</g>
	<g>
		<g>
			<path class="st20" d="M55.66,112.29c4.67-1.49,9.41-2.7,14.22-3.62c0.74-0.14,0.43-1.28-0.31-1.14
				c-4.82,0.92-9.55,2.12-14.22,3.62C54.63,111.38,54.94,112.52,55.66,112.29L55.66,112.29z"/>
		</g>
	</g>
	<g>
		<g>
			<path class="st20" d="M55.6,124.78c4.85-0.61,9.68-1.31,14.5-2.12c0.75-0.13,0.43-1.26-0.31-1.14
				c-4.71,0.79-9.44,1.48-14.18,2.08C54.86,123.7,54.85,124.88,55.6,124.78L55.6,124.78z"/>
		</g>
	</g>
	<g>
		<g>
			<path class="st20" d="M60.69,71.08c0.38,21.12,0.39,42.24,0.61,63.36c0.01,0.76,1.19,0.76,1.18,0
				c-0.22-21.12-0.23-42.24-0.61-63.36C61.86,70.32,60.68,70.32,60.69,71.08L60.69,71.08z"/>
		</g>
	</g>
	<g>
		<g>
			<path class="st22" d="M234.83,58.93c-1.99,23.73-2.5,47.56-1.55,71.35c0.03,0.76,1.21,0.76,1.18,0
				c-0.95-23.79-0.44-47.62,1.55-71.35C236.08,58.17,234.9,58.18,234.83,58.93L234.83,58.93z"/>
		</g>
	</g>
	<g>
		<g>
			<path class="st22" d="M241.14,64.61c-0.61,22.66-0.95,45.32-1.02,67.99c0,0.76,1.18,0.76,1.18,0
				c0.07-22.67,0.41-45.33,1.02-67.99C242.33,63.86,241.16,63.86,241.14,64.61L241.14,64.61z"/>
		</g>
	</g>
	<g>
		<g>
			<path class="st22" d="M227.02,117.68c6.02,1.26,11.78,3.9,17.9,4.54c0.75,0.08,0.75-1.1,0-1.18c-6.01-0.63-11.68-3.26-17.59-4.5
				C226.6,116.38,226.28,117.52,227.02,117.68L227.02,117.68z"/>
		</g>
	</g>
	<g>
		<g>
			<path class="st22" d="M227.15,108.58c6.12,1.36,12.09,3.2,17.91,5.51c0.71,0.28,1.01-0.86,0.31-1.14
				c-5.82-2.31-11.8-4.15-17.91-5.51C226.72,107.28,226.41,108.42,227.15,108.58L227.15,108.58z"/>
		</g>
	</g>
	<g>
		<g>
			<path class="st22" d="M227.29,100.08c5.83,2.17,11.66,4.31,17.5,6.44c0.71,0.26,1.02-0.88,0.31-1.14
				c-5.84-2.14-11.68-4.27-17.5-6.44C226.89,98.68,226.58,99.82,227.29,100.08L227.29,100.08z"/>
		</g>
	</g>
	<g>
		<g>
			<path class="st22" d="M228.18,93.17c5.87,1.02,10.86,4.57,16.63,5.94c0.74,0.18,1.05-0.96,0.31-1.14
				c-5.77-1.38-10.76-4.92-16.63-5.94C227.75,91.91,227.43,93.04,228.18,93.17L228.18,93.17z"/>
		</g>
	</g>
	<g>
		<g>
			<path class="st22" d="M228.14,84.42c3.4,1.22,6.75,2.55,10.05,4.02c2.61,1.17,5.19,2.81,8,3.46c0.74,0.17,1.05-0.97,0.31-1.14
				c-3.26-0.75-6.39-2.78-9.46-4.1c-2.82-1.22-5.69-2.33-8.58-3.38C227.74,83.02,227.43,84.16,228.14,84.42L228.14,84.42z"/>
		</g>
	</g>
	<g>
		<g>
			<path class="st22" d="M228.13,75.33c5.63,3.1,11.36,5.98,17.21,8.65c0.68,0.31,1.28-0.7,0.59-1.02
				c-5.84-2.67-11.58-5.55-17.21-8.65C228.06,73.95,227.47,74.97,228.13,75.33L228.13,75.33z"/>
		</g>
	</g>
	<g>
		<g>
			<path class="st22" d="M228.58,67.24c3.08,0.97,5.89,3.03,8.66,4.65c2.79,1.63,5.59,3.27,8.38,4.9c0.66,0.38,1.25-0.63,0.59-1.02
				c-3.07-1.8-6.15-3.6-9.22-5.39c-2.61-1.53-5.2-3.36-8.11-4.28C228.17,65.88,227.86,67.01,228.58,67.24L228.58,67.24z"/>
		</g>
	</g>
</g>
</svg>
