<?xml version="1.0" encoding="utf-8"?>
<!-- Generator: Adobe Illustrator 23.0.1, SVG Export Plug-In . SVG Version: 6.00 Build 0)  -->
<svg version="1.1" id="Ebene_1" xmlns="http://www.w3.org/2000/svg" xmlns:xlink="http://www.w3.org/1999/xlink" x="0px" y="0px"
	 viewBox="0 0 300 300" style="enable-background:new 0 0 300 300;" xml:space="preserve">
<style type="text/css">
	.st0{fill:#3C3C3B;}
	.st1{fill:#9C9B9B;}
</style>
<g>
	<path class="st0" d="M63.52,199.31c0,0,0.79-5.2-2.97-3.6s-11.2,11.51-10.27,13.49S63.52,199.31,63.52,199.31z"/>
	<path class="st0" d="M121.59,243.65c0,0,4.63-0.07,4.24,2.53c-0.39,2.6-6.2,12.56-8.9,13.34c-2.7,0.78-4.18,0.02-4.18,0.02
		L121.59,243.65z"/>
	<path class="st0" d="M48.54,214.83c0,0-16.66,18.98-13.15,17.18s14.1-12.55,14.1-12.55L48.54,214.83z"/>
	<path class="st0" d="M105.03,262.98c0,0-3.99,7.66-5.3,10.36c-1.31,2.71-5.61,10.24-3.99,8.2c1.62-2.04,14.09-18.8,14.09-18.8
		L105.03,262.98z"/>
	<path class="st0" d="M107.34,148.73c0,0,58.2,44.16,57.87,41.95c-0.33-2.21-48.43-41.28-50.98-43.3
		C111.67,145.36,107.34,148.73,107.34,148.73z"/>
	<path class="st1" d="M48.1,212.48c0,0,69.88-66.95,71.64-66.81c1.76,0.14,1.76,0.14,1.76,0.14s61.59-60.42,64.03-60.35
		c2.44,0.06,11.14-3.03,7.88,1.87S48.1,227.45,46.79,225.16C45.48,222.88,48.1,212.48,48.1,212.48z"/>
	<path class="st1" d="M203.89,90.65c0,0-0.26,9.78-0.93,12.99c-0.67,3.21-38.43,61.91-38.42,65.04c0.02,3.13-49.52,92.44-53.4,94.98
		c-3.88,2.54-12.11,6.63-11.44,3.42c0.67-3.21,95.45-167.76,97.27-170.06C198.79,94.72,203.89,90.65,203.89,90.65z"/>
	<path class="st1" d="M144.68,152.53l-19.03,24.03c0,0-1.57,2.5,0.17,3.46c1.74,0.96,2.6,0.39,3.21-0.37
		c0.61-0.77,19.81-21.33,19.6-23.16C148.41,154.65,144.68,152.53,144.68,152.53z"/>
	<path class="st1" d="M213.5,103.46c1.6-6.22,2.89-13.1-1.01-18.69s-9.21-9.38-9.21-9.38s-8.23-6.94-20.37,0.51
		c-12.14,7.44-11.98,18.8-10.28,23.48c1.7,4.68,7.71,14.43,17.75,16.98C200.44,118.9,211.9,109.68,213.5,103.46z M204.4,107.07
		c-6.23,6.29-15.56,5.98-20.52,1.22c-4.96-4.76-5.86-10.46-5.73-15.35c0.13-4.89,3.2-12.44,9.91-14.61
		c6.71-2.17,12.69,1.31,12.69,1.31s4.29,2.98,7.58,9.33S210.64,100.77,204.4,107.07z"/>
	<path class="st0" d="M201.57,74.67l31.2-40.18c0,0,4.73-1.25,7.27,2.64s1.79,6.41,1.79,6.41l-30.9,39.8c0,0-2.91-1.06-6.36-3.79
		S201.57,74.67,201.57,74.67z"/>
</g>
</svg>
