<?xml version="1.0" encoding="utf-8"?>
<!-- Generator: Adobe Illustrator 23.0.1, SVG Export Plug-In . SVG Version: 6.00 Build 0)  -->
<svg version="1.1" id="Ebene_1" xmlns="http://www.w3.org/2000/svg" xmlns:xlink="http://www.w3.org/1999/xlink" x="0px" y="0px"
	 viewBox="0 0 300 300" style="enable-background:new 0 0 300 300;" xml:space="preserve">
<style type="text/css">
	.st0{fill:#AFD5A7;}
	.st1{fill:#C99D66;}
</style>
<g>
	<path class="st0" d="M139.98,157.43c0.16,10.88-12.05,20-22.44,16.76c-1.39-0.43-2.76-1.05-4.22-1.12
		c-2.47-0.11-4.69,1.35-6.78,2.67c-7.1,4.46-15.24,7.91-23.6,7.4c-8.37-0.51-16.84-5.84-18.92-13.96
		c-9.75,2.89-21.34-0.67-26.98-9.13s-4.01-21.27,4.15-27.33c1.07-0.79,2.29-1.55,2.77-2.79c0.58-1.5-0.11-3.15-0.5-4.72
		c-1.42-5.73,1.61-11.88,6.21-15.59c4.6-3.7,10.51-5.36,16.32-6.4c-0.99-6.89,5.64-12.33,11.8-15.55c2.02-1.05,4.18-2.13,5.36-4.07
		c0.88-1.45,1.1-3.18,1.34-4.86c1.17-8.44,3.3-17.13,8.81-23.63c5.51-6.5,15.22-10.11,22.87-6.35c8.33-8.27,17.99-16.1,29.55-18.13
		s25.22,3.73,28.38,15.04c6.29-1.2,13.11,0.91,17.63,5.45s6.58,11.38,5.34,17.66c9.16-1.15,19.2-0.8,26.58,4.74
		c7.38,5.55,10.08,17.8,3.28,24.04c6.21,0.36,12.63,0.91,18.11,3.87c5.48,2.95,9.8,8.94,8.9,15.1c-0.28,1.93-1.06,3.87-0.6,5.77
		c0.56,2.33,2.76,3.81,4.39,5.56c4.3,4.6,4.88,11.62,3.77,17.83c-1.53,8.52-5.94,16.62-12.73,21.99s-16,7.8-24.43,5.81
		c-1.72-0.41-3.43-0.99-5.2-0.97c-3.36,0.05-6.25,2.24-9.4,3.41c-8.28,3.08-17.88-1.44-23.26-8.45c-5.38-7.01-7.41-15.97-8.95-24.67
		c-8.07,1.39-16.8-2.72-20.88-9.82c-4.95,4.44-11.22,7.39-17.8,8.36c1.74,5.36,2.65,10.98,2.7,16.62"/>
</g>
<g>
	<g>
		<path class="st1" d="M192.88,80.49c0.29,2.5,0.76,4.97,1.42,7.4C193.83,85.42,193.35,82.96,192.88,80.49z"/>
		<g>
			<path class="st1" d="M192.52,80.49c0.3,2.53,0.77,5.03,1.43,7.49c0.12,0.45,0.77,0.26,0.69-0.19c-0.47-2.47-0.95-4.93-1.42-7.4
				c-0.09-0.45-0.77-0.26-0.69,0.19c0.47,2.47,0.95,4.93,1.42,7.4c0.23-0.06,0.46-0.13,0.69-0.19c-0.64-2.4-1.11-4.83-1.41-7.3
				C193.18,80.04,192.47,80.04,192.52,80.49z"/>
		</g>
	</g>
	<g>
		<path class="st1" d="M157.15,54.87c0.1-0.08,0.21-0.15,0.31-0.23c0.9-2.01,1.39-4.19,1.36-6.4
			C158.27,50.45,157.71,52.66,157.15,54.87z"/>
		<g>
			<path class="st1" d="M157.33,55.17c0.84-0.62,1.09-1.91,1.34-2.88c0.35-1.33,0.51-2.68,0.51-4.05c0-0.4-0.6-0.49-0.7-0.09
				c-0.56,2.21-1.12,4.42-1.67,6.63c-0.11,0.44,0.57,0.63,0.69,0.19c0.56-2.21,1.12-4.42,1.67-6.63c-0.23-0.03-0.47-0.06-0.7-0.09
				c0,1.07-0.09,2.13-0.32,3.18c-0.17,0.8-0.49,2.64-1.18,3.14C156.61,54.83,156.96,55.44,157.33,55.17z"/>
		</g>
	</g>
	<g>
		<path class="st1" d="M192.88,80.49c-0.07-0.6-0.12-1.21-0.17-1.82c-0.1-0.19-0.19-0.39-0.29-0.58
			C192.57,78.89,192.73,79.69,192.88,80.49z"/>
		<g>
			<path class="st1" d="M193.24,80.49c-0.05-0.48-0.1-0.97-0.14-1.45c-0.04-0.44-0.16-0.73-0.37-1.12c-0.2-0.38-0.72-0.1-0.65,0.27
				c0.15,0.8,0.31,1.6,0.46,2.4c0.09,0.45,0.77,0.26,0.69-0.19c-0.15-0.8-0.31-1.6-0.46-2.4c-0.22,0.09-0.43,0.18-0.65,0.27
				c0.36,0.68,0.33,1.46,0.41,2.22C192.57,80.94,193.29,80.95,193.24,80.49z"/>
		</g>
	</g>
	<g>
		<path class="st1" d="M242.75,113.78c-6.07,2.06-11.85,4.99-17.09,8.68c0.31-2.94,1.14-5.83,2.43-8.49
			c-1.47-0.6-2.3,1.62-2.67,3.16c-1.81,7.53-12.17,10.06-14.89,17.31c-1.8-3.72-2.59-7.94-2.25-12.06
			c-2.19,3.32,1.17,7.56,1.09,11.54c-0.08,4.17-3.87,7.2-7.37,9.48c-8.66,5.66-19.17,10.86-28.96,7.53
			c3.56-7.92,3.18-17.01,5.27-25.43c2.09-8.43,8.45-17.19,17.12-16.87c0.62-0.88,0.79-2.06,0.46-3.08
			c-1.58,0.29-3.16,0.57-4.74,0.86c3.35-6.61,6.71-13.22,10.06-19.83c-1.62,0.88-3.24,1.77-4.85,2.65
			c-1.26-4.36-2.52-8.71-3.78-13.07c0.02,0.85,0.07,1.7,0.14,2.54c3.37,6.71,2.95,15.19-1.13,21.5c-3.05,4.71-7.8,8.07-11.19,12.54
			c-0.25,0.33-0.49,0.68-0.72,1.02c-0.18-0.19-0.38-0.37-0.57-0.54c-1.36-1.18-2.8-2.26-4.32-3.23c-0.36-0.23-0.76-0.5-0.86-0.91
			c-0.1-0.45,0.18-0.87,0.34-1.3c0.51-1.36-0.46-3.07-1.89-3.33c-0.14,1.12-0.5,2.2-1.06,3.18c-2.26-1.81-4.13-4.1-5.44-6.69
			c-0.32-0.63-1.17-1.36-1.57-0.78c-0.21,0.3-0.04,0.71,0.14,1.03c3.27,5.94,8.21,10.96,14.09,14.34
			c-4.47,7.59-5.55,16.91-7.51,25.62c-2.21,9.82-6.7,20.39-16.03,24.16c3.46-21.23,3.9-42.95,1.29-64.3
			c-0.13-1.04-0.26-2.08-0.43-3.11c1.98-3.23,3.88-6.51,5.14-10.08c0.41-1.17,0.78-2.4,1.59-3.33c0.81-0.94,2.23-1.49,3.32-0.89
			c0.55-0.86,0.82-2.4-0.19-2.53c-0.19-0.03-0.39,0.02-0.58,0.02c-0.64-0.02-1.13-0.66-1.21-1.3c-0.09-0.64,0.12-1.28,0.32-1.89
			c0.85-2.74,1.37-5.58,1.56-8.44c0.02-0.38,0.01-0.83-0.3-1.05c-0.6-0.42-1.24,0.5-1.41,1.21c-1.93,8.2-3.78,17.02-9.41,23.14
			c-0.13-0.4-0.27-0.81-0.43-1.2c-1.05-2.66-2.63-5.09-3.66-7.76c-2.56-6.62-1.44-14.33,2.11-20.47c3.55-6.14,9.32-10.8,15.71-13.88
			c-3.94,0.98-7.68,2.77-10.92,5.22c-1.47,3.25-4.02,6.03-7.23,7.6c-2.91-6.06-6.02-12.03-9.32-17.89
			c-1.54,2.44-0.61,5.71,0.99,8.11s3.81,4.39,5.1,6.96c3.18,6.37-0.11,13.97,0.29,21.08c0.24,4.19,1.77,8.15,3.16,12.14
			c-0.11-0.04-0.22-0.07-0.33-0.1c-6.75-1.91-14.06-3.79-18.58-9.15c-2.85-3.38-4.22-7.73-5.52-11.95c-1.08,0.41-1.7,1.61-1.79,2.76
			c-0.09,1.15,0.26,2.29,0.61,3.4c0.58,1.84,1.15,3.68,1.73,5.52c-3.22,0.34-6.51-0.16-9.49-1.44c-0.63,0.79,0.59,1.74,1.58,1.97
			c2.63,0.62,5.36,0.83,8.06,0.64c0.74-0.05,1.51-0.13,2.22,0.1c0.88,0.29,1.55,1.01,2.18,1.68c4.27,4.52,9.44,8.2,15.12,10.75
			c1.84,0.83,3.9,1.54,5.85,1.23c4.86,19.56-2.41,40.16-3.75,60.47c-3.65-0.98-7.26-2.11-10.58-3.88
			c-4.27-2.28-8.09-5.75-9.82-10.27c-0.23-0.61-0.42-1.23-0.57-1.86c3.21-3.24,6.25-6.65,9.07-10.23c0.37-0.47,0.75-0.97,0.81-1.57
			c0.06-0.59-0.34-1.28-0.94-1.28c-2.47,3.65-5.79,6.72-9.62,8.91c-0.11-1.27-0.16-2.55-0.2-3.82c-0.41-11.43-0.82-22.86-1.24-34.29
			c-0.04-0.98-0.09-2.01-0.63-2.82c-0.54-0.81-1.75-1.26-2.52-0.66c-0.31,3.44-0.18,6.92,0.41,10.33c-4.03-1.25-7.56-4.04-9.71-7.68
			c-1.05,0.87-0.85,2.62-0.01,3.69c0.83,1.08,2.11,1.7,3.24,2.46c4.29,2.88,6.72,7.93,7.56,13.02c0.84,5.09,0.28,10.3-0.28,15.43
			c-4.9-1.92-9.37-4.93-13-8.76c-2.36-2.49-4.4-6.37-2.39-9.15c-1.67,1.24-2.81,3.17-3.08,5.24c-4.65-3.61-9.3-7.23-13.96-10.84
			c-0.91-0.71-2.89-0.81-2.59,0.31c9.61,4.75,17.88,12.16,23.65,21.19c-3.44,3.04-7.63,5.23-12.09,6.32
			c0.15,0.76,0.3,1.52,0.45,2.29c2.7-1.05,5.23-2.54,7.46-4.39c0.86-0.72,1.76-1.52,2.87-1.63c0.79-0.07,1.56,0.22,2.29,0.51
			c2.32,0.92,4.65,1.83,6.97,2.75c0.57,0.22,1.15,0.46,1.58,0.89c0.71,0.71,0.84,1.79,1.02,2.77c0.87,4.92,3.61,9.48,7.54,12.56
			c-9.48,2.37-19.26,3.32-28.99,4.26c1.2,0,2.4,0.05,3.59,0.11c-0.35,2.28-0.69,4.55-1.04,6.83c-0.16,1.04,0.53,2.64,1.36,2.01
			c0.7-2.45,1.11-4.98,1.23-7.52c8.92-1.26,18.05-1.09,26.92,0.49c2.88,0.52,5.78,1.2,8.34,2.63c2.68,1.5,4.81,3.72,6.69,6.17
			c0.41,15.94,3.38,31.9,1.81,47.77c-1.4,14.09-6.44,27.81-14.51,39.45l2.37-4.05c-2.24,1.49-3.8,3.97-4.16,6.64
			c1.47-0.45,2.93-0.9,4.4-1.36c-0.13,2.14,0.4,4.31,1.51,6.14c3.1-2.04,6.46-3.68,9.97-4.87c-0.61,3.5-1.22,7-1.84,10.49
			c3.9-4.59,8.49-8.59,13.57-11.82c0.45,1.71,1.43,3.27,2.78,4.41c1.61-3.89,3.81-7.54,6.5-10.78c1.61,1.22,3.68,1.81,5.69,1.62
			c-9.41-18.36-12.5-39.2-15.47-59.61c-0.94-6.5-1.88-13.16-0.52-19.58c1.36-6.42,5.53-12.66,11.8-14.61
			c3.07-0.95,6.38-0.82,9.52-1.5c8.72-1.89,16.34-9.96,25.04-8c2.85,0.64,5.37,2.34,8.2,3.08c2.83,0.74,6.45,0.12,7.64-2.55
			c-5.68,0.51-11.51-0.68-16.55-3.36c8.5-12.91,20.78-23.3,34.92-29.54C242.19,116.38,243.8,114.81,242.75,113.78z"/>
		<g>
			<path class="st1" d="M242.66,113.43c-6.11,2.12-11.86,5.03-17.18,8.72c0.18,0.1,0.36,0.2,0.53,0.31
				c0.36-2.92,1.14-5.64,2.38-8.31c0.09-0.19,0.03-0.47-0.21-0.52c-1.79-0.34-2.48,1.34-2.94,2.8c-0.97,3.04-2.39,5.16-4.8,7.27
				c-3.74,3.27-8.29,5.84-10.25,10.64c0.22-0.03,0.43-0.06,0.65-0.08c-1.74-3.77-2.46-7.74-2.2-11.88c0.02-0.36-0.5-0.48-0.66-0.18
				c-1.66,2.99-0.08,5.95,0.65,8.98c1.35,5.6-2.52,9.08-6.81,11.92c-4.11,2.71-8.48,5.2-13.15,6.82c-2.38,0.83-4.85,1.43-7.36,1.63
				c-1.11,0.09-2.22,0.1-3.33,0.02c-0.71-0.05-3.54-0.05-4.03-0.72c-0.73-0.98,1.07-4.34,1.36-5.53c0.56-2.24,0.93-4.53,1.26-6.81
				c0.65-4.53,1.04-9.15,2.26-13.57c2.11-7.65,7.84-16.03,16.61-15.94c0.12,0,0.25-0.07,0.31-0.18c0.63-1.18,0.76-2.04,0.5-3.36
				c-0.04-0.2-0.26-0.28-0.44-0.25c-1.58,0.29-3.16,0.57-4.74,0.86c0.13,0.17,0.27,0.35,0.4,0.52c3.35-6.61,6.71-13.22,10.06-19.83
				c0.16-0.31-0.16-0.66-0.49-0.49c-1.04,0.56-2.47,1.75-3.64,1.99c-1.43,0.29-1.56-2.12-1.91-3.33c-0.85-2.96-1.71-5.91-2.56-8.87
				c-0.11-0.38-0.71-0.32-0.7,0.09c0.03,0.86-0.05,1.84,0.17,2.68c0.32,1.2,1.04,2.34,1.39,3.57c0.74,2.57,1,5.3,0.75,7.97
				c-0.53,5.77-3.3,10.4-7.25,14.51c-1.67,1.74-3.44,3.38-5.07,5.16c-0.7,0.76-1.31,1.85-2.09,2.49c-0.48,0.39-0.09,0.49-0.76,0.44
				c-0.32-0.02-1.11-0.94-1.39-1.15c-0.8-0.63-2.44-1.34-3.01-2.13c-0.65-0.89-0.09-2.17-0.24-3.16c-0.19-1.25-1.11-2.03-2.24-2.41
				c-0.17-0.06-0.4,0.07-0.44,0.25c-0.09,0.52-0.33,2.45-1.07,2.52c-0.34,0.03-1.46-1.39-1.69-1.65c-1.32-1.46-2.08-3.16-3.24-4.69
				c-0.47-0.62-1.47-1.44-2.06-0.46c-0.83,1.4,2.45,4.95,3.19,5.93c1.91,2.5,4.13,4.76,6.59,6.72c1.04,0.83,2.24,1.48,3.26,2.32
				c0.88,0.72,0.81,0.75,0.39,1.81c-0.32,0.8-0.77,1.56-1.11,2.35c-1.43,3.32-2.4,6.81-3.2,10.33c-1.48,6.5-2.38,13.16-4.72,19.43
				c-2.53,6.78-6.69,13.13-13.56,16.06c0.17,0.13,0.35,0.27,0.52,0.4c2.28-14.2,3.28-28.57,2.9-42.95
				c-0.19-7.16-0.71-14.33-1.59-21.44c-0.21-1.72-0.38-2.82,0.43-4.43c0.65-1.29,1.47-2.51,2.14-3.8c1.27-2.47,2.93-10.17,6.61-8.84
				c0.14,0.05,0.33-0.03,0.4-0.16c0.47-0.91,0.73-1.79,0.21-2.72c-0.13-0.24-0.51-0.18-0.66-0.35c-1.88-2.01-1.2-2.48-0.67-4.58
				c0.28-1.09,2.48-8.65-0.19-8.16c-1.24,0.23-1.43,2.66-1.62,3.46c-0.55,2.34-1.11,4.68-1.78,6.99
				c-1.48,5.11-3.52,10.04-7.09,14.05c0.2,0.05,0.4,0.1,0.59,0.16c-1.33-3.89-3.81-7.29-4.83-11.3c-1.12-4.44-0.72-9.19,0.79-13.48
				c2.92-8.32,9.89-14.33,17.6-18.14c0.37-0.18,0.11-0.75-0.27-0.65c-3.13,0.83-6.11,2.05-8.86,3.77c-1.18,0.74-1.89,1.23-2.61,2.3
				c-1.07,1.6-1.94,3.14-3.4,4.47c-0.57,0.52-1.55,1.59-2.37,1.76c-1.01,0.21-1.14-0.61-1.57-1.48c-0.85-1.73-1.71-3.44-2.58-5.15
				c-1.83-3.56-3.73-7.08-5.69-10.58c-0.13-0.23-0.49-0.24-0.61,0c-1.63,3.11-0.49,6.41,1.44,9.11c1.22,1.71,2.73,3.2,3.86,4.96
				c1.49,2.31,2.1,4.88,2.14,7.61c0.07,4.63-1.23,9.16-1.14,13.79c0.09,4.56,1.72,8.84,3.2,13.09c0.15-0.15,0.29-0.29,0.44-0.44
				c-5.01-1.5-10.21-2.7-14.66-5.59c-5.51-3.58-7.67-9.35-9.53-15.36c-0.07-0.22-0.32-0.33-0.52-0.21c-2.71,1.53-1.97,4.51-1.2,7.02
				c0.32,1.04,0.85,2.15,1.01,3.22c0.22,1.46,0.3,1.51-1.28,1.49c-2.51-0.03-4.88-0.59-7.19-1.52c-0.19-0.08-0.38,0.08-0.44,0.25
				c-1.05,2.95,5.2,3.02,6.83,3.09c1.3,0.06,2.61-0.15,3.9-0.08c1.85,0.1,2.79,1.12,3.99,2.34c1.61,1.63,3.33,3.16,5.15,4.55
				c3.6,2.75,7.95,5.64,12.42,6.71c0.72,0.17,2.02,0.11,2.57,0.56c0.84,0.68,0.87,2.77,1.05,3.85c0.47,2.95,0.69,5.94,0.73,8.92
				c0.16,11.11-2.1,22.08-3.76,33.02c-0.33,2.19-0.65,4.38-0.92,6.57c-0.15,1.23-0.29,2.46-0.41,3.7c-0.05,0.53-0.03,1.31-0.17,1.85
				c-0.34,1.34-0.13,1.19-1.37,1.04c-2.53-0.32-5.4-1.71-7.66-2.8c-2.33-1.12-4.52-2.52-6.41-4.29c-1.8-1.68-4.25-4.4-4.64-6.96
				c-0.34-2.25,3.65-5.21,5.13-6.92c1.07-1.24,6.75-6.28,3.21-7.66c-0.15-0.06-0.32,0.04-0.4,0.16c-2.53,3.62-5.69,6.53-9.49,8.78
				c0.18,0.1,0.36,0.2,0.53,0.31c-0.67-9.08-0.72-18.24-1.05-27.33c-0.08-2.29-0.16-4.57-0.25-6.86c-0.06-1.78,0.12-3.75-0.28-5.48
				c-0.4-1.74-1.74-3.08-3.55-2.23c-0.12,0.06-0.17,0.19-0.18,0.31c-0.28,3.5-0.13,6.96,0.42,10.43c0.15-0.15,0.29-0.29,0.44-0.44
				c-4.02-1.35-7.26-3.91-9.49-7.52c-0.11-0.18-0.4-0.25-0.56-0.07c-2.55,2.87,1.21,5.26,3.3,6.71c5.08,3.53,7.27,9.64,7.71,15.59
				c0.21,2.9,0.04,5.81-0.22,8.7c-0.04,0.46,0.02,1.97-0.24,2.41c0.09,0.69-0.3,0.85-1.15,0.5c-0.25-0.12-0.5-0.23-0.75-0.35
				c-1.15-0.44-2.25-1.14-3.29-1.78c-4.08-2.48-13.15-8.92-9.69-14.65c0.22-0.37-0.26-0.68-0.56-0.43
				c-1.75,1.44-2.76,3.17-3.17,5.39c0.2-0.05,0.4-0.1,0.59-0.16c-4.39-3.41-8.79-6.83-13.18-10.24c-0.91-0.71-3.96-2.35-3.97-0.04
				c0,0.12,0.07,0.25,0.18,0.31c6.45,3.24,12.3,7.57,17.2,12.88c1.09,1.18,2.13,2.4,3.13,3.67c0.72,0.93,1.42,1.87,2.09,2.84
				c0.95,1.38,0.82,1.63-0.65,2.72c-3.03,2.25-6.47,3.81-10.12,4.75c-0.2,0.05-0.28,0.25-0.25,0.44c0.15,0.76,0.3,1.52,0.45,2.29
				c0.03,0.17,0.27,0.32,0.44,0.25c2.79-1.14,5.24-2.64,7.61-4.48c1.33-1.03,1.99-1.77,4.07-1.3c0.81,0.18,1.72,0.66,2.49,0.96
				c1.66,0.65,3.73,1.11,5.23,2.06c2.33,1.48,2.2,3.39,2.91,5.71c0.39,1.28,0.9,2.54,1.53,3.72c1.37,2.61,3.27,4.83,5.55,6.69
				c0.05-0.2,0.1-0.4,0.16-0.59c-9.48,2.32-19.19,3.31-28.89,4.24c-0.45,0.04-0.47,0.71,0,0.71c1,0.01,2.55-0.32,3.1,0.63
				c0.33,0.57-0.56,3.66-0.67,4.39c-0.16,1.05-0.56,2.48,0.18,3.44c2.08,2.71,2.59-4.16,2.69-5.02c0.14-1.19-0.02-1.15,0.95-1.85
				c0.72-0.51,1.42-0.49,2.25-0.58c1.28-0.13,2.56-0.23,3.85-0.3c2.89-0.16,5.79-0.17,8.69-0.04c5.57,0.26,11.64,0.73,16.89,2.75
				c2.61,1,4.84,2.61,6.75,4.62c0.95,0.99,1.84,1.87,2.09,3.28c0.27,1.56,0.13,3.3,0.22,4.88c0.32,5.54,0.85,11.06,1.28,16.59
				c0.86,10.99,1.28,22.07-0.85,32.95c-2.22,11.35-6.81,22.11-13.34,31.65c0.2,0.12,0.41,0.24,0.61,0.36
				c0.79-1.35,1.58-2.7,2.37-4.05c0.17-0.29-0.19-0.7-0.49-0.49c-2.35,1.7-3.82,3.98-4.32,6.85c-0.04,0.25,0.16,0.52,0.44,0.44
				c0.52-0.16,3.09-1.32,3.52-1.09c0.68,0.38,0.44,1.02,0.56,1.79c0.23,1.41,0.74,2.68,1.43,3.92c0.09,0.16,0.33,0.23,0.49,0.13
				c3.11-2,6.39-3.61,9.88-4.83c-0.15-0.15-0.29-0.29-0.44-0.44c-0.61,3.5-1.22,7-1.84,10.49c-0.06,0.31,0.34,0.64,0.59,0.35
				c2.63-3.04,5.5-5.85,8.66-8.34c0.88-0.69,1.78-1.36,2.69-2c0.47-0.33,0.94-0.65,1.42-0.97c0.48-0.08,0.72,0.17,0.71,0.74
				c0.84,1.1,1.31,2.17,2.36,3.14c0.15,0.14,0.46,0.15,0.56-0.07c1.27-2.98,2.81-5.81,4.7-8.44c1.45-2.02,1.42-1.82,3.38-1.07
				c1.24,0.48,2.49,0.6,3.81,0.54c0.28-0.01,0.43-0.29,0.31-0.53c-9.98-19.71-13.38-42.38-16.06-64.1
				c-1.23-9.93-0.77-22.94,9.42-28.25c4.61-2.4,10.14-1.59,14.98-3.4c4.18-1.56,7.95-4.03,12.07-5.73c2.49-1.02,5.14-1.77,7.86-1.55
				c3.12,0.24,5.76,1.92,8.65,2.93c3.24,1.14,7.47,1.06,9.3-2.32c0.12-0.22-0.03-0.56-0.31-0.53c-3.4,0.25-6.78,0.01-10.09-0.86
				c-1.54-0.4-3.37-0.87-4.74-1.69c-1.64-0.99-0.28-1.97,0.64-3.23c3.5-4.83,7.56-9.25,12.04-13.2c4.38-3.85,9.17-7.24,14.27-10.06
				c2.39-1.32,5.48-2.21,7.59-3.91c1-0.8,1.61-1.81,0.89-2.97c-0.24-0.39-0.86-0.03-0.61,0.36c1.24,1.99-5.08,4.25-6.11,4.78
				c-1.89,0.98-3.75,2.03-5.56,3.16c-3.2,1.98-6.25,4.19-9.15,6.59c-6.19,5.13-11.56,11.17-16.02,17.86
				c-0.1,0.15-0.04,0.4,0.13,0.49c5.21,2.68,10.88,3.84,16.73,3.41c-0.1-0.18-0.2-0.36-0.31-0.53c-3.28,6.08-11,0.32-15.44-0.69
				c-3.82-0.87-7.61,0.23-11.09,1.79c-4.47,2-8.63,4.82-13.42,6.04c-4.86,1.24-9.86,0.64-14.19,3.6c-7.8,5.34-9.3,15.47-8.63,24.19
				c0.87,11.14,2.92,22.43,5.13,33.37c2.43,12.02,5.86,23.86,11.42,34.83c0.1-0.18,0.2-0.36,0.31-0.53
				c-2.04,0.09-3.82-0.42-5.51-1.57c-0.12-0.08-0.34-0.06-0.43,0.06c-1.62,1.99-3.09,4.07-4.35,6.31c-0.55,0.97-0.95,2.63-1.71,3.38
				c-0.7,0.7-0.75,0.43-1.41-0.52c-0.56-0.81-0.93-1.71-1.22-2.65c-0.07-0.21-0.32-0.34-0.52-0.21c-5.11,3.31-9.67,7.27-13.64,11.88
				c0.2,0.12,0.4,0.23,0.59,0.35c0.61-3.5,1.22-7,1.84-10.49c0.04-0.24-0.16-0.53-0.44-0.44c-2.32,0.81-4.58,1.77-6.75,2.93
				c-0.76,0.41-2.4,1.83-3.21,1.39c-0.38-0.2-0.67-1.7-0.79-2.17c-0.27-1.05-0.3-2.02-0.28-3.09c0-0.23-0.23-0.41-0.45-0.34
				c-1.47,0.45-2.93,0.9-4.4,1.36c0.15,0.15,0.29,0.29,0.44,0.44c0.47-2.68,1.78-4.83,3.99-6.43c-0.16-0.16-0.32-0.32-0.49-0.49
				c-0.79,1.35-1.58,2.7-2.37,4.05c-0.23,0.4,0.36,0.73,0.61,0.36c10.01-14.6,15-31.7,15.02-49.35c0.01-9.78-1.15-19.51-1.82-29.26
				c-0.17-2.44-0.31-4.88-0.4-7.32c-0.07-1.95-0.64-2.45-2.03-3.97c-2.61-2.83-5.73-4.75-9.44-5.78c-9.9-2.76-20.87-2.71-30.98-1.35
				c-0.16,0.02-0.25,0.2-0.26,0.34c-0.09,1.56-0.25,3.1-0.55,4.64c-0.11,0.55-0.15,2.68-1.25,1.9c-0.75-0.54,0.81-6.94,0.94-7.76
				c0.04-0.23-0.09-0.44-0.34-0.45c-1.2-0.05-2.4-0.09-3.59-0.11c0,0.24,0,0.47,0,0.71c9.76-0.94,19.53-1.93,29.08-4.27
				c0.24-0.06,0.37-0.42,0.16-0.59c-2.13-1.74-3.92-3.79-5.25-6.21c-1.39-2.53-1.57-5.06-2.51-7.69c-0.55-1.53-1.54-2.02-2.98-2.59
				c-2.48-0.99-5.39-2.68-8.05-3.05c-1.41-0.2-2.39,0.43-3.48,1.25c-0.8,0.61-7.02,5.55-7.61,3.84c-0.37-1.07,4.61-2.44,5.68-2.98
				c2.21-1.11,4.22-2.53,6.09-4.13c0.11-0.1,0.14-0.31,0.06-0.43c-4.13-6.36-9.36-11.93-15.52-16.36c-1.52-1.09-3.1-2.12-4.72-3.06
				c-0.61-0.36-2.47-0.97-2.82-1.54c0.69-0.81,1.43-0.65,2.21,0.49c0.52,0.4,1.03,0.8,1.55,1.2c3.88,3.01,7.75,6.02,11.63,9.04
				c0.19,0.15,0.54,0.14,0.59-0.16c0.38-2.07,1.36-3.74,2.98-5.08c-0.19-0.14-0.37-0.29-0.56-0.43c-2.19,3.62,0.44,7.56,3.03,10.18
				c3.57,3.61,7.88,6.35,12.57,8.25c0.24,0.1,0.43-0.14,0.45-0.34c0.93-8.58,1.8-18.3-3.96-25.52c-1-1.26-2.17-2.33-3.49-3.25
				c-1.22-0.85-3.28-1.66-3.62-3.3c-0.09-1.89,0.15-2.26,0.72-1.12c0.16,0.22,0.33,0.45,0.5,0.67c2.22,2.82,5.22,4.79,8.6,5.93
				c0.28,0.09,0.48-0.19,0.44-0.44c-0.37-2.3-0.58-4.61-0.56-6.94c0-0.47,0.01-0.94,0.03-1.41c-0.19-1.32,0.24-1.34,1.29-0.04
				c1.54,1.12,1.26,1.35,1.33,3.11c0.15,4.08,0.29,8.16,0.44,12.25c0.29,8.12,0.34,16.29,0.94,24.4c0.02,0.26,0.29,0.45,0.53,0.31
				c2.05-1.21,3.96-2.6,5.69-4.25c0.9-0.85,1.74-1.76,2.52-2.73c-0.26,0.32,0.83-1.06,0.81-1.05c1.43-0.61,0.13,1.6-0.28,2.13
				c-1.8,2.26-3.7,4.44-5.66,6.55c-1.13,1.21-3.07,2.22-2.76,3.93c0.68,3.76,3.93,7.22,6.84,9.44c4.18,3.18,9.22,4.83,14.22,6.19
				c0.24,0.06,0.43-0.11,0.45-0.34c1.41-20.1,8.55-40.41,3.73-60.56c-0.03-0.14-0.19-0.27-0.34-0.26
				c-4.33,0.36-8.86-2.55-12.36-4.86c-1.86-1.23-3.64-2.59-5.31-4.07c-1.39-1.23-2.59-2.8-4.05-3.94c-0.93-0.73-1.74-0.94-2.91-0.95
				c-2.35-0.01-4.59,0.16-6.95-0.23c-0.5-0.08-2.91-0.31-2.72-1.31c-0.04,0.2,3.11,0.87,3.4,0.92c1.78,0.31,3.57,0.34,5.36,0.2
				c0.22-0.02,0.42-0.21,0.34-0.45c-0.7-2.23-1.61-4.49-2.09-6.78c-0.25-0.85-0.3-1.73-0.14-2.64c0.84-1.62,1.33-1.78,1.48-0.48
				c0.55,0.75,0.74,2.27,1.07,3.16c1.16,3.1,2.68,6.1,5.05,8.46c4.84,4.82,11.74,6.35,18.06,8.25c0.25,0.07,0.53-0.18,0.44-0.44
				c-1.56-4.47-3.25-8.95-3.17-13.76c0.06-4.06,1.05-8.03,1.13-12.09c0.07-3.43-0.67-6.63-2.67-9.45
				c-2.59-3.66-7.47-7.74-4.85-12.71c-0.2,0-0.41,0-0.61,0c3.29,5.87,6.4,11.83,9.32,17.89c0.09,0.18,0.33,0.21,0.49,0.13
				c2.91-1.52,4.88-3.66,6.67-6.36c2.4-3.62,7.34-5.35,11.4-6.42c-0.09-0.22-0.18-0.43-0.27-0.65c-7.64,3.77-14.52,9.68-17.64,17.79
				c-1.49,3.87-2.09,8.12-1.54,12.24c0.68,5.04,3.68,8.98,5.29,13.69c0.08,0.24,0.41,0.37,0.59,0.16
				c5.12-5.76,7.13-13.25,8.87-20.59c0.2-0.85,0.27-2.62,1.14-2.84c0.95-0.24,0.33,0.19,0.43,0.83c0.12,0.77-0.23,1.98-0.36,2.75
				c-0.33,1.96-1.33,4.03-1.44,5.99c-0.05,0.84,0.17,1.49,0.81,2.04c0.36,0.31,1.54,0.3,1.67,0.88c0.24,1.03-0.99,0.81-1.39,0.96
				c-3.43,1.18-3.71,4.38-5.11,7.45c-0.9,1.99-1.97,3.89-3.09,5.76c-1.17,1.95-0.83,2.37-0.53,4.79c1.21,9.7,1.74,19.49,1.67,29.26
				c-0.08,11.71-1.09,23.38-2.95,34.94c-0.05,0.32,0.23,0.53,0.52,0.4c19.18-8.17,14.95-34.63,23.67-49.92
				c0.1-0.17,0.04-0.39-0.13-0.49c-4.46-2.63-8.38-6.07-11.44-10.25c-0.58-0.79-1.37-1.69-1.74-2.6c-0.28-0.69-0.48-1.32,0.22-0.9
				c0.28,0.17,0.61,1.07,0.8,1.36c1.23,1.93,2.76,3.59,4.51,5.05c0.16,0.14,0.45,0.15,0.56-0.07c0.29-0.57,0.37-0.72,0.57-1.23
				c0.17-0.39,0.29-0.79,0.38-1.21c0.45,0.77,0.9,1.54,1.35,2.31c0.05,0.51-0.5,0.98-0.31,1.57c0.2,0.63,0.86,0.95,1.36,1.29
				c1.56,1.07,3.07,2.16,4.45,3.47c0.18,0.17,0.43,0.12,0.56-0.07c4.18-6.06,10.89-10.06,13.73-17.08c1.27-3.14,1.8-6.59,1.57-9.97
				c-0.26-3.73-2.21-7.06-2.34-10.73c-0.23,0.03-0.47,0.06-0.7,0.09c1.26,4.36,2.52,8.71,3.78,13.07c0.07,0.23,0.32,0.32,0.52,0.21
				c1.62-0.88,3.24-1.77,4.85-2.65c-0.16-0.16-0.32-0.32-0.49-0.49c-3.35,6.61-6.71,13.22-10.06,19.83
				c-0.15,0.29,0.09,0.58,0.4,0.52c0.79-0.14,1.58-0.29,2.37-0.43c0.32-0.06,0.63-0.11,0.95-0.17c1.07-0.35,1.13,0.36,0.19,2.12
				c-0.51,0.27-1.78,0.15-2.39,0.28c-1.84,0.39-3.58,1.19-5.12,2.26c-3.27,2.28-5.7,5.66-7.37,9.24
				c-4.51,9.67-2.92,20.92-7.14,30.71c-0.09,0.21-0.03,0.45,0.21,0.52c9.92,3.13,19.88-1.6,28.14-6.86c3.2-2.04,7-4.49,8.26-8.29
				c1.5-4.57-3.11-9.32-0.75-13.56c-0.22-0.06-0.44-0.12-0.66-0.18c-0.27,4.28,0.5,8.34,2.3,12.24c0.14,0.31,0.55,0.16,0.65-0.08
				c2.22-5.43,7.97-7.89,11.79-11.97c1.63-1.74,2.32-3.49,3.18-5.64c0.08-0.31,0.17-0.62,0.29-0.93c1.3-1.73,1.61-1.93,0.93-0.58
				c-0.08,0.49-0.49,1.28-0.64,1.75c-0.56,1.73-0.9,3.5-1.12,5.3c-0.03,0.26,0.33,0.45,0.53,0.31c5.27-3.65,10.95-6.54,17.01-8.64
				C243.28,113.97,243.09,113.28,242.66,113.43z"/>
		</g>
	</g>
	<g>
		<path class="st1" d="M77.48,155.28c-1.09,0.29-0.02,1.91,1.04,2.29c2.98,1.06,6.05,1.89,9.16,2.47c-0.87,4.95-1.74,9.9-2.61,14.86
			c2.89-1.41,1.85-5.68,2.46-8.83c0.65-3.37,3.67-5.87,6.94-6.92c0.6-0.19,1.2-0.33,1.81-0.45
			C89.66,159.12,82.93,158.83,77.48,155.28z"/>
		<g>
			<path class="st1" d="M77.3,154.98c-3.13,2.03,4.99,4.17,5.65,4.35c1.13,0.31,3.76,0.35,4.21,1.55c0.34,0.91-0.56,3.21-0.73,4.18
				c-0.57,3.25-1.14,6.5-1.71,9.75c-0.05,0.29,0.24,0.57,0.52,0.4c2.38-1.42,2.28-4.15,2.4-6.63c0.25-5.34,3.63-8.44,8.72-9.54
				c0.39-0.08,0.31-0.72-0.09-0.7c-6.43,0.38-12.98,0.12-18.61-3.36c-0.39-0.24-0.75,0.37-0.36,0.61
				c5.73,3.55,12.41,3.85,18.97,3.46c-0.03-0.23-0.06-0.47-0.09-0.7c-3.36,0.73-6.69,2.43-8.3,5.62c-1.59,3.14,0.34,8.63-2.99,10.61
				c0.17,0.13,0.35,0.27,0.52,0.4c0.87-4.95,1.74-9.9,2.61-14.86c0.03-0.18-0.05-0.4-0.25-0.44c-1.55-0.3-3.1-0.65-4.63-1.06
				c-0.61-0.17-1.22-0.34-1.82-0.52c-0.43-0.13-5.1-1.59-3.66-2.53C78.04,155.34,77.69,154.73,77.3,154.98z"/>
		</g>
	</g>
	<g>
		<path class="st1" d="M96.27,158.69c1.58-0.1,3.16-0.24,4.71-0.39c0.03,0,0.05-0.01,0.08-0.01
			C99.44,158.29,97.84,158.39,96.27,158.69z"/>
		<g>
			<path class="st1" d="M96.27,159.05c1.6-0.11,3.2-0.25,4.79-0.4c0.45-0.04,0.47-0.71,0-0.71c-1.64,0.01-3.27,0.12-4.88,0.41
				c-0.45,0.08-0.26,0.77,0.19,0.69c1.55-0.29,3.12-0.38,4.7-0.39c0-0.24,0-0.47,0-0.71c-1.59,0.15-3.19,0.29-4.79,0.4
				C95.81,158.37,95.81,159.08,96.27,159.05z"/>
		</g>
	</g>
</g>
</svg>
