<?xml version="1.0" encoding="utf-8"?>
<!-- Generator: Adobe Illustrator 23.0.1, SVG Export Plug-In . SVG Version: 6.00 Build 0)  -->
<svg version="1.1" id="Ebene_1" xmlns="http://www.w3.org/2000/svg" xmlns:xlink="http://www.w3.org/1999/xlink" x="0px" y="0px"
	 viewBox="0 0 300 300" style="enable-background:new 0 0 300 300;" xml:space="preserve">
<style type="text/css">
	.st0{fill:#99816B;}
	.st1{fill:#0E1117;}
	.st2{fill:#CDA26B;}
	.st3{fill:#48443B;}
</style>
<path class="st0" d="M147.63,210.02c0,0,5.43,15.5,8.82,15.99s7.46-0.48,4.75-5.33c-2.71-4.84-6.1-16.96-6.1-16.96L147.63,210.02z"
	/>
<path class="st0" d="M159.88,203.8c0,0,6.81,19.38,11.36,17.93c4.54-1.45,2.27-3.39,1.51-6.78c-0.76-3.39-6.06-17.44-6.06-17.44
	L159.88,203.8z"/>
<path class="st0" d="M46.63,204.9c0,0-9.02,8.81-8.26,11.33s2.76,5.03,5.25,1.57c2.49-3.46,9.81-9.76,9.81-9.76L46.63,204.9z"/>
<path class="st0" d="M61.99,211.62c0,0-1.04,12.57,1.18,13.97c2.23,1.4,5.38,1.99,5-2.25c-0.39-4.25,1.02-13.8,1.02-13.8
	L61.99,211.62z"/>
<path class="st1" d="M186.19,190.76c0,0-11.46,20.28-60.83,24.24s-76.7-4.85-89.48-9.26c-12.78-4.41-12.78-4.41-12.78-4.41
	l4.41-6.61l-11.9-9.26l7.93-8.38l-13.22-9.7c0,0,14.11-9.26,12.78-7.93c-1.32,1.32-8.82-9.7-8.82-9.7l9.26-7.05L11.2,125.97
	l12.78-4.85l-2.2-14.55l11.02-2.64l5.29-14.99l11.02,2.64l1.32-17.63l8.38,3.53c0,0,4.41-11.46,4.41-10.14
	c0,1.32,14.99,3.53,14.99,3.53s9.26-14.11,9.26-12.78c0,1.32,7.93,9.26,7.93,9.26L105.97,55l9.26,11.46l10.58-9.26l8.82,10.58
	l11.9-8.82l3.09,10.58l11.9-4.85l3.09,11.9l13.22-7.05l0.44,14.11l15.43-1.76l-0.44,8.82l11.9-3.53l3.09,12.34l11.46-1.76
	l-4.41,9.26l9.7,4.41l-4.85,7.93L186.19,190.76z"/>
<path class="st2" d="M278.97,167.02c0.72,0.71-43.92-35.17-51.38-45.81c-4.58-6.53-7.36-10.05-7.36-10.05l-1.88,5.21l-14.63-2.26
	l-2.66,6.13l-10.02-1.85l2.74,6.78l-6.73-1.08l-0.51,4.95l-16.64-4.77l7.26,6.49l-7.63-0.17l5.68,4.94l-8.2,4.84l7.8,4.17l-7.9,9.72
	l6.66,2.56l-5.51,4.87l8.17,3.67l-10.56,6.99l11.43-1.31l-8.68,13.41l9.99-1.98l-5.99,25.08c0,0,10.49-13.25,13.22-15.9
	s2.72-2.66,2.72-2.66l-0.71,9.95c0,0,3.97-3.29,4.94-5.68s0.98-2.39,0.98-2.39s3.13,5.78,2.66,8.54c-0.47,2.76,4.41-3.36,4.41-3.36
	l2.46-4.4l3.76,7.03l3.03-3.6c0,0,74.93-7.31,75.9-12.99C287.02,174.73,278.97,167.02,278.97,167.02z"/>
<ellipse transform="matrix(0.0859 -0.9963 0.9963 0.0859 78.5819 442.9904)" class="st3" cx="280.69" cy="178.67" rx="6.64" ry="6.04"/>
<ellipse class="st3" cx="202.67" cy="157.57" rx="2.21" ry="1.92"/>
<g>
	<g>
		<path class="st3" d="M241.27,186.53c2.36,3.06,6.38,4.14,10.04,3.07c1.76-0.52,1.27-2.42-0.51-1.9c-2.62,0.77-5.24-0.31-6.87-2.42
			C243.16,184.29,240.39,185.4,241.27,186.53L241.27,186.53z"/>
	</g>
</g>
<g>
	<g>
		<path class="st2" d="M54.16,105.48c2.95,0.27,5.77,0.96,8.52,2.06c1.24,0.5,3.38-1.29,1.67-1.97c-2.96-1.19-6.02-1.92-9.19-2.22
			C53.73,103.21,52.21,105.29,54.16,105.48L54.16,105.48z"/>
	</g>
</g>
<g>
	<g>
		<path class="st2" d="M59.8,90.85c1.62,0.74,3.24,1.47,4.86,2.21c1.17,0.53,3.35-1.15,1.68-1.91c-1.62-0.74-3.24-1.47-4.86-2.21
			C60.32,88.41,58.14,90.09,59.8,90.85L59.8,90.85z"/>
	</g>
</g>
<g>
	<g>
		<path class="st2" d="M77.87,84.46c1.62,1.04,3.23,2.08,4.85,3.12c0.63,0.4,1.51,0.32,2.09-0.15c0.47-0.38,0.76-1.2,0.13-1.61
			c-1.62-1.04-3.23-2.08-4.85-3.12c-0.63-0.4-1.51-0.32-2.09,0.15C77.53,83.24,77.24,84.05,77.87,84.46L77.87,84.46z"/>
	</g>
</g>
<g>
	<g>
		<path class="st2" d="M92.9,74.82c0.67,1.71,1.35,3.42,2.02,5.14c0.97-0.26,1.93-0.52,2.9-0.78c-0.24-0.61-0.49-1.21-0.73-1.82
			c-0.37-0.93-3.23-0.05-2.9,0.78c0.24,0.61,0.49,1.21,0.73,1.82c0.37,0.93,3.23,0.06,2.9-0.78c-0.67-1.71-1.35-3.42-2.02-5.14
			C95.43,73.11,92.57,73.99,92.9,74.82L92.9,74.82z"/>
	</g>
</g>
<g>
	<g>
		<path class="st2" d="M91.69,93.45c1.03,0.9,2.23,1.54,3.54,1.95c0.56,0.17,1.35-0.07,1.86-0.29c0.15-0.07,1.11-0.53,0.69-0.79
			c-0.35-0.21-0.71-0.43-1.06-0.64c-0.51-0.31-1.36-0.04-1.87,0.15c-0.15,0.06-1.31,0.58-0.86,0.86c0.35,0.21,0.71,0.43,1.06,0.64
			c0.85-0.36,1.7-0.72,2.55-1.08c-1.19-0.37-2.24-0.98-3.18-1.8c-0.41-0.36-1.44-0.02-1.87,0.15C92.34,92.67,91.29,93.1,91.69,93.45
			L91.69,93.45z"/>
	</g>
</g>
<g>
	<g>
		<path class="st2" d="M81.16,98.33c1.27,1.16,2.77,1.93,4.45,2.29c0.64,0.14,1.41-0.05,1.92-0.45c0.37-0.3,0.64-0.78,0.11-1.09
			c-0.43-0.25-0.87-0.51-1.3-0.76c-0.59-0.34-1.53-0.08-2.06,0.26c-0.43,0.28-0.83,0.84-0.24,1.19c0.43,0.25,0.87,0.51,1.3,0.76
			c0.68-0.51,1.35-1.03,2.03-1.54c-1.33-0.29-2.52-0.9-3.52-1.82C83.06,96.46,80.33,97.57,81.16,98.33L81.16,98.33z"/>
	</g>
</g>
<g>
	<g>
		<path class="st2" d="M34.25,116.2c2.05,0.71,4.17,1.03,6.33,0.95c0.56-0.02,1.63-0.19,1.92-0.76c0.29-0.55-0.25-0.74-0.75-0.72
			c-1.78,0.07-3.49-0.19-5.17-0.78c-0.64-0.22-1.47-0.03-2.04,0.31C34.23,115.39,33.59,115.97,34.25,116.2L34.25,116.2z"/>
	</g>
</g>
<g>
	<g>
		<path class="st2" d="M29.42,131.18c3.84,0.38,7.68,0.76,11.52,1.15c1.46,0.15,2.94-1.97,0.99-2.17
			c-3.84-0.38-7.68-0.76-11.52-1.15C28.95,128.87,27.47,130.99,29.42,131.18L29.42,131.18z"/>
	</g>
</g>
<g>
	<g>
		<path class="st2" d="M29.93,157.92c2.87,0.38,5.74,0.76,8.61,1.15c1.27,0.17,2.54-1.65,0.85-1.87c-2.87-0.38-5.74-0.76-8.61-1.15
			C29.52,155.88,28.24,157.7,29.93,157.92L29.93,157.92z"/>
	</g>
</g>
<g>
	<g>
		<path class="st2" d="M34.74,143.02c1.96,0.87,4.02,1.42,6.15,1.67c0.66,0.08,1.59-0.23,1.89-0.87c0.3-0.65-0.27-1.07-0.86-1.14
			c-1.91-0.23-3.72-0.76-5.48-1.54C35.29,140.64,33.08,142.28,34.74,143.02L34.74,143.02z"/>
	</g>
</g>
<g>
	<g>
		<path class="st2" d="M37.72,170.56c2.35,0.14,4.69-0.01,7-0.47c0.42-0.08,1.64-0.34,1.66-0.93c0.03-0.59-0.8-0.61-1.22-0.52
			c-2.08,0.41-4.15,0.54-6.27,0.41C37.87,168.99,35.78,170.44,37.72,170.56L37.72,170.56z"/>
	</g>
</g>
<g>
	<g>
		<path class="st2" d="M45.27,184.94c1.03-0.01,2.06-0.02,3.1-0.03c0.66-0.01,1.52-0.5,1.58-1.22c0.07-0.77-0.75-1.04-1.36-1.03
			c-1.03,0.01-2.06,0.02-3.1,0.03c-0.66,0.01-1.52,0.5-1.58,1.22C43.84,184.67,44.66,184.94,45.27,184.94L45.27,184.94z"/>
	</g>
</g>
<g>
	<g>
		<path class="st2" d="M51.09,198.33c2.39,0.18,4.75-0.33,6.87-1.45c0.77-0.41,0.69-1.02-0.25-0.94c-0.66,0.06-1.33,0.12-1.99,0.17
			c-0.58,0.05-1.58,0.19-1.93,0.73c-0.34,0.51,0.29,0.64,0.72,0.6c0.66-0.06,1.33-0.12,1.99-0.17c-0.08-0.31-0.17-0.63-0.25-0.94
			c-1.06,0.56-2.11,0.77-3.31,0.68c-0.67-0.05-1.51,0.12-2.05,0.55C50.47,197.9,50.48,198.28,51.09,198.33L51.09,198.33z"/>
	</g>
</g>
<g>
	<g>
		<path class="st2" d="M69.11,207.41c2.04-0.99,3.94-2.21,5.66-3.69c1.49-1.28-0.83-2.23-1.91-1.29c-1.54,1.32-3.19,2.43-5.02,3.31
			c-0.53,0.25-1.1,0.88-0.69,1.47C67.55,207.79,68.58,207.67,69.11,207.41L69.11,207.41z"/>
	</g>
</g>
<g>
	<g>
		<path class="st2" d="M83.74,207.4c1.33-1.33,2.65-2.65,3.98-3.98c0.49-0.49,0.21-1.17-0.37-1.39c-0.71-0.27-1.54,0.04-2.05,0.55
			c-1.33,1.33-2.65,2.65-3.98,3.98c-0.49,0.49-0.21,1.17,0.37,1.39C82.4,208.21,83.23,207.9,83.74,207.4L83.74,207.4z"/>
	</g>
</g>
<g>
	<g>
		<path class="st2" d="M62.58,174.4c2.22,0.1,4.4-0.16,6.54-0.73c0.28-0.08,1.24-0.33,1.3-0.73c0.07-0.41-0.54-0.39-0.81-0.37
			c-0.65,0.05-1.3,0.1-1.94,0.16c-0.53,0.04-1.63,0.2-1.94,0.7c-0.3,0.5,0.26,0.55,0.7,0.52c0.65-0.05,1.3-0.1,1.94-0.16
			c0.16-0.36,0.33-0.73,0.49-1.09c-1.46,0.39-2.92,0.53-4.42,0.46c-0.67-0.03-1.5,0.15-2.05,0.55
			C61.97,174.03,61.98,174.37,62.58,174.4L62.58,174.4z"/>
	</g>
</g>
<g>
	<g>
		<path class="st2" d="M51.52,164.81c2.95,0.13,5.82-0.06,8.73-0.59c1.85-0.34,1.24-2.46-0.57-2.13c-2.37,0.43-4.78,0.59-7.19,0.49
			c-0.69-0.03-1.6,0.18-1.88,0.91C50.38,164.12,50.84,164.78,51.52,164.81L51.52,164.81z"/>
	</g>
</g>
<g>
	<g>
		<path class="st2" d="M52.57,149.45c1.51-0.46,2.97-0.33,4.45,0.19c0.61,0.21,1.49-0.05,2.03-0.34c0.3-0.16,0.96-0.65,0.32-0.87
			c-2.31-0.8-4.77-0.74-7.1-0.04c-0.31,0.09-1.44,0.41-1.31,0.92C51.11,149.8,52.3,149.53,52.57,149.45L52.57,149.45z"/>
	</g>
</g>
<g>
	<g>
		<path class="st2" d="M51.71,133.12c2.52,0.3,4.96,0.89,7.32,1.82c0.56,0.22,1.32,0,1.86-0.19c0.1-0.04,1.31-0.6,0.88-0.77
			c-2.48-0.98-5.02-1.63-7.67-1.94c-0.66-0.08-1.43,0.08-2.02,0.39C51.9,132.52,51.04,133.04,51.71,133.12L51.71,133.12z"/>
	</g>
</g>
<g>
	<g>
		<path class="st2" d="M51.5,120.82c1.91,1.49,4.03,2.6,6.34,3.31c0.66,0.2,1.45,0.06,2.05-0.29c0.3-0.18,0.96-0.84,0.28-1.04
			c-2.18-0.66-4.17-1.67-5.97-3.07C53.44,119.13,50.78,120.27,51.5,120.82L51.5,120.82z"/>
	</g>
</g>
<g>
	<g>
		<path class="st2" d="M66.42,114.56c1.63,1.95,3.64,3.47,5.93,4.56c0.6,0.28,1.51,0.04,2.05-0.29c0.38-0.23,0.89-0.77,0.27-1.06
			c-2.17-1.03-4.01-2.48-5.55-4.32C68.51,112.73,65.73,113.74,66.42,114.56L66.42,114.56z"/>
	</g>
</g>
<g>
	<g>
		<path class="st2" d="M82.43,112.44c1.37,1.2,2.86,2.21,4.49,3.02c0.55,0.27,1.33,0.04,1.87-0.15c0.13-0.05,1.32-0.61,0.86-0.84
			c-1.63-0.81-3.13-1.82-4.49-3.02C84.57,110.93,81.97,112.04,82.43,112.44L82.43,112.44z"/>
	</g>
</g>
<g>
	<g>
		<path class="st2" d="M104.27,103.96c1.41,1.25,2.7,2.61,3.88,4.09c0.68,0.86,3.47-0.19,2.68-1.18c-1.18-1.47-2.47-2.83-3.88-4.09
			c-0.52-0.46-1.34-0.35-1.93-0.09C104.67,102.84,103.75,103.5,104.27,103.96L104.27,103.96z"/>
	</g>
</g>
<g>
	<g>
		<path class="st2" d="M114.38,93.06c1.38,1.64,3.02,2.92,4.91,3.91c1.25,0.66,3.3-1.17,1.65-2.04c-1.5-0.79-2.83-1.89-3.92-3.18
			C116.13,90.69,113.39,91.88,114.38,93.06L114.38,93.06z"/>
	</g>
</g>
<g>
	<g>
		<path class="st2" d="M111.24,79.19c1.03,0.88,2.06,1.77,3.1,2.65c0.41,0.35,1.44,0,1.87-0.16c0.2-0.07,1.25-0.5,0.86-0.83
			c-1.03-0.88-2.06-1.77-3.1-2.65c-0.41-0.35-1.44,0-1.87,0.16C111.9,78.44,110.85,78.86,111.24,79.19L111.24,79.19z"/>
	</g>
</g>
<g>
	<g>
		<path class="st2" d="M128.66,80.45c0.53,2.61,1.88,4.92,3.9,6.66c0.72,0.62,3.41-0.49,2.7-1.1c-1.94-1.67-3.19-3.83-3.7-6.34
			C131.38,78.77,128.47,79.48,128.66,80.45L128.66,80.45z"/>
	</g>
</g>
<g>
	<g>
		<path class="st2" d="M133.88,100.09c1.03,1.04,2.05,2.07,3.08,3.11c0.53,0.53,1.32,0.57,1.98,0.25c0.45-0.22,1.2-1.01,0.67-1.55
			c-1.03-1.04-2.05-2.07-3.08-3.11c-0.53-0.53-1.32-0.57-1.98-0.25C134.1,98.77,133.35,99.56,133.88,100.09L133.88,100.09z"/>
	</g>
</g>
<g>
	<g>
		<path class="st2" d="M101.1,122.47c1.62,0.6,3.23,1.21,4.85,1.81c1,0.38,3.38-1.08,1.74-1.69c-1.62-0.6-3.23-1.21-4.85-1.81
			C101.84,120.41,99.47,121.86,101.1,122.47L101.1,122.47z"/>
	</g>
</g>
<g>
	<g>
		<path class="st2" d="M83.32,135.47c1.56,1.52,3.55,2.23,5.7,2.31c0.59,0.02,1.58-0.23,1.92-0.76c0.36-0.57-0.31-0.72-0.75-0.73
			c-1.6-0.06-3.03-0.8-4.16-1.9C85.37,133.74,82.65,134.81,83.32,135.47L83.32,135.47z"/>
	</g>
</g>
<g>
	<g>
		<path class="st2" d="M75.27,148.85c2.38,1.56,5.09,1.99,7.88,1.58c0.35-0.05,1.67-0.34,1.69-0.83c0.02-0.54-0.83-0.4-1.18-0.35
			c-2.01,0.29-3.98-0.31-5.66-1.41C77.28,147.37,74.78,148.53,75.27,148.85L75.27,148.85z"/>
	</g>
</g>
<g>
	<g>
		<path class="st2" d="M74.95,161.8c2.61,0.36,5.23,0.43,7.86,0.22c0.49-0.04,1.7-0.19,1.93-0.72c0.22-0.52-0.19-0.64-0.72-0.6
			c-2.42,0.19-4.82,0.12-7.23-0.21c-0.61-0.08-1.58,0.12-2.05,0.55C74.34,161.41,74.33,161.71,74.95,161.8L74.95,161.8z"/>
	</g>
</g>
<g>
	<g>
		<path class="st2" d="M70.49,185.32c1.77,0.11,3.56-0.25,5.12-1.1c0.44-0.24,1.15-0.73,0.73-1.31c-0.37-0.51-1.48-0.36-1.94-0.11
			c-0.91,0.5-1.8,0.74-2.84,0.67c-0.64-0.04-1.58,0.21-1.9,0.83C69.35,184.92,69.94,185.29,70.49,185.32L70.49,185.32z"/>
	</g>
</g>
<g>
	<g>
		<path class="st2" d="M81.49,195.21c2.21-0.55,4.24-1.57,5.99-3.01c1.51-1.25-0.78-2.41-1.95-1.44c-1.37,1.13-2.88,1.9-4.61,2.33
			C79.11,193.54,79.68,195.66,81.49,195.21L81.49,195.21z"/>
	</g>
</g>
<g>
	<g>
		<path class="st2" d="M96.47,201.7c1.03-0.74,2.06-1.47,3.1-2.21c0.43-0.31,0.38-0.62-0.18-0.66c-0.64-0.04-1.52,0.17-2.05,0.55
			c-1.03,0.74-2.06,1.47-3.1,2.21c-0.43,0.31-0.38,0.62,0.18,0.66C95.06,202.29,95.93,202.08,96.47,201.7L96.47,201.7z"/>
	</g>
</g>
<g>
	<g>
		<path class="st2" d="M101.83,209.02c2.44-0.25,4.85-1.34,5.98-3.64c0.26-0.53-1-0.44-1.19-0.41c-0.55,0.09-1.41,0.31-1.68,0.86
			c-0.32,0.65-1.06,1.75-1.9,1.84c-0.6,0.06-1.55,0.19-1.93,0.73C100.75,208.91,101.42,209.06,101.83,209.02L101.83,209.02z"/>
	</g>
</g>
<g>
	<g>
		<path class="st2" d="M119.57,208.74c1.18-1.33,2.36-2.65,3.54-3.98c0.46-0.52,0.22-1.24-0.4-1.48c-0.7-0.27-1.56,0-2.05,0.55
			c-1.18,1.33-2.36,2.65-3.54,3.98c-0.46,0.52-0.22,1.24,0.4,1.48C118.22,209.56,119.08,209.29,119.57,208.74L119.57,208.74z"/>
	</g>
</g>
<g>
	<g>
		<path class="st2" d="M135.61,203.15c0.72-1.48,1.45-2.96,2.17-4.44c0.32-0.67-0.3-1.22-0.91-1.32c-0.72-0.12-1.55,0.25-1.88,0.91
			c-0.72,1.48-1.45,2.96-2.17,4.44c-0.32,0.67,0.3,1.22,0.91,1.32C134.45,204.18,135.29,203.82,135.61,203.15L135.61,203.15z"/>
	</g>
</g>
<g>
	<g>
		<path class="st2" d="M107.9,190.81c2.02-0.77,3.68-2.32,4.34-4.41c0.29-0.93-2.6-0.54-2.89,0.39c-0.4,1.3-1.27,2.43-2.57,2.92
			c-0.38,0.14-1.17,0.61-0.79,1.1C106.36,191.29,107.47,190.97,107.9,190.81L107.9,190.81z"/>
	</g>
</g>
<g>
	<g>
		<path class="st2" d="M94.75,182.8c1.33-1.03,2.66-2.06,3.98-3.09c0.46-0.36,0.33-0.73-0.22-0.82c-0.64-0.11-1.54,0.15-2.05,0.55
			c-1.33,1.03-2.66,2.06-3.98,3.09c-0.46,0.36-0.33,0.73,0.22,0.82C93.34,183.46,94.24,183.2,94.75,182.8L94.75,182.8z"/>
	</g>
</g>
<g>
	<g>
		<path class="st2" d="M76.08,175.35c1.65-0.4,3.23-1.04,4.69-1.9c0.31-0.18,0.77-0.58,0.46-0.96c-0.33-0.39-1.12-0.22-1.53-0.13
			c-0.44,0.09-0.89,0.19-1.33,0.28c-0.41,0.09-1.42,0.51-1.26,1.08c0.16,0.59,1.26,0.38,1.63,0.3c0.44-0.09,0.89-0.19,1.33-0.28
			c-0.36-0.36-0.72-0.73-1.08-1.09c-1.04,0.61-2.11,1.03-3.28,1.31c-0.4,0.1-1.42,0.5-1.26,1.08
			C74.6,175.64,75.7,175.44,76.08,175.35L76.08,175.35z"/>
	</g>
</g>
<g>
	<g>
		<path class="st2" d="M67.78,196.92c2.33-0.82,4.66-1.64,6.99-2.46c0.51-0.18,1.39-0.6,1.21-1.29c-0.17-0.64-1.2-0.69-1.69-0.52
			c-2.33,0.82-4.66,1.64-6.99,2.46c-0.51,0.18-1.39,0.6-1.21,1.29C66.26,197.04,67.28,197.09,67.78,196.92L67.78,196.92z"/>
	</g>
</g>
<g>
	<g>
		<path class="st2" d="M100.46,163.07c1.83-0.32,3.54-1.05,4.9-2.33c0.44-0.41,0.32-0.87-0.27-1c-0.64-0.15-1.57,0.1-2.05,0.55
			c-0.62,0.58-1.33,1.06-2.18,1.21c-0.51,0.09-1.54,0.34-1.65,0.97C99.1,163.1,100.07,163.14,100.46,163.07L100.46,163.07z"/>
	</g>
</g>
<g>
	<g>
		<path class="st2" d="M100.51,143.82c2.8-0.43,5.61-0.86,8.41-1.29c0.57-0.09,1.57-0.41,1.61-1.13c0.03-0.68-0.74-0.96-1.32-0.88
			c-2.8,0.43-5.61,0.86-8.41,1.29c-0.57,0.09-1.57,0.41-1.61,1.13C99.16,143.62,99.94,143.91,100.51,143.82L100.51,143.82z"/>
	</g>
</g>
<g>
	<g>
		<path class="st2" d="M107.72,132.8c2.88,0.71,5.8,1.13,8.77,1.23c0.59,0.02,1.65-0.19,1.9-0.83c0.24-0.61-0.21-0.99-0.83-1.02
			c-2.75-0.1-5.44-0.47-8.11-1.13C108.38,130.79,106.02,132.38,107.72,132.8L107.72,132.8z"/>
	</g>
</g>
<g>
	<g>
		<path class="st2" d="M36.7,195.35c2.92-0.64,5.74-1.59,8.47-2.81c1.82-0.82,0.18-2.05-1.21-1.42c-2.49,1.12-5.05,1.96-7.71,2.55
			C34.46,194.05,34.93,195.74,36.7,195.35L36.7,195.35z"/>
	</g>
</g>
<g>
	<g>
		<path class="st2" d="M124.46,119.98c2.36-0.02,4.57,0.57,6.64,1.7c0.49,0.27,1.37-0.03,1.86-0.21c0.13-0.05,1.29-0.53,0.88-0.75
			c-2.32-1.27-4.84-1.86-7.48-1.84c-0.62,0.01-1.55,0.14-2.05,0.55C123.96,119.72,123.82,119.99,124.46,119.98L124.46,119.98z"/>
	</g>
</g>
<g>
	<g>
		<path class="st2" d="M127.59,107.95c2.81,1.15,5.63,2.29,8.44,3.44c0.55,0.22,1.33,0.01,1.86-0.19c0.1-0.04,1.31-0.6,0.88-0.77
			c-2.81-1.15-5.63-2.29-8.44-3.44c-0.55-0.22-1.33-0.01-1.86,0.19C128.36,107.22,127.16,107.78,127.59,107.95L127.59,107.95z"/>
	</g>
</g>
<g>
	<g>
		<path class="st2" d="M152.39,100.02c1.48,1.02,2.96,2.04,4.45,3.06c0.54,0.37,1.33,0.22,1.91-0.01c0.23-0.09,1.32-0.72,0.79-1.09
			c-1.48-1.02-2.96-2.04-4.45-3.06c-0.54-0.37-1.33-0.22-1.91,0.01C152.96,99.03,151.86,99.66,152.39,100.02L152.39,100.02z"/>
	</g>
</g>
<g>
	<g>
		<path class="st2" d="M147.74,77.37c0.77,2.05,1.54,4.1,2.31,6.15c0.52,1.38,3.41,0.58,2.9-0.78c-0.77-2.05-1.54-4.1-2.31-6.15
			C150.11,75.21,147.23,76.01,147.74,77.37L147.74,77.37z"/>
	</g>
</g>
<g>
	<g>
		<path class="st2" d="M165.34,86.16c0.01,2.57,0.39,5.05,1.17,7.49c0.32,1.02,3.21,0.21,2.9-0.78c-0.78-2.44-1.17-4.93-1.17-7.49
			C168.24,84.48,165.34,85.03,165.34,86.16L165.34,86.16z"/>
	</g>
</g>
<g>
	<g>
		<path class="st2" d="M180.16,94.34c-0.19,1.87-0.07,3.72,0.39,5.55c0.28,1.12,3.18,0.36,2.9-0.78c-0.42-1.68-0.55-3.36-0.38-5.08
			C183.2,92.75,180.27,93.24,180.16,94.34L180.16,94.34z"/>
	</g>
</g>
<g>
	<g>
		<path class="st2" d="M193,99.67c-0.17,1.62-0.33,3.24-0.5,4.86c-0.12,1.15,2.8,0.61,2.9-0.37c0.17-1.62,0.33-3.24,0.5-4.86
			C196.02,98.16,193.1,98.7,193,99.67L193,99.67z"/>
	</g>
</g>
<g>
	<g>
		<path class="st2" d="M165.94,104.48c-0.64,2.15-0.21,4.38,1.1,6.19c0.69,0.95,3.47-0.11,2.67-1.22c-1.13-1.56-1.4-3.41-0.85-5.25
			C169.23,102.98,166.28,103.34,165.94,104.48L165.94,104.48z"/>
	</g>
</g>
<g>
	<g>
		<path class="st2" d="M145.37,118.67c2.31,1.19,4.78,1.73,7.36,1.8c1.7,0.05,2.18-2.18,0.23-2.24c-2.1-0.06-4.08-0.65-5.94-1.6
			C145.76,115.99,143.71,117.82,145.37,118.67L145.37,118.67z"/>
	</g>
</g>
<g>
	<g>
		<path class="st2" d="M130.41,133.3c1.92,0.43,3.84,0.86,5.76,1.29c0.64,0.14,1.45-0.09,2.02-0.38c0.24-0.12,1-0.59,0.36-0.73
			c-1.92-0.43-3.84-0.86-5.76-1.29c-0.64-0.14-1.45,0.09-2.02,0.38C130.53,132.68,129.76,133.16,130.41,133.3L130.41,133.3z"/>
	</g>
</g>
<g>
	<g>
		<path class="st2" d="M117.37,150.64c2.07,0.38,4.15,0.77,6.22,1.15c1.39,0.26,2.95-1.69,1.02-2.05c-2.07-0.38-4.15-0.77-6.22-1.15
			C117,148.33,115.44,150.28,117.37,150.64L117.37,150.64z"/>
	</g>
</g>
<g>
	<g>
		<path class="st2" d="M111.83,162.58c2.4,0.39,4.8,0.49,7.22,0.26c0.51-0.05,1.64-0.2,1.94-0.7c0.29-0.49-0.25-0.53-0.69-0.49
			c-2.05,0.19-4.07,0.12-6.09-0.21c-0.67-0.11-1.43,0.06-2.03,0.37C111.96,161.91,111.15,162.47,111.83,162.58L111.83,162.58z"/>
	</g>
</g>
<g>
	<g>
		<path class="st2" d="M114.7,174.9c2.06,0,4.13,0,6.19,0c1.69,0,2.19-2.23,0.23-2.23c-2.06,0-4.13,0-6.19,0
			C113.23,172.67,112.74,174.9,114.7,174.9L114.7,174.9z"/>
	</g>
</g>
<g>
	<g>
		<path class="st2" d="M122.63,186.31c1.62-0.27,3.08-0.8,4.5-1.62c0.4-0.23,0.7-0.79,0.39-1.21c-0.33-0.45-1.1-0.41-1.58-0.29
			c-0.4,0.1-0.8,0.2-1.2,0.3c-0.54,0.13-1.37,0.63-1.2,1.3c0.17,0.68,1.19,0.65,1.69,0.52c0.4-0.1,0.8-0.2,1.2-0.3
			c-0.4-0.5-0.79-1-1.19-1.5c-0.7,0.41-1.51,0.71-2.32,0.84c-0.6,0.1-1.52,0.39-1.61,1.11C121.23,186.14,122.11,186.4,122.63,186.31
			L122.63,186.31z"/>
	</g>
</g>
<g>
	<g>
		<path class="st2" d="M135.67,192.07c2.65-1.48,5.3-2.96,7.95-4.44c0.55-0.31,0.69-0.92,0.2-1.32c-0.55-0.45-1.55-0.06-2.07,0.22
			c-2.65,1.48-5.3,2.96-7.95,4.44c-0.55,0.31-0.69,0.92-0.2,1.32C134.16,192.74,135.16,192.36,135.67,192.07L135.67,192.07z"/>
	</g>
</g>
<g>
	<g>
		<path class="st2" d="M137.34,170.48c2.31,0.16,4.56-0.03,6.82-0.55c0.34-0.08,1.43-0.45,1.29-0.96c-0.14-0.53-1.3-0.25-1.6-0.19
			c-1.54,0.35-3.11,0.45-4.68,0.34c-0.67-0.05-1.51,0.11-2.05,0.55C136.71,170.01,136.71,170.44,137.34,170.48L137.34,170.48z"/>
	</g>
</g>
<g>
	<g>
		<path class="st2" d="M131.04,156.87c1.62,0,3.24,0,4.86,0c0.61,0,1.57-0.21,1.92-0.77c0.35-0.56-0.3-0.77-0.76-0.77
			c-1.62,0-3.24,0-4.86,0c-0.61,0-1.57,0.21-1.92,0.77C129.93,156.66,130.57,156.87,131.04,156.87L131.04,156.87z"/>
	</g>
</g>
<g>
	<g>
		<path class="st2" d="M134.29,142.78c2.2,0.62,4.4,1.25,6.6,1.87c1.02,0.29,3.41-1.21,1.74-1.69c-2.2-0.62-4.4-1.25-6.6-1.87
			C135.01,140.8,132.62,142.31,134.29,142.78L134.29,142.78z"/>
	</g>
</g>
<g>
	<g>
		<path class="st2" d="M150.01,133.54c1.46,0.64,2.97,1.04,4.55,1.25c0.65,0.09,1.6-0.23,1.89-0.87c0.32-0.68-0.28-1.03-0.86-1.14
			c-0.45-0.08-0.9-0.16-1.35-0.25c-0.64-0.12-1.61,0.25-1.89,0.87c-0.32,0.68,0.28,1.03,0.86,1.14c0.45,0.08,0.9,0.16,1.35,0.25
			c0.34-0.67,0.69-1.34,1.03-2.01c-1.35-0.18-2.63-0.57-3.88-1.12C150.56,131.17,148.35,132.81,150.01,133.54L150.01,133.54z"/>
	</g>
</g>
<g>
	<g>
		<path class="st2" d="M146.98,158.11c2.06-0.16,4.12-0.33,6.19-0.49c1.67-0.13,2.2-2.4,0.23-2.24c-2.06,0.16-4.12,0.33-6.19,0.49
			C145.54,156,145.01,158.26,146.98,158.11L146.98,158.11z"/>
	</g>
</g>
<g>
	<g>
		<path class="st2" d="M148.24,205.42c1.84-2.19,3.89-4.15,6.18-5.86c0.49-0.37,0.31-0.65-0.21-0.77c-0.61-0.14-1.56,0.18-2.05,0.55
			c-2.43,1.81-4.63,3.88-6.58,6.2c-0.42,0.51,0.37,0.61,0.72,0.61C146.91,206.14,147.83,205.91,148.24,205.42L148.24,205.42z"/>
	</g>
</g>
<g>
	<g>
		<path class="st2" d="M150.88,192.08c0.89-0.73,1.77-1.47,2.66-2.2c0.45-0.37,0.33-0.81-0.24-0.91c-0.66-0.11-1.53,0.12-2.05,0.55
			c-0.89,0.73-1.77,1.47-2.66,2.2c-0.45,0.37-0.33,0.81,0.24,0.91C149.49,192.74,150.37,192.51,150.88,192.08L150.88,192.08z"/>
	</g>
</g>
<g>
	<g>
		<path class="st2" d="M144.76,178.59c0.91,0.05,1.87,0.1,2.76-0.15c0.75-0.21,1.89-0.78,1.36-1.69c-0.12-0.2-0.6-0.25-0.78-0.26
			c-0.38-0.01-0.79,0.08-1.14,0.23c-0.47,0.2-1.1,0.61-0.77,1.17c-0.26-0.29-0.04-0.56,0.64-0.8c0.55-0.13,0.68-0.17,0.4-0.12
			c-0.29,0.03,0.21,0.01-0.16,0.01c-0.39,0-0.79-0.01-1.18-0.04c-0.63-0.04-1.55,0.23-1.91,0.79
			C143.6,178.32,144.3,178.56,144.76,178.59L144.76,178.59z"/>
	</g>
</g>
<g>
	<g>
		<path class="st2" d="M90.33,171.71c-0.15-0.13-0.3-0.25-0.46-0.38c-0.67,0.4-1.34,0.8-2.02,1.2c2.61-0.03,5.21-0.06,7.82-0.09
			c0.55-0.01,1.66-0.19,1.91-0.79c0.24-0.58-0.21-0.84-0.78-0.84c-2.61,0.03-5.21,0.06-7.82,0.09c-0.42,0-2.36,0.39-2.02,1.2
			c0.23,0.54,0.49,0.81,1.05,0.99c0.65,0.21,1.47,0.12,2.05-0.28C90.37,172.62,91.02,171.94,90.33,171.71L90.33,171.71z"/>
	</g>
</g>
<g>
	<g>
		<path class="st2" d="M88.84,150.11c2.99,0.45,5.97,0.54,8.98,0.31c0.75-0.06,3.16-1.27,1.27-1.12c-2.63,0.2-5.24,0.1-7.86-0.29
			c-0.65-0.1-1.44,0.07-2.02,0.38C89.01,149.5,88.17,150.02,88.84,150.11L88.84,150.11z"/>
	</g>
</g>
<g>
	<g>
		<path class="st2" d="M65.23,139.08c1.91,0.31,3.83,0.62,5.74,0.93c0.62,0.1,1.57-0.15,2.05-0.55c0.44-0.37,0.39-0.63-0.19-0.73
			c-1.91-0.31-3.83-0.62-5.74-0.93c-0.62-0.1-1.57,0.15-2.05,0.55C64.6,138.72,64.65,138.98,65.23,139.08L65.23,139.08z"/>
	</g>
</g>
<g>
	<g>
		<path class="st2" d="M182.8,110.68c-0.41,2.22-0.81,4.44-1.22,6.65c-0.24,1.32,2.7,0.9,2.92-0.28c0.41-2.22,0.81-4.44,1.22-6.65
			C185.97,109.09,183.02,109.51,182.8,110.68L182.8,110.68z"/>
	</g>
</g>
<g>
	<g>
		<path class="st2" d="M206.85,103.06c-1.03,1.92-2.07,3.83-3.1,5.75c-0.61,1.13,2.26,0.77,2.68,0c1.03-1.92,2.07-3.83,3.1-5.75
			C210.14,101.92,207.27,102.28,206.85,103.06L206.85,103.06z"/>
	</g>
</g>
</svg>
