<?xml version="1.0" encoding="utf-8"?>
<!-- Generator: Adobe Illustrator 23.0.1, SVG Export Plug-In . SVG Version: 6.00 Build 0)  -->
<svg version="1.1" id="Ebene_1" xmlns="http://www.w3.org/2000/svg" xmlns:xlink="http://www.w3.org/1999/xlink" x="0px" y="0px"
	 viewBox="0 0 200 200" style="enable-background:new 0 0 200 200;" xml:space="preserve">
<style type="text/css">
	.st0{fill:#99816B;}
	.st1{fill:#0E1117;}
	.st2{fill:#CDA26B;}
	.st3{fill:#48443B;}
</style>
<g>
	<path class="st0" d="M147.72,140.66c0,0,3.01,8.61,4.9,8.88s4.14-0.27,2.64-2.96c-1.51-2.69-3.39-9.42-3.39-9.42L147.72,140.66z"/>
	<path class="st0" d="M59.86,138.72c0,0-3.01,8.61-4.9,8.88c-1.88,0.27-4.14-0.27-2.64-2.96c1.51-2.69,3.39-9.42,3.39-9.42
		L59.86,138.72z"/>
	<path class="st0" d="M124.76,146.95c0,0,1.94,19.18,6.4,18.85c4.46-0.32,2.82-2.59,2.88-5.85c0.06-3.26-1.68-17.24-1.68-17.24
		L124.76,146.95z"/>
	<path class="st0" d="M85.05,146.95c0,0-1.94,19.18-6.4,18.85c-4.46-0.32-2.82-2.59-2.88-5.85c-0.06-3.26,1.68-17.24,1.68-17.24
		L85.05,146.95z"/>
	<path class="st1" d="M106.26,150.57c21.99-1.83,36.31-10.08,36.31-10.08l20.51,3.67l-5.5-14.66l14.02,0.31l-13.1-14.97l14.79-1.72
		L163.08,102l12.83-9.16l-11.91-5.5l12.2-12.45l-18.61-10.47l8.25-8.25L151.17,46.1l5.5-12.83l-18.33-1.83l-0.92-15.58l-14.66,11
		l-3.67-14.66l-11.91,13.75L94.92,12L83.35,29.6L75.1,14.94L67.77,35.1L57.69,22.27l-0.92,24.74l-15.31-3.33L41.2,60.76l-13.28-1.59
		l10.53,19H25.62l9.16,15.58l-12.83,11l20.16,9.16l-14.66,11l17.41,2.75l-5.5,11c0,0,11.93-1.76,14.68-1.76l-1.94,3.6l10.29-0.69
		l0.22,5.95l11.34-3.6L106.26,150.57z"/>
	<path class="st2" d="M143.26,106.6"/>
	<path class="st2" d="M150.25,121.54l-5.96,3.83l5.9,2.69l-9.13,5.17l5.87,6.6l-6.34,2.4l1.91,7.41l-9.07-1.48l-0.46,7.44
		l-6.07-4.56c-4.57,11.26-8.64,20.22-10.51,24.46c0,0-3.85,10.3-11.15,10.37c-4.72,0.04-16.86-19.71-25.62-36.05l-2.34,5.5
		l-0.99-6.76l-7.25,0.57l2.45-9.02l-9.08-0.31l6.79-8.67l-5.72-2.7l4.61-5.45l-4.46-0.52c0,0-7.19-0.22-6.39-1
		c2.31-2.29,8.39-6.52,8.39-6.52s0,0-2.3,0.01s-6.34-2.12-6.34-2.12l8.51-2.79c0,0-1.53-1.29-2.2-1.86
		c-2.67-2.25-7.65-7.05-7.65-7.05l12.02-1.43l-2.54-7.51l13.99,2.55l-4.82-8.9l9.26,6.26l0.38-7.92l5.85,2.86l-0.05-6.31l10.66,3.17
		l0.92-7.79l6.71,5.07l2.25-6.32l2.65,4.62l2.98-2.18l1.81,5.03l4.48-1.76c0,0-0.85,6.66-1.05,7.25s8.99-3.95,8.99-3.95l-0.28,6.95
		l6.93-1.43l-6.04,6.95l9.9-2.24l0.2,7.04l3.95-0.04l-3.7,8.44l7.43,1.3l-5.46,6.37L150.25,121.54z"/>
	
		<ellipse transform="matrix(0.0279 -0.9996 0.9996 0.0279 -76.9389 281.4144)" class="st3" cx="106.22" cy="180.26" rx="5.67" ry="6.23"/>
	<ellipse class="st3" cx="91.18" cy="126.54" rx="2.07" ry="1.8"/>
	<ellipse class="st3" cx="118.99" cy="126.54" rx="2.07" ry="1.8"/>
	<g>
		<g>
			<path class="st2" d="M76.98,34.67c0.72,1.92,1.45,3.85,2.17,5.77c0.52,1.38,3.41,0.58,2.9-0.78c-0.72-1.92-1.45-3.85-2.17-5.77
				C79.36,32.52,76.47,33.32,76.98,34.67L76.98,34.67z"/>
		</g>
	</g>
	<g>
		<g>
			<path class="st2" d="M97.89,31.15c-0.74,2.29-1.11,4.62-1.12,7.03c-0.01,1.2,2.89,0.6,2.9-0.36c0.01-2.41,0.38-4.74,1.12-7.03
				C101.11,29.78,98.21,30.16,97.89,31.15L97.89,31.15z"/>
		</g>
	</g>
	<g>
		<g>
			<path class="st2" d="M65.1,44.39c0.38,1.73,1.06,3.34,2.01,4.83c0.58,0.91,3.38-0.08,2.68-1.18c-0.87-1.36-1.45-2.84-1.79-4.42
				C67.75,42.5,64.84,43.23,65.1,44.39L65.1,44.39z"/>
		</g>
	</g>
	<g>
		<g>
			<path class="st2" d="M128.62,36.2c-1.29,1.68-2.57,3.36-3.86,5.04c-1.09,1.42,1.66,1.65,2.39,0.71c1.29-1.68,2.57-3.36,3.86-5.04
				C132.1,35.48,129.34,35.26,128.62,36.2L128.62,36.2z"/>
		</g>
	</g>
	<g>
		<g>
			<path class="st2" d="M51.56,55.38c0.2,1.76,0.96,3.34,2.17,4.63c0.57,0.61,3.3-0.42,2.71-1.05c-1.13-1.22-1.79-2.71-1.98-4.36
				C54.38,53.88,51.46,54.48,51.56,55.38L51.56,55.38z"/>
		</g>
	</g>
	<g>
		<g>
			<path class="st2" d="M53.44,87.68c1.28,1.4,2.91,2.21,4.76,2.57c0.63,0.12,1.56-0.15,2.05-0.55c0.46-0.38,0.36-0.68-0.21-0.79
				c-1.52-0.3-2.84-1.14-3.88-2.28C55.59,86.02,52.86,87.04,53.44,87.68L53.44,87.68z"/>
		</g>
	</g>
	<g>
		<g>
			<path class="st2" d="M46.55,71.53c1.7,0.44,3.04,1.43,3.98,2.9c0.7,1.09,3.46-0.01,2.65-1.27c-1.14-1.77-2.92-3.04-4.96-3.57
				c-0.7-0.18-1.57-0.04-2.05,0.55C45.78,70.63,45.87,71.36,46.55,71.53L46.55,71.53z"/>
		</g>
	</g>
	<g>
		<g>
			<path class="st2" d="M40.66,85.47c0.74,0.19,1.48,0.37,2.21,0.56c0.62,0.16,1.46-0.14,2.02-0.39c0.25-0.11,0.99-0.52,0.38-0.68
				c-0.74-0.19-1.48-0.37-2.21-0.56c-0.62-0.16-1.46,0.14-2.02,0.39C40.78,84.9,40.04,85.31,40.66,85.47L40.66,85.47z"/>
		</g>
	</g>
	<g>
		<g>
			<path class="st2" d="M39.47,99.6c1.44,0.64,2.88,1.27,4.32,1.91c0.58,0.26,1.3,0.08,1.87-0.14c0.12-0.04,1.34-0.66,0.85-0.87
				c-1.44-0.64-2.88-1.27-4.32-1.91c-0.58-0.26-1.3-0.08-1.87,0.14C40.21,98.78,38.99,99.39,39.47,99.6L39.47,99.6z"/>
		</g>
	</g>
	<g>
		<g>
			<path class="st2" d="M45.25,121.59c1.55-0.61,2.9-1.84,3.52-3.4c0.58-1.46-2.32-1.3-2.74-0.22c-0.41,1.04-1.11,1.77-2.01,2.12
				c-0.48,0.19-1.14,0.83-0.72,1.36C43.74,122.01,44.7,121.81,45.25,121.59L45.25,121.59z"/>
		</g>
	</g>
	<g>
		<g>
			<path class="st2" d="M53.43,130.58c1.78-0.68,3.33-1.96,3.74-3.89c0.15-0.69-2.7-0.25-2.86,0.5c-0.22,1.02-0.85,2.29-1.89,2.68
				c-0.26,0.1-1.2,0.45-0.86,0.86C51.88,131.1,53.11,130.7,53.43,130.58L53.43,130.58z"/>
		</g>
	</g>
	<g>
		<g>
			<path class="st2" d="M59.55,70.47c0.89,1.13,1.78,2.26,2.67,3.39c0.64,0.82,3.43-0.21,2.68-1.16c-0.89-1.13-1.78-2.26-2.67-3.39
				C61.59,68.49,58.8,69.51,59.55,70.47L59.55,70.47z"/>
		</g>
	</g>
	<g>
		<g>
			<path class="st2" d="M65.28,57.07c0.74,1.29,1.47,2.58,2.21,3.88c0.4,0.71,3.13-0.37,2.9-0.78c-0.74-1.29-1.47-2.58-2.21-3.88
				C67.77,55.59,65.05,56.66,65.28,57.07L65.28,57.07z"/>
		</g>
	</g>
	<g>
		<g>
			<path class="st2" d="M152.51,97.72c1.46-0.26,2.93-0.51,4.39-0.77c0.37-0.07,1.62-0.31,1.7-0.79c0.08-0.5-0.92-0.32-1.16-0.28
				c-1.46,0.26-2.93,0.51-4.39,0.77c-0.37,0.07-1.62,0.31-1.7,0.79C151.27,97.94,152.27,97.76,152.51,97.72L152.51,97.72z"/>
		</g>
	</g>
	<g>
		<g>
			<path class="st2" d="M126.49,64.44c-0.77,1.27-1.54,2.54-2.31,3.82c-0.27,0.45,1.03,0.3,1.16,0.28c0.52-0.09,1.39-0.28,1.7-0.79
				c0.77-1.27,1.54-2.54,2.31-3.82c0.27-0.45-1.03-0.3-1.16-0.28C127.66,63.75,126.79,63.94,126.49,64.44L126.49,64.44z"/>
		</g>
	</g>
	<g>
		<g>
			<path class="st2" d="M88.6,68.48c0.41,1.43,0.81,2.86,1.22,4.29c0.18,0.64,3.08-0.14,2.9-0.78c-0.41-1.43-0.81-2.86-1.22-4.29
				C91.31,67.06,88.42,67.85,88.6,68.48L88.6,68.48z"/>
		</g>
	</g>
	<g>
		<g>
			<path class="st2" d="M77.62,60.95c-0.07,1.18,0.46,2.22,1.44,2.88c0.59,0.4,1.53,0.19,2.07-0.2c0.48-0.34,0.77-1.01,0.18-1.41
				c-0.5-0.34-0.8-0.92-0.76-1.53C80.63,59.26,77.69,59.72,77.62,60.95L77.62,60.95z"/>
		</g>
	</g>
	<g>
		<g>
			<path class="st2" d="M79.68,48.21c0.56,1.47,1.12,2.95,1.67,4.42c0.35,0.92,3.21,0.05,2.9-0.78c-0.56-1.47-1.12-2.95-1.67-4.42
				C82.23,46.51,79.36,47.38,79.68,48.21L79.68,48.21z"/>
		</g>
	</g>
	<g>
		<g>
			<path class="st2" d="M116,61.57c-0.14,1.57-0.28,3.14-0.42,4.71c-0.09,1.05,2.81,0.48,2.89-0.41c0.14-1.57,0.28-3.14,0.42-4.71
				C118.98,60.12,116.08,60.69,116,61.57L116,61.57z"/>
		</g>
	</g>
	<g>
		<g>
			<path class="st2" d="M128.93,73.04c-0.73,1.4-1.47,2.79-2.2,4.19c-0.3,0.56,1,0.55,1.22,0.52c0.62-0.09,1.35-0.34,1.66-0.93
				c0.73-1.4,1.47-2.79,2.2-4.19c0.3-0.56-1-0.55-1.22-0.52C129.97,72.2,129.23,72.45,128.93,73.04L128.93,73.04z"/>
		</g>
	</g>
	<g>
		<g>
			<path class="st2" d="M73.04,75.6c0.56,1.47,1.12,2.95,1.67,4.42c0.35,0.92,3.21,0.05,2.9-0.78c-0.56-1.47-1.12-2.95-1.67-4.42
				C75.59,73.9,72.72,74.77,73.04,75.6L73.04,75.6z"/>
		</g>
	</g>
	<g>
		<g>
			<path class="st2" d="M91.41,53.71c0.38,1.84,0.75,3.69,1.13,5.53c0.28,1.35,3.18,0.61,2.9-0.78c-0.38-1.84-0.75-3.69-1.13-5.53
				C94.03,51.58,91.13,52.33,91.41,53.71L91.41,53.71z"/>
		</g>
	</g>
	<g>
		<g>
			<path class="st2" d="M102.39,45.98c0,1.29,0,2.58,0,3.87c0,0.52,2.9,0.09,2.9-0.78c0-1.29,0-2.58,0-3.87
				C105.29,44.69,102.39,45.11,102.39,45.98L102.39,45.98z"/>
		</g>
	</g>
	<g>
		<g>
			<path class="st2" d="M114.56,31.6c0,0.92,0,1.84,0,2.77c0,0.75,2.9,0.25,2.9-0.78c0-0.92,0-1.84,0-2.77
				C117.46,30.07,114.56,30.57,114.56,31.6L114.56,31.6z"/>
		</g>
	</g>
	<g>
		<g>
			<path class="st2" d="M114.56,49.3c0,0.92,0,1.84,0,2.77c0,0.59,2.9,0.14,2.9-0.78c0-0.92,0-1.84,0-2.77
				C117.46,47.94,114.56,48.39,114.56,49.3L114.56,49.3z"/>
		</g>
	</g>
	<g>
		<g>
			<path class="st2" d="M131.46,48.38c-0.21,1.69-0.85,3.22-1.98,4.49c-0.43,0.48-0.29,1,0.32,1.19c0.62,0.2,1.61-0.05,2.05-0.55
				c1.37-1.55,2.27-3.38,2.53-5.44C134.54,46.78,131.6,47.25,131.46,48.38L131.46,48.38z"/>
		</g>
	</g>
	<g>
		<g>
			<path class="st2" d="M144.49,44.09c-0.36,1.3-1.06,2.42-2.03,3.35c-0.48,0.46-0.24,1.06,0.34,1.25c0.69,0.23,1.55-0.07,2.05-0.55
				c1.25-1.2,2.1-2.67,2.56-4.33c0.19-0.68-0.86-0.86-1.3-0.82C145.45,43.05,144.68,43.41,144.49,44.09L144.49,44.09z"/>
		</g>
	</g>
	<g>
		<g>
			<path class="st2" d="M138.36,58.34c-1.29,0.92-2.58,1.85-3.87,2.77c-0.49,0.35-0.74,1-0.18,1.41c0.57,0.41,1.55,0.17,2.07-0.2
				c1.29-0.92,2.58-1.85,3.87-2.77c0.49-0.35,0.74-1,0.18-1.41C139.86,57.73,138.88,57.97,138.36,58.34L138.36,58.34z"/>
		</g>
	</g>
	<g>
		<g>
			<path class="st2" d="M102.38,63.25c0.1,1.58,0.2,3.17,0.3,4.75c0.08,1.22,2.98,0.55,2.9-0.78c-0.1-1.58-0.2-3.17-0.3-4.75
				C105.2,61.26,102.29,61.92,102.38,63.25L102.38,63.25z"/>
		</g>
	</g>
	<g>
		<g>
			<path class="st2" d="M152.39,56.72c-0.59,0.85-1.34,1.43-2.35,1.67c-0.61,0.15-1.35,0.75-1.16,1.45c0.2,0.73,1.13,0.82,1.73,0.67
				c1.69-0.41,3.24-1.4,4.23-2.84C155.9,56.14,153.2,55.55,152.39,56.72L152.39,56.72z"/>
		</g>
	</g>
	<g>
		<g>
			<path class="st2" d="M142.19,71.38c-0.18,0.55-0.36,1.11-0.54,1.66c-0.53,1.63,2.36,1.68,2.79,0.39
				c0.18-0.55,0.36-1.11,0.54-1.66C145.51,70.14,142.61,70.08,142.19,71.38L142.19,71.38z"/>
		</g>
	</g>
	<g>
		<g>
			<path class="st2" d="M159.65,76.35c-1.29,0.55-2.58,1.11-3.87,1.66c-0.51,0.22-1.1,0.84-0.71,1.41c0.41,0.58,1.43,0.39,1.96,0.17
				c1.29-0.55,2.58-1.11,3.87-1.66c0.51-0.22,1.1-0.84,0.71-1.41C161.2,75.93,160.18,76.12,159.65,76.35L159.65,76.35z"/>
		</g>
	</g>
	<g>
		<g>
			<path class="st2" d="M151.17,88.77c1.48-0.35,2.96-0.7,4.44-1.05c0.62-0.15,1.34-0.75,1.16-1.45c-0.18-0.73-1.14-0.82-1.73-0.68
				c-1.48,0.35-2.96,0.7-4.44,1.05c-0.62,0.15-1.34,0.75-1.16,1.45C149.62,88.83,150.58,88.91,151.17,88.77L151.17,88.77z"/>
		</g>
	</g>
	<g>
		<g>
			<path class="st2" d="M153.11,107.29c1.51,0.21,3.01,0.41,4.52,0.62c0.69,0.09,1.6-0.22,1.88-0.91c0.28-0.67-0.26-1.23-0.91-1.32
				c-1.51-0.21-3.01-0.41-4.52-0.62c-0.69-0.09-1.6,0.22-1.88,0.91C151.93,106.65,152.46,107.2,153.11,107.29L153.11,107.29z"/>
		</g>
	</g>
	<g>
		<g>
			<path class="st2" d="M151.59,123.1c1.29,0,2.58,0,3.87,0c0.68,0,1.48-0.15,2.05-0.55c0.42-0.29,0.43-0.64-0.17-0.64
				c-1.29,0-2.58,0-3.87,0c-0.68,0-1.48,0.15-2.05,0.55C151,122.74,150.99,123.1,151.59,123.1L151.59,123.1z"/>
		</g>
	</g>
	<g>
		<g>
			<path class="st2" d="M149.53,134.03c1.28,0.94,2.55,1.88,3.83,2.83c0.45,0.33,1.41,0.01,1.87-0.16c0.18-0.07,1.28-0.52,0.86-0.83
				c-1.28-0.94-2.55-1.88-3.83-2.83c-0.45-0.33-1.41-0.01-1.87,0.16C150.22,133.26,149.12,133.72,149.53,134.03L149.53,134.03z"/>
		</g>
	</g>
	<g>
		<g>
			<path class="st2" d="M140.98,85.55c1.06-1.18,2.12-2.36,3.18-3.54c0.42-0.47-0.38-0.51-0.69-0.48c-0.58,0.04-1.52,0.23-1.94,0.69
				c-1.06,1.18-2.12,2.36-3.18,3.54c-0.42,0.47,0.38,0.51,0.69,0.48C139.62,86.2,140.56,86.02,140.98,85.55L140.98,85.55z"/>
		</g>
	</g>
</g>
</svg>
